<?xml version="1.0" encoding="UTF-8"?>
<svg width="99px" height="700px" viewBox="0 0 99 700" version="1.1" xmlns="http://www.w3.org/2000/svg" xmlns:xlink="http://www.w3.org/1999/xlink">
    <title>bg-section-3</title>
    <g id="Page-1" stroke="none" stroke-width="1" fill="none" fill-rule="evenodd" opacity="0.37">
        <g id="1a.-beranda" transform="translate(-1267.000000, -1699.000000)" fill="#937BFF">
            <g id="bg-section-3" transform="translate(1267.000000, 1699.000000)">
                <path d="M97.4994129,3 C98.3283757,3 99,2.3295499 99,1.50058708 C99,0.671624266 98.3283757,0 97.4994129,0 C96.6716243,0 96,0.671624266 96,1.50058708 C96,2.3295499 96.6716243,3 97.4994129,3" id="Fill-175" transform="translate(97.500000, 1.500000) scale(-1, 1) translate(-97.500000, -1.500000) "></path>
                <path d="M72.5,3 C73.3274648,3 74,2.3295499 74,1.50058708 C74,0.671624266 73.3274648,0 72.5,0 C71.6713615,0 71,0.671624266 71,1.50058708 C71,2.3295499 71.6713615,3 72.5,3" id="Fill-176" transform="translate(72.500000, 1.500000) scale(-1, 1) translate(-72.500000, -1.500000) "></path>
                <path d="M47.5,3 C48.3286385,3 49,2.3295499 49,1.50058708 C49,0.671624266 48.3286385,0 47.5,0 C46.6725352,0 46,0.671624266 46,1.50058708 C46,2.3295499 46.6725352,3 47.5,3" id="Fill-177" transform="translate(47.500000, 1.500000) scale(-1, 1) translate(-47.500000, -1.500000) "></path>
                <path d="M21.5,3 C22.3286385,3 23,2.3295499 23,1.50058708 C23,0.671624266 22.3286385,0 21.5,0 C20.6713615,0 20,0.671624266 20,1.50058708 C20,2.3295499 20.6713615,3 21.5,3" id="Fill-178" transform="translate(21.500000, 1.500000) scale(-1, 1) translate(-21.500000, -1.500000) "></path>
                <path d="M1.5,3.13207547 C2.3286385,3.13207547 3,2.46162537 3,1.63266256 C3,0.803699738 2.3286385,0.132075472 1.5,0.132075472 C0.671361502,0.132075472 0,0.803699738 0,1.63266256 C0,2.46162537 0.671361502,3.13207547 1.5,3.13207547" id="Fill-179" transform="translate(1.500000, 1.632075) scale(-1, 1) translate(-1.500000, -1.632075) "></path>
                <path d="M85.5,27 C86.3286385,27 87,26.3274648 87,25.5 C87,24.6713615 86.3286385,24 85.5,24 C84.6713615,24 84,24.6713615 84,25.5 C84,26.3274648 84.6713615,27 85.5,27" id="Fill-196" transform="translate(85.500000, 25.500000) scale(-1, 1) translate(-85.500000, -25.500000) "></path>
                <path d="M60.5,27 C61.3286385,27 62,26.3274648 62,25.5 C62,24.6713615 61.3286385,24 60.5,24 C59.6713615,24 59,24.6713615 59,25.5 C59,26.3274648 59.6713615,27 60.5,27" id="Fill-197" transform="translate(60.500000, 25.500000) scale(-1, 1) translate(-60.500000, -25.500000) "></path>
                <path d="M35.4994129,27 C36.3283757,27 37,26.3274648 37,25.5 C37,24.6713615 36.3283757,24 35.4994129,24 C34.6716243,24 34,24.6713615 34,25.5 C34,26.3274648 34.6716243,27 35.4994129,27" id="Fill-198" transform="translate(35.500000, 25.500000) scale(-1, 1) translate(-35.500000, -25.500000) "></path>
                <path d="M11.5,27 C12.3274648,27 13,26.3274648 13,25.5 C13,24.6713615 12.3274648,24 11.5,24 C10.6713615,24 10,24.6713615 10,25.5 C10,26.3274648 10.6713615,27 11.5,27" id="Fill-199" transform="translate(11.500000, 25.500000) scale(-1, 1) translate(-11.500000, -25.500000) "></path>
                <path d="M97.4994129,51 C98.3283757,51 99,50.3274648 99,49.5 C99,48.6713615 98.3283757,48 97.4994129,48 C96.6716243,48 96,48.6713615 96,49.5 C96,50.3274648 96.6716243,51 97.4994129,51" id="Fill-215" transform="translate(97.500000, 49.500000) scale(-1, 1) translate(-97.500000, -49.500000) "></path>
                <path d="M72.5,51 C73.3274648,51 74,50.3274648 74,49.5 C74,48.6713615 73.3274648,48 72.5,48 C71.6713615,48 71,48.6713615 71,49.5 C71,50.3274648 71.6713615,51 72.5,51" id="Fill-216" transform="translate(72.500000, 49.500000) scale(-1, 1) translate(-72.500000, -49.500000) "></path>
                <path d="M47.5,51 C48.3286385,51 49,50.3274648 49,49.5 C49,48.6713615 48.3286385,48 47.5,48 C46.6725352,48 46,48.6713615 46,49.5 C46,50.3274648 46.6725352,51 47.5,51" id="Fill-217" transform="translate(47.500000, 49.500000) scale(-1, 1) translate(-47.500000, -49.500000) "></path>
                <path d="M21.5,51 C22.3286385,51 23,50.3274648 23,49.5 C23,48.6713615 22.3286385,48 21.5,48 C20.6713615,48 20,48.6713615 20,49.5 C20,50.3274648 20.6713615,51 21.5,51" id="Fill-218" transform="translate(21.500000, 49.500000) scale(-1, 1) translate(-21.500000, -49.500000) "></path>
                <path d="M1.5,51.1320755 C2.3286385,51.1320755 3,50.4595403 3,49.6320755 C3,48.803437 2.3286385,48.1320755 1.5,48.1320755 C0.671361502,48.1320755 0,48.803437 0,49.6320755 C0,50.4595403 0.671361502,51.1320755 1.5,51.1320755" id="Fill-219" transform="translate(1.500000, 49.632075) scale(-1, 1) translate(-1.500000, -49.632075) "></path>
                <path d="M85.5,78 C86.3286385,78 87,77.3274648 87,76.5 C87,75.6713615 86.3286385,75 85.5,75 C84.6713615,75 84,75.6713615 84,76.5 C84,77.3274648 84.6713615,78 85.5,78" id="Fill-236" transform="translate(85.500000, 76.500000) scale(-1, 1) translate(-85.500000, -76.500000) "></path>
                <path d="M60.5,78 C61.3286385,78 62,77.3274648 62,76.5 C62,75.6713615 61.3286385,75 60.5,75 C59.6713615,75 59,75.6713615 59,76.5 C59,77.3274648 59.6713615,78 60.5,78" id="Fill-237" transform="translate(60.500000, 76.500000) scale(-1, 1) translate(-60.500000, -76.500000) "></path>
                <path d="M35.4994129,78 C36.3283757,78 37,77.3274648 37,76.5 C37,75.6713615 36.3283757,75 35.4994129,75 C34.6716243,75 34,75.6713615 34,76.5 C34,77.3274648 34.6716243,78 35.4994129,78" id="Fill-238" transform="translate(35.500000, 76.500000) scale(-1, 1) translate(-35.500000, -76.500000) "></path>
                <path d="M11.5,78 C12.3274648,78 13,77.3274648 13,76.5 C13,75.6713615 12.3274648,75 11.5,75 C10.6713615,75 10,75.6713615 10,76.5 C10,77.3274648 10.6713615,78 11.5,78" id="Fill-239" transform="translate(11.500000, 76.500000) scale(-1, 1) translate(-11.500000, -76.500000) "></path>
                <path d="M97.4994129,102 C98.3283757,102 99,101.32955 99,100.500587 C99,99.6716243 98.3283757,99 97.4994129,99 C96.6716243,99 96,99.6716243 96,100.500587 C96,101.32955 96.6716243,102 97.4994129,102" id="Fill-255" transform="translate(97.500000, 100.500000) scale(-1, 1) translate(-97.500000, -100.500000) "></path>
                <path d="M72.5,102 C73.3274648,102 74,101.32955 74,100.500587 C74,99.6716243 73.3274648,99 72.5,99 C71.6713615,99 71,99.6716243 71,100.500587 C71,101.32955 71.6713615,102 72.5,102" id="Fill-256" transform="translate(72.500000, 100.500000) scale(-1, 1) translate(-72.500000, -100.500000) "></path>
                <path d="M47.5,102 C48.3286385,102 49,101.32955 49,100.500587 C49,99.6716243 48.3286385,99 47.5,99 C46.6725352,99 46,99.6716243 46,100.500587 C46,101.32955 46.6725352,102 47.5,102" id="Fill-257" transform="translate(47.500000, 100.500000) scale(-1, 1) translate(-47.500000, -100.500000) "></path>
                <path d="M21.5,102 C22.3286385,102 23,101.32955 23,100.500587 C23,99.6716243 22.3286385,99 21.5,99 C20.6713615,99 20,99.6716243 20,100.500587 C20,101.32955 20.6713615,102 21.5,102" id="Fill-258" transform="translate(21.500000, 100.500000) scale(-1, 1) translate(-21.500000, -100.500000) "></path>
                <path d="M1.5,102.132075 C2.3286385,102.132075 3,101.461625 3,100.632663 C3,99.8036997 2.3286385,99.1320755 1.5,99.1320755 C0.671361502,99.1320755 0,99.8036997 0,100.632663 C0,101.461625 0.671361502,102.132075 1.5,102.132075" id="Fill-259" transform="translate(1.500000, 100.632075) scale(-1, 1) translate(-1.500000, -100.632075) "></path>
                <path d="M85.5,127 C86.3286385,127 87,126.32955 87,125.500587 C87,124.671624 86.3286385,124 85.5,124 C84.6713615,124 84,124.671624 84,125.500587 C84,126.32955 84.6713615,127 85.5,127" id="Fill-276" transform="translate(85.500000, 125.500000) scale(-1, 1) translate(-85.500000, -125.500000) "></path>
                <path d="M60.5,127 C61.3286385,127 62,126.32955 62,125.500587 C62,124.671624 61.3286385,124 60.5,124 C59.6713615,124 59,124.671624 59,125.500587 C59,126.32955 59.6713615,127 60.5,127" id="Fill-277" transform="translate(60.500000, 125.500000) scale(-1, 1) translate(-60.500000, -125.500000) "></path>
                <path d="M35.4994129,127 C36.3283757,127 37,126.32955 37,125.500587 C37,124.671624 36.3283757,124 35.4994129,124 C34.6716243,124 34,124.671624 34,125.500587 C34,126.32955 34.6716243,127 35.4994129,127" id="Fill-278" transform="translate(35.500000, 125.500000) scale(-1, 1) translate(-35.500000, -125.500000) "></path>
                <path d="M11.5,127 C12.3274648,127 13,126.32955 13,125.500587 C13,124.671624 12.3274648,124 11.5,124 C10.6713615,124 10,124.671624 10,125.500587 C10,126.32955 10.6713615,127 11.5,127" id="Fill-279" transform="translate(11.500000, 125.500000) scale(-1, 1) translate(-11.500000, -125.500000) "></path>
                <path d="M97.4994129,153 C98.3283757,153 99,152.327465 99,151.5 C99,150.671362 98.3283757,150 97.4994129,150 C96.6716243,150 96,150.671362 96,151.5 C96,152.327465 96.6716243,153 97.4994129,153" id="Fill-295" transform="translate(97.500000, 151.500000) scale(-1, 1) translate(-97.500000, -151.500000) "></path>
                <path d="M72.5,153 C73.3274648,153 74,152.327465 74,151.5 C74,150.671362 73.3274648,150 72.5,150 C71.6713615,150 71,150.671362 71,151.5 C71,152.327465 71.6713615,153 72.5,153" id="Fill-296" transform="translate(72.500000, 151.500000) scale(-1, 1) translate(-72.500000, -151.500000) "></path>
                <path d="M47.5,153 C48.3286385,153 49,152.327465 49,151.5 C49,150.671362 48.3286385,150 47.5,150 C46.6725352,150 46,150.671362 46,151.5 C46,152.327465 46.6725352,153 47.5,153" id="Fill-297" transform="translate(47.500000, 151.500000) scale(-1, 1) translate(-47.500000, -151.500000) "></path>
                <path d="M21.5,153 C22.3286385,153 23,152.327465 23,151.5 C23,150.671362 22.3286385,150 21.5,150 C20.6713615,150 20,150.671362 20,151.5 C20,152.327465 20.6713615,153 21.5,153" id="Fill-298" transform="translate(21.500000, 151.500000) scale(-1, 1) translate(-21.500000, -151.500000) "></path>
                <path d="M1.5,153.132075 C2.3286385,153.132075 3,152.45954 3,151.632075 C3,150.803437 2.3286385,150.132075 1.5,150.132075 C0.671361502,150.132075 0,150.803437 0,151.632075 C0,152.45954 0.671361502,153.132075 1.5,153.132075" id="Fill-299" transform="translate(1.500000, 151.632075) scale(-1, 1) translate(-1.500000, -151.632075) "></path>
                <path d="M85.5,178 C86.3286385,178 87,177.327465 87,176.5 C87,175.671362 86.3286385,175 85.5,175 C84.6713615,175 84,175.671362 84,176.5 C84,177.327465 84.6713615,178 85.5,178" id="Fill-316" transform="translate(85.500000, 176.500000) scale(-1, 1) translate(-85.500000, -176.500000) "></path>
                <path d="M60.5,178 C61.3286385,178 62,177.327465 62,176.5 C62,175.671362 61.3286385,175 60.5,175 C59.6713615,175 59,175.671362 59,176.5 C59,177.327465 59.6713615,178 60.5,178" id="Fill-317" transform="translate(60.500000, 176.500000) scale(-1, 1) translate(-60.500000, -176.500000) "></path>
                <path d="M35.4994129,178 C36.3283757,178 37,177.327465 37,176.5 C37,175.671362 36.3283757,175 35.4994129,175 C34.6716243,175 34,175.671362 34,176.5 C34,177.327465 34.6716243,178 35.4994129,178" id="Fill-318" transform="translate(35.500000, 176.500000) scale(-1, 1) translate(-35.500000, -176.500000) "></path>
                <path d="M11.5,178 C12.3274648,178 13,177.327465 13,176.5 C13,175.671362 12.3274648,175 11.5,175 C10.6713615,175 10,175.671362 10,176.5 C10,177.327465 10.6713615,178 11.5,178" id="Fill-319" transform="translate(11.500000, 176.500000) scale(-1, 1) translate(-11.500000, -176.500000) "></path>
                <path d="M97.4994129,202 C98.3283757,202 99,201.327465 99,200.5 C99,199.671362 98.3283757,199 97.4994129,199 C96.6716243,199 96,199.671362 96,200.5 C96,201.327465 96.6716243,202 97.4994129,202" id="Fill-335" transform="translate(97.500000, 200.500000) scale(-1, 1) translate(-97.500000, -200.500000) "></path>
                <path d="M72.5,202 C73.3274648,202 74,201.327465 74,200.5 C74,199.671362 73.3274648,199 72.5,199 C71.6713615,199 71,199.671362 71,200.5 C71,201.327465 71.6713615,202 72.5,202" id="Fill-336" transform="translate(72.500000, 200.500000) scale(-1, 1) translate(-72.500000, -200.500000) "></path>
                <path d="M47.5,202 C48.3286385,202 49,201.327465 49,200.5 C49,199.671362 48.3286385,199 47.5,199 C46.6725352,199 46,199.671362 46,200.5 C46,201.327465 46.6725352,202 47.5,202" id="Fill-337" transform="translate(47.500000, 200.500000) scale(-1, 1) translate(-47.500000, -200.500000) "></path>
                <path d="M21.5,202 C22.3286385,202 23,201.327465 23,200.5 C23,199.671362 22.3286385,199 21.5,199 C20.6713615,199 20,199.671362 20,200.5 C20,201.327465 20.6713615,202 21.5,202" id="Fill-338" transform="translate(21.500000, 200.500000) scale(-1, 1) translate(-21.500000, -200.500000) "></path>
                <path d="M1.5,202.132075 C2.3286385,202.132075 3,201.45954 3,200.632075 C3,199.803437 2.3286385,199.132075 1.5,199.132075 C0.671361502,199.132075 0,199.803437 0,200.632075 C0,201.45954 0.671361502,202.132075 1.5,202.132075" id="Fill-339" transform="translate(1.500000, 200.632075) scale(-1, 1) translate(-1.500000, -200.632075) "></path>
                <path d="M85.5,229 C86.3286385,229 87,228.32955 87,227.500587 C87,226.671624 86.3286385,226 85.5,226 C84.6713615,226 84,226.671624 84,227.500587 C84,228.32955 84.6713615,229 85.5,229" id="Fill-356" transform="translate(85.500000, 227.500000) scale(-1, 1) translate(-85.500000, -227.500000) "></path>
                <path d="M60.5,229 C61.3286385,229 62,228.32955 62,227.500587 C62,226.671624 61.3286385,226 60.5,226 C59.6713615,226 59,226.671624 59,227.500587 C59,228.32955 59.6713615,229 60.5,229" id="Fill-357" transform="translate(60.500000, 227.500000) scale(-1, 1) translate(-60.500000, -227.500000) "></path>
                <path d="M35.4994129,229 C36.3283757,229 37,228.32955 37,227.500587 C37,226.671624 36.3283757,226 35.4994129,226 C34.6716243,226 34,226.671624 34,227.500587 C34,228.32955 34.6716243,229 35.4994129,229" id="Fill-358" transform="translate(35.500000, 227.500000) scale(-1, 1) translate(-35.500000, -227.500000) "></path>
                <path d="M11.5,229 C12.3274648,229 13,228.32955 13,227.500587 C13,226.671624 12.3274648,226 11.5,226 C10.6713615,226 10,226.671624 10,227.500587 C10,228.32955 10.6713615,229 11.5,229" id="Fill-359" transform="translate(11.500000, 227.500000) scale(-1, 1) translate(-11.500000, -227.500000) "></path>
                <path d="M97.4994129,253 C98.3283757,253 99,252.32955 99,251.500587 C99,250.671624 98.3283757,250 97.4994129,250 C96.6716243,250 96,250.671624 96,251.500587 C96,252.32955 96.6716243,253 97.4994129,253" id="Fill-375" transform="translate(97.500000, 251.500000) scale(-1, 1) translate(-97.500000, -251.500000) "></path>
                <path d="M72.5,253 C73.3274648,253 74,252.32955 74,251.500587 C74,250.671624 73.3274648,250 72.5,250 C71.6713615,250 71,250.671624 71,251.500587 C71,252.32955 71.6713615,253 72.5,253" id="Fill-376" transform="translate(72.500000, 251.500000) scale(-1, 1) translate(-72.500000, -251.500000) "></path>
                <path d="M47.5,253 C48.3286385,253 49,252.32955 49,251.500587 C49,250.671624 48.3286385,250 47.5,250 C46.6725352,250 46,250.671624 46,251.500587 C46,252.32955 46.6725352,253 47.5,253" id="Fill-377" transform="translate(47.500000, 251.500000) scale(-1, 1) translate(-47.500000, -251.500000) "></path>
                <path d="M21.5,253 C22.3286385,253 23,252.32955 23,251.500587 C23,250.671624 22.3286385,250 21.5,250 C20.6713615,250 20,250.671624 20,251.500587 C20,252.32955 20.6713615,253 21.5,253" id="Fill-378" transform="translate(21.500000, 251.500000) scale(-1, 1) translate(-21.500000, -251.500000) "></path>
                <path d="M1.5,253.132075 C2.3286385,253.132075 3,252.461625 3,251.632663 C3,250.8037 2.3286385,250.132075 1.5,250.132075 C0.671361502,250.132075 0,250.8037 0,251.632663 C0,252.461625 0.671361502,253.132075 1.5,253.132075" id="Fill-379" transform="translate(1.500000, 251.632075) scale(-1, 1) translate(-1.500000, -251.632075) "></path>
                <path d="M85.5,272 C86.3286385,272 87,271.327465 87,270.5 C87,269.671362 86.3286385,269 85.5,269 C84.6713615,269 84,269.671362 84,270.5 C84,271.327465 84.6713615,272 85.5,272" id="Fill-36" transform="translate(85.500000, 270.500000) scale(-1, 1) translate(-85.500000, -270.500000) "></path>
                <path d="M60.5,272 C61.3286385,272 62,271.327465 62,270.5 C62,269.671362 61.3286385,269 60.5,269 C59.6713615,269 59,269.671362 59,270.5 C59,271.327465 59.6713615,272 60.5,272" id="Fill-37" transform="translate(60.500000, 270.500000) scale(-1, 1) translate(-60.500000, -270.500000) "></path>
                <path d="M35.4994129,272 C36.3283757,272 37,271.327465 37,270.5 C37,269.671362 36.3283757,269 35.4994129,269 C34.6716243,269 34,269.671362 34,270.5 C34,271.327465 34.6716243,272 35.4994129,272" id="Fill-38" transform="translate(35.500000, 270.500000) scale(-1, 1) translate(-35.500000, -270.500000) "></path>
                <path d="M11.5,272 C12.3274648,272 13,271.327465 13,270.5 C13,269.671362 12.3274648,269 11.5,269 C10.6713615,269 10,269.671362 10,270.5 C10,271.327465 10.6713615,272 11.5,272" id="Fill-39" transform="translate(11.500000, 270.500000) scale(-1, 1) translate(-11.500000, -270.500000) "></path>
                <path d="M97.4994129,298 C98.3283757,298 99,297.32955 99,296.500587 C99,295.671624 98.3283757,295 97.4994129,295 C96.6716243,295 96,295.671624 96,296.500587 C96,297.32955 96.6716243,298 97.4994129,298" id="Fill-55" transform="translate(97.500000, 296.500000) scale(-1, 1) translate(-97.500000, -296.500000) "></path>
                <path d="M72.5,298 C73.3274648,298 74,297.32955 74,296.500587 C74,295.671624 73.3274648,295 72.5,295 C71.6713615,295 71,295.671624 71,296.500587 C71,297.32955 71.6713615,298 72.5,298" id="Fill-56" transform="translate(72.500000, 296.500000) scale(-1, 1) translate(-72.500000, -296.500000) "></path>
                <path d="M47.5,298 C48.3286385,298 49,297.32955 49,296.500587 C49,295.671624 48.3286385,295 47.5,295 C46.6725352,295 46,295.671624 46,296.500587 C46,297.32955 46.6725352,298 47.5,298" id="Fill-57" transform="translate(47.500000, 296.500000) scale(-1, 1) translate(-47.500000, -296.500000) "></path>
                <path d="M21.5,298 C22.3286385,298 23,297.32955 23,296.500587 C23,295.671624 22.3286385,295 21.5,295 C20.6713615,295 20,295.671624 20,296.500587 C20,297.32955 20.6713615,298 21.5,298" id="Fill-58" transform="translate(21.500000, 296.500000) scale(-1, 1) translate(-21.500000, -296.500000) "></path>
                <path d="M1.5,298.132075 C2.3286385,298.132075 3,297.461625 3,296.632663 C3,295.8037 2.3286385,295.132075 1.5,295.132075 C0.671361502,295.132075 0,295.8037 0,296.632663 C0,297.461625 0.671361502,298.132075 1.5,298.132075" id="Fill-59" transform="translate(1.500000, 296.632075) scale(-1, 1) translate(-1.500000, -296.632075) "></path>
                <path d="M85.5,323 C86.3286385,323 87,322.328376 87,321.500587 C87,320.671624 86.3286385,320 85.5,320 C84.6713615,320 84,320.671624 84,321.500587 C84,322.328376 84.6713615,323 85.5,323" id="Fill-76" transform="translate(85.500000, 321.500000) scale(-1, 1) translate(-85.500000, -321.500000) "></path>
                <path d="M60.5,323 C61.3286385,323 62,322.328376 62,321.500587 C62,320.671624 61.3286385,320 60.5,320 C59.6713615,320 59,320.671624 59,321.500587 C59,322.328376 59.6713615,323 60.5,323" id="Fill-77" transform="translate(60.500000, 321.500000) scale(-1, 1) translate(-60.500000, -321.500000) "></path>
                <path d="M35.4994129,323 C36.3283757,323 37,322.328376 37,321.500587 C37,320.671624 36.3283757,320 35.4994129,320 C34.6716243,320 34,320.671624 34,321.500587 C34,322.328376 34.6716243,323 35.4994129,323" id="Fill-78" transform="translate(35.500000, 321.500000) scale(-1, 1) translate(-35.500000, -321.500000) "></path>
                <path d="M11.5,323 C12.3274648,323 13,322.328376 13,321.500587 C13,320.671624 12.3274648,320 11.5,320 C10.6713615,320 10,320.671624 10,321.500587 C10,322.328376 10.6713615,323 11.5,323" id="Fill-79" transform="translate(11.500000, 321.500000) scale(-1, 1) translate(-11.500000, -321.500000) "></path>
                <path d="M97.4994129,348 C98.3283757,348 99,347.327465 99,346.5 C99,345.671362 98.3283757,345 97.4994129,345 C96.6716243,345 96,345.671362 96,346.5 C96,347.327465 96.6716243,348 97.4994129,348" id="Fill-95" transform="translate(97.500000, 346.500000) scale(-1, 1) translate(-97.500000, -346.500000) "></path>
                <path d="M72.5,348 C73.3274648,348 74,347.327465 74,346.5 C74,345.671362 73.3274648,345 72.5,345 C71.6713615,345 71,345.671362 71,346.5 C71,347.327465 71.6713615,348 72.5,348" id="Fill-96" transform="translate(72.500000, 346.500000) scale(-1, 1) translate(-72.500000, -346.500000) "></path>
                <path d="M47.5,348 C48.3286385,348 49,347.327465 49,346.5 C49,345.671362 48.3286385,345 47.5,345 C46.6725352,345 46,345.671362 46,346.5 C46,347.327465 46.6725352,348 47.5,348" id="Fill-97" transform="translate(47.500000, 346.500000) scale(-1, 1) translate(-47.500000, -346.500000) "></path>
                <path d="M21.5,348 C22.3286385,348 23,347.327465 23,346.5 C23,345.671362 22.3286385,345 21.5,345 C20.6713615,345 20,345.671362 20,346.5 C20,347.327465 20.6713615,348 21.5,348" id="Fill-98" transform="translate(21.500000, 346.500000) scale(-1, 1) translate(-21.500000, -346.500000) "></path>
                <path d="M1.5,348.132075 C2.3286385,348.132075 3,347.45954 3,346.632075 C3,345.803437 2.3286385,345.132075 1.5,345.132075 C0.671361502,345.132075 0,345.803437 0,346.632075 C0,347.45954 0.671361502,348.132075 1.5,348.132075" id="Fill-99" transform="translate(1.500000, 346.632075) scale(-1, 1) translate(-1.500000, -346.632075) "></path>
                <path d="M85.5,373 C86.3286385,373 87,372.327465 87,371.5 C87,370.671362 86.3286385,370 85.5,370 C84.6713615,370 84,370.671362 84,371.5 C84,372.327465 84.6713615,373 85.5,373" id="Fill-116" transform="translate(85.500000, 371.500000) scale(-1, 1) translate(-85.500000, -371.500000) "></path>
                <path d="M60.5,373 C61.3286385,373 62,372.327465 62,371.5 C62,370.671362 61.3286385,370 60.5,370 C59.6713615,370 59,370.671362 59,371.5 C59,372.327465 59.6713615,373 60.5,373" id="Fill-117" transform="translate(60.500000, 371.500000) scale(-1, 1) translate(-60.500000, -371.500000) "></path>
                <path d="M35.4994129,373 C36.3283757,373 37,372.327465 37,371.5 C37,370.671362 36.3283757,370 35.4994129,370 C34.6716243,370 34,370.671362 34,371.5 C34,372.327465 34.6716243,373 35.4994129,373" id="Fill-118" transform="translate(35.500000, 371.500000) scale(-1, 1) translate(-35.500000, -371.500000) "></path>
                <path d="M11.5,373 C12.3274648,373 13,372.327465 13,371.5 C13,370.671362 12.3274648,370 11.5,370 C10.6713615,370 10,370.671362 10,371.5 C10,372.327465 10.6713615,373 11.5,373" id="Fill-119" transform="translate(11.500000, 371.500000) scale(-1, 1) translate(-11.500000, -371.500000) "></path>
                <path d="M97.4994129,398 C98.3283757,398 99,397.328376 99,396.500587 C99,395.671624 98.3283757,395 97.4994129,395 C96.6716243,395 96,395.671624 96,396.500587 C96,397.328376 96.6716243,398 97.4994129,398" id="Fill-135" transform="translate(97.500000, 396.500000) scale(-1, 1) translate(-97.500000, -396.500000) "></path>
                <path d="M72.5,398 C73.3274648,398 74,397.328376 74,396.500587 C74,395.671624 73.3274648,395 72.5,395 C71.6713615,395 71,395.671624 71,396.500587 C71,397.328376 71.6713615,398 72.5,398" id="Fill-136" transform="translate(72.500000, 396.500000) scale(-1, 1) translate(-72.500000, -396.500000) "></path>
                <path d="M47.5,398 C48.3286385,398 49,397.328376 49,396.500587 C49,395.671624 48.3286385,395 47.5,395 C46.6725352,395 46,395.671624 46,396.500587 C46,397.328376 46.6725352,398 47.5,398" id="Fill-137" transform="translate(47.500000, 396.500000) scale(-1, 1) translate(-47.500000, -396.500000) "></path>
                <path d="M21.5,398 C22.3286385,398 23,397.328376 23,396.500587 C23,395.671624 22.3286385,395 21.5,395 C20.6713615,395 20,395.671624 20,396.500587 C20,397.328376 20.6713615,398 21.5,398" id="Fill-138" transform="translate(21.500000, 396.500000) scale(-1, 1) translate(-21.500000, -396.500000) "></path>
                <path d="M1.5,398.132075 C2.3286385,398.132075 3,397.460451 3,396.632663 C3,395.8037 2.3286385,395.132075 1.5,395.132075 C0.671361502,395.132075 0,395.8037 0,396.632663 C0,397.460451 0.671361502,398.132075 1.5,398.132075" id="Fill-139" transform="translate(1.500000, 396.632075) scale(-1, 1) translate(-1.500000, -396.632075) "></path>
                <path d="M85.5,423 C86.3286385,423 87,422.32955 87,421.500587 C87,420.671624 86.3286385,420 85.5,420 C84.6713615,420 84,420.671624 84,421.500587 C84,422.32955 84.6713615,423 85.5,423" id="Fill-156" transform="translate(85.500000, 421.500000) scale(-1, 1) translate(-85.500000, -421.500000) "></path>
                <path d="M60.5,423 C61.3286385,423 62,422.32955 62,421.500587 C62,420.671624 61.3286385,420 60.5,420 C59.6713615,420 59,420.671624 59,421.500587 C59,422.32955 59.6713615,423 60.5,423" id="Fill-157" transform="translate(60.500000, 421.500000) scale(-1, 1) translate(-60.500000, -421.500000) "></path>
                <path d="M35.4994129,423 C36.3283757,423 37,422.32955 37,421.500587 C37,420.671624 36.3283757,420 35.4994129,420 C34.6716243,420 34,420.671624 34,421.500587 C34,422.32955 34.6716243,423 35.4994129,423" id="Fill-158" transform="translate(35.500000, 421.500000) scale(-1, 1) translate(-35.500000, -421.500000) "></path>
                <path d="M11.5,423 C12.3274648,423 13,422.32955 13,421.500587 C13,420.671624 12.3274648,420 11.5,420 C10.6713615,420 10,420.671624 10,421.500587 C10,422.32955 10.6713615,423 11.5,423" id="Fill-159" transform="translate(11.500000, 421.500000) scale(-1, 1) translate(-11.500000, -421.500000) "></path>
                <path d="M97.4994129,447 C98.3283757,447 99,446.32955 99,445.500587 C99,444.671624 98.3283757,444 97.4994129,444 C96.6716243,444 96,444.671624 96,445.500587 C96,446.32955 96.6716243,447 97.4994129,447" id="Fill-175" transform="translate(97.500000, 445.500000) scale(-1, 1) translate(-97.500000, -445.500000) "></path>
                <path d="M72.5,447 C73.3274648,447 74,446.32955 74,445.500587 C74,444.671624 73.3274648,444 72.5,444 C71.6713615,444 71,444.671624 71,445.500587 C71,446.32955 71.6713615,447 72.5,447" id="Fill-176" transform="translate(72.500000, 445.500000) scale(-1, 1) translate(-72.500000, -445.500000) "></path>
                <path d="M47.5,447 C48.3286385,447 49,446.32955 49,445.500587 C49,444.671624 48.3286385,444 47.5,444 C46.6725352,444 46,444.671624 46,445.500587 C46,446.32955 46.6725352,447 47.5,447" id="Fill-177" transform="translate(47.500000, 445.500000) scale(-1, 1) translate(-47.500000, -445.500000) "></path>
                <path d="M21.5,447 C22.3286385,447 23,446.32955 23,445.500587 C23,444.671624 22.3286385,444 21.5,444 C20.6713615,444 20,444.671624 20,445.500587 C20,446.32955 20.6713615,447 21.5,447" id="Fill-178" transform="translate(21.500000, 445.500000) scale(-1, 1) translate(-21.500000, -445.500000) "></path>
                <path d="M1.5,447.132075 C2.3286385,447.132075 3,446.461625 3,445.632663 C3,444.8037 2.3286385,444.132075 1.5,444.132075 C0.671361502,444.132075 0,444.8037 0,445.632663 C0,446.461625 0.671361502,447.132075 1.5,447.132075" id="Fill-179" transform="translate(1.500000, 445.632075) scale(-1, 1) translate(-1.500000, -445.632075) "></path>
                <path d="M85.5,474 C86.3286385,474 87,473.327465 87,472.5 C87,471.671362 86.3286385,471 85.5,471 C84.6713615,471 84,471.671362 84,472.5 C84,473.327465 84.6713615,474 85.5,474" id="Fill-196" transform="translate(85.500000, 472.500000) scale(-1, 1) translate(-85.500000, -472.500000) "></path>
                <path d="M60.5,474 C61.3286385,474 62,473.327465 62,472.5 C62,471.671362 61.3286385,471 60.5,471 C59.6713615,471 59,471.671362 59,472.5 C59,473.327465 59.6713615,474 60.5,474" id="Fill-197" transform="translate(60.500000, 472.500000) scale(-1, 1) translate(-60.500000, -472.500000) "></path>
                <path d="M35.4994129,474 C36.3283757,474 37,473.327465 37,472.5 C37,471.671362 36.3283757,471 35.4994129,471 C34.6716243,471 34,471.671362 34,472.5 C34,473.327465 34.6716243,474 35.4994129,474" id="Fill-198" transform="translate(35.500000, 472.500000) scale(-1, 1) translate(-35.500000, -472.500000) "></path>
                <path d="M11.5,474 C12.3274648,474 13,473.327465 13,472.5 C13,471.671362 12.3274648,471 11.5,471 C10.6713615,471 10,471.671362 10,472.5 C10,473.327465 10.6713615,474 11.5,474" id="Fill-199" transform="translate(11.500000, 472.500000) scale(-1, 1) translate(-11.500000, -472.500000) "></path>
                <path d="M97.4994129,498 C98.3283757,498 99,497.327465 99,496.5 C99,495.671362 98.3283757,495 97.4994129,495 C96.6716243,495 96,495.671362 96,496.5 C96,497.327465 96.6716243,498 97.4994129,498" id="Fill-215" transform="translate(97.500000, 496.500000) scale(-1, 1) translate(-97.500000, -496.500000) "></path>
                <path d="M72.5,498 C73.3274648,498 74,497.327465 74,496.5 C74,495.671362 73.3274648,495 72.5,495 C71.6713615,495 71,495.671362 71,496.5 C71,497.327465 71.6713615,498 72.5,498" id="Fill-216" transform="translate(72.500000, 496.500000) scale(-1, 1) translate(-72.500000, -496.500000) "></path>
                <path d="M47.5,498 C48.3286385,498 49,497.327465 49,496.5 C49,495.671362 48.3286385,495 47.5,495 C46.6725352,495 46,495.671362 46,496.5 C46,497.327465 46.6725352,498 47.5,498" id="Fill-217" transform="translate(47.500000, 496.500000) scale(-1, 1) translate(-47.500000, -496.500000) "></path>
                <path d="M21.5,498 C22.3286385,498 23,497.327465 23,496.5 C23,495.671362 22.3286385,495 21.5,495 C20.6713615,495 20,495.671362 20,496.5 C20,497.327465 20.6713615,498 21.5,498" id="Fill-218" transform="translate(21.500000, 496.500000) scale(-1, 1) translate(-21.500000, -496.500000) "></path>
                <path d="M1.5,498.132075 C2.3286385,498.132075 3,497.45954 3,496.632075 C3,495.803437 2.3286385,495.132075 1.5,495.132075 C0.671361502,495.132075 0,495.803437 0,496.632075 C0,497.45954 0.671361502,498.132075 1.5,498.132075" id="Fill-219" transform="translate(1.500000, 496.632075) scale(-1, 1) translate(-1.500000, -496.632075) "></path>
                <path d="M85.5,525 C86.3286385,525 87,524.327465 87,523.5 C87,522.671362 86.3286385,522 85.5,522 C84.6713615,522 84,522.671362 84,523.5 C84,524.327465 84.6713615,525 85.5,525" id="Fill-236" transform="translate(85.500000, 523.500000) scale(-1, 1) translate(-85.500000, -523.500000) "></path>
                <path d="M60.5,525 C61.3286385,525 62,524.327465 62,523.5 C62,522.671362 61.3286385,522 60.5,522 C59.6713615,522 59,522.671362 59,523.5 C59,524.327465 59.6713615,525 60.5,525" id="Fill-237" transform="translate(60.500000, 523.500000) scale(-1, 1) translate(-60.500000, -523.500000) "></path>
                <path d="M35.4994129,525 C36.3283757,525 37,524.327465 37,523.5 C37,522.671362 36.3283757,522 35.4994129,522 C34.6716243,522 34,522.671362 34,523.5 C34,524.327465 34.6716243,525 35.4994129,525" id="Fill-238" transform="translate(35.500000, 523.500000) scale(-1, 1) translate(-35.500000, -523.500000) "></path>
                <path d="M11.5,525 C12.3274648,525 13,524.327465 13,523.5 C13,522.671362 12.3274648,522 11.5,522 C10.6713615,522 10,522.671362 10,523.5 C10,524.327465 10.6713615,525 11.5,525" id="Fill-239" transform="translate(11.500000, 523.500000) scale(-1, 1) translate(-11.500000, -523.500000) "></path>
                <path d="M97.4994129,549 C98.3283757,549 99,548.32955 99,547.500587 C99,546.671624 98.3283757,546 97.4994129,546 C96.6716243,546 96,546.671624 96,547.500587 C96,548.32955 96.6716243,549 97.4994129,549" id="Fill-255" transform="translate(97.500000, 547.500000) scale(-1, 1) translate(-97.500000, -547.500000) "></path>
                <path d="M72.5,549 C73.3274648,549 74,548.32955 74,547.500587 C74,546.671624 73.3274648,546 72.5,546 C71.6713615,546 71,546.671624 71,547.500587 C71,548.32955 71.6713615,549 72.5,549" id="Fill-256" transform="translate(72.500000, 547.500000) scale(-1, 1) translate(-72.500000, -547.500000) "></path>
                <path d="M47.5,549 C48.3286385,549 49,548.32955 49,547.500587 C49,546.671624 48.3286385,546 47.5,546 C46.6725352,546 46,546.671624 46,547.500587 C46,548.32955 46.6725352,549 47.5,549" id="Fill-257" transform="translate(47.500000, 547.500000) scale(-1, 1) translate(-47.500000, -547.500000) "></path>
                <path d="M21.5,549 C22.3286385,549 23,548.32955 23,547.500587 C23,546.671624 22.3286385,546 21.5,546 C20.6713615,546 20,546.671624 20,547.500587 C20,548.32955 20.6713615,549 21.5,549" id="Fill-258" transform="translate(21.500000, 547.500000) scale(-1, 1) translate(-21.500000, -547.500000) "></path>
                <path d="M1.5,549.132075 C2.3286385,549.132075 3,548.461625 3,547.632663 C3,546.8037 2.3286385,546.132075 1.5,546.132075 C0.671361502,546.132075 0,546.8037 0,547.632663 C0,548.461625 0.671361502,549.132075 1.5,549.132075" id="Fill-259" transform="translate(1.500000, 547.632075) scale(-1, 1) translate(-1.500000, -547.632075) "></path>
                <path d="M85.5,574 C86.3286385,574 87,573.32955 87,572.500587 C87,571.671624 86.3286385,571 85.5,571 C84.6713615,571 84,571.671624 84,572.500587 C84,573.32955 84.6713615,574 85.5,574" id="Fill-276" transform="translate(85.500000, 572.500000) scale(-1, 1) translate(-85.500000, -572.500000) "></path>
                <path d="M60.5,574 C61.3286385,574 62,573.32955 62,572.500587 C62,571.671624 61.3286385,571 60.5,571 C59.6713615,571 59,571.671624 59,572.500587 C59,573.32955 59.6713615,574 60.5,574" id="Fill-277" transform="translate(60.500000, 572.500000) scale(-1, 1) translate(-60.500000, -572.500000) "></path>
                <path d="M35.4994129,574 C36.3283757,574 37,573.32955 37,572.500587 C37,571.671624 36.3283757,571 35.4994129,571 C34.6716243,571 34,571.671624 34,572.500587 C34,573.32955 34.6716243,574 35.4994129,574" id="Fill-278" transform="translate(35.500000, 572.500000) scale(-1, 1) translate(-35.500000, -572.500000) "></path>
                <path d="M11.5,574 C12.3274648,574 13,573.32955 13,572.500587 C13,571.671624 12.3274648,571 11.5,571 C10.6713615,571 10,571.671624 10,572.500587 C10,573.32955 10.6713615,574 11.5,574" id="Fill-279" transform="translate(11.500000, 572.500000) scale(-1, 1) translate(-11.500000, -572.500000) "></path>
                <path d="M97.4994129,599 C98.3283757,599 99,598.327465 99,597.5 C99,596.671362 98.3283757,596 97.4994129,596 C96.6716243,596 96,596.671362 96,597.5 C96,598.327465 96.6716243,599 97.4994129,599" id="Fill-295" transform="translate(97.500000, 597.500000) scale(-1, 1) translate(-97.500000, -597.500000) "></path>
                <path d="M72.5,599 C73.3274648,599 74,598.327465 74,597.5 C74,596.671362 73.3274648,596 72.5,596 C71.6713615,596 71,596.671362 71,597.5 C71,598.327465 71.6713615,599 72.5,599" id="Fill-296" transform="translate(72.500000, 597.500000) scale(-1, 1) translate(-72.500000, -597.500000) "></path>
                <path d="M47.5,599 C48.3286385,599 49,598.327465 49,597.5 C49,596.671362 48.3286385,596 47.5,596 C46.6725352,596 46,596.671362 46,597.5 C46,598.327465 46.6725352,599 47.5,599" id="Fill-297" transform="translate(47.500000, 597.500000) scale(-1, 1) translate(-47.500000, -597.500000) "></path>
                <path d="M21.5,599 C22.3286385,599 23,598.327465 23,597.5 C23,596.671362 22.3286385,596 21.5,596 C20.6713615,596 20,596.671362 20,597.5 C20,598.327465 20.6713615,599 21.5,599" id="Fill-298" transform="translate(21.500000, 597.500000) scale(-1, 1) translate(-21.500000, -597.500000) "></path>
                <path d="M1.5,599.132075 C2.3286385,599.132075 3,598.45954 3,597.632075 C3,596.803437 2.3286385,596.132075 1.5,596.132075 C0.671361502,596.132075 0,596.803437 0,597.632075 C0,598.45954 0.671361502,599.132075 1.5,599.132075" id="Fill-299" transform="translate(1.500000, 597.632075) scale(-1, 1) translate(-1.500000, -597.632075) "></path>
                <path d="M85.5,625 C86.3286385,625 87,624.327465 87,623.5 C87,622.671362 86.3286385,622 85.5,622 C84.6713615,622 84,622.671362 84,623.5 C84,624.327465 84.6713615,625 85.5,625" id="Fill-316" transform="translate(85.500000, 623.500000) scale(-1, 1) translate(-85.500000, -623.500000) "></path>
                <path d="M60.5,625 C61.3286385,625 62,624.327465 62,623.5 C62,622.671362 61.3286385,622 60.5,622 C59.6713615,622 59,622.671362 59,623.5 C59,624.327465 59.6713615,625 60.5,625" id="Fill-317" transform="translate(60.500000, 623.500000) scale(-1, 1) translate(-60.500000, -623.500000) "></path>
                <path d="M35.4994129,625 C36.3283757,625 37,624.327465 37,623.5 C37,622.671362 36.3283757,622 35.4994129,622 C34.6716243,622 34,622.671362 34,623.5 C34,624.327465 34.6716243,625 35.4994129,625" id="Fill-318" transform="translate(35.500000, 623.500000) scale(-1, 1) translate(-35.500000, -623.500000) "></path>
                <path d="M11.5,625 C12.3274648,625 13,624.327465 13,623.5 C13,622.671362 12.3274648,622 11.5,622 C10.6713615,622 10,622.671362 10,623.5 C10,624.327465 10.6713615,625 11.5,625" id="Fill-319" transform="translate(11.500000, 623.500000) scale(-1, 1) translate(-11.500000, -623.500000) "></path>
                <path d="M97.4994129,649 C98.3283757,649 99,648.327465 99,647.5 C99,646.671362 98.3283757,646 97.4994129,646 C96.6716243,646 96,646.671362 96,647.5 C96,648.327465 96.6716243,649 97.4994129,649" id="Fill-335" transform="translate(97.500000, 647.500000) scale(-1, 1) translate(-97.500000, -647.500000) "></path>
                <path d="M72.5,649 C73.3274648,649 74,648.327465 74,647.5 C74,646.671362 73.3274648,646 72.5,646 C71.6713615,646 71,646.671362 71,647.5 C71,648.327465 71.6713615,649 72.5,649" id="Fill-336" transform="translate(72.500000, 647.500000) scale(-1, 1) translate(-72.500000, -647.500000) "></path>
                <path d="M47.5,649 C48.3286385,649 49,648.327465 49,647.5 C49,646.671362 48.3286385,646 47.5,646 C46.6725352,646 46,646.671362 46,647.5 C46,648.327465 46.6725352,649 47.5,649" id="Fill-337" transform="translate(47.500000, 647.500000) scale(-1, 1) translate(-47.500000, -647.500000) "></path>
                <path d="M21.5,649 C22.3286385,649 23,648.327465 23,647.5 C23,646.671362 22.3286385,646 21.5,646 C20.6713615,646 20,646.671362 20,647.5 C20,648.327465 20.6713615,649 21.5,649" id="Fill-338" transform="translate(21.500000, 647.500000) scale(-1, 1) translate(-21.500000, -647.500000) "></path>
                <path d="M1.5,649.132075 C2.3286385,649.132075 3,648.45954 3,647.632075 C3,646.803437 2.3286385,646.132075 1.5,646.132075 C0.671361502,646.132075 0,646.803437 0,647.632075 C0,648.45954 0.671361502,649.132075 1.5,649.132075" id="Fill-339" transform="translate(1.500000, 647.632075) scale(-1, 1) translate(-1.500000, -647.632075) "></path>
                <path d="M85.5,674 C86.3286385,674 87,673.32955 87,672.500587 C87,671.671624 86.3286385,671 85.5,671 C84.6713615,671 84,671.671624 84,672.500587 C84,673.32955 84.6713615,674 85.5,674" id="Fill-356" transform="translate(85.500000, 672.500000) scale(-1, 1) translate(-85.500000, -672.500000) "></path>
                <path d="M60.5,674 C61.3286385,674 62,673.32955 62,672.500587 C62,671.671624 61.3286385,671 60.5,671 C59.6713615,671 59,671.671624 59,672.500587 C59,673.32955 59.6713615,674 60.5,674" id="Fill-357" transform="translate(60.500000, 672.500000) scale(-1, 1) translate(-60.500000, -672.500000) "></path>
                <path d="M35.4994129,674 C36.3283757,674 37,673.32955 37,672.500587 C37,671.671624 36.3283757,671 35.4994129,671 C34.6716243,671 34,671.671624 34,672.500587 C34,673.32955 34.6716243,674 35.4994129,674" id="Fill-358" transform="translate(35.500000, 672.500000) scale(-1, 1) translate(-35.500000, -672.500000) "></path>
                <path d="M1.5,674.132075 C2.32746479,674.132075 3,673.461625 3,672.632663 C3,671.8037 2.32746479,671.132075 1.5,671.132075 C0.671361502,671.132075 0,671.8037 0,672.632663 C0,673.461625 0.671361502,674.132075 1.5,674.132075" id="Fill-359" transform="translate(1.500000, 672.632075) scale(-1, 1) translate(-1.500000, -672.632075) "></path>
                <path d="M97.4994129,699 C98.3283757,699 99,698.32955 99,697.500587 C99,696.671624 98.3283757,696 97.4994129,696 C96.6716243,696 96,696.671624 96,697.500587 C96,698.32955 96.6716243,699 97.4994129,699" id="Fill-375" transform="translate(97.500000, 697.500000) scale(-1, 1) translate(-97.500000, -697.500000) "></path>
                <path d="M72.5,699 C73.3274648,699 74,698.32955 74,697.500587 C74,696.671624 73.3274648,696 72.5,696 C71.6713615,696 71,696.671624 71,697.500587 C71,698.32955 71.6713615,699 72.5,699" id="Fill-376" transform="translate(72.500000, 697.500000) scale(-1, 1) translate(-72.500000, -697.500000) "></path>
                <path d="M47.5,699 C48.3286385,699 49,698.32955 49,697.500587 C49,696.671624 48.3286385,696 47.5,696 C46.6725352,696 46,696.671624 46,697.500587 C46,698.32955 46.6725352,699 47.5,699" id="Fill-377" transform="translate(47.500000, 697.500000) scale(-1, 1) translate(-47.500000, -697.500000) "></path>
                <path d="M21.5,699 C22.3286385,699 23,698.32955 23,697.500587 C23,696.671624 22.3286385,696 21.5,696 C20.6713615,696 20,696.671624 20,697.500587 C20,698.32955 20.6713615,699 21.5,699" id="Fill-378" transform="translate(21.500000, 697.500000) scale(-1, 1) translate(-21.500000, -697.500000) "></path>
                <path d="M1.5,699.132075 C2.3286385,699.132075 3,698.461625 3,697.632663 C3,696.8037 2.3286385,696.132075 1.5,696.132075 C0.671361502,696.132075 0,696.8037 0,697.632663 C0,698.461625 0.671361502,699.132075 1.5,699.132075" id="Fill-379" transform="translate(1.500000, 697.632075) scale(-1, 1) translate(-1.500000, -697.632075) "></path>
            </g>
        </g>
    </g>
</svg>