<?xml version="1.0" encoding="UTF-8"?>
<svg width="50px" height="49px" viewBox="0 0 50 49" version="1.1" xmlns="http://www.w3.org/2000/svg" xmlns:xlink="http://www.w3.org/1999/xlink">
    <title>bisnis-strategi</title>
    <g id="Page-1" stroke="none" stroke-width="1" fill="none" fill-rule="evenodd">
        <g id="2a.-tentang-kami" transform="translate(-1046.000000, -425.000000)" fill-rule="nonzero">
            <g id="Group-9" transform="translate(1021.000000, 399.000000)">
                <g id="bisnis-strategi" transform="translate(25.000000, 26.000000)">
                    <path d="M48.3870968,4.03225806 L48.3870968,34.6774194 L1.61290323,34.6774194 L1.61290323,4.03225806 C1.61290323,3.13720706 2.33075544,2.41935484 3.22580645,2.41935484 L46.7741935,2.41935484 C47.6692446,2.41935484 48.3870968,3.13720706 48.3870968,4.03225806 Z" id="Path" fill="#48CFAD"></path>
                    <path d="M46.7741935,2.41935484 L43.5483871,2.41935484 C44.4434381,2.41935484 45.1612903,3.13720706 45.1612903,4.03225806 L45.1612903,34.6774194 L48.3870968,34.6774194 L48.3870968,4.03225806 C48.3870968,3.13720706 47.6692446,2.41935484 46.7741935,2.41935484 Z" id="Path" fill="#37BC9B"></path>
                    <polygon id="Path" fill="#F7C292" points="18.4353736 41.9354839 31.5646264 41.9354839 32.4273879 44.3548387 17.5726121 44.3548387"></polygon>
                    <polygon id="Path" fill="#FFD2A6" points="20.1612903 37.0967742 18.4353736 41.9354839 17.5726121 44.3548387 16.1290323 48.3870968 12.0967742 48.3870968 16.1290323 37.0967742"></polygon>
                    <polygon id="Path" fill="#FFD2A6" points="33.8709677 37.0967742 37.9032258 48.3870968 33.8709677 48.3870968 32.4273879 44.3548387 31.5646264 41.9354839 29.8387097 37.0967742"></polygon>
                    <polygon id="Path" fill="#656D78" points="50 34.6774194 50 37.0967742 0 37.0967742 0 34.6774194"></polygon>
                    <polygon id="Path" fill="#434A54" points="48.3870968 34.6774194 46.7741935 34.6774194 46.7741935 37.0967742 50 37.0967742 50 34.6774194"></polygon>
                    <polygon id="Path" fill="#FFD2A6" points="21.7741935 0 28.2258065 0 28.2258065 2.41935484 21.7741935 2.41935484"></polygon>
                    <polygon id="Path" fill="#ED5565" points="44.3548387 8.06451613 42.7419355 10.0806452 44.3548387 12.0967742 37.9032258 12.0967742 37.9032258 8.06451613"></polygon>
                    <path d="M41.1290323,15.3225806 C41.1290323,17.1071699 39.687815,18.5483871 37.9032258,18.5483871 C36.1186366,18.5483871 34.6774194,17.1071699 34.6774194,15.3225806 C34.6774194,13.5379914 36.1186366,12.0967742 37.9032258,12.0967742 C39.687815,12.0967742 41.1290323,13.5379914 41.1290323,15.3225806 Z" id="Path" fill="#F5F7FA"></path>
                    <path d="M9.67741935,23.3870968 C11.4620086,23.3870968 12.9032258,24.828314 12.9032258,26.6129032 C12.9032258,28.3974924 11.4620086,29.8387097 9.67741935,29.8387097 C7.89283014,29.8387097 6.4516129,28.3974924 6.4516129,26.6129032 C6.4516129,24.828314 7.89283014,23.3870968 9.67741935,23.3870968 Z" id="Path" fill="#F5F7FA"></path>
                    <path d="M37.9032258,16.1290323 C37.4570785,16.1290323 37.0967742,15.7687279 37.0967742,15.3225806 L37.0967742,8.06451613 C37.0967742,7.61836885 37.4570785,7.25806452 37.9032258,7.25806452 C38.3493731,7.25806452 38.7096774,7.61836885 38.7096774,8.06451613 L38.7096774,15.3225806 C38.7096774,15.7687279 38.3493731,16.1290323 37.9032258,16.1290323 Z" id="Path" fill="#656D78"></path>
                    <path d="M33.0022996,15.6305129 C33.0838111,15.4340191 33.0838111,15.2111422 33.0022996,15.0146484 C32.961347,14.9154171 32.9022807,14.8256363 32.8274635,14.7516067 L31.2153478,13.1394909 C30.8999339,12.824077 30.3903887,12.824077 30.0749748,13.1394909 C29.7595609,13.4549048 29.7595609,13.96445 30.0749748,14.2798639 L30.3789693,14.5838584 C19.2800214,15.2646957 13.3663054,21.754111 13.1072014,22.0451109 C12.8114762,22.3774572 12.8410093,22.8877898 13.1741431,23.1831212 C13.3273217,23.320155 13.519484,23.3870968 13.7096774,23.3870968 C13.9313729,23.3870968 14.1530683,23.2961347 14.3121534,23.1161794 C14.3700384,23.0508127 19.9305381,16.9346964 30.2372102,16.203062 L30.0749748,16.3652974 C29.7595609,16.6807113 29.7595609,17.1902565 30.0749748,17.5056704 C30.2320911,17.6627867 30.4388231,17.7419355 30.6451613,17.7419355 C30.8514995,17.7419355 31.0582315,17.6627867 31.2153478,17.5056704 L32.8274635,15.8935546 C32.9022807,15.819525 32.961347,15.7297442 33.0022996,15.6305129 Z" id="Path" fill="#F5F7FA"></path>
                    <path d="M9.70143962,27.4201423 C9.25568609,27.4201423 8.8910503,27.0598381 8.8910503,26.6136907 C8.8910503,26.1679373 9.24741683,25.8072391 9.69277661,25.8072391 L9.70143962,25.8072391 C10.1467994,25.8072391 10.5078912,26.1679373 10.5078912,26.6136907 C10.5078912,27.0598381 10.1467994,27.4201423 9.70143962,27.4201423 Z" id="Path" fill="#CCD1D9"></path>
                    <g id="Group" transform="translate(7.258065, 5.645161)" fill="#37BC9B">
                        <path d="M4.60244456,5.88142641 C4.28703065,5.5660125 3.77748548,5.5660125 3.46207157,5.88142641 L2.41935484,6.92414315 L1.3766381,5.88142641 C1.06122419,5.5660125 0.551679032,5.5660125 0.236265121,5.88142641 C-0.0791487903,6.19684032 -0.0791487903,6.70638548 0.236265121,7.0217994 L1.27898185,8.06451613 L0.236265121,9.10723286 C-0.0791487903,9.42264677 -0.0791487903,9.93219194 0.236265121,10.2476058 C0.393381452,10.4047222 0.600113407,10.483871 0.806451613,10.483871 C1.01278982,10.483871 1.21952177,10.4047222 1.3766381,10.2476058 L2.41935484,9.20488911 L3.46207157,10.2476058 C3.6191879,10.4047222 3.82591986,10.483871 4.03225806,10.483871 C4.23859627,10.483871 4.44532823,10.4047222 4.60244456,10.2476058 C4.91785847,9.93219194 4.91785847,9.42264677 4.60244456,9.10723286 L3.55972782,8.06451613 L4.60244456,7.0217994 C4.91785847,6.70638548 4.91785847,6.19684032 4.60244456,5.88142641 Z" id="Path"></path>
                        <path d="M15.5588458,4.60244456 C15.7159621,4.75956089 15.9226941,4.83870968 16.1290323,4.83870968 C16.3353705,4.83870968 16.5421024,4.75956089 16.6992187,4.60244456 C17.0146327,4.28703065 17.0146327,3.77748548 16.6992187,3.46207157 L15.656502,2.41935484 L16.6992187,1.3766381 C17.0146327,1.06122419 17.0146327,0.551679032 16.6992187,0.236265121 C16.3838048,-0.0791487903 15.8742597,-0.0791487903 15.5588458,0.236265121 L14.516129,1.27898185 L13.4734123,0.236265121 C13.1579984,-0.0791487903 12.6484532,-0.0791487903 12.3330393,0.236265121 C12.0176254,0.551679032 12.0176254,1.06122419 12.3330393,1.3766381 L13.375756,2.41935484 L12.3330393,3.46207157 C12.0176254,3.77748548 12.0176254,4.28703065 12.3330393,4.60244456 C12.4901556,4.75956089 12.6968876,4.83870968 12.9032258,4.83870968 C13.109564,4.83870968 13.316296,4.75956089 13.4734123,4.60244456 L14.516129,3.55972782 L15.5588458,4.60244456 Z" id="Path"></path>
                        <path d="M18.312122,21.2040071 C17.9967081,20.8885931 17.4871629,20.8885931 17.171749,21.2040071 L16.1290323,22.2467238 L15.0863155,21.2040071 C14.7709016,20.8885931 14.2613565,20.8885931 13.9459425,21.2040071 C13.6305286,21.519421 13.6305286,22.0289661 13.9459425,22.34438 L14.9886593,23.3870968 L13.9459425,24.4298135 C13.6305286,24.7452274 13.6305286,25.2547726 13.9459425,25.5701865 C14.1030589,25.7273028 14.3097908,25.8064516 14.516129,25.8064516 C14.7224672,25.8064516 14.9291992,25.7273028 15.0863155,25.5701865 L16.1290323,24.5274698 L17.171749,25.5701865 C17.3288653,25.7273028 17.5355973,25.8064516 17.7419355,25.8064516 C17.9482737,25.8064516 18.1550056,25.7273028 18.312122,25.5701865 C18.6275359,25.2547726 18.6275359,24.7452274 18.312122,24.4298135 L17.2694052,23.3870968 L18.312122,22.34438 C18.6275359,22.0289661 18.6275359,21.519421 18.312122,21.2040071 Z" id="Path"></path>
                        <path d="M29.3661794,19.3548387 L30.4088962,18.312122 C30.7243101,17.9967081 30.7243101,17.4871629 30.4088962,17.171749 C30.0934823,16.8563351 29.5839371,16.8563351 29.2685232,17.171749 L28.2258065,18.2144657 L27.1830897,17.171749 C26.8676758,16.8563351 26.3581306,16.8563351 26.0427167,17.171749 C25.7273028,17.4871629 25.7273028,17.9967081 26.0427167,18.312122 L27.0854335,19.3548387 L26.0427167,20.3975554 C25.7273028,20.7129694 25.7273028,21.2225145 26.0427167,21.5379284 C26.1998331,21.6950448 26.406565,21.7741935 26.6129032,21.7741935 C26.8192414,21.7741935 27.0259734,21.6950448 27.1830897,21.5379284 L28.2258065,20.4952117 L29.2685232,21.5379284 C29.4256395,21.6950448 29.6323715,21.7741935 29.8387097,21.7741935 C30.0450479,21.7741935 30.2517798,21.6950448 30.4088962,21.5379284 C30.7243101,21.2225145 30.7243101,20.7129694 30.4088962,20.3975554 L29.3661794,19.3548387 Z" id="Path"></path>
                    </g>
                </g>
            </g>
        </g>
    </g>
</svg>