<?xml version="1.0" encoding="UTF-8"?>
<svg width="177px" height="220px" viewBox="0 0 177 220" version="1.1" xmlns="http://www.w3.org/2000/svg" xmlns:xlink="http://www.w3.org/1999/xlink">
    <title>branding-untuk-bisnis-anda</title>
    <g id="Page-1" stroke="none" stroke-width="1" fill="none" fill-rule="evenodd" opacity="0.1">
        <g id="2a.-tentang-kami" transform="translate(-1030.000000, -3164.000000)" fill="#000000" fill-rule="nonzero">
            <g id="Group-19" transform="translate(208.000000, 3117.000000)">
                <g id="Group-17" transform="translate(600.000000, 0.000000)">
                    <g id="pantone" transform="translate(37.000000, 0.000000)">
                        <g id="branding-untuk-bisnis-anda" transform="translate(185.000000, 47.000000)">
                            <path d="M47.5982031,58.9569922 C47.5982031,49.4278125 39.8457813,41.6753906 30.3166016,41.6753906 C20.7874219,41.6753906 13.035,49.4278125 13.035,58.9569922 C13.035,68.4861719 20.7874219,76.2385938 30.3166016,76.2385938 C39.8457813,76.2385938 47.5982031,68.4861719 47.5982031,58.9569922 Z M30.3166016,69.8078906 C24.3336328,69.8078906 19.4657031,64.9399609 19.4657031,58.9569922 C19.4657031,52.9740234 24.3336328,48.1060938 30.3166016,48.1060938 C36.2995703,48.1060938 41.1675,52.9740234 41.1675,58.9569922 C41.1675,64.9399609 36.2995703,69.8078906 30.3166016,69.8078906 L30.3166016,69.8078906 Z" id="Shape"></path>
                            <path d="M167.592305,48.2178125 L163.208203,47.2566016 C163.270078,43.4177734 162.788828,39.5707812 161.760156,35.8642969 L160.986719,33.0799219 C159.796484,28.7916406 156.356406,25.5350391 152.009258,24.5824219 C147.659961,23.6280859 143.174023,25.1466016 140.298984,28.5437109 L138.431563,30.7497266 C134.221914,35.7229297 131.259219,41.7157812 129.863164,48.0803125 L126.674883,62.6205078 L126.674883,44.2260156 C126.674883,42.4234766 126.423086,40.6299609 125.927227,38.8953125 L116.411367,5.64007812 C115.446719,2.26617187 112.440625,-1.22124533e-14 108.931797,-1.22124533e-14 C105.422969,-1.22124533e-14 102.416875,2.26617187 101.451367,5.63964844 L93.4054688,33.7575391 C90.6662109,32.0155859 87.4903906,31.0784375 84.1714844,31.0784375 C74.6423047,31.0784375 66.8898828,38.8308594 66.8898828,48.3596094 L66.8898828,61.3421875 C66.8898828,70.8713672 74.6423047,78.6237891 84.1714844,78.6237891 C86.6039453,78.6237891 88.9951563,78.0974219 91.1882813,77.1203125 L91.1882813,83.9824219 C89.5730859,84.4838672 87.9080469,84.8134375 86.2133594,84.9582422 C83.8333203,85.1623437 81.9023047,86.8600391 81.4090234,89.1825 L79.9979297,95.8190234 L73.4232813,95.8190234 L75.1347266,87.7671094 C75.6224219,85.4721484 74.5692578,83.14625 72.5136328,81.9800781 C70.5353516,80.9660156 69.0125391,79.4616797 67.3758594,78.0523047 C63.0123828,73.6600391 60.4591797,67.6680469 60.4591797,61.3417578 L60.4591797,48.7682422 C60.4591797,35.6657812 70.9306641,24.8466797 83.8023828,24.6503125 C84.0430078,24.646875 84.2819141,24.6464453 84.5199609,24.6498828 C84.535,24.6503125 84.5504688,24.6503125 84.5655078,24.6503125 C86.3199219,24.6503125 87.7555078,23.2400781 87.7795703,21.4796484 C87.8044922,19.7041797 86.3848047,18.2445312 84.6093359,18.2200391 C84.3089844,18.2157422 84.0064844,18.2153125 83.7035547,18.2204687 C69.7980078,18.4327344 58.1010547,28.3628125 54.8994531,41.5245703 C53.79,39.97125 52.5292969,38.5060156 51.1126172,37.1542187 C45.0909766,31.4075781 37.1958984,28.4582031 28.8788672,28.8466406 C13.5201172,29.5667969 0.925976562,42.1609375 0.207109375,57.5201172 C-0.181757813,65.8362891 2.76847656,73.7322266 8.5146875,79.7538672 C14.2424219,85.7557422 21.9462891,89.0725 30.2151953,89.0995703 L32.7572266,95.8194531 L28.1114453,95.8194531 C23.9748438,95.8194531 20.6091016,99.1851953 20.6091016,103.321797 L20.6091016,112.584141 C20.6091016,115.453594 22.2298828,117.948789 24.6021875,119.210781 L24.6021875,173.913437 C24.6021875,199.325586 45.2766016,220 70.68875,220 L106.165469,220 C114.410312,220 122.501328,217.796133 129.563672,213.626445 C131.0925,212.723672 131.600391,210.752266 130.697617,209.223008 C129.794844,207.69418 127.823867,207.186289 126.29418,208.089062 C120.221406,211.673945 113.261328,213.569297 106.165898,213.569297 L70.6891797,213.569297 C48.8228125,213.569297 31.0333203,195.779805 31.0333203,173.913437 L31.0333203,149.661875 C33.226875,156.765898 35.6107813,163.863906 41.6758203,163.863906 C47.94625,163.863906 50.2820313,156.277344 52.5408984,148.940859 C53.4578516,145.963125 54.4057422,142.884414 55.4941406,140.763477 C56.423125,138.953203 57.0835547,138.556602 57.2597266,138.556602 C57.4358984,138.556602 58.0967578,138.953203 59.0257422,140.763477 C60.1141406,142.884414 61.0620313,145.963555 61.9789844,148.941289 C64.2382813,156.277773 66.5736328,163.863906 72.8440625,163.863906 C79.1140625,163.863906 81.4494141,156.277773 83.7078516,148.941289 C84.6248047,145.963555 85.5726953,142.884844 86.6606641,140.763477 C87.5896484,138.953203 88.2500781,138.556602 88.42625,138.556602 C88.6019922,138.556602 89.2624219,138.953203 90.1914063,140.763477 C91.279375,142.884414 92.2272656,145.963125 93.1442188,148.940859 C95.4030859,156.277344 97.7384375,163.863906 104.008437,163.863906 C110.278867,163.863906 112.614648,156.277773 114.873516,148.941289 C115.790469,145.963555 116.738359,142.884414 117.826758,140.763477 C118.755742,138.953203 119.416602,138.556602 119.592773,138.556602 C119.768945,138.556602 120.429805,138.953203 121.358789,140.763477 C122.447188,142.884414 123.395078,145.963555 124.312031,148.941289 C126.571328,156.277773 128.90668,163.863906 135.177109,163.863906 C141.243867,163.863906 143.627344,156.76332 145.821758,149.658008 L145.821758,173.913867 C145.821758,183.257852 142.510156,192.331133 136.49668,199.462227 C135.351992,200.820039 135.524727,202.848164 136.88168,203.992852 C137.484961,204.501602 138.221016,204.750391 138.952773,204.750391 C139.867578,204.750391 140.776367,204.361953 141.412305,203.607852 C148.402891,195.31832 152.252461,184.7725 152.252461,173.913867 L152.252461,119.211211 C154.624766,117.949648 156.245547,115.454023 156.245547,112.58457 L156.245547,103.322227 C156.245547,100.80125 154.991719,98.5720312 153.07918,97.2107812 L162.616953,53.7105078 L166.215586,54.4994141 C169.101797,55.1323437 170.935273,57.9953516 170.302344,60.8815625 L162.801719,95.0919922 C162.430898,95.2660156 162.065664,95.4559375 161.715039,95.6806641 C157.425469,98.3043359 156.084844,104.421797 158.882539,108.599219 C160.565195,111.271875 163.609961,112.922305 166.75957,112.908984 C171.056016,112.908984 174.936094,109.923945 175.893008,105.55875 C176.427969,103.118984 175.981094,100.616484 174.633594,98.5127344 C173.422734,96.6225391 171.61332,95.2638672 169.488945,94.6184766 L176.583516,62.2591406 C177.975703,55.9096484 173.942656,49.6108594 167.592305,48.2178125 L167.592305,48.2178125 Z M125.979648,95.8198828 L128.763164,83.1243359 L148.628047,87.4796484 L146.799297,95.8198828 L125.979648,95.8198828 Z M150.006055,81.1980469 L130.141172,76.8427344 L131.772695,69.4009766 L151.637578,73.7562891 L150.006055,81.1980469 Z M119.744883,40.6639062 C119.991523,41.5271484 120.1475,42.411875 120.211094,43.3043359 L97.6525,43.3043359 C97.7160937,42.4110156 97.8716406,41.5262891 98.1182812,40.6643359 L102.230391,26.2938672 L115.632773,26.2938672 L119.744883,40.6639062 Z M97.6189844,49.7350391 L120.244609,49.7350391 L120.239453,91.9733203 L119.395977,95.8194531 L97.6189844,95.8194531 L97.6189844,49.7350391 Z M143.340312,34.904375 L145.207305,32.6983594 C146.559961,31.1012109 148.585938,30.415 150.632539,30.8631641 C152.676562,31.3117578 154.231172,32.7830078 154.791055,34.7999609 L155.564492,37.5843359 C157.028008,42.8570312 157.182266,48.4683203 156.010508,53.8123437 L153.015156,67.4742578 L133.150273,63.1189453 L136.145625,49.4570312 C137.316953,44.1130078 139.805273,39.0809375 143.340313,34.904375 L143.340312,34.904375 Z M108.931797,6.43070312 C109.31207,6.43070312 109.985391,6.55746094 110.229453,7.40910156 L113.793281,19.8631641 L104.071172,19.8631641 L107.635,7.40910156 C107.878203,6.55746094 108.551523,6.43070312 108.931797,6.43070312 L108.931797,6.43070312 Z M84.1719141,72.1935156 C78.1889453,72.1935156 73.3210156,67.3255859 73.3210156,61.3426172 L73.3210156,48.3600391 C73.3210156,42.3770703 78.1889453,37.5095703 84.1719141,37.5095703 C86.9399609,37.5095703 89.5516016,38.5472656 91.5698437,40.4353125 C91.3210547,41.6826953 91.1887109,42.9515625 91.1887109,44.2260156 L91.1887109,69.6110937 C89.2301953,71.2830078 86.7805469,72.1935156 84.1719141,72.1935156 Z M87.5355078,91.2896875 C88.7682812,91.1521875 89.986875,90.9347656 91.1882812,90.6473047 L91.1882812,95.8198828 L86.5725781,95.8198828 L87.5355078,91.2896875 Z M62.9926172,82.7608203 C64.7014844,84.4567969 66.598125,85.9327734 68.6833984,87.1908984 L66.8494922,95.8198828 L53.3826562,95.8198828 L48.5190234,82.9619141 C51.8847656,80.4039844 54.6334766,77.1950781 56.6435547,73.5852734 C58.1667969,76.9965625 60.3186719,80.1122266 62.9926172,82.7608203 L62.9926172,82.7608203 Z M35.9644141,86.1218359 C35.1583203,83.9923047 33.1104297,82.6048438 30.8309375,82.6619922 C30.6599219,82.6667188 30.4889062,82.6692969 30.3170312,82.6692969 C23.7836328,82.6692969 17.6936719,80.0572266 13.1673437,75.3143359 C8.64617187,70.5770313 6.325,64.3641797 6.63179687,57.8208984 C7.19640625,45.7419531 17.1015625,35.8367969 29.1809375,35.2717578 C35.7237891,34.9632422 41.9370703,37.2865625 46.674375,41.8073047 C51.4172656,46.3336328 54.0293359,52.4235938 54.0293359,58.9569922 C54.0293359,66.5538672 50.3275781,73.7524219 44.1267578,78.2130078 C42.1463281,79.6378516 41.3612891,82.2142578 42.2180859,84.4774219 L46.5085156,95.8198828 L39.6330859,95.8198828 L35.9644141,86.1218359 Z M139.896367,147.048516 C138.979414,150.02668 138.031094,153.105391 136.942695,155.226328 C136.013281,157.037031 135.352422,157.433633 135.17625,157.433633 C135.000078,157.433633 134.339219,157.037031 133.410234,155.226758 C132.321836,153.10582 131.373945,150.02668 130.456992,147.048945 C128.197695,139.712461 125.862344,132.126328 119.591914,132.126328 C113.321484,132.126328 110.985703,139.712461 108.726836,147.048945 C107.809883,150.02668 106.861992,153.10582 105.773594,155.226758 C104.844609,157.037031 104.18375,157.433633 104.007578,157.433633 C103.831406,157.433633 103.170977,157.037031 102.241992,155.226758 C101.154023,153.105391 100.206133,150.02668 99.2891797,147.048945 C97.0303125,139.712461 94.6953906,132.126328 88.4253906,132.126328 C82.1553906,132.126328 79.8196094,139.712891 77.5611719,147.049375 C76.6442187,150.027109 75.6963281,153.10582 74.6083594,155.226758 C73.679375,157.037031 73.0189453,157.433633 72.8432031,157.433633 C72.6670312,157.433633 72.0061719,157.037031 71.0771875,155.226758 C69.9887891,153.10582 69.0408984,150.02668 68.1239453,147.048945 C65.8646484,139.712461 63.5292969,132.126328 57.2588672,132.126328 C50.9884375,132.126328 48.6526562,139.712461 46.3942187,147.048516 C45.4772656,150.02668 44.529375,153.105391 43.4409766,155.226328 C42.5119922,157.037031 41.8511328,157.433633 41.6749609,157.433633 C41.4987891,157.433633 40.8383594,157.037031 39.909375,155.226758 C38.8209766,153.105391 37.8730859,150.02668 36.9561328,147.048516 C35.3585547,141.860469 33.8434766,136.943125 31.0324609,134.230938 L31.0324609,120.086914 L54.2235547,120.086914 C55.9994531,120.086914 57.4389062,118.647461 57.4389062,116.871562 C57.4389062,115.095664 55.9994531,113.656211 54.2235547,113.656211 L28.1110156,113.656211 C27.5197656,113.656211 27.039375,113.175391 27.039375,112.58457 L27.039375,103.322227 C27.039375,102.730977 27.5201953,102.250586 28.1110156,102.250586 L148.741914,102.250586 C149.333164,102.250586 149.813555,102.731406 149.813555,103.322227 L149.813555,112.58457 C149.813555,113.17582 149.332734,113.656211 148.741914,113.656211 L70.2066406,113.656211 C68.4307422,113.656211 66.9912891,115.095664 66.9912891,116.871562 C66.9912891,118.647461 68.4307422,120.086914 70.2066406,120.086914 L145.820898,120.086914 L145.820898,134.242109 C143.010742,136.959453 141.488359,141.878086 139.896367,147.048516 L139.896367,147.048516 Z M169.678867,103.555977 C169.678867,105.169453 168.370898,106.477422 166.757422,106.477422 C165.143945,106.477422 163.835977,105.169453 163.835977,103.555977 C163.835977,101.9425 165.143945,100.634531 166.757422,100.634531 C168.370898,100.634102 169.678867,101.9425 169.678867,103.555977 Z" id="Shape"></path>
                        </g>
                    </g>
                </g>
            </g>
        </g>
    </g>
</svg>