<?xml version="1.0" encoding="UTF-8"?>
<svg width="42px" height="50px" viewBox="0 0 42 50" version="1.1" xmlns="http://www.w3.org/2000/svg" xmlns:xlink="http://www.w3.org/1999/xlink">
    <title>produk-berkualitas</title>
    <g id="Page-1" stroke="none" stroke-width="1" fill="none" fill-rule="evenodd">
        <g id="2a.-tentang-kami" transform="translate(-1050.000000, -574.000000)" fill-rule="nonzero">
            <g id="Group-10" transform="translate(1021.000000, 549.000000)">
                <g id="produk-berkualitas" transform="translate(29.000000, 25.000000)">
                    <path d="M41.4870705,5.17241379 C41.4870705,6.12462888 40.7151461,6.89655172 39.762931,6.89655172 L23.950431,6.89655172 C23.8094234,7.29620929 23.6190104,7.67667321 23.3836207,8.02909483 C22.4272259,9.47623635 20.8078962,10.3462212 19.0732759,10.3448293 L13.9008621,10.3448293 C11.0442168,10.3448293 8.72844828,8.02905905 8.72844828,5.17241379 C8.72844828,2.31576854 11.0442168,-3.62624625e-07 13.9008621,-3.62624625e-07 L19.0732759,-3.62624625e-07 C21.265646,-0.00081762853 23.2201894,1.38109555 23.950431,3.44827586 L39.762931,3.44827586 C40.220385,3.44767427 40.6592759,3.6291308 40.9827449,3.95259988 C41.306214,4.27606897 41.4876706,4.71495982 41.4870705,5.17241379 Z" id="Path" fill="#92563A"></path>
                    <g id="Group" transform="translate(12.176724, 0.000000)" fill="#7A432A">
                        <path d="M1.72413793,-4.69406354e-06 L1.72413793,5.17241379 C1.72413793,5.64852134 1.33817651,6.03448276 0.862068966,6.03448276 C0.385961423,6.03448276 0,5.64852134 0,5.17241379 L0,0.294181034 C0.553778403,0.0986977927 1.13687003,-0.000792215985 1.72413793,-4.69406354e-06 Z" id="Path"></path>
                        <path d="M4.31034483,6.03448276 C3.83423728,6.03448276 3.44827586,5.64852134 3.44827586,5.17241379 L3.44827586,0 L5.17241379,0 L5.17241379,5.17241379 C5.17241379,5.64852134 4.78645237,6.03448276 4.31034483,6.03448276 Z" id="Path"></path>
                        <path d="M8.62068966,0.295258621 L8.62068966,5.17241379 C8.62068966,5.64852134 8.23472823,6.03448276 7.75862069,6.03448276 C7.28251315,6.03448276 6.89655172,5.64852134 6.89655172,5.17241379 L6.89655172,-6.94100731e-06 C7.48392573,-0.000965990688 8.06710685,0.0989037757 8.62068966,0.295258621 L8.62068966,0.295258621 Z" id="Path"></path>
                    </g>
                    <path d="M32.8663813,32.2349138 C32.867235,33.7205354 32.5909581,35.1932816 32.0517241,36.5775862 L27.0452586,49.450431 C26.9166692,49.7817043 26.597812,50 26.2424569,50 L6.73168103,50 C6.37632593,50 6.05746877,49.7817043 5.92887931,49.450431 L1.73060345,38.6551724 L0.922413793,36.5775862 C-0.921691668,31.8366499 0.429346065,26.4480529 4.29202586,23.137931 L6.14224138,21.5517241 L6.14224138,17.2413793 L26.8318966,17.2413793 L26.8318966,21.5517241 L28.3362069,22.8415948 L28.6821121,23.137931 C31.3383566,25.4137536 32.8669501,28.7370569 32.8663813,32.2349138 L32.8663813,32.2349138 Z" id="Path" fill="#FAE890"></path>
                    <path d="M32.8663813,32.2349138 C32.867235,33.7205354 32.5909581,35.1932816 32.0517241,36.5775862 L27.0452586,49.450431 C26.9166692,49.7817043 26.597812,50 26.2424569,50 L6.73168103,50 C6.37632593,50 6.05746877,49.7817043 5.92887931,49.450431 L1.73060345,38.6551724 C11.544181,36.5700431 21.0614224,31.7887931 28.3362069,22.8415948 L28.6821121,23.137931 C31.3383566,25.4137536 32.8669501,28.7370569 32.8663813,32.2349138 L32.8663813,32.2349138 Z" id="Path" fill="#F5DF73"></path>
                    <path d="M32.8663813,32.2349138 C32.867235,33.7205354 32.5909581,35.1932816 32.0517241,36.5775862 L27.0452586,49.450431 C26.9166692,49.7817043 26.597812,50 26.2424569,50 L6.73168103,50 C6.37632593,50 6.05746877,49.7817043 5.92887931,49.450431 L1.73060345,38.6551724 L0.922413793,36.5775862 C0.0216226122,34.2607105 -0.136539257,31.7210827 0.469827586,29.3103448 L12.1767241,29.3103448 C13.6048989,29.3099879 14.7625741,28.1523127 14.762931,26.7241379 L14.762931,10.3448276 L13.9008621,10.3448276 C11.7088964,10.343585 9.75510867,8.96251135 9.02262931,6.89655172 L23.950431,6.89655172 C23.8094234,7.29620929 23.6190104,7.67667321 23.3836207,8.02909483 C22.4272259,9.47623635 20.8078962,10.3462212 19.0732759,10.3448276 L18.2112069,10.3448276 L18.2112069,26.7241379 C18.2115638,28.1523127 19.369239,29.3099879 20.7974138,29.3103448 L32.5043103,29.3103448 C32.7447762,30.2666084 32.8663813,31.2488794 32.8663813,32.2349138 L32.8663813,32.2349138 Z" id="Path" fill="#FFB531"></path>
                    <path d="M32.8663813,32.2349138 C32.867235,33.7205354 32.5909581,35.1932816 32.0517241,36.5775862 L27.0452586,49.450431 C26.9166692,49.7817043 26.597812,50 26.2424569,50 L6.73168103,50 C6.37632593,50 6.05746877,49.7817043 5.92887931,49.450431 L1.73060345,38.6551724 C8.84482759,37.143319 15.8017241,34.2155172 21.8631466,29.3103448 L32.5043103,29.3103448 C32.7447762,30.2666084 32.8663813,31.2488794 32.8663813,32.2349138 L32.8663813,32.2349138 Z" id="Path" fill="#FFA912"></path>
                    <path d="M25.5387931,20.6896552 L10.0215517,20.6896552 C9.30739041,20.6896552 8.72844828,21.2685973 8.72844828,21.9827586 C8.72844828,22.6969199 9.30739041,23.2758621 10.0215517,23.2758621 L25.5387931,23.2758621 C26.2529544,23.2758621 26.8318966,22.6969199 26.8318966,21.9827586 C26.8318966,21.2685973 26.2529544,20.6896552 25.5387931,20.6896552 Z" id="Path" fill="#F5DF73"></path>
                    <polygon id="Path" fill="#EDD561" points="14.762931 20.6896552 18.2112069 20.6896552 18.2112069 23.2758621 14.762931 23.2758621"></polygon>
                    <path d="M4.41810345,32.2349138 C4.4172547,31.2314185 4.61429635,30.237605 4.99795259,29.3103448 L3.16282328,29.3103448 C3.09461207,29.5184267 3.03135776,29.7282328 2.97801724,29.9407328 C2.50235533,31.8313788 2.62636322,33.8231496 3.33286638,35.640194 L5.01573276,39.9676724 L6.62262931,39.3426724 L4.93965517,35.0150862 C4.59413972,34.1289415 4.41725348,33.1860355 4.41810345,32.2349138 Z" id="Path" fill="#FFCB73"></path>
                    <path d="M7.09622845,26.4116379 L7.97909483,25.6547414 L6.85689655,24.3457974 L5.97435345,25.1023707 C5.82661638,25.2288793 5.68125,25.3609914 5.54224138,25.4960129 L6.74224138,26.7340517 C6.85592672,26.6235991 6.97489224,26.5153017 7.09622845,26.4116379 L7.09622845,26.4116379 Z" id="Path" fill="#FFEF9E"></path>
                    <path d="M5.11853448,29.0328664 C5.34979599,28.5290633 5.63470403,28.0516635 5.96831897,27.608944 L4.59278017,26.5696121 C4.1844627,27.1111481 3.83571643,27.6951256 3.55258621,28.3114224 C3.40364088,28.6366044 3.27364611,28.9701365 3.16325431,29.3103448 L4.99838362,29.3103448 C5.03653017,29.2170259 5.07543103,29.1242457 5.11853448,29.0328664 L5.11853448,29.0328664 Z" id="Path" fill="#FFEF9E"></path>
                </g>
            </g>
        </g>
    </g>
</svg>