<?xml version="1.0" encoding="UTF-8"?>
<svg width="181px" height="220px" viewBox="0 0 181 220" version="1.1" xmlns="http://www.w3.org/2000/svg" xmlns:xlink="http://www.w3.org/1999/xlink">
    <title>produk-rancangan-bisnis</title>
    <g id="Page-1" stroke="none" stroke-width="1" fill="none" fill-rule="evenodd" opacity="0.1">
        <g id="2a.-tentang-kami" transform="translate(-1013.000000, -3638.000000)" fill="#000000" fill-rule="nonzero">
            <g id="Group-19" transform="translate(208.000000, 3117.000000)">
                <g id="Group-17" transform="translate(600.000000, 0.000000)">
                    <g id="Group-8" transform="translate(0.000000, 468.000000)">
                        <g id="web-design" transform="translate(30.000000, 0.000000)">
                            <g id="produk-rancangan-bisnis" transform="translate(175.000000, 53.000000)">
                                <path d="M87.3557447,178.80383 C68.3093617,178.80383 49.2676596,178.80383 30.2212766,178.80383 C26.4485106,178.80383 26.4485106,184.654894 30.2212766,184.654894 C49.2676596,184.654894 68.3093617,184.654894 87.3557447,184.654894 C91.1285106,184.654894 91.1285106,178.80383 87.3557447,178.80383 Z" id="Path"></path>
                                <g id="Group">
                                    <path d="M37.8276596,47.8429787 C50.0212766,47.8429787 62.2148936,47.8429787 74.4085106,47.8429787 C78.1812766,47.8429787 78.1812766,41.9919149 74.4085106,41.9919149 C62.2148936,41.9919149 50.0212766,41.9919149 37.8276596,41.9919149 C34.0548936,41.9919149 34.0548936,47.8429787 37.8276596,47.8429787 Z" id="Path"></path>
                                    <path d="M87.3557447,157.842979 C68.3093617,157.842979 49.2676596,157.842979 30.2212766,157.842979 C26.4485106,157.842979 26.4485106,163.694043 30.2212766,163.694043 C49.2676596,163.694043 68.3093617,163.694043 87.3557447,163.694043 C91.1285106,163.694043 91.1285106,157.842979 87.3557447,157.842979 Z" id="Path"></path>
                                    <path d="M111.246809,159.256596 C109.800426,159.256596 108.377447,159.256596 106.940426,159.256596 C100.148511,159.256596 100.148511,169.788511 106.940426,169.788511 C108.377447,169.788511 109.809787,169.788511 111.246809,169.788511 C118.043404,169.788511 118.043404,159.256596 111.246809,159.256596 Z" id="Path"></path>
                                    <path d="M127.723404,159.256596 C126.286383,159.256596 124.863404,159.256596 123.426383,159.256596 C116.634468,159.256596 116.634468,169.788511 123.426383,169.788511 C124.863404,169.788511 126.295745,169.788511 127.723404,169.788511 C134.515319,169.788511 134.515319,159.256596 127.723404,159.256596 Z" id="Path"></path>
                                    <path d="M144.892766,159.256596 C143.455745,159.256596 142.023404,159.256596 140.586383,159.256596 C133.794468,159.256596 133.794468,169.788511 140.586383,169.788511 C142.032766,169.788511 143.455745,169.788511 144.892766,169.788511 C151.684681,169.788511 151.684681,159.256596 144.892766,159.256596 Z" id="Path"></path>
                                    <path d="M110.900426,173.200851 C109.463404,173.200851 108.031064,173.200851 106.603404,173.200851 C99.8114894,173.200851 99.8114894,183.732766 106.603404,183.732766 C108.040426,183.732766 109.472766,183.732766 110.900426,183.732766 C117.69234,183.732766 117.69234,173.200851 110.900426,173.200851 Z" id="Path"></path>
                                    <path d="M127.377021,173.200851 C125.94,173.200851 124.517021,173.200851 123.08,173.200851 C116.288085,173.200851 116.288085,183.732766 123.08,183.732766 C124.517021,183.732766 125.949362,183.732766 127.377021,183.732766 C134.168936,183.732766 134.168936,173.200851 127.377021,173.200851 Z" id="Path"></path>
                                    <path d="M144.546383,173.200851 C143.109362,173.200851 141.677021,173.200851 140.24,173.200851 C133.457447,173.200851 133.457447,183.732766 140.24,183.732766 C141.686383,183.732766 143.109362,183.732766 144.546383,183.732766 C151.338298,183.732766 151.338298,173.200851 144.546383,173.200851 Z" id="Path"></path>
                                    <path d="M87.3557447,168.566809 C68.3093617,168.566809 49.2676596,168.566809 30.2212766,168.566809 C26.4485106,168.566809 26.4485106,174.417872 30.2212766,174.417872 C49.2676596,174.417872 68.3093617,174.417872 87.3557447,174.417872 C91.1285106,174.417872 91.1285106,168.566809 87.3557447,168.566809 Z" id="Path"></path>
                                    <path d="M110.965957,47.8429787 C123.159574,47.8429787 135.348511,47.8429787 147.542128,47.8429787 C151.319574,47.8429787 151.319574,41.9919149 147.542128,41.9919149 C135.348511,41.9919149 123.159574,41.9919149 110.965957,41.9919149 C107.188511,41.9919149 107.188511,47.8429787 110.965957,47.8429787 Z" id="Path"></path>
                                    <path d="M136.134894,60.9119149 C139.91234,60.9119149 139.91234,55.0608511 136.134894,55.0608511 C128.233617,55.0608511 120.32766,55.0608511 112.431064,55.0608511 C108.653617,55.0608511 108.653617,60.9119149 112.431064,60.9119149 C120.32766,60.9119149 128.233617,60.9119149 136.134894,60.9119149 Z" id="Path"></path>
                                    <path d="M109.66,124.580851 C110.42766,127.04766 113.891489,127.824681 115.192766,125.329787 C116.873191,122.104681 118.558298,118.865532 120.229362,115.640426 C121.343404,118.711064 122.462128,121.791064 123.57617,124.885106 C124.053617,126.200426 125.055319,127.188085 126.49234,127.188085 C135.961702,127.188085 131.393191,127.188085 140.871915,127.188085 C144.775745,127.188085 144.775745,120.906383 140.871915,120.906383 C132.680426,120.906383 138.531489,120.906383 130.34,120.906383 C129.268085,120.906383 128.640851,121.060851 128.266383,121.243404 C128.294468,120.686383 128.158723,119.726809 127.58766,118.154043 C126.27234,114.521702 124.957021,110.875319 123.637021,107.242979 C122.775745,104.865106 119.44766,103.910213 118.094894,106.498723 C116.484681,109.592766 114.874468,112.686809 113.268936,115.77617 C110.628936,107.25234 107.974894,98.7238298 105.325532,90.2046809 C104.356596,87.0965957 100.546383,87.3446809 99.4838298,90.2046809 C96.6565957,97.8531915 93.8340426,119.544255 91.0114894,127.183404 C88.1093617,113.459149 85.2025532,85.7017021 82.3051064,71.9774468 C81.6544681,68.9068085 77.2029787,69.0519149 76.4634043,71.9774468 C72.8919149,86.1697872 69.3297872,100.357447 65.7629787,114.559149 C63.7502128,110.280851 61.7421277,106.002553 59.7293617,101.724255 C58.4608511,99.0234043 55.0485106,100.198298 54.1919149,102.468511 C52.1557447,107.879574 50.1242553,113.3 48.092766,118.729787 C47.6948936,119.801702 47.4,120.44766 47.18,120.906383 C44.2076596,120.906383 41.2306383,120.906383 38.2582979,120.906383 C34.3497872,120.906383 34.3497872,127.188085 38.2582979,127.188085 C41.9514894,127.188085 45.64,127.188085 49.3331915,127.188085 C50.7889362,127.188085 51.7578723,126.200426 52.2540426,124.885106 C53.9765957,120.288511 55.6991489,115.705957 57.4217021,111.109362 C59.6170213,115.790213 61.8170213,120.471064 64.0170213,125.142553 C65.187234,127.637447 68.9225532,126.897872 69.5544681,124.393617 C72.7468085,111.694468 75.9391489,98.9859574 79.1361702,86.2774468 C81.8604255,99.1451064 84.58,126.055319 87.2995745,138.92766 C87.9970213,142.22766 92.1582979,141.586383 93.1412766,138.92766 C96.146383,130.782979 99.1561702,108.595745 102.151915,100.460426 C104.65617,108.502128 107.151064,116.534468 109.66,124.580851 Z" id="Path"></path>
                                    <path d="M138.966809,4.55914894 C138.966809,2.04120051 136.925608,8.41924457e-15 134.40766,0 L50.5455319,0 C48.0275835,3.98337049e-15 45.986383,2.04120051 45.986383,4.55914894 C45.986383,7.07709737 43.9451825,9.11829787 41.427234,9.11829787 L5.27319149,9.11829787 C2.51176774,9.11829787 0.273191489,11.3568741 0.273191489,14.1182979 L0.273191489,214.817447 C0.273191489,217.578871 2.51176774,219.817447 5.27319149,219.817447 L175.097447,219.817447 C177.858871,219.817447 180.097447,217.578871 180.097447,214.817447 L180.097447,14.1182979 C180.097447,11.3568741 177.858871,9.11829787 175.097447,9.11829787 L143.525957,9.11829787 C141.008009,9.11829787 138.966809,7.07709737 138.966809,4.55914894 Z M166.050213,205.774894 L19.3157447,205.774894 C16.5543209,205.774894 14.3157447,203.536317 14.3157447,200.774894 L14.3157447,28.1608511 C14.3157447,25.3994273 16.5543209,23.1608511 19.3157447,23.1608511 L42.7448936,23.1608511 C44.5351188,23.1608511 45.986383,24.6121153 45.986383,26.4023404 C45.986383,28.1925656 47.4376472,29.6438298 49.2278723,29.6438298 L135.725319,29.6438298 C137.515544,29.6438298 138.966809,28.1925656 138.966809,26.4023404 C138.966809,24.6121153 140.418073,23.1608511 142.208298,23.1608511 L161.054894,23.1608511 C163.816317,23.1608511 166.054894,25.3994273 166.054894,28.1608511 L166.054894,205.770213 C166.054894,205.772798 166.052798,205.774894 166.050213,205.774894 L166.050213,205.774894 L166.050213,205.774894 Z" id="Shape"></path>
                                </g>
                            </g>
                        </g>
                    </g>
                </g>
            </g>
        </g>
    </g>
</svg>