<?xml version="1.0" encoding="UTF-8"?>
<svg width="192px" height="220px" viewBox="0 0 192 220" version="1.1" xmlns="http://www.w3.org/2000/svg" xmlns:xlink="http://www.w3.org/1999/xlink">
    <title>solusi-pengembangan</title>
    <g id="Page-1" stroke="none" stroke-width="1" fill="none" fill-rule="evenodd" opacity="0.1">
        <g id="2a.-tentang-kami" transform="translate(-1008.000000, -3336.000000)" fill="#000000" fill-rule="nonzero">
            <g id="Group-19" transform="translate(208.000000, 3117.000000)">
                <g id="Group-17" transform="translate(600.000000, 0.000000)">
                    <g id="Group-7" transform="translate(0.000000, 234.000000)">
                        <g id="solusi-pengembangan" transform="translate(200.000000, -15.000000)">
                            <path d="M45.0083333,139.33425 C45.0083333,139.333792 45.007875,139.333792 45.007875,139.333333 C43.9963333,137.579292 41.7541667,136.977042 39.9996667,137.989042 C39.9982917,137.989958 39.9969167,137.990875 39.9955417,137.991333 L1.89520833,159.991333 C0.13475,160.991875 -0.48125,163.230375 0.519291667,164.990833 C1.51983333,166.751292 3.75833333,167.367292 5.51879167,166.36675 C5.533,166.3585 5.54720833,166.35025 5.56141667,166.342 L43.66175,144.342 C45.4167083,143.330917 46.0194167,141.08875 45.0083333,139.33425 Z" id="Path"></path>
                            <path d="M66.484,160.807625 C66.482625,160.806708 66.48125,160.805792 66.479875,160.805333 C64.7258333,159.793792 62.4832083,160.395583 61.4716667,162.150083 C61.4716667,162.150542 61.4712083,162.151 61.4712083,162.151 L39.4712083,200.251333 C38.4472917,201.9985 39.0330417,204.244792 40.7802083,205.268708 C42.527375,206.292625 44.7736667,205.706875 45.7975833,203.959708 C45.8058333,203.945958 45.813625,203.93175 45.821875,203.917542 L67.821875,165.817208 C68.8357083,164.065 68.2366667,161.821917 66.484,160.807625 Z" id="Path"></path>
                            <path d="M95.8132083,168.666667 C93.7882917,168.666667 92.1465417,170.308417 92.1465417,172.333333 L92.1465417,216.333333 C92.1465417,218.35825 93.7882917,220 95.8132083,220 C97.838125,220 99.479875,218.35825 99.479875,216.333333 L99.479875,172.333333 C99.479875,170.308417 97.838125,168.666667 95.8132083,168.666667 Z" id="Path"></path>
                            <path d="M130.155208,162.151 C129.154667,160.390542 126.916167,159.774542 125.155708,160.775083 C123.39525,161.775625 122.77925,164.014125 123.779792,165.774583 C123.788042,165.788792 123.796292,165.803 123.804542,165.817208 L145.804542,203.917542 C146.828917,205.66425 149.075208,206.25 150.822375,205.225625 C152.552583,204.210875 153.146583,201.994375 152.155208,200.250875 L130.155208,162.151 Z" id="Path"></path>
                            <path d="M189.731208,159.991333 L151.630875,137.991333 C149.884167,136.966958 147.637417,137.552708 146.613042,139.299417 C145.588667,141.046125 146.174417,143.292875 147.921125,144.31725 C147.935333,144.3255 147.949542,144.33375 147.96375,144.342 L186.064083,166.342 C187.824542,167.342542 190.063042,166.726542 191.063583,164.966083 C192.055417,163.222583 191.461417,161.006083 189.731208,159.991333 Z" id="Path"></path>
                            <path d="M139.769208,128.333333 L158.146542,128.333333 C164.20525,128.346625 169.12775,123.445667 169.141069,117.3865 C169.151583,112.67025 166.146292,108.475125 161.677542,106.967667 C160.384583,77.3391667 139.409417,52.2467917 110.479875,45.7196667 L110.479875,36.6666667 C110.499125,29.9841667 105.961167,24.1482083 99.479875,22.5206667 L99.479875,0 L92.1465417,0 L92.1465417,22.5206667 C85.6909167,24.187625 81.17175,29.9992917 81.1465417,36.6666667 L81.1465417,45.7233333 C52.2220417,52.248625 31.24825,77.3336667 29.948875,106.956667 C28.3657917,107.465417 26.9275417,108.345417 25.7542083,109.523333 C23.6422083,111.57025 22.4587917,114.392208 22.479598,117.333333 C22.479598,123.408542 27.4046667,128.333333 33.479875,128.333333 L51.8572083,128.333333 C61.9460417,152.609417 89.8044583,164.110833 114.080542,154.022 C125.7025,149.192083 134.939292,139.95575 139.769208,128.333333 Z M88.479875,36.6666667 C88.479875,32.616375 91.7629167,29.3333333 95.8132083,29.3333333 C99.8635,29.3333333 103.146542,32.616375 103.146542,36.6666667 L103.146542,44.407 C102.926542,44.385 102.695542,44.407 102.475542,44.3703333 C100.519833,44.1723333 98.5389167,44.0623333 96.531875,44.0403333 C96.289875,44.0403333 96.0552083,44 95.7985417,44 C95.541875,44 95.3585417,44.033 95.134875,44.0366667 C93.1145417,44.055 91.1015417,44.1723333 89.1252083,44.3703333 C88.908875,44.3923333 88.6815417,44.3703333 88.4652083,44.407 L88.479875,36.6666667 Z M85.4842083,52.261 C92.3152083,51.029 99.3112083,51.029 106.142208,52.261 L106.219208,52.261 C132.836,56.992375 152.74325,79.3480417 154.369875,106.333333 L37.2565417,106.333333 C38.894625,79.3255833 58.8385417,56.9644167 85.4842083,52.261 Z M33.479875,121 C31.4549583,121 29.8132022,119.35825 29.8132022,117.333333 C29.811375,116.343792 30.2188333,115.397333 30.938875,114.719 C31.6080417,114.037917 32.5251667,113.657958 33.479875,113.666667 L158.146542,113.666667 C160.171458,113.666667 161.813202,115.308417 161.813202,117.333333 C161.813202,119.35825 160.171458,121 158.146542,121 L33.479875,121 Z M95.8132083,150.333333 C80.6542917,150.330125 66.7755,141.833083 59.879875,128.333333 L131.746542,128.333333 C124.850917,141.833083 110.972125,150.330125 95.8132083,150.333333 Z" id="Shape"></path>
                        </g>
                    </g>
                </g>
            </g>
        </g>
    </g>
</svg>