<?xml version="1.0" encoding="UTF-8"?>
<svg width="50px" height="50px" viewBox="0 0 50 50" version="1.1" xmlns="http://www.w3.org/2000/svg" xmlns:xlink="http://www.w3.org/1999/xlink">
    <title>visi-misi</title>
    <g id="Page-1" stroke="none" stroke-width="1" fill="none" fill-rule="evenodd">
        <g id="2a.-tentang-kami" transform="translate(-1046.000000, -274.000000)" fill-rule="nonzero">
            <g id="Group-7" transform="translate(1021.000000, 249.000000)">
                <g id="visi-misi" transform="translate(25.000000, 25.000000)">
                    <path d="M18.9655172,43.1034483 L31.0344828,43.1034483 L31.0344828,48.2758621 C31.0344828,49.2280772 30.2625599,50 29.3103448,50 L20.6896552,50 C19.7374401,50 18.9655172,49.2280772 18.9655172,48.2758621 L18.9655172,43.1034483 Z" id="Path" fill="#DCDEE0"></path>
                    <path d="M18.9655172,32.7586207 L18.9655172,36.2068966 L31.0344828,36.2068966 L31.0344828,32.7586207 C31.0344828,28.4482759 39.6551724,25 39.6551724,14.6551724 C39.6551724,6.56134418 33.0938282,0 25,0 C16.9061718,0 10.3448276,6.56134418 10.3448276,14.6551724 C10.3448276,24.137931 18.9655172,28.4482759 18.9655172,32.7586207 Z" id="Path" fill="#FBE36A"></path>
                    <path d="M27.5862069,18.9655172 C26.1578843,18.9655172 25,20.1234015 25,21.5517241 C25.000413,20.3309036 24.1473321,19.2759462 22.9534551,19.0208766 C21.759578,18.765807 20.5498746,19.3800544 20.0513711,20.4944588 C19.5528677,21.6088632 19.9012554,22.9200872 20.8871548,23.6400909 C21.8730541,24.3600946 23.2281063,24.2928952 24.137931,23.4788793 L24.137931,37.9310345 L25.862069,37.9310345 L25.862069,23.4788793 C26.7211549,24.2477083 27.9853946,24.3550575 28.9618122,23.7420851 C29.9382298,23.1291127 30.3910046,21.9438613 30.0719543,20.8360105 C29.752904,19.7281596 28.7390844,18.9652733 27.5862069,18.9655172 Z" id="Path" fill="#F7CC38"></path>
                    <polygon id="Path" fill="#E9EEF2" points="16.3793103 36.2068966 33.6206897 36.2068966 33.6206897 43.1034483 16.3793103 43.1034483"></polygon>
                    <polygon id="Path" fill="#DCDEE0" points="16.3793103 38.7931034 33.6206897 38.7931034 33.6206897 40.5172414 16.3793103 40.5172414"></polygon>
                    <circle id="Oval" fill="#F7CC38" cx="48.2758621" cy="17.2413793" r="1.72413793"></circle>
                    <g id="Group" transform="translate(2.586207, 0.862069)" fill="#FBE36A">
                        <path d="M43.9655172,1.72413793 L43.1034483,1.72413793 L43.1034483,0.862068966 C43.1034483,0.385961423 42.7174869,0 42.2413793,0 C41.7652718,0 41.3793103,0.385961423 41.3793103,0.862068966 L41.3793103,1.72413793 L40.5172414,1.72413793 C40.0411338,1.72413793 39.6551724,2.11009935 39.6551724,2.5862069 C39.6551724,3.06231444 40.0411338,3.44827586 40.5172414,3.44827586 L41.3793103,3.44827586 L41.3793103,4.31034483 C41.3793103,4.78645237 41.7652718,5.17241379 42.2413793,5.17241379 C42.7174869,5.17241379 43.1034483,4.78645237 43.1034483,4.31034483 L43.1034483,3.44827586 L43.9655172,3.44827586 C44.4416248,3.44827586 44.8275862,3.06231444 44.8275862,2.5862069 C44.8275862,2.11009935 44.4416248,1.72413793 43.9655172,1.72413793 Z" id="Path"></path>
                        <path d="M42.2413793,31.8965517 L41.3793103,31.8965517 L41.3793103,31.0344828 C41.3793103,30.5583752 40.9933489,30.1724138 40.5172414,30.1724138 C40.0411338,30.1724138 39.6551724,30.5583752 39.6551724,31.0344828 L39.6551724,31.8965517 L38.7931034,31.8965517 C38.3169959,31.8965517 37.9310345,32.2825131 37.9310345,32.7586207 C37.9310345,33.2347282 38.3169959,33.6206897 38.7931034,33.6206897 L39.6551724,33.6206897 L39.6551724,34.4827586 C39.6551724,34.9588662 40.0411338,35.3448276 40.5172414,35.3448276 C40.9933489,35.3448276 41.3793103,34.9588662 41.3793103,34.4827586 L41.3793103,33.6206897 L42.2413793,33.6206897 C42.7174869,33.6206897 43.1034483,33.2347282 43.1034483,32.7586207 C43.1034483,32.2825131 42.7174869,31.8965517 42.2413793,31.8965517 Z" id="Path"></path>
                        <path d="M1.72413793,4.31034483 C1.72413793,4.78645237 2.11009935,5.17241379 2.5862069,5.17241379 C3.06231444,5.17241379 3.44827586,4.78645237 3.44827586,4.31034483 L3.44827586,3.44827586 L4.31034483,3.44827586 C4.78645237,3.44827586 5.17241379,3.06231444 5.17241379,2.5862069 C5.17241379,2.11009935 4.78645237,1.72413793 4.31034483,1.72413793 L3.44827586,1.72413793 L3.44827586,0.862068966 C3.44827586,0.385961423 3.06231444,0 2.5862069,0 C2.11009935,0 1.72413793,0.385961423 1.72413793,0.862068966 L1.72413793,1.72413793 L0.862068966,1.72413793 C0.385961423,1.72413793 0,2.11009935 0,2.5862069 C0,3.06231444 0.385961423,3.44827586 0.862068966,3.44827586 L1.72413793,3.44827586 L1.72413793,4.31034483 Z" id="Path"></path>
                        <path d="M6.03448276,31.8965517 L5.17241379,31.8965517 L5.17241379,31.0344828 C5.17241379,30.5583752 4.78645237,30.1724138 4.31034483,30.1724138 C3.83423728,30.1724138 3.44827586,30.5583752 3.44827586,31.0344828 L3.44827586,31.8965517 L2.5862069,31.8965517 C2.11009935,31.8965517 1.72413793,32.2825131 1.72413793,32.7586207 C1.72413793,33.2347282 2.11009935,33.6206897 2.5862069,33.6206897 L3.44827586,33.6206897 L3.44827586,34.4827586 C3.44827586,34.9588662 3.83423728,35.3448276 4.31034483,35.3448276 C4.78645237,35.3448276 5.17241379,34.9588662 5.17241379,34.4827586 L5.17241379,33.6206897 L6.03448276,33.6206897 C6.5105903,33.6206897 6.89655172,33.2347282 6.89655172,32.7586207 C6.89655172,32.2825131 6.5105903,31.8965517 6.03448276,31.8965517 Z" id="Path"></path>
                    </g>
                    <circle id="Oval" fill="#F7CC38" cx="1.72413793" cy="17.2413793" r="1.72413793"></circle>
                </g>
            </g>
        </g>
    </g>
</svg>