<?xml version="1.0" encoding="UTF-8"?>
<svg width="1366px" height="336px" viewBox="0 0 1366 336" version="1.1" xmlns="http://www.w3.org/2000/svg" xmlns:xlink="http://www.w3.org/1999/xlink">
    <title>bg-cta</title>
    <defs>
        <rect id="path-1" x="0" y="0" width="1366" height="336"></rect>
        <linearGradient x1="0%" y1="50%" x2="100%" y2="50%" id="linearGradient-3">
            <stop stop-color="#FFBE00" offset="0%"></stop>
            <stop stop-color="#FFBE0F" offset="100%"></stop>
        </linearGradient>
    </defs>
    <g id="Page-1" stroke="none" stroke-width="1" fill="none" fill-rule="evenodd">
        <g id="1a.-beranda" transform="translate(0.000000, -3969.000000)">
            <g id="bg-cta" transform="translate(0.000000, 3969.000000)">
                <mask id="mask-2" fill="white">
                    <use xlink:href="#path-1"></use>
                </mask>
                <use id="BG" fill="#FFBE0F" xlink:href="#path-1"></use>
                <g id="Group" opacity="0.131766183" mask="url(#mask-2)">
                    <g transform="translate(294.543750, 242.745763)">
                        <g id="Group-79">
                            <path d="M3.39663978,1.70380661 C3.39663978,2.644901 2.6363837,3.40761323 1.69758817,3.40761323 C0.760256083,3.40761323 0,2.644901 0,1.70380661 C0,0.762712224 0.760256083,0 1.69758817,0 C2.6363837,0 3.39663978,0.762712224 3.39663978,1.70380661" id="Fill-1" fill="#1B8BC8"></path>
                            <path d="M13.5865591,1.70380661 C13.5865591,2.644901 12.8263031,3.40761323 11.8878734,3.40761323 C10.9501754,3.40761323 10.1899194,2.644901 10.1899194,1.70380661 C10.1899194,0.762712224 10.9501754,0 11.8878734,0 C12.8263031,0 13.5865591,0.762712224 13.5865591,1.70380661" id="Fill-3" fill="#1B8BC8"></path>
                            <path d="M22.9273185,1.70380661 C22.9273185,2.644901 22.1668987,3.40761323 21.2289987,3.40761323 C20.2907327,3.40761323 19.5306788,2.644901 19.5306788,1.70380661 C19.5306788,0.762712224 20.2907327,0 21.2289987,0 C22.1668987,0 22.9273185,0.762712224 22.9273185,1.70380661" id="Fill-5" fill="#1B8BC8"></path>
                            <path d="M33.1172379,1.70380661 C33.1172379,2.644901 32.356818,3.40761323 31.4181861,3.40761323 C30.4802861,3.40761323 29.7205981,2.644901 29.7205981,1.70380661 C29.7205981,0.762712224 30.4802861,0 31.4181861,0 C32.356818,0 33.1172379,0.762712224 33.1172379,1.70380661" id="Fill-7" fill="#1B8BC8"></path>
                            <path d="M42.4579973,1.70380661 C42.4579973,2.644901 41.6981071,3.40761323 40.7593116,3.40761323 C39.8216136,3.40761323 39.0613575,2.644901 39.0613575,1.70380661 C39.0613575,0.762712224 39.8216136,0 40.7593116,0 C41.6981071,0 42.4579973,0.762712224 42.4579973,1.70380661" id="Fill-9" fill="#1B8BC8"></path>
                            <path d="M3.39663978,11.074743 C3.39663978,12.0158374 2.6363837,12.7785496 1.69758817,12.7785496 C0.760256083,12.7785496 0,12.0158374 0,11.074743 C0,10.1340156 0.760256083,9.37093637 1.69758817,9.37093637 C2.6363837,9.37093637 3.39663978,10.1340156 3.39663978,11.074743" id="Fill-14" fill="#1B8BC8"></path>
                            <path d="M13.5865591,11.074743 C13.5865591,12.0158374 12.8263031,12.7785496 11.8878734,12.7785496 C10.9501754,12.7785496 10.1899194,12.0158374 10.1899194,11.074743 C10.1899194,10.1340156 10.9501754,9.37093637 11.8878734,9.37093637 C12.8263031,9.37093637 13.5865591,10.1340156 13.5865591,11.074743" id="Fill-16" fill="#1B8BC8"></path>
                            <path d="M22.9273185,11.074743 C22.9273185,12.0158374 22.1668987,12.7785496 21.2289987,12.7785496 C20.2907327,12.7785496 19.5306788,12.0158374 19.5306788,11.074743 C19.5306788,10.1340156 20.2907327,9.37093637 21.2289987,9.37093637 C22.1668987,9.37093637 22.9273185,10.1340156 22.9273185,11.074743" id="Fill-18" fill="#1B8BC8"></path>
                            <path d="M33.1172379,11.074743 C33.1172379,12.0158374 32.356818,12.7785496 31.4181861,12.7785496 C30.4802861,12.7785496 29.7205981,12.0158374 29.7205981,11.074743 C29.7205981,10.1340156 30.4802861,9.37093637 31.4181861,9.37093637 C32.356818,9.37093637 33.1172379,10.1340156 33.1172379,11.074743" id="Fill-20" fill="#1B8BC8"></path>
                            <path d="M42.4579973,11.074743 C42.4579973,12.0158374 41.6981071,12.7785496 40.7593116,12.7785496 C39.8216136,12.7785496 39.0613575,12.0158374 39.0613575,11.074743 C39.0613575,10.1340156 39.8216136,9.37093637 40.7593116,9.37093637 C41.6981071,9.37093637 42.4579973,10.1340156 42.4579973,11.074743" id="Fill-22" fill="#1B8BC8"></path>
                            <path d="M3.39663978,21.7237637 C3.39663978,22.8995462 2.6363837,23.8532926 1.69758817,23.8532926 C0.760256083,23.8532926 0,22.8995462 0,21.7237637 C0,20.5475224 0.760256083,19.593776 1.69758817,19.593776 C2.6363837,19.593776 3.39663978,20.5475224 3.39663978,21.7237637" id="Fill-27" fill="#1B8BC8"></path>
                            <path d="M13.5865591,21.7237637 C13.5865591,22.8995462 12.8263031,23.8532926 11.8878734,23.8532926 C10.9501754,23.8532926 10.1899194,22.8995462 10.1899194,21.7237637 C10.1899194,20.5475224 10.9501754,19.593776 11.8878734,19.593776 C12.8263031,19.593776 13.5865591,20.5475224 13.5865591,21.7237637" id="Fill-29" fill="#1B8BC8"></path>
                            <path d="M22.9273185,21.7237637 C22.9273185,22.8995462 22.1668987,23.8532926 21.2289987,23.8532926 C20.2907327,23.8532926 19.5306788,22.8995462 19.5306788,21.7237637 C19.5306788,20.5475224 20.2907327,19.593776 21.2289987,19.593776 C22.1668987,19.593776 22.9273185,20.5475224 22.9273185,21.7237637" id="Fill-31" fill="#1B8BC8"></path>
                            <path d="M33.1172379,21.7237637 C33.1172379,22.8995462 32.356818,23.8532926 31.4181861,23.8532926 C30.4802861,23.8532926 29.7205981,22.8995462 29.7205981,21.7237637 C29.7205981,20.5475224 30.4802861,19.593776 31.4181861,19.593776 C32.356818,19.593776 33.1172379,20.5475224 33.1172379,21.7237637" id="Fill-33" fill="#1B8BC8"></path>
                            <path d="M42.4579973,21.7237637 C42.4579973,22.8995462 41.6981071,23.8532926 40.7593116,23.8532926 C39.8216136,23.8532926 39.0613575,22.8995462 39.0613575,21.7237637 C39.0613575,20.5475224 39.8216136,19.593776 40.7593116,19.593776 C41.6981071,19.593776 42.4579973,20.5475224 42.4579973,21.7237637" id="Fill-35" fill="#1B8BC8"></path>
                            <path d="M3.39663978,31.0942413 C3.39663978,32.2704826 2.6363837,33.224229 1.69758817,33.224229 C0.760256083,33.224229 0,32.2704826 0,31.0942413 C0,29.9184588 0.760256083,28.9647124 1.69758817,28.9647124 C2.6363837,28.9647124 3.39663978,29.9184588 3.39663978,31.0942413" id="Fill-40" fill="#1B8BC8"></path>
                            <path d="M13.5865591,31.0942413 C13.5865591,32.2704826 12.8263031,33.224229 11.8878734,33.224229 C10.9501754,33.224229 10.1899194,32.2704826 10.1899194,31.0942413 C10.1899194,29.9184588 10.9501754,28.9647124 11.8878734,28.9647124 C12.8263031,28.9647124 13.5865591,29.9184588 13.5865591,31.0942413" id="Fill-42" fill="#1B8BC8"></path>
                            <path d="M22.9273185,31.0942413 C22.9273185,32.2704826 22.1668987,33.224229 21.2289987,33.224229 C20.2907327,33.224229 19.5306788,32.2704826 19.5306788,31.0942413 C19.5306788,29.9184588 20.2907327,28.9647124 21.2289987,28.9647124 C22.1668987,28.9647124 22.9273185,29.9184588 22.9273185,31.0942413" id="Fill-44" fill="#1B8BC8"></path>
                            <path d="M33.1172379,31.0942413 C33.1172379,32.2704826 32.356818,33.224229 31.4181861,33.224229 C30.4802861,33.224229 29.7205981,32.2704826 29.7205981,31.0942413 C29.7205981,29.9184588 30.4802861,28.9647124 31.4181861,28.9647124 C32.356818,28.9647124 33.1172379,29.9184588 33.1172379,31.0942413" id="Fill-46" fill="#1B8BC8"></path>
                            <path d="M42.4579973,31.0942413 C42.4579973,32.2704826 41.6981071,33.224229 40.7593116,33.224229 C39.8216136,33.224229 39.0613575,32.2704826 39.0613575,31.0942413 C39.0613575,29.9184588 39.8216136,28.9647124 40.7593116,28.9647124 C41.6981071,28.9647124 42.4579973,29.9184588 42.4579973,31.0942413" id="Fill-48" fill="#1B8BC8"></path>
                            <path d="M3.39663978,40.8913587 C3.39663978,41.8320861 2.6363837,42.5951653 1.69758817,42.5951653 C0.760256083,42.5951653 0,41.8320861 0,40.8913587 C0,39.9502643 0.760256083,39.1875521 1.69758817,39.1875521 C2.6363837,39.1875521 3.39663978,39.9502643 3.39663978,40.8913587" id="Fill-53" fill="#1B8BC8"></path>
                            <path d="M13.5865591,40.8913587 C13.5865591,41.8320861 12.8263031,42.5951653 11.8878734,42.5951653 C10.9501754,42.5951653 10.1899194,41.8320861 10.1899194,40.8913587 C10.1899194,39.9502643 10.9501754,39.1875521 11.8878734,39.1875521 C12.8263031,39.1875521 13.5865591,39.9502643 13.5865591,40.8913587" id="Fill-55" fill="#1B8BC8"></path>
                            <path d="M22.9273185,40.8913587 C22.9273185,41.8320861 22.1668987,42.5951653 21.2289987,42.5951653 C20.2907327,42.5951653 19.5306788,41.8320861 19.5306788,40.8913587 C19.5306788,39.9502643 20.2907327,39.1875521 21.2289987,39.1875521 C22.1668987,39.1875521 22.9273185,39.9502643 22.9273185,40.8913587" id="Fill-57" fill="#1B8BC8"></path>
                            <path d="M33.1172379,40.8913587 C33.1172379,41.8320861 32.356818,42.5951653 31.4181861,42.5951653 C30.4802861,42.5951653 29.7205981,41.8320861 29.7205981,40.8913587 C29.7205981,39.9502643 30.4802861,39.1875521 31.4181861,39.1875521 C32.356818,39.1875521 33.1172379,39.9502643 33.1172379,40.8913587" id="Fill-59" fill="#1B8BC8"></path>
                            <path d="M42.4579973,40.8913587 C42.4579973,41.8320861 41.6981071,42.5951653 40.7593116,42.5951653 C39.8216136,42.5951653 39.0613575,41.8320861 39.0613575,40.8913587 C39.0613575,39.9502643 39.8216136,39.1875521 40.7593116,39.1875521 C41.6981071,39.1875521 42.4579973,39.9502643 42.4579973,40.8913587" id="Fill-61" fill="#1B8BC8"></path>
                            <path d="M3.39663978,50.2622951 C3.39663978,51.2033895 2.6363837,51.9661017 1.69758817,51.9661017 C0.760256083,51.9661017 0,51.2033895 0,50.2622951 C0,49.3212007 0.760256083,48.5584885 1.69758817,48.5584885 C2.6363837,48.5584885 3.39663978,49.3212007 3.39663978,50.2622951" id="Fill-66" fill="#1B8BC8"></path>
                            <path d="M13.5865591,50.2622951 C13.5865591,51.2033895 12.8263031,51.9661017 11.8878734,51.9661017 C10.9501754,51.9661017 10.1899194,51.2033895 10.1899194,50.2622951 C10.1899194,49.3212007 10.9501754,48.5584885 11.8878734,48.5584885 C12.8263031,48.5584885 13.5865591,49.3212007 13.5865591,50.2622951" id="Fill-68" fill="#1B8BC8"></path>
                            <path d="M22.9273185,50.2622951 C22.9273185,51.2033895 22.1668987,51.9661017 21.2289987,51.9661017 C20.2907327,51.9661017 19.5306788,51.2033895 19.5306788,50.2622951 C19.5306788,49.3212007 20.2907327,48.5584885 21.2289987,48.5584885 C22.1668987,48.5584885 22.9273185,49.3212007 22.9273185,50.2622951" id="Fill-70" fill="#1B8BC8"></path>
                            <path d="M33.1172379,50.2622951 C33.1172379,51.2033895 32.356818,51.9661017 31.4181861,51.9661017 C30.4802861,51.9661017 29.7205981,51.2033895 29.7205981,50.2622951 C29.7205981,49.3212007 30.4802861,48.5584885 31.4181861,48.5584885 C32.356818,48.5584885 33.1172379,49.3212007 33.1172379,50.2622951" id="Fill-72" fill="#1B8BC8"></path>
                            <path d="M42.4579973,50.2622951 C42.4579973,51.2033895 41.6981071,51.9661017 40.7593116,51.9661017 C39.8216136,51.9661017 39.0613575,51.2033895 39.0613575,50.2622951 C39.0613575,49.3212007 39.8216136,48.5584885 40.7593116,48.5584885 C41.6981071,48.5584885 42.4579973,49.3212007 42.4579973,50.2622951" id="Fill-74" fill="#1B8BC8"></path>
                            <path d="M52.6479167,1.70380661 C52.6479167,2.644901 51.8880264,3.40761323 50.9492309,3.40761323 C50.011533,3.40761323 49.2512769,2.644901 49.2512769,1.70380661 C49.2512769,0.762712224 50.011533,0 50.9492309,0 C51.8880264,0 52.6479167,0.762712224 52.6479167,1.70380661" id="Fill-9-Copy" fill="#1B8BC8"></path>
                            <path d="M52.6479167,11.074743 C52.6479167,12.0158374 51.8880264,12.7785496 50.9492309,12.7785496 C50.011533,12.7785496 49.2512769,12.0158374 49.2512769,11.074743 C49.2512769,10.1340156 50.011533,9.37093637 50.9492309,9.37093637 C51.8880264,9.37093637 52.6479167,10.1340156 52.6479167,11.074743" id="Fill-22-Copy" fill="#1B8BC8"></path>
                            <path d="M52.6479167,21.7237637 C52.6479167,22.8995462 51.8880264,23.8532926 50.9492309,23.8532926 C50.011533,23.8532926 49.2512769,22.8995462 49.2512769,21.7237637 C49.2512769,20.5475224 50.011533,19.593776 50.9492309,19.593776 C51.8880264,19.593776 52.6479167,20.5475224 52.6479167,21.7237637" id="Fill-35-Copy" fill="#1B8BC8"></path>
                            <path d="M52.6479167,31.0942413 C52.6479167,32.2704826 51.8880264,33.224229 50.9492309,33.224229 C50.011533,33.224229 49.2512769,32.2704826 49.2512769,31.0942413 C49.2512769,29.9184588 50.011533,28.9647124 50.9492309,28.9647124 C51.8880264,28.9647124 52.6479167,29.9184588 52.6479167,31.0942413" id="Fill-48-Copy" fill="#1B8BC8"></path>
                            <path d="M52.6479167,40.8913587 C52.6479167,41.8320861 51.8880264,42.5951653 50.9492309,42.5951653 C50.011533,42.5951653 49.2512769,41.8320861 49.2512769,40.8913587 C49.2512769,39.9502643 50.011533,39.1875521 50.9492309,39.1875521 C51.8880264,39.1875521 52.6479167,39.9502643 52.6479167,40.8913587" id="Fill-61-Copy" fill="#1B8BC8"></path>
                            <path d="M52.6479167,50.2622951 C52.6479167,51.2033895 51.8880264,51.9661017 50.9492309,51.9661017 C50.011533,51.9661017 49.2512769,51.2033895 49.2512769,50.2622951 C49.2512769,49.3212007 50.011533,48.5584885 50.9492309,48.5584885 C51.8880264,48.5584885 52.6479167,49.3212007 52.6479167,50.2622951" id="Fill-74-Copy" fill="#1B8BC8"></path>
                        </g>
                        <g id="Group-79-Copy" transform="translate(0.000000, 56.949153)">
                            <path d="M3.39663978,1.70380661 C3.39663978,2.644901 2.6363837,3.40761323 1.69758817,3.40761323 C0.760256083,3.40761323 0,2.644901 0,1.70380661 C0,0.762712224 0.760256083,0 1.69758817,0 C2.6363837,0 3.39663978,0.762712224 3.39663978,1.70380661" id="Fill-1" fill="#1B8BC8"></path>
                            <path d="M13.5865591,1.70380661 C13.5865591,2.644901 12.8263031,3.40761323 11.8878734,3.40761323 C10.9501754,3.40761323 10.1899194,2.644901 10.1899194,1.70380661 C10.1899194,0.762712224 10.9501754,0 11.8878734,0 C12.8263031,0 13.5865591,0.762712224 13.5865591,1.70380661" id="Fill-3" fill="#1B8BC8"></path>
                            <path d="M22.9273185,1.70380661 C22.9273185,2.644901 22.1668987,3.40761323 21.2289987,3.40761323 C20.2907327,3.40761323 19.5306788,2.644901 19.5306788,1.70380661 C19.5306788,0.762712224 20.2907327,0 21.2289987,0 C22.1668987,0 22.9273185,0.762712224 22.9273185,1.70380661" id="Fill-5" fill="#1B8BC8"></path>
                            <path d="M33.1172379,1.70380661 C33.1172379,2.644901 32.356818,3.40761323 31.4181861,3.40761323 C30.4802861,3.40761323 29.7205981,2.644901 29.7205981,1.70380661 C29.7205981,0.762712224 30.4802861,0 31.4181861,0 C32.356818,0 33.1172379,0.762712224 33.1172379,1.70380661" id="Fill-7" fill="#1B8BC8"></path>
                            <path d="M42.4579973,1.70380661 C42.4579973,2.644901 41.6981071,3.40761323 40.7593116,3.40761323 C39.8216136,3.40761323 39.0613575,2.644901 39.0613575,1.70380661 C39.0613575,0.762712224 39.8216136,0 40.7593116,0 C41.6981071,0 42.4579973,0.762712224 42.4579973,1.70380661" id="Fill-9" fill="#1B8BC8"></path>
                            <path d="M3.39663978,11.074743 C3.39663978,12.0158374 2.6363837,12.7785496 1.69758817,12.7785496 C0.760256083,12.7785496 0,12.0158374 0,11.074743 C0,10.1340156 0.760256083,9.37093637 1.69758817,9.37093637 C2.6363837,9.37093637 3.39663978,10.1340156 3.39663978,11.074743" id="Fill-14" fill="#1B8BC8"></path>
                            <path d="M13.5865591,11.074743 C13.5865591,12.0158374 12.8263031,12.7785496 11.8878734,12.7785496 C10.9501754,12.7785496 10.1899194,12.0158374 10.1899194,11.074743 C10.1899194,10.1340156 10.9501754,9.37093637 11.8878734,9.37093637 C12.8263031,9.37093637 13.5865591,10.1340156 13.5865591,11.074743" id="Fill-16" fill="#1B8BC8"></path>
                            <path d="M22.9273185,11.074743 C22.9273185,12.0158374 22.1668987,12.7785496 21.2289987,12.7785496 C20.2907327,12.7785496 19.5306788,12.0158374 19.5306788,11.074743 C19.5306788,10.1340156 20.2907327,9.37093637 21.2289987,9.37093637 C22.1668987,9.37093637 22.9273185,10.1340156 22.9273185,11.074743" id="Fill-18" fill="#1B8BC8"></path>
                            <path d="M33.1172379,11.074743 C33.1172379,12.0158374 32.356818,12.7785496 31.4181861,12.7785496 C30.4802861,12.7785496 29.7205981,12.0158374 29.7205981,11.074743 C29.7205981,10.1340156 30.4802861,9.37093637 31.4181861,9.37093637 C32.356818,9.37093637 33.1172379,10.1340156 33.1172379,11.074743" id="Fill-20" fill="#1B8BC8"></path>
                            <path d="M42.4579973,11.074743 C42.4579973,12.0158374 41.6981071,12.7785496 40.7593116,12.7785496 C39.8216136,12.7785496 39.0613575,12.0158374 39.0613575,11.074743 C39.0613575,10.1340156 39.8216136,9.37093637 40.7593116,9.37093637 C41.6981071,9.37093637 42.4579973,10.1340156 42.4579973,11.074743" id="Fill-22" fill="#1B8BC8"></path>
                            <path d="M3.39663978,21.7237637 C3.39663978,22.8995462 2.6363837,23.8532926 1.69758817,23.8532926 C0.760256083,23.8532926 0,22.8995462 0,21.7237637 C0,20.5475224 0.760256083,19.593776 1.69758817,19.593776 C2.6363837,19.593776 3.39663978,20.5475224 3.39663978,21.7237637" id="Fill-27" fill="#1B8BC8"></path>
                            <path d="M13.5865591,21.7237637 C13.5865591,22.8995462 12.8263031,23.8532926 11.8878734,23.8532926 C10.9501754,23.8532926 10.1899194,22.8995462 10.1899194,21.7237637 C10.1899194,20.5475224 10.9501754,19.593776 11.8878734,19.593776 C12.8263031,19.593776 13.5865591,20.5475224 13.5865591,21.7237637" id="Fill-29" fill="#1B8BC8"></path>
                            <path d="M22.9273185,21.7237637 C22.9273185,22.8995462 22.1668987,23.8532926 21.2289987,23.8532926 C20.2907327,23.8532926 19.5306788,22.8995462 19.5306788,21.7237637 C19.5306788,20.5475224 20.2907327,19.593776 21.2289987,19.593776 C22.1668987,19.593776 22.9273185,20.5475224 22.9273185,21.7237637" id="Fill-31" fill="#1B8BC8"></path>
                            <path d="M33.1172379,21.7237637 C33.1172379,22.8995462 32.356818,23.8532926 31.4181861,23.8532926 C30.4802861,23.8532926 29.7205981,22.8995462 29.7205981,21.7237637 C29.7205981,20.5475224 30.4802861,19.593776 31.4181861,19.593776 C32.356818,19.593776 33.1172379,20.5475224 33.1172379,21.7237637" id="Fill-33" fill="#1B8BC8"></path>
                            <path d="M42.4579973,21.7237637 C42.4579973,22.8995462 41.6981071,23.8532926 40.7593116,23.8532926 C39.8216136,23.8532926 39.0613575,22.8995462 39.0613575,21.7237637 C39.0613575,20.5475224 39.8216136,19.593776 40.7593116,19.593776 C41.6981071,19.593776 42.4579973,20.5475224 42.4579973,21.7237637" id="Fill-35" fill="#1B8BC8"></path>
                            <path d="M3.39663978,31.0942413 C3.39663978,32.2704826 2.6363837,33.224229 1.69758817,33.224229 C0.760256083,33.224229 0,32.2704826 0,31.0942413 C0,29.9184588 0.760256083,28.9647124 1.69758817,28.9647124 C2.6363837,28.9647124 3.39663978,29.9184588 3.39663978,31.0942413" id="Fill-40" fill="#1B8BC8"></path>
                            <path d="M13.5865591,31.0942413 C13.5865591,32.2704826 12.8263031,33.224229 11.8878734,33.224229 C10.9501754,33.224229 10.1899194,32.2704826 10.1899194,31.0942413 C10.1899194,29.9184588 10.9501754,28.9647124 11.8878734,28.9647124 C12.8263031,28.9647124 13.5865591,29.9184588 13.5865591,31.0942413" id="Fill-42" fill="#1B8BC8"></path>
                            <path d="M22.9273185,31.0942413 C22.9273185,32.2704826 22.1668987,33.224229 21.2289987,33.224229 C20.2907327,33.224229 19.5306788,32.2704826 19.5306788,31.0942413 C19.5306788,29.9184588 20.2907327,28.9647124 21.2289987,28.9647124 C22.1668987,28.9647124 22.9273185,29.9184588 22.9273185,31.0942413" id="Fill-44" fill="#1B8BC8"></path>
                            <path d="M33.1172379,31.0942413 C33.1172379,32.2704826 32.356818,33.224229 31.4181861,33.224229 C30.4802861,33.224229 29.7205981,32.2704826 29.7205981,31.0942413 C29.7205981,29.9184588 30.4802861,28.9647124 31.4181861,28.9647124 C32.356818,28.9647124 33.1172379,29.9184588 33.1172379,31.0942413" id="Fill-46" fill="#1B8BC8"></path>
                            <path d="M42.4579973,31.0942413 C42.4579973,32.2704826 41.6981071,33.224229 40.7593116,33.224229 C39.8216136,33.224229 39.0613575,32.2704826 39.0613575,31.0942413 C39.0613575,29.9184588 39.8216136,28.9647124 40.7593116,28.9647124 C41.6981071,28.9647124 42.4579973,29.9184588 42.4579973,31.0942413" id="Fill-48" fill="#1B8BC8"></path>
                            <path d="M52.6479167,1.70380661 C52.6479167,2.644901 51.8880264,3.40761323 50.9492309,3.40761323 C50.011533,3.40761323 49.2512769,2.644901 49.2512769,1.70380661 C49.2512769,0.762712224 50.011533,0 50.9492309,0 C51.8880264,0 52.6479167,0.762712224 52.6479167,1.70380661" id="Fill-9-Copy" fill="#1B8BC8"></path>
                            <path d="M52.6479167,11.074743 C52.6479167,12.0158374 51.8880264,12.7785496 50.9492309,12.7785496 C50.011533,12.7785496 49.2512769,12.0158374 49.2512769,11.074743 C49.2512769,10.1340156 50.011533,9.37093637 50.9492309,9.37093637 C51.8880264,9.37093637 52.6479167,10.1340156 52.6479167,11.074743" id="Fill-22-Copy" fill="#1B8BC8"></path>
                            <path d="M52.6479167,21.7237637 C52.6479167,22.8995462 51.8880264,23.8532926 50.9492309,23.8532926 C50.011533,23.8532926 49.2512769,22.8995462 49.2512769,21.7237637 C49.2512769,20.5475224 50.011533,19.593776 50.9492309,19.593776 C51.8880264,19.593776 52.6479167,20.5475224 52.6479167,21.7237637" id="Fill-35-Copy" fill="#1B8BC8"></path>
                            <path d="M52.6479167,31.0942413 C52.6479167,32.2704826 51.8880264,33.224229 50.9492309,33.224229 C50.011533,33.224229 49.2512769,32.2704826 49.2512769,31.0942413 C49.2512769,29.9184588 50.011533,28.9647124 50.9492309,28.9647124 C51.8880264,28.9647124 52.6479167,29.9184588 52.6479167,31.0942413" id="Fill-48-Copy" fill="#1B8BC8"></path>
                        </g>
                        <g id="Group-79-Copy-3" transform="translate(59.762500, 0.000000)">
                            <path d="M3.39663978,1.70380661 C3.39663978,2.644901 2.6363837,3.40761323 1.69758817,3.40761323 C0.760256083,3.40761323 0,2.644901 0,1.70380661 C0,0.762712224 0.760256083,0 1.69758817,0 C2.6363837,0 3.39663978,0.762712224 3.39663978,1.70380661" id="Fill-1" fill="#1B8BC8"></path>
                            <path d="M13.5865591,1.70380661 C13.5865591,2.644901 12.8263031,3.40761323 11.8878734,3.40761323 C10.9501754,3.40761323 10.1899194,2.644901 10.1899194,1.70380661 C10.1899194,0.762712224 10.9501754,0 11.8878734,0 C12.8263031,0 13.5865591,0.762712224 13.5865591,1.70380661" id="Fill-3" fill="#1B8BC8"></path>
                            <path d="M22.9273185,1.70380661 C22.9273185,2.644901 22.1668987,3.40761323 21.2289987,3.40761323 C20.2907327,3.40761323 19.5306788,2.644901 19.5306788,1.70380661 C19.5306788,0.762712224 20.2907327,0 21.2289987,0 C22.1668987,0 22.9273185,0.762712224 22.9273185,1.70380661" id="Fill-5" fill="#1B8BC8"></path>
                            <path d="M33.1172379,1.70380661 C33.1172379,2.644901 32.356818,3.40761323 31.4181861,3.40761323 C30.4802861,3.40761323 29.7205981,2.644901 29.7205981,1.70380661 C29.7205981,0.762712224 30.4802861,0 31.4181861,0 C32.356818,0 33.1172379,0.762712224 33.1172379,1.70380661" id="Fill-7" fill="#1B8BC8"></path>
                            <path d="M42.4579973,1.70380661 C42.4579973,2.644901 41.6981071,3.40761323 40.7593116,3.40761323 C39.8216136,3.40761323 39.0613575,2.644901 39.0613575,1.70380661 C39.0613575,0.762712224 39.8216136,0 40.7593116,0 C41.6981071,0 42.4579973,0.762712224 42.4579973,1.70380661" id="Fill-9" fill="#1B8BC8"></path>
                            <path d="M3.39663978,11.074743 C3.39663978,12.0158374 2.6363837,12.7785496 1.69758817,12.7785496 C0.760256083,12.7785496 0,12.0158374 0,11.074743 C0,10.1340156 0.760256083,9.37093637 1.69758817,9.37093637 C2.6363837,9.37093637 3.39663978,10.1340156 3.39663978,11.074743" id="Fill-14" fill="#1B8BC8"></path>
                            <path d="M13.5865591,11.074743 C13.5865591,12.0158374 12.8263031,12.7785496 11.8878734,12.7785496 C10.9501754,12.7785496 10.1899194,12.0158374 10.1899194,11.074743 C10.1899194,10.1340156 10.9501754,9.37093637 11.8878734,9.37093637 C12.8263031,9.37093637 13.5865591,10.1340156 13.5865591,11.074743" id="Fill-16" fill="#1B8BC8"></path>
                            <path d="M22.9273185,11.074743 C22.9273185,12.0158374 22.1668987,12.7785496 21.2289987,12.7785496 C20.2907327,12.7785496 19.5306788,12.0158374 19.5306788,11.074743 C19.5306788,10.1340156 20.2907327,9.37093637 21.2289987,9.37093637 C22.1668987,9.37093637 22.9273185,10.1340156 22.9273185,11.074743" id="Fill-18" fill="#1B8BC8"></path>
                            <path d="M33.1172379,11.074743 C33.1172379,12.0158374 32.356818,12.7785496 31.4181861,12.7785496 C30.4802861,12.7785496 29.7205981,12.0158374 29.7205981,11.074743 C29.7205981,10.1340156 30.4802861,9.37093637 31.4181861,9.37093637 C32.356818,9.37093637 33.1172379,10.1340156 33.1172379,11.074743" id="Fill-20" fill="#1B8BC8"></path>
                            <path d="M42.4579973,11.074743 C42.4579973,12.0158374 41.6981071,12.7785496 40.7593116,12.7785496 C39.8216136,12.7785496 39.0613575,12.0158374 39.0613575,11.074743 C39.0613575,10.1340156 39.8216136,9.37093637 40.7593116,9.37093637 C41.6981071,9.37093637 42.4579973,10.1340156 42.4579973,11.074743" id="Fill-22" fill="#1B8BC8"></path>
                            <path d="M3.39663978,21.7237637 C3.39663978,22.8995462 2.6363837,23.8532926 1.69758817,23.8532926 C0.760256083,23.8532926 0,22.8995462 0,21.7237637 C0,20.5475224 0.760256083,19.593776 1.69758817,19.593776 C2.6363837,19.593776 3.39663978,20.5475224 3.39663978,21.7237637" id="Fill-27" fill="#1B8BC8"></path>
                            <path d="M13.5865591,21.7237637 C13.5865591,22.8995462 12.8263031,23.8532926 11.8878734,23.8532926 C10.9501754,23.8532926 10.1899194,22.8995462 10.1899194,21.7237637 C10.1899194,20.5475224 10.9501754,19.593776 11.8878734,19.593776 C12.8263031,19.593776 13.5865591,20.5475224 13.5865591,21.7237637" id="Fill-29" fill="#1B8BC8"></path>
                            <path d="M22.9273185,21.7237637 C22.9273185,22.8995462 22.1668987,23.8532926 21.2289987,23.8532926 C20.2907327,23.8532926 19.5306788,22.8995462 19.5306788,21.7237637 C19.5306788,20.5475224 20.2907327,19.593776 21.2289987,19.593776 C22.1668987,19.593776 22.9273185,20.5475224 22.9273185,21.7237637" id="Fill-31" fill="#1B8BC8"></path>
                            <path d="M33.1172379,21.7237637 C33.1172379,22.8995462 32.356818,23.8532926 31.4181861,23.8532926 C30.4802861,23.8532926 29.7205981,22.8995462 29.7205981,21.7237637 C29.7205981,20.5475224 30.4802861,19.593776 31.4181861,19.593776 C32.356818,19.593776 33.1172379,20.5475224 33.1172379,21.7237637" id="Fill-33" fill="#1B8BC8"></path>
                            <path d="M42.4579973,21.7237637 C42.4579973,22.8995462 41.6981071,23.8532926 40.7593116,23.8532926 C39.8216136,23.8532926 39.0613575,22.8995462 39.0613575,21.7237637 C39.0613575,20.5475224 39.8216136,19.593776 40.7593116,19.593776 C41.6981071,19.593776 42.4579973,20.5475224 42.4579973,21.7237637" id="Fill-35" fill="#1B8BC8"></path>
                            <path d="M3.39663978,31.0942413 C3.39663978,32.2704826 2.6363837,33.224229 1.69758817,33.224229 C0.760256083,33.224229 0,32.2704826 0,31.0942413 C0,29.9184588 0.760256083,28.9647124 1.69758817,28.9647124 C2.6363837,28.9647124 3.39663978,29.9184588 3.39663978,31.0942413" id="Fill-40" fill="#1B8BC8"></path>
                            <path d="M13.5865591,31.0942413 C13.5865591,32.2704826 12.8263031,33.224229 11.8878734,33.224229 C10.9501754,33.224229 10.1899194,32.2704826 10.1899194,31.0942413 C10.1899194,29.9184588 10.9501754,28.9647124 11.8878734,28.9647124 C12.8263031,28.9647124 13.5865591,29.9184588 13.5865591,31.0942413" id="Fill-42" fill="#1B8BC8"></path>
                            <path d="M22.9273185,31.0942413 C22.9273185,32.2704826 22.1668987,33.224229 21.2289987,33.224229 C20.2907327,33.224229 19.5306788,32.2704826 19.5306788,31.0942413 C19.5306788,29.9184588 20.2907327,28.9647124 21.2289987,28.9647124 C22.1668987,28.9647124 22.9273185,29.9184588 22.9273185,31.0942413" id="Fill-44" fill="#1B8BC8"></path>
                            <path d="M33.1172379,31.0942413 C33.1172379,32.2704826 32.356818,33.224229 31.4181861,33.224229 C30.4802861,33.224229 29.7205981,32.2704826 29.7205981,31.0942413 C29.7205981,29.9184588 30.4802861,28.9647124 31.4181861,28.9647124 C32.356818,28.9647124 33.1172379,29.9184588 33.1172379,31.0942413" id="Fill-46" fill="#1B8BC8"></path>
                            <path d="M42.4579973,31.0942413 C42.4579973,32.2704826 41.6981071,33.224229 40.7593116,33.224229 C39.8216136,33.224229 39.0613575,32.2704826 39.0613575,31.0942413 C39.0613575,29.9184588 39.8216136,28.9647124 40.7593116,28.9647124 C41.6981071,28.9647124 42.4579973,29.9184588 42.4579973,31.0942413" id="Fill-48" fill="#1B8BC8"></path>
                            <path d="M3.39663978,40.8913587 C3.39663978,41.8320861 2.6363837,42.5951653 1.69758817,42.5951653 C0.760256083,42.5951653 0,41.8320861 0,40.8913587 C0,39.9502643 0.760256083,39.1875521 1.69758817,39.1875521 C2.6363837,39.1875521 3.39663978,39.9502643 3.39663978,40.8913587" id="Fill-53" fill="#1B8BC8"></path>
                            <path d="M13.5865591,40.8913587 C13.5865591,41.8320861 12.8263031,42.5951653 11.8878734,42.5951653 C10.9501754,42.5951653 10.1899194,41.8320861 10.1899194,40.8913587 C10.1899194,39.9502643 10.9501754,39.1875521 11.8878734,39.1875521 C12.8263031,39.1875521 13.5865591,39.9502643 13.5865591,40.8913587" id="Fill-55" fill="#1B8BC8"></path>
                            <path d="M22.9273185,40.8913587 C22.9273185,41.8320861 22.1668987,42.5951653 21.2289987,42.5951653 C20.2907327,42.5951653 19.5306788,41.8320861 19.5306788,40.8913587 C19.5306788,39.9502643 20.2907327,39.1875521 21.2289987,39.1875521 C22.1668987,39.1875521 22.9273185,39.9502643 22.9273185,40.8913587" id="Fill-57" fill="#1B8BC8"></path>
                            <path d="M33.1172379,40.8913587 C33.1172379,41.8320861 32.356818,42.5951653 31.4181861,42.5951653 C30.4802861,42.5951653 29.7205981,41.8320861 29.7205981,40.8913587 C29.7205981,39.9502643 30.4802861,39.1875521 31.4181861,39.1875521 C32.356818,39.1875521 33.1172379,39.9502643 33.1172379,40.8913587" id="Fill-59" fill="#1B8BC8"></path>
                            <path d="M42.4579973,40.8913587 C42.4579973,41.8320861 41.6981071,42.5951653 40.7593116,42.5951653 C39.8216136,42.5951653 39.0613575,41.8320861 39.0613575,40.8913587 C39.0613575,39.9502643 39.8216136,39.1875521 40.7593116,39.1875521 C41.6981071,39.1875521 42.4579973,39.9502643 42.4579973,40.8913587" id="Fill-61" fill="#1B8BC8"></path>
                            <path d="M3.39663978,50.2622951 C3.39663978,51.2033895 2.6363837,51.9661017 1.69758817,51.9661017 C0.760256083,51.9661017 0,51.2033895 0,50.2622951 C0,49.3212007 0.760256083,48.5584885 1.69758817,48.5584885 C2.6363837,48.5584885 3.39663978,49.3212007 3.39663978,50.2622951" id="Fill-66" fill="#1B8BC8"></path>
                            <path d="M13.5865591,50.2622951 C13.5865591,51.2033895 12.8263031,51.9661017 11.8878734,51.9661017 C10.9501754,51.9661017 10.1899194,51.2033895 10.1899194,50.2622951 C10.1899194,49.3212007 10.9501754,48.5584885 11.8878734,48.5584885 C12.8263031,48.5584885 13.5865591,49.3212007 13.5865591,50.2622951" id="Fill-68" fill="#1B8BC8"></path>
                            <path d="M22.9273185,50.2622951 C22.9273185,51.2033895 22.1668987,51.9661017 21.2289987,51.9661017 C20.2907327,51.9661017 19.5306788,51.2033895 19.5306788,50.2622951 C19.5306788,49.3212007 20.2907327,48.5584885 21.2289987,48.5584885 C22.1668987,48.5584885 22.9273185,49.3212007 22.9273185,50.2622951" id="Fill-70" fill="#1B8BC8"></path>
                            <path d="M33.1172379,50.2622951 C33.1172379,51.2033895 32.356818,51.9661017 31.4181861,51.9661017 C30.4802861,51.9661017 29.7205981,51.2033895 29.7205981,50.2622951 C29.7205981,49.3212007 30.4802861,48.5584885 31.4181861,48.5584885 C32.356818,48.5584885 33.1172379,49.3212007 33.1172379,50.2622951" id="Fill-72" fill="#1B8BC8"></path>
                            <path d="M42.4579973,50.2622951 C42.4579973,51.2033895 41.6981071,51.9661017 40.7593116,51.9661017 C39.8216136,51.9661017 39.0613575,51.2033895 39.0613575,50.2622951 C39.0613575,49.3212007 39.8216136,48.5584885 40.7593116,48.5584885 C41.6981071,48.5584885 42.4579973,49.3212007 42.4579973,50.2622951" id="Fill-74" fill="#1B8BC8"></path>
                            <path d="M52.6479167,1.70380661 C52.6479167,2.644901 51.8880264,3.40761323 50.9492309,3.40761323 C50.011533,3.40761323 49.2512769,2.644901 49.2512769,1.70380661 C49.2512769,0.762712224 50.011533,0 50.9492309,0 C51.8880264,0 52.6479167,0.762712224 52.6479167,1.70380661" id="Fill-9-Copy" fill="#1B8BC8"></path>
                            <path d="M52.6479167,11.074743 C52.6479167,12.0158374 51.8880264,12.7785496 50.9492309,12.7785496 C50.011533,12.7785496 49.2512769,12.0158374 49.2512769,11.074743 C49.2512769,10.1340156 50.011533,9.37093637 50.9492309,9.37093637 C51.8880264,9.37093637 52.6479167,10.1340156 52.6479167,11.074743" id="Fill-22-Copy" fill="#1B8BC8"></path>
                            <path d="M52.6479167,21.7237637 C52.6479167,22.8995462 51.8880264,23.8532926 50.9492309,23.8532926 C50.011533,23.8532926 49.2512769,22.8995462 49.2512769,21.7237637 C49.2512769,20.5475224 50.011533,19.593776 50.9492309,19.593776 C51.8880264,19.593776 52.6479167,20.5475224 52.6479167,21.7237637" id="Fill-35-Copy" fill="#1B8BC8"></path>
                            <path d="M52.6479167,31.0942413 C52.6479167,32.2704826 51.8880264,33.224229 50.9492309,33.224229 C50.011533,33.224229 49.2512769,32.2704826 49.2512769,31.0942413 C49.2512769,29.9184588 50.011533,28.9647124 50.9492309,28.9647124 C51.8880264,28.9647124 52.6479167,29.9184588 52.6479167,31.0942413" id="Fill-48-Copy" fill="#1B8BC8"></path>
                            <path d="M52.6479167,40.8913587 C52.6479167,41.8320861 51.8880264,42.5951653 50.9492309,42.5951653 C50.011533,42.5951653 49.2512769,41.8320861 49.2512769,40.8913587 C49.2512769,39.9502643 50.011533,39.1875521 50.9492309,39.1875521 C51.8880264,39.1875521 52.6479167,39.9502643 52.6479167,40.8913587" id="Fill-61-Copy" fill="#1B8BC8"></path>
                            <path d="M52.6479167,50.2622951 C52.6479167,51.2033895 51.8880264,51.9661017 50.9492309,51.9661017 C50.011533,51.9661017 49.2512769,51.2033895 49.2512769,50.2622951 C49.2512769,49.3212007 50.011533,48.5584885 50.9492309,48.5584885 C51.8880264,48.5584885 52.6479167,49.3212007 52.6479167,50.2622951" id="Fill-74-Copy" fill="#1B8BC8"></path>
                        </g>
                        <g id="Group-79-Copy-2" transform="translate(59.762500, 56.949153)">
                            <path d="M3.39663978,1.70380661 C3.39663978,2.644901 2.6363837,3.40761323 1.69758817,3.40761323 C0.760256083,3.40761323 0,2.644901 0,1.70380661 C0,0.762712224 0.760256083,0 1.69758817,0 C2.6363837,0 3.39663978,0.762712224 3.39663978,1.70380661" id="Fill-1" fill="#1B8BC8"></path>
                            <path d="M13.5865591,1.70380661 C13.5865591,2.644901 12.8263031,3.40761323 11.8878734,3.40761323 C10.9501754,3.40761323 10.1899194,2.644901 10.1899194,1.70380661 C10.1899194,0.762712224 10.9501754,0 11.8878734,0 C12.8263031,0 13.5865591,0.762712224 13.5865591,1.70380661" id="Fill-3" fill="#1B8BC8"></path>
                            <path d="M22.9273185,1.70380661 C22.9273185,2.644901 22.1668987,3.40761323 21.2289987,3.40761323 C20.2907327,3.40761323 19.5306788,2.644901 19.5306788,1.70380661 C19.5306788,0.762712224 20.2907327,0 21.2289987,0 C22.1668987,0 22.9273185,0.762712224 22.9273185,1.70380661" id="Fill-5" fill="#1B8BC8"></path>
                            <path d="M33.1172379,1.70380661 C33.1172379,2.644901 32.356818,3.40761323 31.4181861,3.40761323 C30.4802861,3.40761323 29.7205981,2.644901 29.7205981,1.70380661 C29.7205981,0.762712224 30.4802861,0 31.4181861,0 C32.356818,0 33.1172379,0.762712224 33.1172379,1.70380661" id="Fill-7" fill="#1B8BC8"></path>
                            <path d="M42.4579973,1.70380661 C42.4579973,2.644901 41.6981071,3.40761323 40.7593116,3.40761323 C39.8216136,3.40761323 39.0613575,2.644901 39.0613575,1.70380661 C39.0613575,0.762712224 39.8216136,0 40.7593116,0 C41.6981071,0 42.4579973,0.762712224 42.4579973,1.70380661" id="Fill-9" fill="#1B8BC8"></path>
                            <path d="M3.39663978,11.074743 C3.39663978,12.0158374 2.6363837,12.7785496 1.69758817,12.7785496 C0.760256083,12.7785496 0,12.0158374 0,11.074743 C0,10.1340156 0.760256083,9.37093637 1.69758817,9.37093637 C2.6363837,9.37093637 3.39663978,10.1340156 3.39663978,11.074743" id="Fill-14" fill="#1B8BC8"></path>
                            <path d="M13.5865591,11.074743 C13.5865591,12.0158374 12.8263031,12.7785496 11.8878734,12.7785496 C10.9501754,12.7785496 10.1899194,12.0158374 10.1899194,11.074743 C10.1899194,10.1340156 10.9501754,9.37093637 11.8878734,9.37093637 C12.8263031,9.37093637 13.5865591,10.1340156 13.5865591,11.074743" id="Fill-16" fill="#1B8BC8"></path>
                            <path d="M22.9273185,11.074743 C22.9273185,12.0158374 22.1668987,12.7785496 21.2289987,12.7785496 C20.2907327,12.7785496 19.5306788,12.0158374 19.5306788,11.074743 C19.5306788,10.1340156 20.2907327,9.37093637 21.2289987,9.37093637 C22.1668987,9.37093637 22.9273185,10.1340156 22.9273185,11.074743" id="Fill-18" fill="#1B8BC8"></path>
                            <path d="M33.1172379,11.074743 C33.1172379,12.0158374 32.356818,12.7785496 31.4181861,12.7785496 C30.4802861,12.7785496 29.7205981,12.0158374 29.7205981,11.074743 C29.7205981,10.1340156 30.4802861,9.37093637 31.4181861,9.37093637 C32.356818,9.37093637 33.1172379,10.1340156 33.1172379,11.074743" id="Fill-20" fill="#1B8BC8"></path>
                            <path d="M42.4579973,11.074743 C42.4579973,12.0158374 41.6981071,12.7785496 40.7593116,12.7785496 C39.8216136,12.7785496 39.0613575,12.0158374 39.0613575,11.074743 C39.0613575,10.1340156 39.8216136,9.37093637 40.7593116,9.37093637 C41.6981071,9.37093637 42.4579973,10.1340156 42.4579973,11.074743" id="Fill-22" fill="#1B8BC8"></path>
                            <path d="M3.39663978,21.7237637 C3.39663978,22.8995462 2.6363837,23.8532926 1.69758817,23.8532926 C0.760256083,23.8532926 0,22.8995462 0,21.7237637 C0,20.5475224 0.760256083,19.593776 1.69758817,19.593776 C2.6363837,19.593776 3.39663978,20.5475224 3.39663978,21.7237637" id="Fill-27" fill="#1B8BC8"></path>
                            <path d="M13.5865591,21.7237637 C13.5865591,22.8995462 12.8263031,23.8532926 11.8878734,23.8532926 C10.9501754,23.8532926 10.1899194,22.8995462 10.1899194,21.7237637 C10.1899194,20.5475224 10.9501754,19.593776 11.8878734,19.593776 C12.8263031,19.593776 13.5865591,20.5475224 13.5865591,21.7237637" id="Fill-29" fill="#1B8BC8"></path>
                            <path d="M22.9273185,21.7237637 C22.9273185,22.8995462 22.1668987,23.8532926 21.2289987,23.8532926 C20.2907327,23.8532926 19.5306788,22.8995462 19.5306788,21.7237637 C19.5306788,20.5475224 20.2907327,19.593776 21.2289987,19.593776 C22.1668987,19.593776 22.9273185,20.5475224 22.9273185,21.7237637" id="Fill-31" fill="#1B8BC8"></path>
                            <path d="M33.1172379,21.7237637 C33.1172379,22.8995462 32.356818,23.8532926 31.4181861,23.8532926 C30.4802861,23.8532926 29.7205981,22.8995462 29.7205981,21.7237637 C29.7205981,20.5475224 30.4802861,19.593776 31.4181861,19.593776 C32.356818,19.593776 33.1172379,20.5475224 33.1172379,21.7237637" id="Fill-33" fill="#1B8BC8"></path>
                            <path d="M42.4579973,21.7237637 C42.4579973,22.8995462 41.6981071,23.8532926 40.7593116,23.8532926 C39.8216136,23.8532926 39.0613575,22.8995462 39.0613575,21.7237637 C39.0613575,20.5475224 39.8216136,19.593776 40.7593116,19.593776 C41.6981071,19.593776 42.4579973,20.5475224 42.4579973,21.7237637" id="Fill-35" fill="#1B8BC8"></path>
                            <path d="M3.39663978,31.0942413 C3.39663978,32.2704826 2.6363837,33.224229 1.69758817,33.224229 C0.760256083,33.224229 0,32.2704826 0,31.0942413 C0,29.9184588 0.760256083,28.9647124 1.69758817,28.9647124 C2.6363837,28.9647124 3.39663978,29.9184588 3.39663978,31.0942413" id="Fill-40" fill="#1B8BC8"></path>
                            <path d="M13.5865591,31.0942413 C13.5865591,32.2704826 12.8263031,33.224229 11.8878734,33.224229 C10.9501754,33.224229 10.1899194,32.2704826 10.1899194,31.0942413 C10.1899194,29.9184588 10.9501754,28.9647124 11.8878734,28.9647124 C12.8263031,28.9647124 13.5865591,29.9184588 13.5865591,31.0942413" id="Fill-42" fill="#1B8BC8"></path>
                            <path d="M22.9273185,31.0942413 C22.9273185,32.2704826 22.1668987,33.224229 21.2289987,33.224229 C20.2907327,33.224229 19.5306788,32.2704826 19.5306788,31.0942413 C19.5306788,29.9184588 20.2907327,28.9647124 21.2289987,28.9647124 C22.1668987,28.9647124 22.9273185,29.9184588 22.9273185,31.0942413" id="Fill-44" fill="#1B8BC8"></path>
                            <path d="M33.1172379,31.0942413 C33.1172379,32.2704826 32.356818,33.224229 31.4181861,33.224229 C30.4802861,33.224229 29.7205981,32.2704826 29.7205981,31.0942413 C29.7205981,29.9184588 30.4802861,28.9647124 31.4181861,28.9647124 C32.356818,28.9647124 33.1172379,29.9184588 33.1172379,31.0942413" id="Fill-46" fill="#1B8BC8"></path>
                            <path d="M42.4579973,31.0942413 C42.4579973,32.2704826 41.6981071,33.224229 40.7593116,33.224229 C39.8216136,33.224229 39.0613575,32.2704826 39.0613575,31.0942413 C39.0613575,29.9184588 39.8216136,28.9647124 40.7593116,28.9647124 C41.6981071,28.9647124 42.4579973,29.9184588 42.4579973,31.0942413" id="Fill-48" fill="#1B8BC8"></path>
                            <path d="M52.6479167,1.70380661 C52.6479167,2.644901 51.8880264,3.40761323 50.9492309,3.40761323 C50.011533,3.40761323 49.2512769,2.644901 49.2512769,1.70380661 C49.2512769,0.762712224 50.011533,0 50.9492309,0 C51.8880264,0 52.6479167,0.762712224 52.6479167,1.70380661" id="Fill-9-Copy" fill="#1B8BC8"></path>
                            <path d="M52.6479167,11.074743 C52.6479167,12.0158374 51.8880264,12.7785496 50.9492309,12.7785496 C50.011533,12.7785496 49.2512769,12.0158374 49.2512769,11.074743 C49.2512769,10.1340156 50.011533,9.37093637 50.9492309,9.37093637 C51.8880264,9.37093637 52.6479167,10.1340156 52.6479167,11.074743" id="Fill-22-Copy" fill="#1B8BC8"></path>
                            <path d="M52.6479167,21.7237637 C52.6479167,22.8995462 51.8880264,23.8532926 50.9492309,23.8532926 C50.011533,23.8532926 49.2512769,22.8995462 49.2512769,21.7237637 C49.2512769,20.5475224 50.011533,19.593776 50.9492309,19.593776 C51.8880264,19.593776 52.6479167,20.5475224 52.6479167,21.7237637" id="Fill-35-Copy" fill="#1B8BC8"></path>
                            <path d="M52.6479167,31.0942413 C52.6479167,32.2704826 51.8880264,33.224229 50.9492309,33.224229 C50.011533,33.224229 49.2512769,32.2704826 49.2512769,31.0942413 C49.2512769,29.9184588 50.011533,28.9647124 50.9492309,28.9647124 C51.8880264,28.9647124 52.6479167,29.9184588 52.6479167,31.0942413" id="Fill-48-Copy" fill="#1B8BC8"></path>
                        </g>
                    </g>
                </g>
                <path d="M895.014583,357.937103 C897.132284,355.729211 935.487113,299.394597 1023.12433,301.015757 C1081.54914,302.096531 1121.35838,278.876589 1142.55206,231.355932" id="Path-2" stroke="#FFFFFF" stroke-width="6" opacity="0.0382021949" stroke-linecap="round" mask="url(#mask-2)"></path>
                <path d="M175.88584,116.798596 C213.963683,106.267082 237.296366,113.346796 245.883891,138.037738 C258.765177,175.074153 292.578902,155.255959 312.858244,160.430879 C333.137585,165.6058 335.802775,188.810911 337.831543,201.338056" id="Path-3" stroke="#FFFFFF" stroke-width="5" opacity="0.100655692" stroke-linecap="round" mask="url(#mask-2)"></path>
                <ellipse id="Oval" stroke="#FFFFFF" stroke-width="5" opacity="0.0407598586" mask="url(#mask-2)" cx="866.200521" cy="200.389831" rx="9.6046875" ry="9.61016949"></ellipse>
                <path d="M431.220185,75.53355 L448.987722,75.5360851 L448.990257,93.3148756 L431.22272,93.3123404 L431.220185,75.53355 Z" id="Rectangle" stroke="#FFFFFF" stroke-width="5" opacity="0.122791109" mask="url(#mask-2)" transform="translate(440.105221, 84.424213) rotate(15.000000) translate(-440.105221, -84.424213) "></path>
                <path d="M0,25 L233,25 C311.976719,25 376,89.0232808 376,168 C376,246.976719 311.976719,311 233,311 L0,311 L0,311 L0,25 Z" id="Rectangle" fill="url(#linearGradient-3)" mask="url(#mask-2)"></path>
            </g>
        </g>
    </g>
</svg>