<?xml version="1.0" encoding="UTF-8"?>
<svg width="24px" height="24px" viewBox="0 0 24 24" version="1.1" xmlns="http://www.w3.org/2000/svg" xmlns:xlink="http://www.w3.org/1999/xlink">
    <title>instagram</title>
    <g id="Page-1" stroke="none" stroke-width="1" fill="none" fill-rule="evenodd">
        <g id="1a.-beranda" transform="translate(-1112.000000, -5445.000000)">
            <g id="footer_2" transform="translate(0.000000, 5073.000000)">
                <g id="instagram_icn-_1" transform="translate(1112.000000, 372.000000)">
                    <rect id="bg" x="0" y="0" width="24" height="24"></rect>
                    <path d="M19.95936,8.704056 C19.92184,7.853912 19.78432,7.269448 19.58736,6.763 C19.38416,6.225416 19.07152,5.74412 18.66192,5.344016 C18.26176,4.937688 17.7772,4.6219496 17.24576,4.4219584 C16.73624,4.22502 16.15472,4.0875416 15.30448,4.05005872 C14.44776,4.00940128 14.17584,4 12.00312,4 C9.830392,4 9.55844,4.00940128 8.70496,4.04688432 C7.854648,4.0843672 7.270072,4.221968 6.763648,4.418784 C6.22584,4.6219496 5.744456,4.934512 5.344272,5.344016 C4.937864,5.74412 4.6221904,6.228592 4.4220392,6.759944 C4.2250632,7.269448 4.0875584,7.850736 4.05006832,8.70088 C4.00940304,9.557376 4,9.82928 4,12.0016 C4,14.17392 4.00940304,14.44576 4.04689328,15.29912 C4.0843832,16.14928 4.2220104,16.73376 4.4189864,17.24016 C4.6221904,17.77776 4.937864,18.25904 5.344272,18.65912 C5.744456,19.06552 6.229016,19.3812 6.760472,19.5812 C7.270072,19.77816 7.851472,19.9156 8.701904,19.95312 C9.555264,19.99072 9.827344,20 12.00008,20 C14.1728,20 14.44472,19.99072 15.29824,19.95312 C16.14856,19.9156 16.73312,19.77816 17.23952,19.5812 C18.31504,19.16552 19.16536,18.31536 19.58112,17.24016 C19.778,16.73064 19.9156,16.14928 19.95312,15.29912 C19.99056,14.44576 20,14.17392 20,12.0016 C20,9.82928 19.9968,9.557376 19.95936,8.704056 Z M18.51824,15.23664 C18.48376,16.018 18.35248,16.44 18.24312,16.72128 C17.97416,17.41832 17.42088,17.97152 16.72368,18.2404 C16.44232,18.34976 16.01728,18.48104 15.23872,18.51536 C14.39464,18.55296 14.14152,18.56224 12.00632,18.56224 C9.871056,18.56224 9.614736,18.55296 8.773712,18.51536 C7.992152,18.48104 7.570112,18.34976 7.288752,18.2404 C6.941816,18.11216 6.626024,17.90904 6.369696,17.64336 C6.103968,17.38392 5.900768,17.07128 5.772544,16.72448 C5.66312,16.44312 5.531848,16.018 5.497528,15.23976 C5.45992,14.39584 5.45064,14.14264 5.45064,12.00784 C5.45064,9.872992 5.45992,9.616712 5.497528,8.775968 C5.531848,7.994568 5.66312,7.572608 5.772544,7.291304 C5.900768,6.944312 6.103968,6.628696 6.372872,6.372296 C6.632248,6.106616 6.944872,5.903456 7.291928,5.775376 C7.573288,5.665976 7.998504,5.534728 8.77688,5.500296 C9.62096,5.462816 9.874232,5.453416 12.00936,5.453416 C14.14776,5.453416 14.40088,5.462816 15.24192,5.500296 C16.02344,5.534728 16.44552,5.665976 16.72688,5.775376 C17.07384,5.903456 17.3896,6.106616 17.64592,6.372296 C17.91168,6.631744 18.11488,6.944312 18.24312,7.291304 C18.35248,7.572608 18.48376,7.997616 18.51824,8.775968 C18.55568,9.619888 18.56512,9.872992 18.56512,12.00784 C18.56512,14.14264 18.55568,14.39272 18.51824,15.23664 Z M11.946536,8.27744 C9.76776,8.27744 8,10.04508 8,12.224 C8,14.40288 9.76776,16.17048 11.946536,16.17048 C14.12544,16.17048 15.89304,14.40288 15.89304,12.224 C15.89304,10.04508 14.12544,8.27744 11.946536,8.27744 Z M11.946536,14.784 C10.533056,14.784 9.38652,13.6376 9.38652,12.224 C9.38652,10.810384 10.533056,9.66396 11.946536,9.66396 C13.36016,9.66396 14.50656,10.810384 14.50656,12.224 C14.50656,13.6376 13.36016,14.784 11.946536,14.784 Z M16.04912,9.042672 C16.558,9.042672 16.97056,8.630128 16.97056,8.121336 C16.97056,7.612424 16.558,7.2 16.04912,7.2 C15.54032,7.2 15.12776,7.612424 15.12776,8.121336 C15.12776,8.630128 15.54032,9.042672 16.04912,9.042672 Z" id="instagram_icn" fill="#1B2437"></path>
                </g>
            </g>
        </g>
    </g>
</svg>