<?xml version="1.0" encoding="UTF-8"?>
<svg width="40px" height="40px" viewBox="0 0 40 40" version="1.1" xmlns="http://www.w3.org/2000/svg" xmlns:xlink="http://www.w3.org/1999/xlink">
    <title>slider-icon-1</title>
    <g id="Page-1" stroke="none" stroke-width="1" fill="none" fill-rule="evenodd">
        <g id="1a.-beranda" transform="translate(-83.000000, -339.000000)">
            <g id="Related-Images" transform="translate(73.000000, 329.000000)">
                <g id="slider-icon-1" transform="translate(10.000000, 10.000000)">
                    <path d="M1.06987952,21.4457831 C1.65409263,24.1307668 2.53836265,26.7415458 3.7060241,29.2289157 C4.25542169,30.4722892 4.76626506,31.7012048 5.33975904,32.8722892 C5.83008284,33.7422395 6.37410762,34.5808103 6.9686747,35.3831325 C7.4939759,36.1927711 8.07710843,37.3493976 8.72771084,37.826506 C9.37831325,38.3036145 10.3855422,38.5204819 11.3012048,38.7903614 C12.1012048,39.0072289 12.9590361,39.2722892 13.7493976,39.4168675 C15.6142388,39.7344152 17.5090712,39.839504 19.3975904,39.7301205 C21.2934856,39.7092695 23.1856215,39.5562883 25.060241,39.2722892 C26.5060241,39.0361446 28.9638554,38.7903614 30.0192771,38.0771084 C30.2944945,37.8067702 30.5460186,37.5133253 30.7710843,37.2 C31.0313253,36.9108434 31.3493976,36.5975904 31.5855422,36.3228916 C33.1518072,34.4963855 34.0385542,31.860241 34.9590361,29.6674699 C35.286747,28.9108434 35.7493976,28.2216867 36.0289157,27.4120482 C36.3084337,26.6024096 36.5445783,25.6819277 36.7807229,24.7759036 C37.2626506,23.0024096 37.8987952,21.1228916 38.0385542,19.3156627 C38.1829211,17.6759772 37.7611028,16.0363286 36.8433735,14.6698795 C38.0674699,13.5951807 36.3614458,12.6024096 35.5277108,11.9084337 C34.861898,11.4089231 34.2322172,10.862985 33.6433735,10.2746988 C36.053012,10.8433735 39.7204819,10.626506 39.7301205,8.20240964 C39.7301205,6.95903614 38.6843373,6.34216867 37.1566265,6.51084337 C38.0674699,5.54698795 37.3253012,3.97108434 36.2168675,3.74939759 C33.253012,3.42650602 32.7710843,5.96626506 31.1951807,6.82409639 C31.3204819,5.16144578 32.0722892,2.9686747 31.1325301,1.67710843 C30,0.101204819 26.3228916,0.43373494 23.4120482,0.298795181 C20.8626506,0.178313253 18.746988,-0.178313253 16.3855422,0.110843373 C12.9253012,0.525301205 8.58313253,0.0771084337 6.26506024,1.44578313 C5.46987952,2.71325301 5.78313253,4.11084337 6.01445783,5.65301205 C6.1253012,6.36626506 6.42891566,7.24819277 6.32771084,7.78313253 C6.19759036,8.45301205 4.88192771,9.0746988 4.19277108,9.54216867 C2.64578313,10.5783133 0.361445783,11.8650602 1.30120482,14.4385542 C-0.0385542169,16.3036145 0.539759036,18.886747 1.06987952,21.4457831 Z" id="Path" fill="#492727"></path>
                    <path d="M29.8120482,2.11566265 C27.9549842,2.85610127 25.9751219,3.24030247 23.9759036,3.24819277 C18.453012,3.26746988 12.0048193,3.05060241 7.22891566,2.11566265 C7.39277108,1.39759036 8.24578313,1.4939759 8.85301205,1.44578313 C13.5665387,0.978959051 18.3109914,0.909638132 23.0361446,1.23855422 C25.5710843,1.38795181 28.0385542,1.34939759 29.8120482,2.11566265 Z M9.15662651,1.80240964 C9.01204819,2.25542169 9.73975904,2.31325301 9.72048193,1.92771084 C9.68520499,1.81364725 9.59148516,1.72725088 9.47493413,1.70135065 C9.3583831,1.67545042 9.23689255,1.71402227 9.15662651,1.80240964 L9.15662651,1.80240964 Z M10.9156627,1.99036145 C10.9124402,2.05862399 10.9347778,2.1256367 10.9783133,2.17831325 C13.4939759,2.61204819 17.1277108,2.89156627 19.6481928,2.40963855 C17.2240964,1.84096386 13.6915663,2.02409639 10.9253012,1.99036145 L10.9156627,1.99036145 Z M23.026506,2.47228916 C22.7710843,2.47228916 22.3228916,2.31807229 22.2120482,2.66024096 C23.3686747,3.08433735 25.653012,2.97349398 26.3518072,2.17831325 C25.2418851,2.22491569 24.1351558,2.32947588 23.0361446,2.49156627 L23.026506,2.47228916 Z" id="Shape" fill="#FFFFFF"></path>
                    <path d="M30.7566265,2.67951807 C30.9783133,4.26506024 30.539759,5.73012048 30.3807229,7.1373494 C22.6698795,6.88192771 14.9156627,7.00240964 7.0939759,7.01204819 C6.77831904,5.65431661 6.54814814,4.27811995 6.40481928,2.89156627 C6.58313253,2.72771084 6.76144578,2.95903614 6.88674699,3.01686747 C8.19277108,3.53253012 9.85542169,3.75421687 11.6144578,4 C13.676065,4.26359198 15.7529777,4.38917275 17.8313253,4.37590361 C22.1686747,4.37590361 26.7662651,4.31325301 29.8168675,3.24819277 C30.1697239,3.13351227 30.4913319,2.93889816 30.7566265,2.67951807 Z M9.35421687,4.56385542 C9.3060241,4.56385542 9.28192771,4.61686747 9.29156627,4.68915663 C10.8289157,5.38313253 13.146988,5.59518072 15.3783133,5.65301205 C17.6963855,5.68674699 20.1060241,5.84096386 21.9710843,5.27228916 C18.0963855,4.73253012 13.0650602,5.03614458 9.35421687,4.56385542 Z M23.0987952,5.12771084 C23.2240964,5.60963855 23.7012048,5.39759036 24.0626506,5.37831325 C25.339759,5.32048193 27.2096386,5.19036145 27.9566265,4.56385542 C26.3277108,4.51084337 24.6168675,4.89156627 23.0987952,5.12771084 Z" id="Shape" fill="#FFFFFF"></path>
                    <path d="M29.060241,7.76385542 C22.2361446,8.49156627 14.0481928,8.25060241 7.22891566,7.71084337 C7.1373494,7.68674699 7.22891566,7.65783133 7.22891566,7.58554217 C14.4578313,7.71084337 21.7204819,7.61927711 29.060241,7.76385542 Z" id="Path" fill="#FFC440"></path>
                    <path d="M37.8457831,8.26987952 C37.7638554,9.19518072 36.2072289,9.20963855 34.9542169,9.14698795 C34.3073494,9.14153108 33.6622448,9.07863337 33.026506,8.95903614 C34.3807229,8.55903614 36.0385542,7.80240964 37.8457831,8.26987952 Z" id="Path" fill="#FFFFFF"></path>
                    <path d="M30.0674699,8.26987952 C30.2650602,8.23614458 30.313253,8.35662651 30.4433735,8.39518072 C30.0481928,8.77590361 29.373494,8.79036145 28.8096386,8.87710843 C26.8819277,9.23855422 24.3614458,9.23373494 21.8457831,9.31566265 C16.7566265,9.4746988 11.2433735,9.51807229 7.0313253,8.43855422 C7.86506024,8.27951807 8.74698795,8.53493976 9.66746988,8.62650602 C12.3951807,8.89156627 15.3879518,9.00240964 18.453012,9.00240964 C20.3807229,9.00240964 22.4048193,9.0939759 24.4819277,9.00240964 C26.4192771,8.93493976 28.7373494,8.95421687 30.0674699,8.26987952 Z" id="Path" fill="#FFC440"></path>
                    <path d="M11.6771084,9.89879518 C11.1036145,10.8626506 10.0626506,11.6722892 10.1060241,13.0361446 C10.626506,12.6746988 10.8819277,12.0481928 11.2385542,11.5325301 C11.5951807,11.0168675 11.9373494,10.4963855 12.2409639,9.96144578 C13.6,10.0192771 14.8337349,9.99036145 15.9421687,10.0240964 C15.7831325,11.3638554 15.5084337,12.8385542 15.6915663,14.1686747 C16.4144578,13.2337349 16.3228916,11.4891566 16.5108434,10.0240964 L17.2,10.0240964 C17.0506024,11.3927711 17.1325301,13.0554217 17.5759036,14.0433735 C17.9566265,13.5614458 17.7349398,12.7180723 17.7012048,11.9710843 C17.6722892,11.3108434 17.7012048,10.6409639 17.6385542,10.0433735 C18.573494,10.0433735 19.3686747,9.93253012 20.3373494,9.98072289 C20.3667007,11.1365072 20.4713401,12.2891503 20.6506024,13.4313253 C20.8004817,14.0635175 20.8844641,14.709536 20.9012048,15.3590361 C20.741876,15.8108763 20.5535322,16.2519549 20.3373494,16.6795181 C20.0626506,17.1614458 19.4457831,17.7927711 19.0216867,17.8072289 C18.2120482,17.8361446 17.946988,16.8915663 17.5759036,16.2361446 C17.3005914,15.7294825 16.8218044,15.3646924 16.260241,15.2337349 C14.0337349,14.9349398 13.8506024,18.1253012 11.6144578,16.9927711 C11.5616814,16.3820763 11.398387,15.7860516 11.1325301,15.2337349 C11.7866331,14.1486734 12.2526341,12.9608598 12.5108434,11.7204819 C11.7638554,12.3951807 11.2,13.7975904 10.6313253,14.8578313 C9.29156627,14.8578313 8.56385542,15.426506 7.67710843,15.860241 C6.5060241,15.6144578 6.17831325,14.5156627 5.54698795,13.7301205 C5.97590361,13.0072289 6.43855422,12.3228916 6.8626506,11.5951807 C6.24578313,11.7927711 5.66746988,12.5590361 5.29156627,13.2240964 C4.53012048,12.7036145 3.98554217,11.686747 2.57831325,12.0481928 C2.51566265,11.8024096 2.9686747,11.4939759 3.26746988,11.2337349 C4.14457831,10.453012 5.50361446,9.68192771 6.46746988,8.97349398 C7.80722892,9.66746988 9.80722892,9.71566265 11.6771084,9.89879518 Z" id="Path" fill="#FFFFFF"></path>
                    <path d="M35.2771084,12.7855422 C33.7493976,12.7855422 33.5518072,14.3855422 32.3228916,14.6072289 C31.2674699,14.7951807 30.2168675,13.9710843 28.9493976,13.8554217 C27.8932031,13.7577928 26.8280882,13.8641407 25.8120482,14.1686747 C25.6732872,13.3625403 25.4201299,12.5803492 25.060241,11.8457831 C24.7710843,12.5927711 25.4698795,13.6 25.3108434,14.4819277 C25.2048193,15.060241 24.6650602,15.1662651 24.4963855,15.6722892 C24.2172932,15.6940258 23.9369458,15.6511491 23.6771084,15.546988 C22.8433735,13.9180723 22.4771084,11.8120482 21.9228916,9.89879518 C24.5831325,9.71566265 27.6096386,9.89879518 30.0192771,9.46024096 C30.5879518,11.0216867 31.1662651,12.5783133 32.5301205,13.3493976 C32.5301205,12.5831325 31.8554217,12.0289157 31.460241,11.4216867 C31.0650602,10.8144578 30.7710843,10.053012 30.3614458,9.39759036 C30.4915663,9.21445783 30.7373494,9.14698795 30.9253012,9.02168675 C32.0192771,10.6457831 33.8216867,11.5373494 35.2771084,12.7855422 Z" id="Path" fill="#FFFFFF"></path>
                    <path d="M20.7759036,9.89879518 L21.4024096,9.89879518 C21.7302148,11.5727777 22.1468682,13.2281303 22.6506024,14.8578313 C22.2276424,14.8441923 21.8047284,14.8863216 21.3927711,14.9831325 C21.2674699,13.2144578 20.9445783,11.6337349 20.7759036,9.89879518 Z" id="Path" fill="#FFFFFF"></path>
                    <path d="M2.40963855,12.7855422 C2.50120482,13.1036145 1.95662651,13.3349398 1.84578313,13.6626506 C1.7060241,13.6385542 1.84578313,13.3542169 1.78313253,13.2240964 C1.98554217,13.0987952 2.2746988,13.0120482 2.40963855,12.7855422 Z" id="Path" fill="#FFFFFF"></path>
                    <path d="M11.1759036,17.6192771 C12.2420028,18.2501092 13.5882093,18.1501053 14.5493976,17.3686747 C14.9349398,17.0843373 15.513253,16.4337349 15.9951807,16.486747 C16.4771084,16.539759 16.5493976,17.1759036 16.8771084,17.5566265 C17.4967015,18.2855436 18.4367135,18.6608267 19.3879518,18.5590361 C19.9566265,18.4578313 20.7903614,17.6915663 21.1421687,17.1807229 C21.6240964,16.4433735 21.6240964,15.9566265 22.2746988,15.9855422 C22.7084337,15.9855422 23.0506024,16.6024096 23.5277108,16.6795181 C24.9060241,16.8674699 25.5421687,15.8698795 26.3614458,14.939759 C28.7710843,14.3518072 30.5542169,16.1542169 32.5156627,15.8168675 C33.7301205,15.6096386 34.2939759,14.5783133 34.9590361,13.6819277 C35.2963855,13.6096386 35.3975904,14.053012 35.653012,14.3759036 C35.8168675,14.5879518 36.1349398,14.8048193 36.2795181,15.0650602 C36.5548123,15.7290405 36.744293,16.4254226 36.8433735,17.1373494 C36.6939759,17.7879518 35.7156627,17.5710843 35.4650602,18.2024096 C35.860241,18.7421687 36.6746988,17.9710843 36.9108434,17.9518072 C37.1277108,23.546988 34.713253,27.0506024 33.5373494,31.4457831 C33.4409639,31.6240964 33.3060241,31.4457831 33.1614458,31.6337349 C32.5377767,33.126694 31.736847,34.5392428 30.7759036,35.8409639 C27.6626506,36.7373494 23.6578313,36.7180723 19.6915663,36.9060241 C16.8184069,37.0956443 13.9329282,36.948459 11.0939759,36.4674699 C9.54216867,36.1493976 8.5060241,36.0144578 7.72048193,35.0843373 C7.30798629,34.44822 6.95162227,33.7774172 6.65542169,33.0795181 C5.51608305,31.0222144 4.55048095,28.873387 3.7686747,26.6554217 C3.01204819,24.4048193 2.13975904,22.1927711 1.63373494,19.5662651 C1.48433735,18.7759036 1.15180723,17.8216867 1.57108434,17.0554217 C2.11566265,17.0554217 2.37108434,17.3831325 2.95421687,17.3686747 C2.8626506,16.6650602 1.99036145,16.7373494 1.63373494,16.3036145 C2.01927711,14.939759 2.74216867,13.9325301 3.37349398,12.8481928 C5.39759036,14.1060241 5.53253012,17.3349398 8.83373494,16.2216867 C9.19036145,16.1060241 9.85060241,15.826506 10.1493976,15.9084337 C10.7855422,16.0963855 10.8,17.3783133 11.1759036,17.6192771 Z M9.54216867,19.8168675 C11.8990118,20.4588322 14.3284888,20.7957197 16.7710843,20.8192771 C18.3036145,20.8192771 20.3903614,20.9493976 22.1686747,20.8819277 C26.7807229,20.7084337 31.0698795,20.2072289 34.2168675,18.5590361 C32.7710843,18.5590361 31.3590361,19.2915663 29.9518072,19.5228916 C27.7156627,19.860241 25.3590361,19.8987952 23.0457831,20.0048193 C20.6795575,20.0971851 18.3098222,20.0344 15.9518072,19.8168675 C11.7019257,19.5557191 7.50264368,18.7540822 3.45542169,17.4313253 C3.41686747,17.4313253 3.37831325,17.4313253 3.39277108,17.4939759 C5.33747807,18.5221342 7.40337604,19.3025126 9.54216867,19.8168675 L9.54216867,19.8168675 Z M13.5614458,21.2048193 C13.4216867,21.2048193 13.3590361,21.2578313 13.3686747,21.3927711 C14.139759,21.7301205 15.9566265,22.3566265 16.7421687,21.6433735 C15.6919958,21.4316783 14.6297223,21.2852134 13.5614458,21.2048193 L13.5614458,21.2048193 Z M28.4337349,34.7518072 C26.7662651,34.2987952 24.4915663,34.1349398 22.1686747,33.7879518 C21.0939759,33.6385542 19.9566265,33.5855422 18.8433735,33.5373494 C17.6529274,33.4291119 16.4561545,33.4081724 15.2626506,33.4746988 C13.1325301,33.7301205 9.75421687,33.6433735 8.9253012,34.9204819 C11.7156627,34.1204819 15.426506,34.0578313 18.9686747,34.2313253 C20.7036145,34.3180723 22.4433735,34.3662651 24.1108434,34.5445783 C25.7162157,34.657251 27.3109794,34.8892166 28.8819277,35.2385542 C29.2963855,35.3493976 29.5903614,35.7542169 30.0144578,35.7204819 C29.7590361,35.0987952 29.0698795,34.9253012 28.4337349,34.7518072 Z" id="Shape" fill="#FFA31D"></path>
                    <path d="M8.97831325,36.6987952 C14.5638554,38.3614458 23.6481928,38.0674699 29.8120482,36.886747 C29.9036145,37.2337349 29.4891566,37.2481928 29.3301205,37.3253012 C27.4939759,38.1108434 24.9493976,38.3421687 22.4915663,38.5204819 C18.8213746,38.8097021 15.1291295,38.6185284 11.5084337,37.9518072 C10.3228916,37.7204819 9.35903614,37.6289157 8.97831325,36.6987952 Z" id="Path" fill="#FFA31D"></path>
                    <path d="M31.2578313,7.95180723 C31.9855422,7.77349398 32.9686747,7.46987952 34.0819277,7.0746988 C34.9253012,6.78072289 36.939759,6.52048193 36.4915663,5.19036145 C36.1831325,4.32289157 34.1927711,5.05542169 33.7301205,5.37831325 C33.8795181,4.15421687 37.0313253,4.01927711 37.1036145,5.44096386 C37.1421687,6.02891566 36.7566265,6.1253012 36.539759,6.57349398 C34.5060241,6.74698795 33.4843373,7.96144578 31.2578313,7.95180723 Z" id="Path" fill="#FFC440"></path>
                    <path d="M35.8409639,5.44096386 C35.2096386,6.5060241 33.5759036,6.5686747 32.4674699,7.1373494 C33.253012,6.47228916 34.1686747,5.42168675 35.8409639,5.44096386 Z" id="Path" fill="#FFFFFF"></path>
                    <path d="M32.8289157,8.33253012 C34.3373494,8.05301205 35.8313253,6.71325301 37.9759036,7.1373494 C38.3050401,7.22232267 38.5850356,7.43834606 38.7507374,7.73515266 C38.9164393,8.03195926 38.9533974,8.38366607 38.853012,8.70843373 C38.3710843,10.2795181 34.7566265,10.2409639 33.3927711,9.46024096 C34.5156627,9.46024096 38.0626506,10.1493976 38.4144578,8.70843373 C38.6987952,7.53253012 37.513253,7.4746988 36.5301205,7.51325301 C35.2289157,7.56626506 33.9710843,8.32771084 32.8289157,8.33253012 Z" id="Path" fill="#FFC440"></path>
                </g>
            </g>
        </g>
    </g>
</svg>