<?xml version="1.0" encoding="UTF-8"?>
<svg width="40px" height="40px" viewBox="0 0 40 40" version="1.1" xmlns="http://www.w3.org/2000/svg" xmlns:xlink="http://www.w3.org/1999/xlink">
    <title>slider-icon-3</title>
    <g id="Page-1" stroke="none" stroke-width="1" fill="none" fill-rule="evenodd">
        <g id="1a.-beranda" transform="translate(-83.000000, -519.000000)">
            <g id="Related-Images" transform="translate(73.000000, 329.000000)">
                <g id="Inactive" transform="translate(0.000000, 180.000000)">
                    <g id="slider-icon-3" transform="translate(10.000000, 10.000000)">
                        <path d="M4.88888889,37.0577778 C5.56888889,37.2933333 5.77777778,38.2577778 6.4,38.7955556 C6.81583408,39.1526732 7.2892096,39.4366985 7.8,39.6355556 C8.14222222,39.6355556 8.86666667,39.1911111 9.36444444,39.0177778 C10,38.8044444 10.6266667,38.6888889 11.1022222,38.5155556 C14.254229,37.3502719 17.3209571,35.9661602 20.28,34.3733333 C24.3422222,32.2044444 28.2266667,30.2711111 31.6488889,28 C32.8764273,27.2201178 34.1465522,26.5093821 35.4533333,25.8711111 C35.9911111,25.6044444 36.5244444,25.1644444 37.3022222,24.7511111 C37.9511111,24.4044444 38.7822222,24.08 38.9777778,23.4666667 C39.1377778,22.9688889 38.9466667,22.08 39.1466667,21.3955556 C39.3022222,20.8666667 39.6977778,20.7155556 39.7066667,20.1644444 C39.7066667,19.2755556 38.8933333,18.24 38.4755556,17.4222222 C37.9777778,16.4444444 37.6311111,15.6133333 37.1866667,14.68 C36.747556,13.8096102 36.1994482,12.9986495 35.5555556,12.2666667 C35.0044444,11.5866667 34.4577778,10.7866667 33.8755556,9.92 C32.3288889,7.58222222 30.6666667,5.10666667 29.24,2.53333333 C28.8533333,1.83111111 28.2577778,0.284444444 27.6755556,0.0711111111 C27.3863928,-0.0208373104 27.0758295,-0.0208373104 26.7866667,0.0711111111 C25.6311111,0.577777778 24.4444444,1.18222222 23.2533333,1.69333333 C22.0622222,2.20444444 20.7511111,2.58222222 19.56,3.14666667 C18.3688889,3.71111111 17.2577778,4.30222222 16.0888889,4.82666667 C14.92,5.35111111 13.6044444,5.78666667 12.3955556,6.33777778 C11.2844444,6.84444444 10.0933333,7.40888889 8.92888889,8.01777778 C7.76672911,8.55245777 6.64391728,9.16881612 5.56888889,9.86222222 C5.12444444,10.1955556 4.68,10.6533333 4.16888889,11.0355556 C3.15555556,11.8266667 2.34666667,12.4888889 1.37333333,13.3866667 C0.928888889,13.7866667 0.195555556,14.4 0.0844444444,14.72 C-0.0888888889,15.2533333 0.0488888889,16.3111111 0.0844444444,17.0711111 C0.169981358,17.8086297 0.207097913,18.5509608 0.195555556,19.2933333 C1.28142158,22.1463696 2.08815744,25.0979512 2.60444444,28.1066667 C3.00888889,30.4933333 3.36444444,32.9466667 4.05777778,35.0444444 C4.29333333,35.7511111 4.74666667,36.3422222 4.88888889,37.0577778 Z" id="Path" fill="#492727"></path>
                        <path d="M27.5555556,1.24444444 C28.0355556,2.51555556 28.7733333,3.52888889 29.3333333,4.71555556 C29.023785,4.82249461 28.7509773,5.01515541 28.5466667,5.27111111 C28.48,5.92444444 28.0666667,6.60444444 28.2133333,7.62222222 C27.4408575,7.90317738 26.7354688,8.34215318 26.1422222,8.91111111 C26.3911111,9.35555556 26.24,10.2444444 26.3644444,10.8133333 C25.6355556,11.2577778 24.8666667,11.7022222 24.1822222,12.2133333 C23.5422222,11.8666667 23.04,11.3822222 22.4044444,11.0355556 C22.6311111,8.92888889 21.32,8.36888889 20.2222222,7.56888889 C20.2984349,6.76830332 20.3177426,5.96331881 20.28,5.16 C19.9762352,4.85980592 19.637513,4.59718428 19.2711111,4.37777778 C20.1288889,3.8 21.0488889,3.64 22.0711111,3.36888889 C22.9532361,3.07694084 23.8132306,2.72195172 24.6444444,2.30666667 C25.6266667,1.88888889 26.4222222,1.40444444 27.5555556,1.24444444 Z M23.7555556,4.32 C24.2933333,4.32 24.5466667,3.80888889 24.9333333,3.59555556 C25.32,3.38222222 25.8977778,3.36888889 26.3333333,3.03555556 C26.0666667,3.08 25.9733333,2.94666667 25.7155556,2.97777778 C25.7555556,2.80888889 25.7555556,2.87111111 25.7155556,2.69777778 C24.5733333,2.71555556 23.7822222,3.37333333 23.7555556,4.32 Z" id="Shape" fill="#FFC440"></path>
                        <path d="M19.6711111,5.60888889 C19.5196145,6.18921414 19.444903,6.7869061 19.4488889,7.38666667 C18.7731287,7.63079198 18.1177493,7.92801622 17.4888889,8.27555556 C16.8871303,7.85360812 16.2383242,7.50310371 15.5555556,7.23111111 C15.5288889,6.76 15.6533333,6.43555556 15.6088889,5.94666667 C16.536298,5.40308333 17.533686,4.98887575 18.5733333,4.71555556 C19.0266667,4.91111111 19.2711111,5.33333333 19.6711111,5.60888889 Z" id="Path" fill="#FFFFFF"></path>
                        <path d="M29.8,5.44 C30.2444444,6.30666667 30.8222222,7.03555556 31.2577778,7.90222222 C30.9840812,7.99280479 30.7347509,8.14483548 30.5288889,8.34666667 C30.0177778,8.05777778 29.4177778,7.85333333 28.9066667,7.56444444 C28.8844444,6.88888889 29.08,6.43111111 29.0755556,5.78666667 C29.3333333,5.69777778 29.4755556,5.47111111 29.8,5.44 Z" id="Path" fill="#FFFFFF"></path>
                        <path d="M14.9155556,6.22222222 C15.08,6.53777778 14.8355556,6.92444444 14.9155556,7.33777778 C14.1377778,7.75555556 13.1377778,7.95111111 12.4533333,8.45777778 C12.0666667,8.34222222 11.8488889,8.05333333 11.5022222,7.89777778 C12.5688889,7.27555556 13.8577778,6.86222222 14.9155556,6.22222222 Z" id="Path" fill="#FFFFFF"></path>
                        <path d="M17.2088889,8.91111111 C17.1466667,9.74222222 17.0222222,10.5155556 16.9866667,11.3733333 C16.3882959,11.5858021 15.8085387,11.8474361 15.2533333,12.1555556 C15.1644444,12.2088889 14.8088889,12.4888889 14.8088889,12.4933333 C14.5733333,12.4933333 13.9866667,12.0044444 13.7466667,11.8755556 C13.3817216,11.7073481 13.0256933,11.5204332 12.68,11.3155556 C12.6935838,10.6030119 12.7634306,9.89265452 12.8888889,9.19111111 C13.7042504,8.84426699 14.4904756,8.43257631 15.24,7.96 C15.8732831,8.32262099 16.5311896,8.64043585 17.2088889,8.91111111 L17.2088889,8.91111111 Z M13.4044444,11.1333333 C13.6044444,10.8355556 13.5333333,10 13.4622222,9.62222222 C12.8888889,9.70222222 12.9733333,11.0133333 13.4044444,11.1511111 L13.4044444,11.1333333 Z" id="Shape" fill="#FFFFFF"></path>
                        <path d="M21.3333333,9.24444444 C21.3333333,9.84444444 21.5066667,10.2311111 21.5022222,10.8133333 C21.0577778,9.92444444 20.7822222,8.84444444 19.6533333,8.63111111 C20.2,9.52 21.0311111,10.0888889 20.9422222,11.5955556 C20.4311111,11.8311111 19.9688889,12.1155556 19.4888889,12.3822222 C18.8929261,12.1595551 18.3282471,11.8607832 17.8088889,11.4933333 C17.7555556,10.7866667 17.84,9.49777778 17.8088889,8.82666667 C18.4027337,8.61258242 18.9719127,8.33544291 19.5066667,8 C20.2444444,8.29777778 20.6755556,8.88888889 21.3333333,9.24444444 Z" id="Path" fill="#FFFFFF"></path>
                        <path d="M12.2311111,9.24444444 C12.0913062,9.90742343 12.0345737,10.5852273 12.0622222,11.2622222 C11.4844444,11.4488889 11.1733333,11.8977778 10.7288889,12.2133333 C10.0562963,11.917037 9.36592593,11.637037 8.65777778,11.3733333 C8.60888889,10.5422222 8.83111111,9.97777778 8.82666667,9.19111111 C9.48,8.85777778 10.16,8.53777778 10.7822222,8.18222222 C11.2977778,8.49777778 11.6844444,8.95111111 12.2311111,9.24444444 Z" id="Path" fill="#FFFFFF"></path>
                        <path d="M30.4711111,9.13333333 C30.5688889,9.69333333 30.5733333,10.3377778 30.6977778,10.8711111 C30.0371792,11.2174922 29.4015608,11.6095559 28.7955556,12.0444444 C28.2266667,11.7911111 27.7333333,11.4666667 27.1688889,11.2044444 C27.1111111,10.5733333 27.1111111,9.93777778 27.1111111,9.24444444 C27.6445036,9.00937728 28.1355236,8.68803699 28.5644444,8.29333333 C29.2088889,8.56888889 29.8488889,8.84444444 30.4711111,9.13333333 Z" id="Path" fill="#FFFFFF"></path>
                        <path d="M33.72,11.3733333 C33.0844444,12.1288889 32.1955556,11.5822222 31.5911111,11.1511111 C31.4266667,10.4577778 31.3777778,9.64888889 31.0888889,9.08 C31.2266667,8.84444444 31.6177778,8.86222222 31.76,8.63555556 C32.4755556,9.48 32.9955556,10.5333333 33.72,11.3733333 Z" id="Path" fill="#FFFFFF"></path>
                        <path d="M7.86666667,11.1111111 C7.08,11.4444444 6.08888889,11.5911111 5.73777778,12.3422222 C5.30567445,12.2762594 4.9206802,12.0330203 4.67555556,11.6711111 C5.74666667,11.0088889 6.75111111,10.2755556 7.86666667,9.65777778 C8.11555556,9.93777778 7.74666667,10.56 7.86666667,11.1111111 Z" id="Path" fill="#FFFFFF"></path>
                        <path d="M28.3466667,12.6044444 C28.2627461,13.2349085 28.2256076,13.8707196 28.2355556,14.5066667 C27.6888889,14.8933333 27.1022222,15.24 26.5555556,15.6266667 C25.8933333,15.3555556 25.2711111,15.0444444 24.6533333,14.7377778 C24.6716018,14.0992814 24.6149183,13.4608458 24.4844444,12.8355556 C25.1843461,12.4848439 25.8419346,12.0553984 26.4444444,11.5555556 C27.0457075,11.9616425 27.6823587,12.3126932 28.3466667,12.6044444 L28.3466667,12.6044444 Z" id="Path" fill="#FFA31D"></path>
                        <path d="M34.1644444,12.1555556 C36.3555556,14.1333333 36.9422222,17.6933333 38.8133333,20 C37.3777778,20.9555556 35.8711111,21.9377778 34.4444444,23.0222222 C33.8355556,23.4666667 33.1466667,23.7733333 32.88,24.4755556 C32.4933333,24.5822222 32.24,25.0977778 31.8711111,25.0355556 C31.8537205,24.4152296 31.7793333,23.7978162 31.6488889,23.1911111 C31.0355556,22.6622222 30.1866667,22.3733333 29.4666667,21.96 C29.3644444,21.1955556 29.52,20.3066667 29.2977778,19.6622222 C28.9911111,18.7733333 27.6311111,18.5688889 27.1155556,17.9288889 C27.0933647,17.3456365 27.0189937,16.7655426 26.8933333,16.1955556 C27.712359,15.8311206 28.4533247,15.3119919 29.0755556,14.6666667 C29.0998105,13.9950121 29.0805108,13.3224916 29.0177778,12.6533333 C29.6929386,12.3765994 30.3317482,12.0183884 30.92,11.5866667 C31.6044444,11.7555556 32.2533333,12.6844444 32.9911111,12.6533333 C33.4266667,12.64 33.6888889,12.2755556 34.1644444,12.1555556 Z M37.2444444,19.88 C37.4577778,19.04 37.0711111,17.9111111 36.3555556,17.6577778 C36.1733333,18.4355556 36.52,19.6177778 37.2444444,19.88 Z M33.9422222,22.4533333 C34.3511111,22.7511111 34.8311111,22.2444444 35.2311111,21.9511111 C35.8177778,21.5066667 36.5644444,21.2355556 36.5644444,20.6177778 C35.5122705,20.9245579 34.5906121,21.5697188 33.9422222,22.4533333 L33.9422222,22.4533333 Z" id="Shape" fill="#FFC440"></path>
                        <path d="M24,14.6177778 C23.315385,14.9557941 22.6598276,15.3497232 22.04,15.7955556 C21.1511111,15.5288889 20.5733333,14.9066667 19.7466667,14.5644444 L19.7466667,12.8888889 C20.6570414,12.6454101 21.5114055,12.2272849 22.2622222,11.6577778 C22.7866667,12.1022222 23.3377778,12.4844444 23.8311111,12.9466667 C23.8586708,13.5062345 23.9150418,14.0640109 24,14.6177778 Z" id="Path" fill="#FFA31D"></path>
                        <path d="M10.0488889,12.9422222 C9.96888889,13.6844444 9.8,14.3333333 9.71111111,15.0666667 C8.92444444,15.2355556 8.42222222,15.68 7.69777778,15.9066667 C7.10917061,15.6430545 6.54668879,15.3246124 6.01777778,14.9555556 C6.12,14.1644444 6.23111111,13.3777778 6.35555556,12.6044444 C6.90666667,12.3911111 7.35555556,12.0755556 7.86666667,11.8222222 C8.61333333,12.1733333 9.20444444,12.6844444 10.0488889,12.9422222 Z M6.96888889,14.9555556 C7.06666667,14.5422222 7.09777778,13.7066667 6.8,13.5022222 C6.43111111,13.6977778 6.49777778,15.1111111 6.96888889,14.9555556 Z" id="Shape" fill="#FFFFFF"></path>
                        <path d="M19,12.8888889 C18.8868035,13.5177787 18.8125879,14.153064 18.7777778,14.7911111 C18.0955448,15.1334725 17.4403238,15.5271994 16.8177778,15.9688889 C16.3523447,15.622355 15.8670744,15.3032935 15.3644444,15.0133333 C15.3333333,14.3155556 15.16,13.7644444 15.1377778,13.0577778 C16.08,12.8577778 16.6266667,11.9288889 17.5466667,12.0488889 C17.9891906,12.3958523 18.4784577,12.6786398 19,12.8888889 L19,12.8888889 Z" id="Path" fill="#FFA31D"></path>
                        <path d="M14.4666667,12.9955556 C14.3827996,13.5484875 14.3456313,14.1074986 14.3555556,14.6666667 C13.5955556,15.1911111 12.7644444,15.6488889 12.0044444,16.1777778 C11.4962215,15.8639125 11.0453017,15.4656 10.6711111,15 C10.6988118,14.2686146 10.7730359,13.5397338 10.8933333,12.8177778 C11.4788744,12.6885033 12.0322006,12.4420766 12.52,12.0933333 C13.1955556,12.3688889 13.7777778,12.7511111 14.4666667,12.9955556 Z" id="Path" fill="#FFFFFF"></path>
                        <path d="M5.28888889,13.1066667 C5.1692455,13.5406938 5.11384225,13.9899093 5.12444444,14.44 C4.47111111,14.8533333 3.93333333,15.3822222 3.27555556,15.7733333 C2.8643908,15.5395547 2.41142118,15.3885649 1.94222222,15.3288889 C1.8670566,14.9034017 1.82987315,14.4720737 1.83108119,14.04 C2.47111111,13.4 3.22666667,12.8666667 3.90222222,12.2622222 C4.39555556,12.5111111 4.77777778,12.8888889 5.28888889,13.1066667 Z" id="Path" fill="#FFFFFF"></path>
                        <path d="M21.6888889,16.4088889 L21.6888889,18.1866667 C21.0666667,18.8 20.1688889,19.1288889 19.28,19.4755556 C18.5507524,19.2324486 17.8406375,18.9353294 17.1555556,18.5866667 C17.1555556,17.8488889 17.2533333,17.1955556 17.32,16.5155556 C18.1092856,16.1575424 18.8548997,15.7101739 19.5422222,15.1822222 C20.2031226,15.6800966 20.924417,16.0922648 21.6888889,16.4088889 Z M17.8266667,18.7066667 C17.9022222,18.2 18.12,17.1733333 17.7155556,16.8577778 C17.4355556,17.2088889 17.4488889,18.4755556 17.8266667,18.7066667 Z M18.3866667,18.5377778 C18.2266667,18.8933333 19.3466667,19.4533333 19.3377778,18.7066667 C19.1777778,18.5244444 18.52,18.2222222 18.3866667,18.5377778 Z" id="Shape" fill="#FFA31D"></path>
                        <path d="M7.02666667,16.52 C6.87888528,17.2041692 6.76614582,17.8954401 6.68888889,18.5911111 C5.99111111,18.7244444 5.72444444,19.6933333 5.06666667,19.7688889 C4.40888889,19.8444444 4,19.1377778 3.38666667,18.9288889 C3.38666667,18.2 3.50666667,17.5555556 3.49777778,16.8 C4.17777778,16.3555556 4.76,15.8222222 5.45777778,15.4044444 C6.04444444,15.7111111 6.45333333,16.1955556 7.02666667,16.52 Z" id="Path" fill="#FFA31D"></path>
                        <path d="M16.7066667,16.6355556 C16.5955556,17.4177778 16.4222222,18.1422222 16.3155556,18.9288889 C15.5066667,19.3333333 14.6177778,19.6577778 14.0222222,20.2622222 C13.393058,19.848098 12.738428,19.4740238 12.0622222,19.1422222 C12.1244444,18.3288889 12.3022222,17.6311111 12.3422222,16.7911111 C13.3644444,16.5066667 14.0355556,15.8755556 14.9155556,15.4577778 C15.5555556,15.8311111 16,16.3555556 16.7066667,16.6355556 Z M13.2933333,19.1111111 C13.4315865,18.6174531 13.3037042,18.087415 12.9555556,17.7111111 C12.6977778,18.1288889 12.8888889,18.9777778 13.2933333,19.1111111 Z" id="Shape" fill="#FFA31D"></path>
                        <path d="M24.4844444,15.4577778 C25.16,15.6977778 25.6933333,16.0755556 26.3333333,16.3466667 C26.2737624,16.9805527 26.2916723,17.6193365 26.3866667,18.2488889 C25.8151512,18.6546755 25.2216543,19.0285785 24.6088889,19.3688889 C23.8488889,19.0844444 23.32,18.5688889 22.5377778,18.3022222 C22.4844444,17.6666667 22.4222222,17.04 22.3155556,16.4577778 C22.8933333,16.2311111 23.4044444,15.9377778 23.9377778,15.6755556 C24.52,15.8622222 24.8755556,16.5644444 25.5066667,16.5111111 C25.5688889,15.9644444 24.7377778,15.8711111 24.4844444,15.4577778 Z" id="Path" fill="#FFA31D"></path>
                        <path d="M11.5555556,16.9111111 C11.44,17.64 11.2488889,18.2888889 11.1111111,18.9822222 C10.6114873,19.1809138 10.1406541,19.4454772 9.71111111,19.7688889 C8.95555556,19.4577778 8.16444444,19.1866667 7.41777778,18.88 C7.28,18.1955556 7.51111111,17.5155556 7.47111111,16.7555556 C8.45333333,16.7555556 9.24888889,16.08 9.99111111,15.6355556 C10.6355556,15.9333333 11.0355556,16.4844444 11.5555556,16.9111111 Z" id="Path" fill="#FFFFFF"></path>
                        <path d="M0.888888889,15.9644444 C0.986666667,16.0133333 0.977777778,16.1688889 1.11111111,16.1866667 C1.08955607,17.6589267 1.40900075,19.1162029 2.04444444,20.4444444 C2.30666667,21.0622222 2.75111111,21.6177778 2.93333333,22.1777778 C3.28888889,23.2311111 3.34222222,24.3688889 3.60444444,25.4222222 C3.83326429,26.4431593 4.1136231,27.4518577 4.44444444,28.4444444 C4.29781874,28.8417174 4.29781874,29.2782826 4.44444444,29.6755556 C4.64444444,29.8577778 4.68,29.2577778 4.88888889,29.4533333 C5.89333333,31.6044444 7.26666667,33.3822222 8.36,35.44 C7.8508275,36.346542 7.49209376,37.3296826 7.29777778,38.3511111 C6.95555556,38.1511111 6.82666667,37.7333333 6.62666667,37.4 C5.09164619,34.9687249 4.08049407,32.2440635 3.65777778,29.4 C3.6,28.9555556 3.65777778,28.5466667 3.6,28.1155556 C3.36462849,26.4959545 2.97165232,24.9032102 2.42666667,23.36 C1.92888889,21.8133333 1.56444444,20.2488889 0.862222222,18.9911111 C1.09777778,18.0933333 0.915555556,16.9155556 0.888888889,15.9644444 Z M5.77777778,33.6444444 C5.63411722,32.7383656 5.29600293,31.8741273 4.78666667,31.1111111 L4.61777778,31.1111111 C4.60888889,32.3688889 5.02666667,33.1822222 5.77777778,33.6444444 Z M7.08,34.2222222 C6.94666667,33.52 6.82222222,32.8044444 6.12888889,32.6577778 C6.19404307,33.2959182 6.5434613,33.8706622 7.08,34.2222222 Z M6.74666667,36.6844444 C7.09333333,36.56 7.07111111,35.7955556 6.96888889,35.4 C6.39555556,35.3111111 6.39111111,36.4844444 6.74666667,36.6666667 L6.74666667,36.6844444 Z" id="Shape" fill="#FFFFFF"></path>
                        <path d="M2.10222222,16.4666667 C2.36187169,16.5601469 2.60606041,16.6919789 2.82666667,16.8577778 C2.69750473,17.3737093 2.60395101,17.8979071 2.54666667,18.4266667 C2.26666667,17.9066667 2.22222222,17.1377778 2.10222222,16.4666667 Z" id="Path" fill="#FFFFFF"></path>
                        <path d="M28.6266667,19.88 C28.6570876,20.5743585 28.7313093,21.2661044 28.8488889,21.9511111 C28.1111111,22.04 27.6888889,22.84 27.0044444,22.9022222 C26.32,22.9644444 25.8,22.2222222 25.0444444,22.0622222 C25.0977778,21.28 24.8622222,20.7911111 24.8755556,20.0488889 C25.6860023,19.7554982 26.4721281,19.3988438 27.2266667,18.9822222 C27.7066667,19.2711111 28.16,19.5822222 28.6266667,19.88 Z M27.9555556,21.1111111 C28,21.4355556 27.9244444,21.9111111 28.2355556,21.9511111 C28.5688889,21.3733333 28.44,20.0088889 28.0088889,19.6533333 L27.8444444,19.6533333 C27.7760412,20.1415899 27.813943,20.6388618 27.9555556,21.1111111 Z" id="Shape" fill="#FFFFFF"></path>
                        <path d="M23.9244444,19.9333333 C23.9662532,20.7414507 24.059778,21.5460606 24.2044444,22.3422222 C23.4622222,22.5466667 22.9911111,23.3466667 22.2444444,23.3511111 C21.4177778,23.3511111 20.8044444,22.4266667 19.9511111,22.2844444 C19.9511111,21.64 19.7911111,21.1777778 19.84,20.5066667 C20.7068436,20.1396709 21.5165693,19.6502433 22.2444444,19.0533333 C22.7854665,19.3815534 23.3465712,19.6754655 23.9244444,19.9333333 L23.9244444,19.9333333 Z M21.0711111,22.5111111 C21.1153546,21.8690977 20.9153248,21.2340827 20.5111111,20.7333333 C20.1377778,21.2666667 20.5822222,22.2844444 21.0711111,22.5111111 Z" id="Shape" fill="#FFA31D"></path>
                        <path d="M2.71555556,19.2622222 C3.34218975,19.6219172 3.92401961,20.0545599 4.44888889,20.5511111 C4.47555556,21.0977778 4.29777778,21.44 4.28444444,21.9511111 C4.10584954,22.0421588 3.95301561,22.1766526 3.84,22.3422222 C3.44444444,21.3333333 3.11111111,20.2622222 2.71555556,19.2622222 Z" id="Path" fill="#FFA31D"></path>
                        <path d="M9.15111111,20.3288889 C9.11111111,21.0888889 8.86666667,21.6622222 8.81777778,22.4 C8.16888889,22.4933333 7.89777778,23.1733333 7.30666667,23.2355556 C6.45777778,23.3288889 5.66666667,22.4088889 4.84,22.2311111 C4.98255282,21.7179378 5.07776597,21.1927778 5.12444444,20.6622222 C5.71710046,20.1645883 6.37505323,19.7503771 7.08,19.4311111 C7.77777778,19.7244444 8.40444444,20.0844444 9.15111111,20.3288889 Z M5.51555556,21.7777778 C5.68888889,21.8622222 5.75555556,22.0622222 6.01777778,22.0577778 C6.15046752,21.6753465 6.12975767,21.2563703 5.96,20.8888889 C5.52444444,20.7333333 5.49333333,21.3066667 5.51555556,21.7777778 Z" id="Shape" fill="#FFA31D"></path>
                        <path d="M13.7422222,20.9422222 C13.7822222,21.56 13.6355556,21.9955556 13.6266667,22.5644444 C12.8666667,22.8266667 12.3511111,23.3422222 11.6711111,23.6844444 C10.9130854,23.4526613 10.2089564,23.0718876 9.6,22.5644444 C9.64,21.8044444 9.82666667,21.1911111 9.82222222,20.3822222 C10.5555556,20.2755556 10.9511111,19.8311111 11.5022222,19.5422222 C12.3155556,19.9422222 12.9466667,20.5244444 13.7422222,20.9422222 Z" id="Path" fill="#FFFFFF"></path>
                        <path d="M18.7777778,20.3288889 C18.8133333,21.1511111 18.6577778,22.1644444 19,22.68 C18.3785483,23.1549273 17.7234998,23.5841995 17.04,23.9644444 C16.28,23.6266667 15.5288889,23.28 14.8177778,22.9022222 C14.7244444,22.2666667 14.7333333,21.5288889 14.6488889,20.8888889 C15.498344,20.5164993 16.3210452,20.0858435 17.1111111,19.6 C17.6666667,19.8311111 18.1866667,20.1155556 18.7777778,20.3288889 Z" id="Path" fill="#FFFFFF"></path>
                        <path d="M38.1377778,21.9511111 C38.2266667,22.2444444 38.0088889,22.7155556 38.0844444,23.1822222 C34.0311111,25.1911111 30.5288889,27.8533333 26.3866667,29.8977778 C24.3822222,30.8844444 22.4088889,32.0666667 20.3422222,33.0844444 C20.3422222,32.7555556 20.2,32.56 20.1777778,32.2488889 C23.3555556,30.9155556 26.2444444,28.8666667 29.3555556,27.36 C30.9303842,26.6493854 32.4619321,25.84651 33.9422222,24.9555556 C35.36,24.0666667 36.5111111,22.7911111 38.0266667,22.0444444 C38.04,22 38.1377778,22.0222222 38.1377778,21.9511111 Z" id="Path" fill="#FFFFFF"></path>
                        <path d="M30.92,23.4622222 C30.96,24.1866667 30.9911111,24.92 31.0888889,25.5866667 C30.4892095,25.8190184 29.9095053,26.099952 29.3555556,26.4266667 C28.7777778,26.3111111 28.3377778,26.0622222 27.7866667,25.9244444 C28.0222222,25.1644444 27.5822222,24.32 27.3955556,23.6311111 C28.0488889,23.2577778 28.6711111,22.8533333 29.3555556,22.5111111 C29.8602216,22.8550152 30.3824062,23.1724797 30.92,23.4622222 L30.92,23.4622222 Z M29.0177778,25.3644444 C28.9155556,24.6844444 28.7777778,24.0311111 28.1777778,23.8533333 C28.0666667,24.4977778 28.4844444,25.36 29.0177778,25.3644444 L29.0177778,25.3644444 Z" id="Shape" fill="#FFFFFF"></path>
                        <path d="M9.09777778,23.1111111 C9.80444444,23.6533333 10.64,24.0666667 11.32,24.6222222 C12.3866667,24.3644444 13.0977778,23.7333333 14.0088889,23.3377778 C14.9644444,23.7244444 15.6266667,24.4044444 16.5244444,24.8444444 C16.5068978,25.656447 16.6011139,26.4670047 16.8044444,27.2533333 C16.1866667,27.5288889 15.5111111,27.7511111 15.1244444,28.2622222 C14.5644444,27.7777778 13.8222222,27.4755556 13.28,26.9733333 C12.3422222,27.1022222 11.7155556,27.5377778 10.9866667,27.8622222 C10.6430005,28.7918616 10.50796,29.7856989 10.5911111,30.7733333 C10.7644444,31.0755556 11.0355556,31.0177778 11.32,31.2177778 C11.7644444,31.5288889 12.0355556,32.1644444 12.5511111,32.2266667 C13.3822222,32.3244444 14.2177778,31.5733333 15.0133333,31.3377778 C15.4844444,31.6311111 16.0622222,31.8177778 16.5244444,32.12 C14.3422222,33.0755556 11.4044444,33.2666667 9.20888889,34.2222222 C8.75666999,33.6741034 8.35222893,33.0882586 8,32.4711111 C7.61777778,31.8844444 7.14222222,31.3422222 6.76888889,30.7377778 C5.43555556,28.5511111 4.92888889,25.8488889 4.10222222,23.1244444 C4.20888889,23.1822222 4.35111111,22.84 4.49333333,22.9022222 C5.18666667,23.2 6.34666667,23.9111111 7.29333333,24.0222222 C7.94653121,23.8341144 8.55861226,23.5250587 9.09777778,23.1111111 Z M6.18666667,28.72 C6.59111111,29.7333333 6.90666667,30.6222222 7.75111111,30.9422222 C7.2,29.3333333 6.37777778,28 6.01777778,26.2222222 C5.87111111,26.1644444 5.83111111,26 5.68,25.9422222 C5.41333333,27.0133333 5.8,27.7555556 6.18666667,28.72 Z" id="Shape" fill="#FFC440"></path>
                        <path d="M26.6666667,23.7422222 C26.7189241,24.4410889 26.8319436,25.1340772 27.0044444,25.8133333 C26.28,26.3155556 25.48,26.7511111 24.7822222,27.2666667 C24.0577778,26.9866667 23.5066667,26.5288889 22.8222222,26.2044444 C22.7847548,25.5407017 22.6729445,24.8832572 22.4888889,24.2444444 C23.291981,23.7489274 24.1331416,23.3179441 25.0044444,22.9555556 C25.5255003,23.2825147 26.0834645,23.546578 26.6666667,23.7422222 L26.6666667,23.7422222 Z" id="Path" fill="#FFA31D"></path>
                        <path d="M21.7422222,24.1866667 C21.7688889,25.0044444 21.88,25.7333333 21.9688889,26.4844444 C21.1377778,26.9288889 20.4755556,27.5688889 19.56,27.9377778 C18.8862418,27.6041816 18.1948519,27.3074478 17.4888889,27.0488889 C17.2933333,26.3866667 17.4666667,25.3555556 17.2088889,24.7511111 C18.0577778,24.2177778 18.9866667,23.7511111 19.84,23.24 C20.5288889,23.4977778 20.9555556,24.0222222 21.7422222,24.1866667 Z M18.0488889,26.9288889 C18.2318979,26.3391263 18.1282828,25.6976992 17.7688889,25.1955556 C17.2311111,25.4266667 17.5733333,27.0222222 18.0488889,26.9288889 Z" id="Shape" fill="#FFFFFF"></path>
                        <path d="M28.3466667,26.8755556 C25.9688889,28.3777778 23.2222222,29.5066667 20.4444444,30.6266667 C20.3365148,29.9788137 20.2800421,29.3234331 20.2755556,28.6666667 C21.1644444,28.1111111 21.9866667,27.5422222 22.8488889,26.9866667 C23.4266667,27.2222222 23.7377778,27.8 24.36,27.8755556 C25.6044444,28.0444444 26.7022222,26.9022222 27.5511111,26.48 C27.8666667,26.5688889 28,26.8088889 28.3466667,26.8755556 Z" id="Path" fill="#FFA31D"></path>
                        <path d="M14.8044444,29.1111111 C14.8170264,29.5563649 14.7977178,30.0019481 14.7466667,30.4444444 C13.9936418,30.6498442 13.2769915,30.9706876 12.6222222,31.3955556 C12.160937,31.1017886 11.7292802,30.7639055 11.3333333,30.3866667 C11.2888889,29.7466667 11.5111111,29.3688889 11.5022222,28.7644444 C11.8888889,28.2755556 12.6044444,28.1155556 13.0133333,27.6444444 C13.5438832,28.2093206 14.1460256,28.70239 14.8044444,29.1111111 Z" id="Path" fill="#FFFFFF"></path>
                        <path d="M19.5066667,28.7777778 L19.5066667,31.0711111 C18.9013559,31.2595546 18.3077259,31.4836499 17.7288889,31.7422222 C16.92,31.4488889 16.3155556,30.9511111 15.5066667,30.68 C15.5268268,30.0216753 15.6011519,29.3661278 15.7288889,28.72 C16.2324405,28.3380694 16.7561591,27.9834838 17.2977778,27.6577778 C17.9955556,28.0488889 18.5866667,28.5777778 19.5066667,28.7777778 Z" id="Path" fill="#FFFFFF"></path>
                        <path d="M19.28,32.64 C19.352142,32.9425597 19.4457114,33.2396054 19.56,33.5288889 C18.9644444,33.8488889 18.3866667,34.1866667 17.7822222,34.48 C17.6844444,34.0844444 17.9688889,33.5911111 17.8933333,33.0266667 C18.3777778,32.9288889 18.7866667,32.7422222 19.28,32.64 Z" id="Path" fill="#FFFFFF"></path>
                        <path d="M17.2088889,33.2533333 L17.3333333,33.2533333 C17.1810096,33.7415999 17.1251568,34.2548424 17.1688889,34.7644444 C14.3466667,36.3111111 10.8577778,37.1866667 8.15555556,38.8488889 C8.35555556,38.2977778 8.42222222,37.5866667 8.6,36.8933333 C8.71112471,36.3724722 8.92081549,35.8776623 9.21777778,35.4355556 C9.42666667,35.2266667 10.2844444,35.0355556 10.84,34.8755556 C11.3955556,34.7155556 11.9288889,34.52 12.4622222,34.3733333 C13.68,34.0355556 15.0844444,33.9288889 16.0444444,33.7022222 C16.48,33.6 16.8888889,33.3333333 17.2088889,33.2533333 Z M15.3066667,34.5422222 C14.7155556,34.2577778 14.5066667,35.5911111 15.1377778,35.6044444 C15.4622222,35.4533333 15.4622222,34.8755556 15.3066667,34.5422222 Z M11.8933333,35.8755556 C12.1466667,36.1866667 12.7822222,36.52 13.2266667,36.1555556 C13.0177778,35.9111111 11.9733333,35.0533333 11.8933333,35.8844444 L11.8933333,35.8755556 Z M9.33333333,37.0577778 C9.98135132,36.9370897 10.538264,36.5259571 10.8444444,35.9422222 C10.1866667,35.8977778 9.02666667,36.3422222 9.33333333,37.0577778 Z" id="Shape" fill="#FFFFFF"></path>
                    </g>
                </g>
            </g>
        </g>
    </g>
</svg>