<?xml version="1.0" encoding="UTF-8"?>
<svg width="40px" height="40px" viewBox="0 0 40 40" version="1.1" xmlns="http://www.w3.org/2000/svg" xmlns:xlink="http://www.w3.org/1999/xlink">
    <title>slider-icon-2</title>
    <g id="Page-1" stroke="none" stroke-width="1" fill="none" fill-rule="evenodd">
        <g id="1a.-beranda" transform="translate(-83.000000, -429.000000)">
            <g id="Related-Images" transform="translate(73.000000, 329.000000)">
                <g id="Inactive" transform="translate(0.000000, 90.000000)">
                    <g id="slider-icon-2" transform="translate(10.000000, 10.000000)">
                        <path d="M39.5191489,1.50638298 C38.9319149,1.72340426 38.9617021,2.55744681 38.6680851,3.06808511 C39.2793096,2.8075419 39.6315115,2.16125155 39.5191489,1.50638298 L39.5191489,1.50638298 Z" id="Path" fill="#492727"></path>
                        <path d="M0.382978723,18.2978723 C0.527659574,17.6085106 0.217021277,16.8638298 0.323404255,16.012766 C0.246808511,16.012766 0.238297872,15.9319149 0.140425532,15.9489362 C-0.0595744681,16.5957447 -0.10212766,17.9617021 0.382978723,18.2978723 Z" id="Path" fill="#492727"></path>
                        <path d="M3.51489362,23.0595745 C4.07234043,24.5574468 4.76595745,26.1659574 4.71914894,27.9361702 C4.68085106,29.2978723 4.19574468,30.4255319 4.29361702,32.1489362 C3.69787234,33.3148936 2.34042553,33.9361702 2.59148936,35.8212766 C2.78453586,36.6649362 3.17707041,37.4500053 3.73617021,38.1106383 C5.06382979,39.3404255 7.6212766,38.1659574 9.99574468,38.412766 C11.1531915,38.5319149 12.0978723,39.3191489 13.2510638,39.4340426 C15.0340426,39.6170213 15.7234043,38.5829787 17.3446809,38.412766 C18.5659574,38.293617 19.0893617,38.5702128 19.8723404,38.6553191 C20.1276596,38.6808511 20.4297872,38.6170213 20.7234043,38.6553191 C21.7574468,38.7829787 22.8170213,39.4553191 24.0340426,39.6170213 C25.5477876,39.8645191 27.0881974,39.9046041 28.612766,39.7361702 C30.8978723,39.4042553 33.0468085,37.3531915 31.9234043,34.5574468 C31.0723404,32.4723404 28.8,30.7957447 25.8425532,30.587234 C20.9404255,30.2340426 16.7446809,31.6340426 12.0553191,31.4382979 C10.3021277,31.3617021 9.07659574,30.9106383 7.41702128,31.1957447 C7.61276596,29.6 6.85106383,28.3446809 7.29787234,26.9829787 C7.51489362,26.3234043 8.74042553,25.4085106 9.34468085,24.9957447 C11.4255319,23.5659574 13.6255319,22.2510638 14.4510638,19.8893617 C14.612766,19.4255319 14.6042553,18.8851064 14.8085106,18.187234 C14.893617,17.9148936 15.2,17.7234043 15.2340426,17.2851064 C15.293617,16.4340426 14.5829787,15.8595745 14.3829787,15.1148936 C14.7659574,15 14.8382979,14.5702128 14.9829787,14.212766 C22.7106383,10.0808511 30.5446809,6.05106383 38.6468085,2.29787234 C38.950102,1.4206937 38.5806779,0.452300364 37.7702128,-3.02358611e-15 C36.1404255,0.0638297872 35.0170213,0.812765957 33.8,1.44255319 C29.9702128,3.41702128 25.8680851,5.14468085 22.3106383,7.22553191 C19.5361702,8.84255319 16.4978723,10.1191489 13.8808511,11.8 C13.5531915,11.3276596 12.6468085,11.6170213 12.3744681,11.9191489 C11.9744681,11.5319149 11.1829787,10.2851064 10.5702128,10.1744681 C9.83404255,10.0425532 9.42978723,10.4425532 9.06382979,10.9574468 C8.99148936,11.2808511 9.35319149,11.3829787 9.18723404,11.6212766 C8.76170213,11.5617021 8.5787234,11.7744681 8.2212766,11.7404255 C7.86382979,11.706383 7.74893617,11.4893617 7.42553191,11.4893617 C6.76595745,11.5489362 6.52765957,12.3404255 6.10212766,12.8170213 C5.6236743,12.9805736 5.17625598,13.2237045 4.7787234,13.5361702 C4.61090261,13.4135943 4.42779439,13.313457 4.23404255,13.2382979 C3.94893617,13.5914894 3.45106383,13.7361702 3.21276596,14.1404255 C3.29787234,14.3787234 3.3787234,14.6170213 3.45531915,14.8638298 C2.94468085,15.0170213 2.7787234,15.5148936 2.3106383,15.7148936 C2.20425532,15.5191489 2.14042553,15.2893617 1.94893617,15.1702128 C0.646808511,15.7106383 1.06808511,18.0765957 1.46808511,19.0255319 C2,20.293617 2.9787234,21.5702128 3.51489362,23.0595745 Z" id="Path" fill="#492727"></path>
                        <path d="M21.212766,9.39148936 C18.6595745,10.2425532 16.612766,11.8978723 14.4042553,12.8851064 C14.3148936,12.7531915 14.2851064,12.5617021 14.1617021,12.4595745 C14.4510638,11.9744681 15.012766,11.8042553 15.4851064,11.5574468 C17.8212766,10.2808511 20.3404255,9.18723404 22.7191489,7.8212766 C26.8510638,5.44680851 31.4085106,3.40425532 35.8468085,1.20425532 C36.3744681,0.940425532 36.9106383,0.476595745 37.3489362,0.540425532 C37.6098669,0.611615267 37.8239271,0.79820149 37.9300692,1.0469719 C38.0362112,1.29574231 38.0227841,1.5793898 37.893617,1.81702128 C37.7234043,2.10638298 36.8893617,2.31489362 36.387234,2.54042553 C34.9276596,3.2 33.4085106,4.1106383 32.0510638,4.77021277 C26.3191489,7.50638298 19.8723404,10.9361702 14.7702128,13.6680851 C14.7211852,13.5220386 14.6614485,13.3798085 14.5914894,13.2425532 C14.6680851,12.9787234 15.0425532,12.8765957 15.2553191,12.7617021 C17.0723404,11.7702128 19.306383,10.7021277 21.093617,9.62978723 C21.093617,9.55744681 21.093617,9.52340426 21.1531915,9.5106383 C21.212766,9.49787234 21.1787234,9.45106383 21.212766,9.44680851 L21.212766,9.39148936 Z M36.3276596,1.86808511 C35.5531915,2.10212766 34.7234043,2.59574468 33.8595745,2.94893617 C32.2085106,3.6212766 30.5617021,4.45531915 29.0425532,5.23829787 C28.2425532,5.66382979 27.3106383,6.01702128 26.812766,6.6212766 C28.4680851,5.95744681 30.1702128,5.07234043 31.8723404,4.27659574 C33.1234043,3.6893617 34.5617021,3.20425532 35.7829787,2.57446809 C36.1829787,2.37446809 36.7489362,2.14893617 36.6893617,1.85531915 C36.5736541,1.80166594 36.4392967,1.80640797 36.3276596,1.86808511 Z M22.0553191,9.02978723 C22.5595372,8.90826024 23.024048,8.65915346 23.4042553,8.30638298 C22.8212766,8.42978723 22.2510638,8.54468085 22.0553191,9.02978723 Z" id="Shape" fill="#7A4141"></path>
                        <path d="M14.2893617,17.4468085 C12.7234043,15.3191489 11.3574468,12.9957447 9.60851064,11.0638298 C9.81219646,10.8684158 10.0583303,10.7227745 10.3276596,10.6382979 C10.3787234,10.6382979 10.387234,10.6638298 10.3914894,10.6978723 L10.5106383,10.6978723 C11.6212766,12.1744681 13.0638298,13.6340426 13.9404255,15.4553191 C14.2042553,16.0340426 14.6170213,16.7574468 14.2893617,17.4468085 Z M11.6425532,12.9446809 C12.0874561,13.7904885 12.6332841,14.5792243 13.2680851,15.293617 C13.0213604,14.342911 12.4453537,13.5105663 11.6425532,12.9446809 L11.6425532,12.9446809 Z" id="Shape" fill="#7A4141"></path>
                        <path d="M12.906383,16.4978723 C12.7021277,16.7319149 12.4808511,16.9702128 12.3021277,17.2170213 C10.7276596,15.8851064 9.64680851,14.0553191 8.47234043,12.3404255 C8.94544458,12.2320865 9.43446737,12.2118908 9.91489362,12.2808511 C11,13.5829787 11.9148936,15.093617 12.906383,16.4978723 Z" id="Path" fill="#FFA31D"></path>
                        <path d="M12.8468085,18.906383 C12.6914979,19.2070335 12.4354352,19.4435149 12.1234043,19.5744681 C10.146034,17.6160594 8.42972571,15.4106033 7.01702128,13.012766 C7.09361702,12.706383 7.31914894,12.5531915 7.44255319,12.2893617 C9.27234043,14.4680851 10.7106383,17.0212766 12.8468085,18.906383 Z M9.47234043,15.893617 C9.1681667,15.0202265 8.62574327,14.2493367 7.90638298,13.6680851 C8.24391097,14.5239299 8.78075893,15.2868959 9.47234043,15.893617 L9.47234043,15.893617 Z" id="Shape" fill="#7A4141"></path>
                        <path d="M13.1489362,12.2808511 C13.5361702,12.8680851 14.2765957,13.7021277 14.1106383,14.4510638 C13.6851064,13.7659574 13.2212766,13.1319149 12.8340426,12.4042553 C13.0297872,12.4468085 12.9617021,12.2382979 13.1489362,12.2808511 Z" id="Path" fill="#FFFFFF"></path>
                        <path d="M10.6765957,19.0851064 C10.4913526,19.4301438 10.2220483,19.7228658 9.89361702,19.9361702 C8.36170213,17.9191489 6.85957447,15.8723404 5.21276596,13.9787234 C5.59235628,13.7199721 5.99557047,13.4977057 6.41702128,13.3148936 C7.67466495,15.3529191 9.09942134,17.2829587 10.6765957,19.0851064 L10.6765957,19.0851064 Z" id="Path" fill="#FFA31D"></path>
                        <path d="M4.41702128,14.0893617 C5.60425532,17.0680851 7.91489362,19.2595745 9.41276596,21.7489362 C8.98723404,22.0212766 8.79148936,21.3659574 8.62978723,21.1446809 C7.10638298,19.0723404 5.30212766,16.7617021 4.05531915,14.387234 C4.19148936,14.306383 4.2893617,14.1829787 4.41702128,14.0893617 Z" id="Path" fill="#7A4141"></path>
                        <path d="M3.75319149,15.3531915 C4.81702128,17.5021277 6.21702128,19.3106383 7.48510638,21.2553191 C7.05957447,21.4680851 6.73617021,21.787234 6.28085106,21.9744681 C5.06808511,20.1404255 4.00851064,18.1446809 2.73191489,16.3744681 C3.02732744,15.9918236 3.37054705,15.648604 3.75319149,15.3531915 Z" id="Path" fill="#FFA31D"></path>
                        <path d="M1.76595745,16.4340426 C2.8893617,18.8042553 3.99574468,21.1914894 5.43829787,23.2425532 C4.25531915,22.6255319 3.85957447,21.3744681 3.15319149,20.0510638 C2.55319149,18.9574468 1.7787234,18.0765957 1.76595745,16.4340426 Z" id="Path" fill="#7A4141"></path>
                        <path d="M13.0255319,16.7957447 C13.212766,16.893617 13.2382979,17.1489362 13.387234,17.2808511 C13.2468085,17.4595745 13.1191489,17.6553191 12.9617021,17.8212766 C12.7617021,17.8 12.7021277,17.6425532 12.6,17.5191489 C12.6893617,17.2212766 13,17.1531915 13.0255319,16.7957447 Z" id="Path" fill="#FFFFFF"></path>
                        <path d="M13.6170213,17.8723404 C13.9531915,17.9787234 13.8851064,18.4851064 14.4680851,18.3531915 C13.9148936,19.9829787 13.2765957,21.3787234 11.9361702,22.5106383 C11.2814823,22.9896007 10.5994786,23.4300615 9.89361702,23.8297872 C8.66382979,24.6340426 6.85957447,25.4510638 6.58297872,27.1404255 C6.4212766,28.1191489 6.66382979,29.1787234 6.76595745,30.3319149 C6.86808511,31.4851064 6.02553191,33.4680851 6.82553191,34.0638298 C7.70638298,34.7276596 9.63829787,34.012766 10.6765957,34.6085106 C9.4,35.4255319 6.09787234,35.0042553 5.74042553,33.4638298 C5.55319149,32.6510638 5.92340426,31.4978723 5.98297872,30.6340426 C6.19574468,27.4765957 5.04255319,24.7957447 4.05531915,22.9276596 C4.48085106,23.2638298 4.72340426,24.0340426 5.3787234,24.1319149 C6.03404255,24.2297872 6.61702128,23.7787234 7.18723404,23.5276596 C7.18723404,22.8851064 8.03829787,22.7021277 8.46382979,22.2510638 C9.42978723,22.8978723 10.3489362,21.893617 10.9914894,21.4680851 C10.7106383,20.8510638 11.5531915,20.6765957 11.7744681,20.1914894 C12.5404255,20.4170213 13.5106383,19.7021277 13.6425532,19.0468085 C13.7191489,18.6340426 13.1617021,18.2 13.6170213,17.8723404 Z M12.7234043,20.8510638 C12.8241409,20.9123378 12.9545429,20.8907291 13.0301306,20.8002367 C13.1057183,20.7097444 13.1037632,20.5775786 13.0255319,20.4893617 C12.787234,20.4510638 12.6978723,20.587234 12.7234043,20.8510638 Z M11.8723404,21.6340426 C11.9996076,21.7249848 12.1706051,21.7249848 12.2978723,21.6340426 L12.2978723,21.3957447 C12.2178714,21.3345712 12.1097065,21.3251928 12.0203705,21.371684 C11.9310345,21.4181751 11.8766525,21.5121443 11.8808511,21.612766 L11.8723404,21.6340426 Z M11.212766,22.2978723 C9.81276596,24.0808511 5.92765957,23.7276596 6.04255319,26.8510638 C6.53191489,26.1829787 6.7106383,25.4340426 7.36595745,24.9276596 C8.64255319,23.9276596 10.8340426,23.8468085 11.3404255,22.2765957 L11.212766,22.2978723 Z" id="Shape" fill="#FFC440"></path>
                        <path d="M10.8,19.387234 C11.5829787,19.6680851 10.5617021,20.0468085 10.4382979,20.4680851 C10.2468085,20.4978723 10.2765957,20.306383 10.1361702,20.2893617 C10.293617,19.9276596 10.6382979,19.7659574 10.8,19.387234 Z" id="Path" fill="#FFFFFF"></path>
                        <path d="M6.76595745,22.6382979 C6.62108294,22.5104201 6.51617881,22.34346 6.46382979,22.1574468 C6.91914894,22.3021277 7.4212766,21.5234043 7.66808511,21.493617 C7.7787234,21.493617 7.96595745,21.6553191 7.97021277,21.6723404 C8.03404255,22.0723404 7.08510638,22.293617 6.76595745,22.6382979 Z" id="Path" fill="#FFFFFF"></path>
                        <path d="M5.3787234,29.1404255 C5.95744681,30.6382979 4.99148936,32.3404255 5.31914894,33.6170213 C5.80851064,35.4851064 9.09361702,35.9659574 11.0978723,34.9404255 C11.4425532,35.1319149 11.8042553,35.8170213 11.4,36.2170213 C11,36.4212766 10.6553191,36.093617 10.3148936,36.0382979 C10.5346318,36.4222436 10.9599134,36.6407216 11.4,36.5957447 C12.306383,36.4978723 12.2510638,35.187234 11.7617021,34.612766 C11.3464875,34.2216226 10.820185,33.9688784 10.2553191,33.8893617 C9.15744681,33.7191489 7.88085106,33.9191489 7.18723404,33.3446809 C7.99574468,33.1574468 9.16595745,33.4765957 10.4382979,33.4042553 C11.8808511,33.3276596 12.9446809,32.8255319 14.5319149,33.106383 C15.4595745,33.2723404 16.2340426,33.7319149 15.9744681,35.0340426 C14.8361207,36.2746635 13.1999774,36.9372469 11.5191489,36.8382979 C10.3957447,36.8 9.55319149,36.0638298 8.62978723,35.9361702 C7.70638298,35.8085106 6.90638298,36.0085106 6.28085106,35.693617 C4.27659574,34.693617 4.99574468,31.612766 5.3787234,29.1404255 Z M14.2297872,34.9787234 C13.7787234,35.2808511 13.1829787,35.1276596 12.8468085,35.5829787 C13.954951,35.7675998 15.0535663,35.2062004 15.5531915,34.2 C14.9829787,33.787234 14.7021277,34.6680851 14.2297872,34.9787234 Z" id="Shape" fill="#FFC440"></path>
                        <path d="M4.35744681,33.1148936 C4.2,33.5659574 4.59148936,33.8638298 4.59574468,34.3191489 C4.59574468,34.8893617 4.2893617,35.3914894 4.41702128,36.0212766 C4.84255319,38.0978723 7.57446809,37.3702128 10.1957447,37.6468085 C11.8297872,37.8212766 12.3574468,38.6595745 14.1106383,38.4978723 C15.1617021,38.3957447 15.9446809,37.7489362 17,37.5361702 C18.8085106,37.1702128 20.7829787,37.7659574 22.4808511,37.8978723 C23.5207345,37.990732 24.5658453,38.0106389 25.6085106,37.9574468 C27.2382979,37.8468085 29.3148936,37.106383 29.6425532,36.0893617 C30.1914894,34.387234 29.0425532,32.893617 28.0170213,32.3574468 C26.7404255,31.6893617 24.2978723,31.506383 22.3574468,31.506383 C21.4010135,31.5395271 20.4515416,31.6823048 19.5276596,31.9319149 C18.187234,32.2382979 17.0765957,32.7531915 15.6978723,32.9531915 C13.2638298,31.906383 10.0425532,33.4978723 7.18723404,32.7744681 C7.20693364,32.3828728 7.28732408,31.9967116 7.42553191,31.6297872 C8.76595745,31.2851064 10.012766,31.8340426 11.0382979,31.9319149 C14.3276596,32.2382979 17.4510638,31.5489362 20.4297872,31.2085106 C21.5489362,31.0808511 22.812766,31.2085106 23.9234043,31.0893617 C26.9021277,30.7319149 29.9617021,32.0468085 31.0297872,34.0382979 C31.906383,35.6808511 31.5404255,37.7659574 30.2468085,38.5531915 C28.9531915,39.3404255 26.5702128,39.2893617 24.7148936,39.0340426 C22.2468085,38.6808511 20.3021277,37.4468085 17.3617021,37.9319149 C16.1617021,38.1234043 15.2680851,38.706383 14.3489362,38.8340426 C12.6723404,39.0638298 11.8212766,38.093617 10.2553191,37.9319149 C8.04255319,37.7021277 5.53191489,38.6680851 4.17446809,37.5702128 C2.9787234,36.5957447 3.04680851,33.7659574 4.35744681,33.1148936 Z M29.2808511,37.8723404 C30.2680851,37.9744681 30.8340426,37.1361702 30.906383,36.1234043 C30.906383,36.0765957 30.8553191,36.0553191 30.787234,36.0638298 C30.4388511,36.7796829 29.9219273,37.4002836 29.2808511,37.8723404 Z" id="Shape" fill="#FFC440"></path>
                        <path d="M4.7787234,35.0425532 C4.99148936,34.987234 5.1106383,35.387234 5.31914894,35.5829787 C5.55355936,35.7988817 5.81712544,35.9807996 6.10212766,36.1234043 C6.9106383,36.4765957 7.80425532,36.1234043 8.93191489,36.3659574 C9.45957447,36.4680851 9.85531915,36.9361702 10.3148936,37.0893617 C12.7659574,37.8723404 15.5106383,36.5957447 16.4595745,35.1617021 C16.5556118,34.5240695 16.4546565,33.8723141 16.1702128,33.293617 C18.0042553,33 19.4553191,32.1361702 21.8297872,31.9702128 C24.8085106,31.7659574 28.6170213,32.1787234 29.2340426,34.3787234 C29.3693075,34.9151931 29.3486398,35.4791262 29.1744681,36.0042553 C28.812766,36.787234 26.8,37.4085106 25.4425532,37.5106383 C24.4140397,37.5668108 23.3827567,37.5454739 22.3574468,37.4468085 C20.8085106,37.3191489 18.812766,36.7319149 17,37.0851064 C15.7234043,37.3276596 14.8723404,38.1787234 13.2085106,37.987234 C12.0170213,37.8510638 10.8382979,37.1361702 9.35319149,37.0212766 C7.75319149,36.8765957 5.65106383,37.5148936 4.89787234,36.2382979 C4.80069562,35.8475485 4.76056361,35.4447951 4.7787234,35.0425532 Z M25.2468085,32.812766 C24.8339644,32.6512298 24.406433,32.5300959 23.9702128,32.4510638 C22.0680851,32.2425532 20.306383,32.7829787 18.7319149,33.2340426 C18.187234,33.3914894 17.5574468,33.2595745 17.2297872,33.7148936 C19.3574468,33.7148936 21.3829787,32.7489362 23.7914894,32.9319149 C24.6638298,33 25.3829787,33.4 26.2595745,33.3574468 C26.1659574,32.9319149 25.612766,32.9276596 25.2468085,32.812766 Z M26.812766,34.5148936 C26.8783908,34.5157253 26.9422096,34.5365035 26.9957447,34.5744681 C27.1001854,34.5185702 27.1740939,34.4188263 27.1971671,34.3026365 C27.2202402,34.1864467 27.1900514,34.0660309 27.1148936,33.9744681 C26.7404255,33.8808511 26.7234043,34.2851064 26.8085106,34.4978723 L26.812766,34.5148936 Z M26.4510638,35.6 C25.5021277,36.2425532 23.8978723,36.4042553 22.4170213,36.2 C21.9446809,36.1361702 21.5021277,35.7744681 20.9744681,35.7191489 C20.7787234,35.6978723 20.5234043,35.787234 20.3106383,35.7787234 C19.0765957,35.7446809 17.4212766,35.4085106 16.9404255,36.3234043 C19.1361702,35.5659574 21.8595745,36.9446809 24.4638298,36.7489362 C25.2638298,36.6851064 26.3191489,36.5659574 26.6340426,35.7234043 C26.5489362,35.6893617 26.5319149,35.6042553 26.4510638,35.5829787 L26.4510638,35.6 Z M14.5914894,37.3021277 C15.4085106,37.2553191 16.0085106,36.9957447 16.3361702,36.4510638 C15.7139756,36.6265173 15.124645,36.9024965 14.5914894,37.2680851 L14.5914894,37.3021277 Z" id="Shape" fill="#FFC440"></path>
                        <path d="M5.50212766,15.4723404 C6.93617021,17.306383 8.7787234,19.5787234 10.1361702,21.493617 C9.48510638,21.2978723 9.17021277,20.6170213 8.81276596,20.1106383 C7.76170213,18.6212766 6.43404255,17.1787234 5.50212766,15.4723404 Z" id="Path" fill="#7A4141"></path>
                        <path d="M6.10212766,23.1787234 C4.47234043,21.4 3.33191489,19.1276596 2.24680851,16.7957447 C3.59148936,18.8638298 4.7106383,21.1617021 6.10212766,23.1787234 Z" id="Path" fill="#FFFFFF"></path>
                    </g>
                </g>
            </g>
        </g>
    </g>
</svg>