<?xml version="1.0" encoding="UTF-8"?>
<svg width="15px" height="15px" viewBox="0 0 15 15" version="1.1" xmlns="http://www.w3.org/2000/svg" xmlns:xlink="http://www.w3.org/1999/xlink">
    <title>star</title>
    <defs>
        <filter id="filter-1">
            <feColorMatrix in="SourceGraphic" type="matrix" values="0 0 0 0 1.000000 0 0 0 0 0.745098 0 0 0 0 0.058824 0 0 0 1.000000 0"></feColorMatrix>
        </filter>
    </defs>
    <g id="Page-1" stroke="none" stroke-width="1" fill="none" fill-rule="evenodd">
        <g id="1a.-beranda" transform="translate(-626.000000, -3813.000000)">
            <g id="Group-21" transform="translate(43.000000, 3294.000000)">
                <g id="Group-20" transform="translate(0.000000, 150.000000)">
                    <g id="Group-19-Copy" transform="translate(435.000000, 0.000000)">
                        <g id="star" transform="translate(30.000000, 144.000000)" filter="url(#filter-1)">
                            <g transform="translate(118.000000, 225.000000)">
                                <path d="M14.9605179,5.44635773 C14.8623276,5.14263152 14.5929337,4.9269104 14.2742157,4.89818572 L9.94491577,4.50508119 L8.23299407,0.498161309 C8.10676576,0.204505928 7.81929018,0.0144195703 7.49988557,0.0144195703 C7.18048096,0.0144195703 6.89300537,0.204505928 6.76677703,0.498847969 L5.05485533,4.50508119 L0.724868789,4.89818572 C0.406723008,4.92759703 0.138015762,5.14263152 0.0392532422,5.44635773 C-0.0595092773,5.75008392 0.031700127,6.08322144 0.272369385,6.29322053 L3.54480744,9.16316985 L2.57984162,13.4138489 C2.50923158,13.726387 2.63053893,14.0494537 2.88986206,14.236908 C3.02925111,14.337616 3.19232941,14.3888855 3.35678101,14.3888855 C3.49857331,14.3888855 3.63922119,14.3506622 3.76544953,14.2751312 L7.49988557,12.04319 L11.2329483,14.2751312 C11.5061188,14.4394684 11.8504715,14.4244766 12.1092224,14.236908 C12.36866,14.0488815 12.4898529,13.7257004 12.4192429,13.4138489 L11.454277,9.16316985 L14.7267151,6.29379272 C14.9673843,6.08322144 15.0592804,5.75065611 14.9605179,5.44635773 Z" id="Path" fill="#FFC107" fill-rule="nonzero"></path>
                            </g>
                        </g>
                    </g>
                </g>
            </g>
        </g>
    </g>
</svg>