<?xml version="1.0" encoding="UTF-8"?>
<svg width="25px" height="24px" viewBox="0 0 25 24" version="1.1" xmlns="http://www.w3.org/2000/svg" xmlns:xlink="http://www.w3.org/1999/xlink">
    <title>twitter</title>
    <g id="Page-1" stroke="none" stroke-width="1" fill="none" fill-rule="evenodd">
        <g id="1a.-beranda" transform="translate(-1169.000000, -5445.000000)">
            <g id="footer_2" transform="translate(0.000000, 5073.000000)">
                <g id="twitter" transform="translate(1169.515789, 372.000000)">
                    <rect id="bg" x="0" y="7.10542736e-15" width="24" height="24"></rect>
                    <path d="M21,7.65737905 C20.3306242,7.93845549 19.6173733,8.12476286 18.8737473,8.21522424 C19.6387483,7.77799423 20.222624,7.0909185 20.4971244,6.26276878 C19.7838735,6.66984499 18.9963725,6.95738027 18.1571214,7.11784153 C17.4798706,6.42753772 16.5146194,6 15.4616181,6 C13.4186155,6 11.7738822,7.58737918 11.7738822,9.53337581 C11.7738822,9.81337532 11.7986322,10.0826056 11.8593917,10.3389129 C8.79150349,10.1956824 6.0768751,8.78814633 4.25324782,6.64399889 C3.93487242,7.17276451 3.74812219,7.77799423 3.74812219,8.42953156 C3.74812219,9.65291406 4.40624801,10.7373737 5.38724923,11.3652188 C4.79437349,11.3544496 4.21274777,11.1896806 3.71999715,10.9301426 C3.71999715,10.9409118 3.71999715,10.9549118 3.71999715,10.9689118 C3.71999715,12.6855242 4.99912375,14.1113679 6.67650085,14.4398289 C6.37612547,14.5184441 6.04875006,14.5561363 5.70899964,14.5561363 C5.47274934,14.5561363 5.23424904,14.5432133 5.01037376,14.4958288 C5.48849936,15.8947763 6.84526043,16.9232361 8.45850307,16.9566207 C7.2030015,17.8967729 5.60887451,18.4632334 3.88312235,18.4632334 C3.58049698,18.4632334 3.29025036,18.4503104 3,18.414772 C4.63462329,19.4238472 6.57187571,20 8.66100333,20 C15.4514931,20 19.1639977,14.615367 19.1639977,9.94799047 C19.1639977,9.7918369 19.1583727,9.64106793 19.1504977,9.49137588 C19.8828736,8.99383828 20.4982494,8.37245474 21,7.65737905 Z" id="twitter_icn" fill="#1B2437" fill-rule="nonzero"></path>
                </g>
            </g>
        </g>
    </g>
</svg>