<?xml version="1.0" encoding="UTF-8"?>
<svg width="20px" height="20px" viewBox="0 0 20 20" version="1.1" xmlns="http://www.w3.org/2000/svg" xmlns:xlink="http://www.w3.org/1999/xlink">
    <title>link</title>
    <defs>
        <filter id="filter-1">
            <feColorMatrix in="SourceGraphic" type="matrix" values="0 0 0 0 0.188235 0 0 0 0 0.188235 0 0 0 0 0.188235 0 0 0 1.000000 0"></feColorMatrix>
        </filter>
    </defs>
    <g id="Page-1" stroke="none" stroke-width="1" fill="none" fill-rule="evenodd">
        <g id="5b.-berita" transform="translate(-1113.000000, -376.000000)">
            <g id="Group" transform="translate(233.000000, 225.000000)">
                <g id="link" transform="translate(745.000000, 151.000000)" filter="url(#filter-1)">
                    <g transform="translate(135.000000, 0.000000)">
                        <path d="M18.6270872,1.37297631 C16.7964586,-0.457652261 13.8285622,-0.457652261 11.9979336,1.37293725 L8.08019156,5.29067928 C6.18663318,7.18431579 6.36194602,10.2015092 8.08019156,11.9198329 C8.3679265,12.2075678 8.6862865,12.4421776 9.02245903,12.6348733 L9.73749949,11.9198329 C10.2064848,11.4507694 10.0414063,10.9024481 10.0329688,10.5067832 C9.93003893,10.4338143 9.82992154,10.354947 9.73749949,10.2625249 C8.85573995,9.38084352 8.81609144,7.86935619 9.73749949,6.94794814 C9.87433569,6.81111194 13.5721164,3.11333128 13.6551634,3.03028424 C14.5691886,2.11625902 16.055715,2.11625902 16.9697402,3.03028424 C17.8837654,3.94430946 17.8837654,5.4308358 16.9697402,6.34486103 L14.3801648,8.9344364 C14.4550478,9.34877314 14.9044627,10.3302594 14.6732904,11.9493251 C14.6845795,11.9382313 14.6980951,11.9310829 14.7093451,11.9198719 L18.6270872,8.00212989 C20.4576376,6.17150131 20.4576376,3.20360489 18.6270872,1.37297631 Z" id="Path" fill="#000000" fill-rule="nonzero"></path>
                        <path d="M12.2233637,7.77662163 C11.9356678,7.4888867 11.6172688,7.25427686 11.2811744,7.06158118 L10.5661339,7.77662163 C10.0970705,8.24560693 10.2621489,8.79392831 10.2705865,9.18959314 C10.3735945,9.26256204 10.4737119,9.34142938 10.5661339,9.43385143 C11.4478935,10.315611 11.487542,11.8270202 10.5661339,12.7484282 C10.4289852,12.8855769 6.42491489,16.8896472 6.34479755,16.9697646 C5.43077233,17.8837898 3.94424598,17.8837898 3.03022076,16.9697646 C2.11619554,16.0557394 2.11619554,14.569213 3.03022076,13.6551878 L5.9234686,10.76194 C5.84858564,10.3476032 5.39913164,9.36611693 5.63034303,7.74705126 C5.61905394,7.75814504 5.60546017,7.76537161 5.59421014,7.77658257 L1.37291284,11.997958 C-0.457637613,13.8285866 -0.457637613,16.796483 1.37291284,18.6271116 C3.20354141,20.457662 6.17139877,20.457662 8.00202735,18.6271116 L12.2233637,14.4057752 C14.0818048,12.5473341 13.9802421,9.533461 12.2233637,7.77662163 Z" id="Path" fill="#000000" fill-rule="nonzero"></path>
                    </g>
                </g>
            </g>
        </g>
    </g>
</svg>