<?xml version="1.0" encoding="UTF-8"?>
<svg width="20px" height="17px" viewBox="0 0 20 17" version="1.1" xmlns="http://www.w3.org/2000/svg" xmlns:xlink="http://www.w3.org/1999/xlink">
    <title>twitter</title>
    <defs>
        <filter id="filter-1">
            <feColorMatrix in="SourceGraphic" type="matrix" values="0 0 0 0 0.188235 0 0 0 0 0.188235 0 0 0 0 0.188235 0 0 0 1.000000 0"></feColorMatrix>
        </filter>
    </defs>
    <g id="Page-1" stroke="none" stroke-width="1" fill="none" fill-rule="evenodd">
        <g id="5b.-berita" transform="translate(-1023.000000, -378.000000)">
            <g id="Group" transform="translate(233.000000, 225.000000)">
                <g id="twitter" transform="translate(745.000000, 151.000000)" filter="url(#filter-1)">
                    <g transform="translate(45.000000, 2.000000)">
                        <path d="M7.46133835,16.3687185 C6.59647679,16.3687185 5.7062858,16.2986812 4.81075431,16.1583014 C3.23346533,15.9108057 1.63679783,15.0857693 1.18498854,14.8387314 L0,14.1908481 L1.2829492,13.7689459 C2.68537381,13.3078288 3.53848621,13.0217287 4.59453893,12.573734 C3.5371129,12.061653 2.7221472,11.1404869 2.32984672,9.94970011 L2.03138708,9.04364011 L2.27613619,9.08102385 C2.04405179,8.8471084 1.86079514,8.60968346 1.71873689,8.39377323 C1.21352223,7.62641459 0.946037705,6.68876917 1.00295254,5.88524744 L1.05910446,5.09439047 L1.53258108,5.2777997 C1.33284507,4.90060531 1.188498,4.49777635 1.10365978,4.07556891 C0.896904798,3.04591364 1.06993813,1.9520194 1.59102181,0.995453225 L2.0034637,0.238317868 L2.55506473,0.900849454 C4.29958876,2.99647558 6.50919718,4.23959961 9.13170526,4.60351894 C9.02458936,3.8651518 9.10484999,3.15257177 9.37050347,2.51384375 C9.67979678,1.77013603 10.2300245,1.13949509 10.9612201,0.689974579 C11.7732867,0.190863425 12.7580814,-0.0509865656 13.7341787,0.0089800472 C14.7697848,0.0726087024 15.7100242,0.460636758 16.4567836,1.13186574 C16.8214659,1.03710939 17.0901711,0.935944421 17.4533276,0.799226714 C17.6718317,0.716982458 17.9196326,0.623599382 18.2296888,0.516788673 L19.3722582,0.123114919 L18.6271772,2.25108939 C18.6763102,2.24696958 18.7269689,2.24346007 18.7799165,2.24117126 L20,2.18593488 L19.2788751,3.17149252 C19.2375241,3.22794963 19.2269957,3.24397123 19.2123473,3.26609629 C19.1542118,3.35368109 19.0818857,3.462628 18.0920556,4.78433424 C17.8442547,5.11529484 17.7205069,5.54635233 17.7435475,5.99831424 C17.8312849,7.71583043 17.6205626,9.26977366 17.1168738,10.6168093 C16.6404981,11.8912136 15.9022834,12.9846501 14.9229819,13.866754 C13.7111381,14.9580542 12.1658923,15.7052714 10.3299688,16.0873486 C9.42940193,16.2747251 8.46230728,16.3687185 7.46133835,16.3687185 Z" id="Path" fill="#000000" fill-rule="nonzero"></path>
                    </g>
                </g>
            </g>
        </g>
    </g>
</svg>