<?xml version="1.0" encoding="UTF-8"?>
<svg width="20px" height="20px" viewBox="0 0 20 20" version="1.1" xmlns="http://www.w3.org/2000/svg" xmlns:xlink="http://www.w3.org/1999/xlink">
    <title>whatsapp</title>
    <defs>
        <filter id="filter-1">
            <feColorMatrix in="SourceGraphic" type="matrix" values="0 0 0 0 0.188235 0 0 0 0 0.188235 0 0 0 0 0.188235 0 0 0 1.000000 0"></feColorMatrix>
        </filter>
    </defs>
    <g id="Page-1" stroke="none" stroke-width="1" fill="none" fill-rule="evenodd">
        <g id="5b.-berita" transform="translate(-1068.000000, -376.000000)">
            <g id="Group" transform="translate(233.000000, 225.000000)">
                <g id="whatsapp" transform="translate(745.000000, 151.000000)" filter="url(#filter-1)">
                    <g transform="translate(90.000000, 0.000000)">
                        <path d="M10,0 C4.50744629,0 0,4.50744629 0,10 C0,11.8127441 0.488739023,13.5774231 1.41555785,15.1213074 L0,20 L4.87869262,18.5844421 C6.42257691,19.511261 8.18725586,20 10,20 C15.4925537,20 20,15.4925537 20,10 C20,4.50744629 15.4925537,0 10,0 Z M16.2521362,14.2253113 L15.7868957,14.6905518 C15.1286316,15.3488159 13.6148071,15.2966309 12.6420593,15.1087952 C9.40765383,14.4841004 5.63674926,10.82901 4.90951539,7.6637268 C4.54940797,6.09573363 4.74823,4.73251344 5.26824953,4.21234133 L5.73349,3.74710082 C5.99029539,3.49044801 6.4074707,3.49075316 6.66397094,3.74710082 L8.52523805,5.60852051 C8.64944457,5.73272703 8.71749879,5.89736938 8.71749879,6.0736084 C8.71749879,6.24984742 8.64944457,6.41464234 8.52523805,6.53839109 L8.06015016,7.00408938 C7.54745484,7.51800539 7.54745484,8.35281371 8.06015016,8.86550902 L11.133728,11.8986511 C11.6479492,12.4128723 12.4801636,12.4134827 12.9951477,11.8986511 L13.4603882,11.4335632 C13.7005615,11.1920166 14.1491699,11.1912537 14.3913269,11.4335632 L16.2521362,13.2943726 C16.5048218,13.54599 16.5144348,13.9628601 16.2521362,14.2253113 L16.2521362,14.2253113 Z" id="Shape" fill="#000000" fill-rule="nonzero"></path>
                    </g>
                </g>
            </g>
        </g>
    </g>
</svg>