<?xml version="1.0" encoding="UTF-8"?>
<svg width="25px" height="21px" viewBox="0 0 25 21" version="1.1" xmlns="http://www.w3.org/2000/svg" xmlns:xlink="http://www.w3.org/1999/xlink">
    <title>arrow-right</title>
    <g id="Page-1" stroke="none" stroke-width="1" fill="none" fill-rule="evenodd">
        <g id="3a.-produk" transform="translate(-1248.000000, -1689.000000)" fill="#FFBE0F" fill-rule="nonzero">
            <g id="Arrows" transform="translate(1204.000000, 1689.000000)">
                <path d="M53.2758069,0.562668776 L45.0622138,8.71345207 C44.3098165,9.46459321 44.3098165,10.6838125 45.0622138,11.4324413 L53.2758069,19.5880561 C54.0345175,20.3391972 55.2625302,20.3354286 56.0212085,19.5880561 C56.7723496,18.8356588 56.7723496,17.6214642 56.0212085,16.8690669 L51.2160955,12.1016398 L66.6302719,12.1016398 C67.7437774,12.1016398 68.6446637,11.2020097 68.6446637,10.0885042 C68.6446637,8.97625483 67.7437774,8.07536862 66.6302719,8.07536862 L51.1871063,8.07536862 L56.0212085,3.28281756 C56.7723496,2.53167641 56.7723496,1.31622568 56.0212085,0.565084539 C55.2637542,-0.187312801 54.0357415,-0.188568998 53.2758069,0.562567958 L53.2758069,0.562668776 Z" id="arrow-right" transform="translate(56.571290, 10.075000) rotate(-180.000000) translate(-56.571290, -10.075000) "></path>
            </g>
        </g>
    </g>
</svg>