<?xml version="1.0" encoding="UTF-8"?>
<svg width="25px" height="21px" viewBox="0 0 25 21" version="1.1" xmlns="http://www.w3.org/2000/svg" xmlns:xlink="http://www.w3.org/1999/xlink">
    <title>arrow-left</title>
    <g id="Page-1" stroke="none" stroke-width="1" fill="none" fill-rule="evenodd">
        <g id="3a.-produk" transform="translate(-1204.000000, -1689.000000)" fill="#FFBE0F" fill-rule="nonzero">
            <g id="Arrows" transform="translate(1204.000000, 1689.000000)">
                <path d="M8.77789112,0.562668776 L0.564298005,8.71345207 C-0.188099335,9.46459321 -0.188099335,10.6838125 0.564298005,11.4324413 L8.77789112,19.5880561 C9.53660166,20.3391972 10.7646144,20.3354286 11.5232927,19.5880561 C12.2744338,18.8356588 12.2744338,17.6214642 11.5232927,16.8690669 L6.71817965,12.1016398 L22.1323561,12.1016398 C23.2458616,12.1016398 24.1467478,11.2020097 24.1467478,10.0885042 C24.1467478,8.97625483 23.2458616,8.07536862 22.1323561,8.07536862 L6.6891905,8.07536862 L11.5232927,3.28281756 C12.2744338,2.53167641 12.2744338,1.31622568 11.5232927,0.565084539 C10.7658383,-0.187312801 9.53782564,-0.188568998 8.77789112,0.562567958 L8.77789112,0.562668776 Z" id="arrow-left"></path>
            </g>
        </g>
    </g>
</svg>