<?xml version="1.0" encoding="UTF-8"?>
<svg width="86px" height="92px" viewBox="0 0 86 92" version="1.1" xmlns="http://www.w3.org/2000/svg" xmlns:xlink="http://www.w3.org/1999/xlink">
    <title>bantuan-dari-leader</title>
    <defs>
        <filter id="filter-1">
            <feColorMatrix in="SourceGraphic" type="matrix" values="0 0 0 0 1.000000 0 0 0 0 0.745098 0 0 0 0 0.058824 0 0 0 1.000000 0"></feColorMatrix>
        </filter>
        <linearGradient x1="6.48405639%" y1="0%" x2="93.5159436%" y2="100%" id="linearGradient-2">
            <stop stop-color="#2E1390" offset="0%"></stop>
            <stop stop-color="#F500A7" offset="100%"></stop>
        </linearGradient>
        <linearGradient x1="0%" y1="0%" x2="100%" y2="100%" id="linearGradient-3">
            <stop stop-color="#2E1390" offset="0%"></stop>
            <stop stop-color="#F500A7" offset="100%"></stop>
        </linearGradient>
        <linearGradient x1="0%" y1="0.250502951%" x2="100%" y2="99.749497%" id="linearGradient-4">
            <stop stop-color="#2E1390" offset="0%"></stop>
            <stop stop-color="#F500A7" offset="100%"></stop>
        </linearGradient>
    </defs>
    <g id="Page-1" stroke="none" stroke-width="1" fill="none" fill-rule="evenodd">
        <g id="3a.-produk" transform="translate(-490.000000, -2522.000000)">
            <g id="bantuan-dari-leader" transform="translate(443.000000, 2493.000000)">
                <g id="bantuan-dari-leader" transform="translate(15.000000, 0.000000)" filter="url(#filter-1)">
                    <g transform="translate(33.000000, 30.000000)">
                        <path d="M80.2967681,39.4192037 L75.2651991,37.2608899 C74.6744223,37.0009678 74.1837801,36.5566028 73.8667916,35.9943794 C76.4044917,34.3354748 77.9354997,31.509562 77.9391101,28.4777518 L77.9391101,25.4800937 C77.9391101,20.5134111 73.9128184,16.4871194 68.9461358,16.4871194 C63.9794533,16.4871194 59.9531616,20.5134111 59.9531616,25.4800937 L59.9531616,28.4777518 C59.9562667,31.5100938 61.4873356,34.3366824 64.0254801,35.9958782 C63.7092643,36.5576179 63.2197346,37.0019279 62.6300703,37.2623888 L57.591007,39.4192037 C57.3719717,39.5287003 57.1597507,39.6513279 56.9555035,39.7864169 L56.9555035,28.4477752 C56.9568682,26.0466559 55.5255109,23.8763243 53.3178454,22.9320843 L48.2862763,20.7737705 C47.6954995,20.5138484 47.2048574,20.0694833 46.8878689,19.50726 C49.425569,17.8483554 50.956577,15.0224426 50.9601874,11.9906323 L50.9601874,8.99297424 C50.9601872,4.02629186 46.9338955,3.79025524e-07 41.9672131,3.79025524e-07 C37.0005307,3.79025524e-07 32.974239,4.02629186 32.9742389,8.99297424 L32.9742389,11.9906323 C32.977344,15.0229744 34.5084129,17.849563 37.0465574,19.5087588 C36.7303416,20.0704985 36.2408119,20.5148085 35.6511475,20.7752693 L30.6165808,22.9320843 C28.4089153,23.8763243 26.977558,26.0466559 26.9789227,28.4477752 L26.9789227,39.7909133 C26.7738664,39.6537246 26.5600791,39.5300583 26.3389227,39.4207026 L21.3073536,37.2623888 C20.7165768,37.0024666 20.2259347,36.5581016 19.9089461,35.9958782 C22.4470907,34.3366824 23.9781595,31.5100938 23.9812646,28.4777518 L23.9812646,25.4800937 C23.9812646,20.5134111 19.9549729,16.4871194 14.9882904,16.4871194 C10.0216079,16.4871194 5.99531616,20.5134111 5.99531616,25.4800937 L5.99531616,28.4777518 C5.99842134,31.5100938 7.5294902,34.3366824 10.0676347,35.9958782 C9.75141895,36.5576179 9.26188923,37.0019279 8.67222482,37.2623888 L3.63765808,39.4192037 C1.42999268,40.3634437 -0.00136466916,42.5337753 -9.74957469e-07,44.9348946 L-9.74957469e-07,62.9508197 C-9.74957469e-07,63.7786 0.671048618,64.4496487 1.49882904,64.4496487 L15.0647307,64.4496487 C15.8201113,78.7570875 27.6413464,89.9706685 41.9687119,89.9706685 C56.2960775,89.9706685 68.1173126,78.7570875 68.8726932,64.4496487 L82.4355972,64.4496487 C83.2633775,64.4496487 83.9344272,63.7786 83.9344272,62.9508197 L83.9344272,44.9348946 C83.9357909,42.5337753 82.5044336,40.3634437 80.2967681,39.4192037 Z M62.9508197,25.4800937 C62.9508197,22.168972 65.6350141,19.4847775 68.9461358,19.4847775 C72.2572575,19.4847775 74.941452,22.168972 74.941452,25.4800937 L74.941452,28.4777518 C74.941452,31.7888734 72.2572575,34.4730679 68.9461358,34.4730679 C65.6350141,34.4730679 62.9508197,31.7888734 62.9508197,28.4777518 L62.9508197,25.4800937 Z M62.8743794,61.4519906 C62.1196831,51.0617018 53.8563309,42.7983496 43.4660422,42.0436534 L43.4660422,39.0459953 C55.5080206,39.8141361 65.1038967,49.4100122 65.8720375,61.4519906 L62.8743794,61.4519906 Z M56.9555035,64.4496487 L59.8767213,64.4496487 C59.1359967,73.1878404 52.2042339,80.1196033 43.4660422,80.8603279 L43.4660422,77.9391101 C43.4660422,77.1113297 42.7949935,76.440281 41.9672131,76.440281 C41.1394328,76.440281 40.4683841,77.1113297 40.4683841,77.9391101 L40.4683841,80.8603279 C31.7301923,80.1196033 24.7984295,73.1878404 24.0577049,64.4496487 L26.9789227,64.4496487 C27.8067031,64.4496487 28.4777518,63.7786 28.4777518,62.9508197 C28.4777518,62.1230393 27.8067031,61.4519906 26.9789227,61.4519906 L24.0577049,61.4519906 C24.7984295,52.7137989 31.7301923,45.7820361 40.4683841,45.0413115 L40.4683841,47.9625293 C40.4683841,48.7903096 41.1394328,49.4613583 41.9672131,49.4613583 C42.7949935,49.4613583 43.4660422,48.7903096 43.4660422,47.9625293 L43.4660422,45.0413115 C52.2042339,45.7820361 59.1359967,52.7137989 59.8767213,61.4519906 L56.9555035,61.4519906 C56.1277232,61.4519906 55.4566745,62.1230393 55.4566745,62.9508197 C55.4566745,63.7786 56.1277232,64.4496487 56.9555035,64.4496487 Z M18.0623888,61.4519906 C18.8305295,49.4100122 28.4264056,39.8141361 40.4683841,39.0459953 L40.4683841,42.0436534 C30.0780953,42.7983496 21.8147431,51.0617018 21.0600468,61.4519906 L18.0623888,61.4519906 Z M35.971897,8.99297424 C35.971897,5.68185255 38.6560914,2.99765808 41.9672131,2.99765808 C45.2783348,2.99765808 47.9625293,5.68185255 47.9625293,8.99297424 L47.9625293,11.9906323 C47.9625293,15.301754 45.2783348,17.9859485 41.9672131,17.9859485 C38.6560914,17.9859485 35.971897,15.301754 35.971897,11.9906323 L35.971897,8.99297424 Z M31.7961593,25.6884309 L36.8337237,23.5301171 C38.128423,22.9709008 39.184539,21.973163 39.8163934,20.7123185 C41.2274614,21.0740338 42.7069648,21.0740338 44.1180328,20.7123185 C44.7506329,21.973681 45.8078805,22.9714851 47.1037002,23.5301171 L52.138267,25.6899297 C53.2423932,26.1618202 53.9583996,27.2470358 53.9578458,28.4477752 L53.9578458,38.8196721 C52.9855765,38.334195 51.9844825,37.90873 50.9601874,37.5456674 L50.9601874,31.4754098 C50.9601874,30.6476295 50.2891387,29.9765808 49.4613583,29.9765808 C48.633578,29.9765808 47.9625293,30.6476295 47.9625293,31.4754098 L47.9625293,36.6673536 C44.0194362,35.7400573 39.91499,35.7400573 35.971897,36.6673536 L35.971897,31.4754098 C35.971897,30.6476295 35.3008483,29.9765808 34.4730679,29.9765808 C33.6452876,29.9765808 32.9742389,30.6476295 32.9742389,31.4754098 L32.9742389,37.5456674 C31.9499438,37.90873 30.9488498,38.334195 29.9765794,38.8196721 L29.9765794,28.4477752 C29.9754259,27.2464913 30.6915317,26.1605352 31.7961593,25.6884309 Z M8.99297424,25.4800937 C8.99297424,22.168972 11.6771687,19.4847775 14.9882904,19.4847775 C18.2994121,19.4847775 20.9836066,22.168972 20.9836066,25.4800937 L20.9836066,28.4777518 C20.9836066,31.7888734 18.2994121,34.4730679 14.9882904,34.4730679 C11.6771687,34.4730679 8.99297424,31.7888734 8.99297424,28.4777518 L8.99297424,25.4800937 Z M2.99765668,44.9348946 C2.99650325,43.7336107 3.71260897,42.6476547 4.81723653,42.1755504 L9.85480094,40.0187354 C11.1495002,39.4595191 12.2056163,38.4617813 12.8374707,37.2009368 C14.2485386,37.562652 15.7280421,37.562652 17.1391101,37.2009368 C17.7717102,38.4622993 18.8289578,39.4601033 20.1247775,40.0187354 L24.9120375,42.0706323 C19.0514526,46.8599018 15.4772284,53.8946497 15.0647307,61.4519906 L8.99297424,61.4519906 L8.99297424,47.9625293 C8.99297424,47.1347489 8.32192562,46.4637002 7.4941452,46.4637002 C6.66636478,46.4637002 5.99531616,47.1347489 5.99531616,47.9625293 L5.99531616,61.4519906 L2.99765668,61.4519906 L2.99765668,44.9348946 Z M18.0623888,64.4496487 L21.0600468,64.4496487 C21.8147431,74.8399375 30.0780953,83.1032897 40.4683841,83.8579859 L40.4683841,86.855644 C28.4264056,86.0875033 18.8305295,76.4916272 18.0623888,64.4496487 Z M43.4660422,86.855644 L43.4660422,83.8579859 C53.8563309,83.1032897 62.1196831,74.8399375 62.8743794,64.4496487 L65.8720375,64.4496487 C65.1038967,76.4916272 55.5080206,86.0875033 43.4660422,86.855644 Z M80.9367708,61.4519906 L77.9391101,61.4519906 L77.9391101,47.9625293 C77.9391101,47.1347489 77.2680614,46.4637002 76.440281,46.4637002 C75.6125007,46.4637002 74.941452,47.1347489 74.941452,47.9625293 L74.941452,61.4519906 L68.8696956,61.4519906 C68.4576112,53.8941179 64.8833478,46.8587487 59.0223888,42.0691335 L63.8186417,40.0172365 C65.113341,39.4580203 66.169457,38.4602825 66.8013115,37.1994379 C68.2123794,37.5611532 69.6918829,37.5611532 71.1029508,37.1994379 C71.735551,38.4608004 72.7927986,39.4586045 74.0886183,40.0172365 L79.123185,42.1770492 C80.2249631,42.6507731 80.9383494,43.735592 80.9367708,44.9348946 L80.9367708,61.4519906 Z" id="Shape" stroke="url(#linearGradient-2)" stroke-width="0.25" fill="url(#linearGradient-2)" fill-rule="nonzero"></path>
                        <path d="M50.9601874,61.4519906 L50.8252927,61.4519906 C50.1816876,57.6861641 47.2318687,54.7363452 43.4660422,54.09274 L43.4660422,53.9578454 C43.4660422,53.1300651 42.7949935,52.4590164 41.9672131,52.4590164 C41.1394328,52.4590164 40.4683841,53.1300651 40.4683841,53.9578454 L40.4683841,54.09274 C36.7025575,54.7363452 33.7527386,57.6861641 33.1091335,61.4519906 L32.9742389,61.4519906 C32.1464585,61.4519906 31.4754098,62.1230393 31.4754098,62.9508197 C31.4754098,63.7786 32.1464585,64.4496487 32.9742389,64.4496487 L33.1091335,64.4496487 C33.7527386,68.2154753 36.7025575,71.1652942 40.4683841,71.8088993 L40.4683841,71.9437939 C40.4683841,72.7715743 41.1394328,73.442623 41.9672131,73.442623 C42.7949935,73.442623 43.4660422,72.7715743 43.4660422,71.9437939 L43.4660422,71.8088993 C47.2318687,71.1652942 50.1816876,68.2154753 50.8252927,64.4496487 L50.9601874,64.4496487 C51.7879677,64.4496487 52.4590164,63.7786 52.4590164,62.9508197 C52.4590164,62.1230393 51.7879677,61.4519906 50.9601874,61.4519906 Z M43.4255738,68.7452927 C43.3368743,68.0071608 42.7106553,67.451688 41.9672131,67.451688 C41.223771,67.451688 40.597552,68.0071608 40.5088525,68.7452927 C38.3765472,68.2064462 36.7115866,66.5414856 36.17274,64.4091803 C36.910872,64.3204808 37.4663448,63.6942618 37.4663448,62.9508197 C37.4663448,62.2073775 36.910872,61.5811585 36.17274,61.492459 C36.7115866,59.3601538 38.3765472,57.6951932 40.5088525,57.1563466 C40.597552,57.8944785 41.223771,58.4499513 41.9672131,58.4499513 C42.7106553,58.4499513 43.3368743,57.8944785 43.4255738,57.1563466 C45.557879,57.6951932 47.2228396,59.3601538 47.7616862,61.492459 C47.0235542,61.5811585 46.4680815,62.2073775 46.4680815,62.9508197 C46.4680815,63.6942618 47.0235542,64.3204808 47.7616862,64.4091803 C47.2228396,66.5414856 45.557879,68.2064462 43.4255738,68.7452927 Z" id="Shape" stroke="url(#linearGradient-3)" stroke-width="0.25" fill="url(#linearGradient-3)" fill-rule="nonzero"></path>
                        <path d="M42.5367681,61.571897 C41.9779008,61.3441623 41.3372981,61.4675813 40.9030445,61.8866511 C40.6285212,62.1734646 40.4731614,62.5538283 40.4683841,62.9508197 C40.4632061,63.147441 40.5042774,63.3425304 40.5882904,63.5203747 C40.6646848,63.7017534 40.7710921,63.8689647 40.9030445,64.0149883 C41.4940869,64.5946459 42.4403393,64.5946459 43.0313817,64.0149883 C43.1633341,63.8689647 43.2697414,63.7017534 43.3461358,63.5203747 C43.4229373,63.340182 43.463674,63.1466826 43.4660422,62.9508197 C43.4605212,62.5539792 43.3052683,62.1738774 43.0313817,61.8866511 C42.8853582,61.7546986 42.7181468,61.6482914 42.5367681,61.571897 Z" id="Shape" stroke="url(#linearGradient-4)" stroke-width="0.25" fill="url(#linearGradient-4)" fill-rule="nonzero"></path>
                    </g>
                </g>
            </g>
        </g>
    </g>
</svg>