<?xml version="1.0" encoding="UTF-8"?>
<svg width="80px" height="90px" viewBox="0 0 80 90" version="1.1" xmlns="http://www.w3.org/2000/svg" xmlns:xlink="http://www.w3.org/1999/xlink">
    <title>kenaikan-level</title>
    <defs>
        <filter id="filter-1">
            <feColorMatrix in="SourceGraphic" type="matrix" values="0 0 0 0 1.000000 0 0 0 0 0.745098 0 0 0 0 0.058824 0 0 0 1.000000 0"></feColorMatrix>
        </filter>
        <linearGradient x1="0%" y1="6.23679012%" x2="100%" y2="93.7632099%" id="linearGradient-2">
            <stop stop-color="#2E1390" offset="0%"></stop>
            <stop stop-color="#F500A7" offset="100%"></stop>
        </linearGradient>
        <linearGradient x1="0%" y1="0%" x2="100%" y2="100%" id="linearGradient-3">
            <stop stop-color="#2E1390" offset="0%"></stop>
            <stop stop-color="#F500A7" offset="100%"></stop>
        </linearGradient>
        <linearGradient x1="37.9064768%" y1="0%" x2="62.0935232%" y2="100%" id="linearGradient-4">
            <stop stop-color="#2E1390" offset="0%"></stop>
            <stop stop-color="#F500A7" offset="100%"></stop>
        </linearGradient>
        <linearGradient x1="0%" y1="0%" x2="100%" y2="100%" id="linearGradient-5">
            <stop stop-color="#2E1390" offset="0%"></stop>
            <stop stop-color="#F500A7" offset="100%"></stop>
        </linearGradient>
        <linearGradient x1="0%" y1="0%" x2="100%" y2="100%" id="linearGradient-6">
            <stop stop-color="#2E1390" offset="0%"></stop>
            <stop stop-color="#F500A7" offset="100%"></stop>
        </linearGradient>
    </defs>
    <g id="Page-1" stroke="none" stroke-width="1" fill="none" fill-rule="evenodd">
        <g id="3a.-produk" transform="translate(-644.000000, -2787.000000)">
            <g id="Discounts-on-Tickets-Copy-4" transform="translate(593.000000, 2757.000000)">
                <g id="kenaikan-level" transform="translate(15.000000, 0.000000)" filter="url(#filter-1)">
                    <g transform="translate(36.000000, 30.000000)">
                        <path d="M77.0818359,55.7226562 C78.3369141,54.3216797 79.1015625,52.4724609 79.1015625,50.4492188 C79.1015625,46.0880859 75.5525391,42.5390625 71.1914062,42.5390625 L55.8386719,42.5390625 C57.3591797,37.9248047 58.0078125,31.8023438 58.0078125,29.1779297 L58.0078125,26.5429688 C58.0078125,20.728125 53.2757812,15.9960938 47.4609375,15.9960938 L44.8242187,15.9960938 C43.6148437,15.9960938 42.5601562,16.81875 42.2666016,17.9929687 L40.8304687,23.7392578 C38.8177734,31.7865234 32.428125,40.6652344 25.8152344,42.2789062 C24.6568359,39.346875 21.796875,37.265625 18.4570312,37.265625 L2.63671875,37.265625 C1.18125,37.265625 0,38.446875 0,39.9023438 L0,87.3632812 C0,88.81875 1.18125,90 2.63671875,90 L18.4570312,90 C21.6017578,90 24.3228516,88.1560547 25.5972656,85.4912109 L34.6570312,88.5111328 C37.6189453,89.4990234 40.7056641,90 43.8292969,90 L65.9179688,90 C70.2791016,90 73.828125,86.4509766 73.828125,82.0898438 C73.828125,81.0615234 73.63125,80.0771484 73.2726562,79.1753906 C76.6265625,78.2595703 79.1015625,75.1851563 79.1015625,71.5429688 C79.1015625,69.5197266 78.3369141,67.6705078 77.0818359,66.2695312 C78.3369141,64.8685547 79.1015625,63.0193359 79.1015625,60.9960938 C79.1015625,58.9728516 78.3369141,57.1236328 77.0818359,55.7226562 Z M21.09375,82.0898438 C21.09375,83.5435547 19.9107422,84.7265625 18.4570312,84.7265625 L5.2734375,84.7265625 L5.2734375,42.5390625 L18.4570312,42.5390625 C19.9107422,42.5390625 21.09375,43.7220703 21.09375,45.1757812 L21.09375,82.0898438 Z M65.9179688,58.359375 L71.1914062,58.359375 C72.6451172,58.359375 73.828125,59.5423828 73.828125,60.9960938 C73.828125,62.4498047 72.6451172,63.6328125 71.1914062,63.6328125 L65.9179688,63.6328125 C64.4625,63.6328125 63.28125,64.8140625 63.28125,66.2695312 C63.28125,67.725 64.4625,68.90625 65.9179688,68.90625 L71.1914062,68.90625 C72.6451172,68.90625 73.828125,70.0892578 73.828125,71.5429688 C73.828125,72.9966797 72.6451172,74.1796875 71.1914062,74.1796875 L65.9179688,74.1796875 C64.4625,74.1796875 63.28125,75.3609375 63.28125,76.8164062 C63.28125,78.271875 64.4625,79.453125 65.9179688,79.453125 C67.3716797,79.453125 68.5546875,80.6361328 68.5546875,82.0898438 C68.5546875,83.5435547 67.3716797,84.7265625 65.9179688,84.7265625 L43.8292969,84.7265625 C41.2734375,84.7265625 38.7474609,84.3169922 36.3234375,83.5083984 L26.3671875,80.1896484 L26.3671875,47.5628906 C30.5033203,46.7771484 34.5515625,44.1580078 38.2060547,39.8707031 C41.7744141,35.6835938 44.6677734,30.1324219 45.9457031,25.0189453 L46.8826172,21.2695312 L47.4609375,21.2695312 C50.3683594,21.2695312 52.734375,23.6355469 52.734375,26.5429688 L52.734375,29.1779297 C52.734375,32.7181641 51.6269531,39.5085938 50.2101562,42.5390625 L44.8242188,42.5390625 C43.36875,42.5390625 42.1875,43.7203125 42.1875,45.1757812 C42.1875,46.63125 43.36875,47.8125 44.8242188,47.8125 L71.1914062,47.8125 C72.6451172,47.8125 73.828125,48.9955078 73.828125,50.4492188 C73.828125,51.9029297 72.6451172,53.0859375 71.1914062,53.0859375 L65.9179688,53.0859375 C64.4625,53.0859375 63.28125,54.2671875 63.28125,55.7226562 C63.28125,57.178125 64.4625,58.359375 65.9179688,58.359375 Z" id="Shape" fill="url(#linearGradient-2)" fill-rule="nonzero"></path>
                        <circle id="Oval" fill="url(#linearGradient-3)" fill-rule="nonzero" cx="13.1835938" cy="76.8164062" r="2.63671875"></circle>
                        <path d="M50.0976562,0 C48.6414844,0 47.4609375,1.18054688 47.4609375,2.63671875 L47.4609375,8.0859375 C47.4609375,9.54210937 48.6414844,10.7226562 50.0976562,10.7226562 C51.5538281,10.7226562 52.734375,9.54210937 52.734375,8.0859375 L52.734375,2.63671875 C52.734375,1.18054688 51.5538281,0 50.0976562,0 Z" id="Path" fill="url(#linearGradient-4)" fill-rule="nonzero"></path>
                        <path d="M38.9109375,11.6275781 L35.1820898,7.89873047 C34.1525391,6.86900391 32.4829688,6.86900391 31.4532422,7.89873047 C30.4235156,8.92845703 30.4235156,10.5978516 31.4532422,11.6275781 L35.1820898,15.3564258 C36.2116406,16.3859766 37.8813867,16.3861523 38.9109375,15.3564258 C39.9406641,14.3266992 39.9406641,12.6573047 38.9109375,11.6275781 Z" id="Path" fill="url(#linearGradient-5)" fill-rule="nonzero"></path>
                        <path d="M68.7420703,7.89873047 C67.7125195,6.86900391 66.0429492,6.86900391 65.0132227,7.89873047 L61.284375,11.6274023 C60.2546484,12.6571289 60.2546484,14.3265234 61.284375,15.35625 C62.3139258,16.3859766 63.9834961,16.3861523 65.0132227,15.3564258 L68.7420703,11.6275781 C69.7717969,10.5978516 69.7717969,8.92845703 68.7420703,7.89873047 Z" id="Path" fill="url(#linearGradient-6)" fill-rule="nonzero"></path>
                    </g>
                </g>
            </g>
        </g>
    </g>
</svg>