<?xml version="1.0" encoding="UTF-8"?>
<svg width="80px" height="90px" viewBox="0 0 80 90" version="1.1" xmlns="http://www.w3.org/2000/svg" xmlns:xlink="http://www.w3.org/1999/xlink">
    <title>online-support</title>
    <defs>
        <filter id="filter-1">
            <feColorMatrix in="SourceGraphic" type="matrix" values="0 0 0 0 1.000000 0 0 0 0 0.745098 0 0 0 0 0.058824 0 0 0 1.000000 0"></feColorMatrix>
        </filter>
        <linearGradient x1="11.3761902%" y1="0%" x2="88.6238098%" y2="100%" id="linearGradient-2">
            <stop stop-color="#2E1390" offset="0%"></stop>
            <stop stop-color="#F500A7" offset="100%"></stop>
        </linearGradient>
    </defs>
    <g id="Page-1" stroke="none" stroke-width="1" fill="none" fill-rule="evenodd">
        <g id="3a.-produk" transform="translate(-343.000000, -2787.000000)">
            <g id="Discounts-on-Tickets-Copy-3" transform="translate(293.000000, 2757.000000)">
                <g id="online-support" transform="translate(15.000000, 0.000000)" filter="url(#filter-1)">
                    <g transform="translate(35.000000, 30.000000)">
                        <path d="M39.5507812,0 C17.7424805,0 0,17.7424805 0,39.5507812 C0,41.9675977 0,60.6635156 0,60.9960938 C0,65.3577539 3.54849609,68.90625 7.91015625,68.90625 L11.0003906,68.90625 C12.0888281,71.9750391 15.0196289,74.1796875 18.4570312,74.1796875 C22.8186914,74.1796875 26.3671875,70.6311914 26.3671875,66.2695312 L26.3671875,44.8242188 C26.3671875,40.4625586 22.8186914,36.9140625 18.4570312,36.9140625 C15.0196289,36.9140625 12.0888281,39.1187109 11.0003906,42.1875 L7.91015625,42.1875 C6.98572266,42.1875 6.09873047,42.3483398 5.2734375,42.6410156 L5.2734375,39.5507812 C5.2734375,20.6502539 20.6502539,5.2734375 39.5507812,5.2734375 C58.4513086,5.2734375 73.828125,20.6502539 73.828125,39.5507812 L73.828125,42.6410156 C73.002832,42.3483398 72.1158398,42.1875 71.1914062,42.1875 L68.1011719,42.1875 C67.0127344,39.1187109 64.0819336,36.9140625 60.6445313,36.9140625 C56.2828711,36.9140625 52.734375,40.4625586 52.734375,44.8242187 L52.734375,66.2695312 C52.734375,70.6311914 56.2828711,74.1796875 60.6445313,74.1796875 C61.4427539,74.1796875 62.2133789,74.0598047 62.9404102,73.8388477 C61.9541016,77.0841211 58.9345312,79.453125 55.3710938,79.453125 L47.0074219,79.453125 C45.9189844,76.3843359 42.9881836,74.1796875 39.5507812,74.1796875 C35.1891211,74.1796875 31.640625,77.7281836 31.640625,82.0898438 C31.640625,86.4515039 35.1891211,90 39.5507812,90 C42.9881836,90 45.9189844,87.7953516 47.0074219,84.7265625 L55.3710938,84.7265625 C62.6405273,84.7265625 68.5546875,78.8124023 68.5546875,71.5429688 L68.5546875,68.90625 L71.1914062,68.90625 C75.5530664,68.90625 79.1015625,65.3577539 79.1015625,60.9960938 C79.1015625,60.6684375 79.1015625,41.9656641 79.1015625,39.5507812 C79.1015625,17.7424805 61.359082,0 39.5507812,0 Z M15.8203125,44.8242188 C15.8203125,43.370332 17.0031445,42.1875 18.4570312,42.1875 C19.910918,42.1875 21.09375,43.370332 21.09375,44.8242188 L21.09375,66.2695312 C21.09375,67.723418 19.910918,68.90625 18.4570312,68.90625 C17.0031445,68.90625 15.8203125,67.723418 15.8203125,66.2695312 L15.8203125,44.8242188 Z M7.91015625,47.4609375 L10.546875,47.4609375 L10.546875,63.6328125 L7.91015625,63.6328125 C6.45626953,63.6328125 5.2734375,62.4499805 5.2734375,60.9960938 L5.2734375,50.0976562 C5.2734375,48.6437695 6.45626953,47.4609375 7.91015625,47.4609375 Z M39.5507812,84.7265625 C38.0968945,84.7265625 36.9140625,83.5437305 36.9140625,82.0898438 C36.9140625,80.635957 38.0968945,79.453125 39.5507812,79.453125 C41.004668,79.453125 42.1875,80.635957 42.1875,82.0898438 C42.1875,83.5437305 41.004668,84.7265625 39.5507812,84.7265625 Z M63.28125,66.2695312 C63.28125,67.723418 62.098418,68.90625 60.6445312,68.90625 C59.1906445,68.90625 58.0078125,67.723418 58.0078125,66.2695312 L58.0078125,44.8242188 C58.0078125,43.370332 59.1906445,42.1875 60.6445312,42.1875 C62.098418,42.1875 63.28125,43.370332 63.28125,44.8242188 L63.28125,66.2695312 Z M73.828125,60.9960938 C73.828125,62.4499805 72.645293,63.6328125 71.1914062,63.6328125 L68.5546875,63.6328125 L68.5546875,47.4609375 L71.1914062,47.4609375 C72.645293,47.4609375 73.828125,48.6437695 73.828125,50.0976562 L73.828125,60.9960938 Z" id="Shape" fill="url(#linearGradient-2)" fill-rule="nonzero"></path>
                    </g>
                </g>
            </g>
        </g>
    </g>
</svg>