<?xml version="1.0" encoding="UTF-8"?>
<svg width="79px" height="75px" viewBox="0 0 79 75" version="1.1" xmlns="http://www.w3.org/2000/svg" xmlns:xlink="http://www.w3.org/1999/xlink">
    <title>promotion</title>
    <defs>
        <filter id="filter-1">
            <feColorMatrix in="SourceGraphic" type="matrix" values="0 0 0 0 0.188235 0 0 0 0 0.188235 0 0 0 0 0.188235 0 0 0 1.000000 0"></feColorMatrix>
        </filter>
    </defs>
    <g id="Page-1" stroke="none" stroke-width="1" fill="none" fill-rule="evenodd">
        <g id="promotion" transform="translate(-918.000000, -1024.000000)" filter="url(#filter-1)">
            <g transform="translate(918.000000, 1024.000000)">
                <path d="M21.1332474,47.6651095 C21.8709793,47.2386436 22.1235198,46.2920828 21.697998,45.5527143 C21.2718734,44.8139497 20.3280106,44.5602448 19.5902787,44.9867106 C18.8525467,45.4137806 18.5994034,46.3603415 19.025528,47.099106 C19.4510498,47.8384746 20.3955155,48.0921795 21.1332474,47.6651095 L21.1332474,47.6651095 Z" id="Path" fill="#000000" fill-rule="nonzero"></path>
                <path d="M14.8100891,58.3382329 L22.5803833,71.8274807 C24.2571564,74.7414626 28.0289917,75.8203126 31.0118637,74.0920989 C33.9633942,72.3826112 34.9777755,68.6030122 33.2702637,65.6425177 L28.6413574,57.606113 L32.6500626,55.2865254 C33.3877945,54.8588514 33.6409378,53.9134987 33.2148132,53.1741302 L31.2083512,49.6911244 C31.4476318,49.6446118 33.0207366,49.3353334 60.7622299,43.8812822 C64.1917191,43.6946279 66.2463989,39.935567 64.5141755,36.9303721 L59.3862151,28.0289545 L62.6632157,23.0545265 C62.9850692,22.5652384 63.0043563,21.9364127 62.7120361,21.4290029 L59.6260986,16.0722053 C59.3337784,15.5647955 58.7786712,15.2675983 58.1970443,15.3020296 L52.2608337,15.6590287 L46.5681229,5.77661892 C45.743599,4.34499835 44.2663269,3.4781734 42.6172791,3.45703129 C42.5973893,3.45703129 42.5781022,3.45703129 42.5582122,3.45703129 C40.9646149,3.45703129 39.5180817,4.2519733 38.6610107,5.59600515 L18.5047761,31.3301385 L5.40099331,38.9122905 C0.247116012,41.8933231 -1.53814697,48.5198535 1.44773857,53.6990576 C4.17565918,58.4348824 9.92683418,60.2978012 14.8100891,58.3382329 L14.8100891,58.3382329 Z M30.5983963,67.1895136 C31.4506454,68.6670425 30.946167,70.5577481 29.4676896,71.4137001 C27.9843903,72.2732765 26.095459,71.7453286 25.2528533,70.2816929 L17.5380096,56.8878866 L22.8829499,53.7951031 C31.811676,69.2964724 30.4549484,66.9412452 30.5983963,67.1895136 Z M27.0983887,54.9271101 L25.5554199,52.2487113 L28.2278899,50.7023196 L29.7708587,53.3807184 L27.0983887,54.9271101 Z M57.4303817,18.4461581 L59.5628128,22.1478334 L57.6612244,25.0340287 L53.9858245,18.6533505 L57.4303817,18.4461581 Z M41.241867,7.29159959 C41.6559372,6.61263696 42.3129044,6.54256608 42.5793075,6.54981479 C42.8426971,6.55283505 43.4990616,6.63498711 43.89505,7.32240649 L61.8417053,38.4767638 C62.4263459,39.4909794 61.7157364,40.7661486 60.5434417,40.7951434 C60.3330917,40.7999759 60.2360535,40.8380316 59.6972199,40.9389094 L40.7132797,7.98445546 C41.111679,7.47100515 41.1629105,7.42147237 41.241867,7.29159959 L41.241867,7.29159959 Z M38.6598054,10.6060729 L56.4961625,41.5683393 L29.5773849,46.8598986 L21.3924179,32.6518203 L38.6598054,10.6060729 Z M4.12020874,52.1526659 C3.44274902,50.9777706 3.08473213,49.6440077 3.08473213,48.2945394 C3.08473213,45.5364046 4.56381226,42.9679446 6.94396206,41.5906894 L18.9700774,34.6319265 L26.6849212,48.0239208 L14.6588058,54.9832877 C10.9743652,57.1144089 6.24721523,55.8446762 4.12020874,52.1526659 Z" id="Shape" fill="#000000" fill-rule="nonzero"></path>
                <path d="M16.3530579,48.6454978 C15.9269332,47.9061292 14.9830704,47.6524243 14.2453385,48.0794941 L11.5728683,49.6258859 C10.8363419,50.0523518 9.8906707,49.7980429 9.46514893,49.0598824 C9.03902431,48.3205138 8.09516148,48.0668089 7.35742954,48.4938789 C6.61969761,48.9209488 6.3665543,49.8669056 6.79267891,50.6062741 C8.0626144,52.8110906 10.8954086,53.5885147 13.1158371,52.3042848 L15.7883072,50.757893 C16.5260392,50.3308231 16.7791825,49.3854704 16.3530579,48.6454978 L16.3530579,48.6454978 Z" id="Path" fill="#000000" fill-rule="nonzero"></path>
                <path d="M76.7066422,6.7648599 L68.1088103,11.5598824 C67.3644486,11.9754752 67.0962371,12.9172036 67.51091,13.6632169 C67.9243774,14.4086259 68.8634187,14.6786405 69.6095886,14.2624437 L78.2068176,9.46742103 C78.9517822,9.05182825 79.2193909,8.11009979 78.804718,7.3640867 C78.3906478,6.61746943 77.4510041,6.34926711 76.7066422,6.7648599 L76.7066422,6.7648599 Z" id="Path" fill="#000000" fill-rule="nonzero"></path>
                <path d="M75.8049698,22.7808875 L69.8434448,21.1801305 C69.0201263,20.9590447 68.1739045,21.4483328 67.9533081,22.2734777 C67.7327117,23.0986228 68.2215194,23.9461178 69.044838,24.1672036 L75.0069657,25.7679606 C75.8351059,25.9908586 76.6771087,25.4937178 76.8964997,24.6746134 C77.1170959,23.8494684 76.6282882,23.0013693 75.8049698,22.7808875 Z" id="Path" fill="#000000" fill-rule="nonzero"></path>
                <path d="M60.8237076,1.14650443 L59.2246857,7.12185897 C59.0040894,7.94700387 59.4922942,8.79449907 60.3156128,9.01618887 C61.1383285,9.23667046 61.9845504,8.74859057 62.2057495,7.92284149 L63.8041687,1.94748711 C64.0247649,1.12234206 63.5365601,0.27424299 62.7132415,0.0531572165 C61.8905258,-0.167928557 61.0443039,0.321359536 60.8237076,1.14650443 L60.8237076,1.14650443 Z" id="Path" fill="#000000" fill-rule="nonzero"></path>
            </g>
        </g>
    </g>
</svg>