<?xml version="1.0" encoding="UTF-8"?>
<svg width="92px" height="92px" viewBox="0 0 92 92" version="1.1" xmlns="http://www.w3.org/2000/svg" xmlns:xlink="http://www.w3.org/1999/xlink">
    <title>rancangan-bisnis</title>
    <defs>
        <filter id="filter-1">
            <feColorMatrix in="SourceGraphic" type="matrix" values="0 0 0 0 1.000000 0 0 0 0 0.745098 0 0 0 0 0.058824 0 0 0 1.000000 0"></feColorMatrix>
        </filter>
        <linearGradient x1="0%" y1="0%" x2="100%" y2="100%" id="linearGradient-2">
            <stop stop-color="#2E1390" offset="0%"></stop>
            <stop stop-color="#F500A7" offset="100%"></stop>
        </linearGradient>
        <linearGradient x1="0%" y1="20.8549625%" x2="100%" y2="79.1450375%" id="linearGradient-3">
            <stop stop-color="#2E1390" offset="0%"></stop>
            <stop stop-color="#F500A7" offset="100%"></stop>
        </linearGradient>
        <linearGradient x1="0%" y1="46.5930295%" x2="100%" y2="53.4069705%" id="linearGradient-4">
            <stop stop-color="#2E1390" offset="0%"></stop>
            <stop stop-color="#F500A7" offset="100%"></stop>
        </linearGradient>
        <linearGradient x1="0%" y1="0.00126483813%" x2="100%" y2="99.9987352%" id="linearGradient-5">
            <stop stop-color="#2E1390" offset="0%"></stop>
            <stop stop-color="#F500A7" offset="100%"></stop>
        </linearGradient>
        <linearGradient x1="0.00124426859%" y1="0%" x2="99.9987557%" y2="100%" id="linearGradient-6">
            <stop stop-color="#2E1390" offset="0%"></stop>
            <stop stop-color="#F500A7" offset="100%"></stop>
        </linearGradient>
        <linearGradient x1="0%" y1="29.861343%" x2="100%" y2="70.138657%" id="linearGradient-7">
            <stop stop-color="#2E1390" offset="0%"></stop>
            <stop stop-color="#F500A7" offset="100%"></stop>
        </linearGradient>
        <linearGradient x1="10.1197351%" y1="0%" x2="89.8802649%" y2="100%" id="linearGradient-8">
            <stop stop-color="#2E1390" offset="0%"></stop>
            <stop stop-color="#F500A7" offset="100%"></stop>
        </linearGradient>
        <linearGradient x1="0%" y1="48.6111111%" x2="100%" y2="51.3888889%" id="linearGradient-9">
            <stop stop-color="#2E1390" offset="0%"></stop>
            <stop stop-color="#F500A7" offset="100%"></stop>
        </linearGradient>
        <linearGradient x1="0%" y1="47.0607406%" x2="100%" y2="52.9392594%" id="linearGradient-10">
            <stop stop-color="#2E1390" offset="0%"></stop>
            <stop stop-color="#F500A7" offset="100%"></stop>
        </linearGradient>
    </defs>
    <g id="Page-1" stroke="none" stroke-width="1" fill="none" fill-rule="evenodd">
        <g id="3a.-produk" transform="translate(-937.000000, -2786.000000)">
            <g id="Discounts-on-Tickets-Copy-5" transform="translate(893.000000, 2757.000000)">
                <g id="rancangan-bisnis" transform="translate(15.000000, 0.000000)" filter="url(#filter-1)">
                    <g transform="translate(30.000000, 30.000000)">
                        <path d="M44.1863086,76.0763672 C43.8593555,75.7494141 43.4058398,75.5611523 42.9435352,75.5611523 C42.4812305,75.5611523 42.0277148,75.7492383 41.7007617,76.0763672 C41.3738086,76.4031445 41.1857227,76.8566602 41.1857227,77.3189648 C41.1857227,77.7832031 41.3738086,78.2347852 41.7007617,78.5617383 C42.0277148,78.8904492 42.4812305,79.0767773 42.9435352,79.0767773 C43.4058398,79.0767773 43.8593555,78.8904492 44.1863086,78.5617383 C44.5132617,78.2347852 44.7013477,77.7814453 44.7013477,77.3189648 C44.7013477,76.8566602 44.5130859,76.4031445 44.1863086,76.0763672 Z" id="Path" stroke="url(#linearGradient-2)" stroke-width="0.25" fill="url(#linearGradient-2)" fill-rule="nonzero"></path>
                        <path d="M52.5556055,59.8603711 L52.5556055,46.9260352 C52.5556055,46.3420898 52.2655664,45.7961133 51.7816406,45.4693359 C51.2977148,45.1425586 50.6830078,45.0775195 50.1410742,45.2954883 L19.8516797,57.4941797 L10.0958203,57.4941797 C4.52917969,57.4941797 0.00017578125,62.0231836 0.00017578125,67.5901758 C0.00017578125,73.157168 4.52917969,77.6861719 10.0961719,77.6861719 L11.2579102,77.6861719 L11.2579102,88.2421875 C11.2579102,89.2128516 12.0448828,90.0001758 13.0157227,90.0001758 L20.1918164,90.0001758 C21.1626562,90.0001758 21.9496289,89.2128516 21.9496289,88.2421875 L21.9496289,78.5341406 L50.1419531,89.8730859 C50.353418,89.9581641 50.5761328,90.0001758 50.7976172,90.0001758 C51.1435547,90.0001758 51.4870312,89.8980469 51.7819922,89.6988867 C52.2657422,89.3721094 52.5556055,88.8261328 52.5556055,88.2423633 L52.5556055,75.3082031 C56.0807227,74.5061133 58.7206055,71.3487305 58.7206055,67.584375 C58.7206055,63.8200195 56.0807227,60.6624609 52.5556055,59.8603711 Z M18.4338281,86.484375 L14.7735352,86.484375 L14.7735352,77.6859961 L18.4340039,77.6859961 L18.4340039,86.484375 L18.4338281,86.484375 Z M18.4341797,74.1703711 L10.0961719,74.1703711 C6.46769531,74.1703711 3.51580078,71.2184766 3.51580078,67.5901758 C3.51580078,63.9616992 6.46769531,61.0098047 10.0961719,61.0098047 L18.4348828,61.0098047 L18.4341797,74.1703711 Z M49.0401562,85.6404492 L49.0401562,85.6404492 L21.9505078,74.745 L21.9505078,60.4388672 L41.1857227,52.6921875 L41.1857227,70.1367188 C41.1857227,71.1073828 41.9726953,71.8945312 42.9435352,71.8945312 C43.914375,71.8945312 44.7013477,71.1073828 44.7013477,70.1367188 L44.7013477,51.2762695 L49.0401562,49.5288281 L49.0401562,85.6404492 Z M52.5556055,71.6245312 L52.5556055,63.5438672 C54.1132031,64.2241406 55.2049805,65.77875 55.2049805,67.5841992 C55.2049805,69.3896484 54.1133789,70.9442578 52.5556055,71.6245312 Z" id="Shape" stroke="url(#linearGradient-3)" stroke-width="0.25" fill="url(#linearGradient-3)" fill-rule="nonzero"></path>
                        <path d="M75.4897852,65.878418 L65.5374023,65.878418 C64.5665625,65.878418 63.7795898,66.6655664 63.7795898,67.6362305 C63.7795898,68.6068945 64.5665625,69.394043 65.5374023,69.394043 L75.4897852,69.394043 C76.460625,69.394043 77.2475977,68.6068945 77.2475977,67.6362305 C77.2475977,66.6655664 76.460625,65.878418 75.4897852,65.878418 Z" id="Path" stroke="url(#linearGradient-4)" stroke-width="0.25" fill="url(#linearGradient-4)" fill-rule="nonzero"></path>
                        <path d="M67.3277344,52.9976953 C66.6413086,52.3114453 65.5282617,52.3114453 64.8416602,52.9976953 L61.4086523,56.4307031 C60.7222266,57.1171289 60.7222266,58.2301758 61.4086523,58.9167773 C61.7521289,59.2599023 62.2019531,59.4316406 62.6517773,59.4316406 C63.1016016,59.4316406 63.5516016,59.2599023 63.8947266,58.9167773 L67.3277344,55.4837695 C68.0141602,54.7973438 68.0141602,53.6842969 67.3277344,52.9976953 Z" id="Path" stroke="url(#linearGradient-5)" stroke-width="0.25" fill="url(#linearGradient-5)" fill-rule="nonzero"></path>
                        <path d="M67.4567578,79.6246875 L63.9089648,76.0767187 C63.2225391,75.3904687 62.1094922,75.3904687 61.4228906,76.0767187 C60.7364648,76.7631445 60.7364648,77.8761914 61.4228906,78.562793 L64.9708594,82.1107617 C65.3141602,82.4538867 65.7639844,82.625625 66.2138086,82.625625 C66.6636328,82.625625 67.1136328,82.4538867 67.4567578,82.1107617 C68.1431836,81.4243359 68.1431836,80.3112891 67.4567578,79.6246875 Z" id="Path" stroke="url(#linearGradient-6)" stroke-width="0.25" fill="url(#linearGradient-6)" fill-rule="nonzero"></path>
                        <path d="M82.9689258,0 L50.2736133,0 C46.396582,0 43.2423633,3.15421875 43.2423633,7.03125 L43.2423633,7.734375 L13.7111133,7.734375 C11.3848242,7.734375 9.49236328,9.62701172 9.49236328,11.953125 L9.49236328,39.7265625 C9.49236328,42.0526758 11.3848242,43.9453125 13.7111133,43.9453125 L15.5274609,43.9453125 L15.5274609,49.3359961 C15.5274609,50.0470313 15.9558398,50.6879297 16.6125586,50.9600391 C16.83,51.0500391 17.0583398,51.0938086 17.2849219,51.0938086 C17.7423047,51.0938086 18.1919531,50.9152148 18.5282227,50.5789453 L25.1618555,43.9453125 L60.0786914,43.9453125 C62.4049805,43.9453125 64.2974414,42.0526758 64.2974414,39.7265625 L64.2974414,34.453125 L82.9689258,34.453125 C86.845957,34.453125 90.0001758,31.2989062 90.0001758,27.421875 L90.0001758,7.03125 C90.0001758,3.15421875 86.845957,0 82.9689258,0 Z M60.7818164,39.7265625 C60.7818164,40.1143359 60.4664648,40.4296875 60.0786914,40.4296875 L24.4337695,40.4296875 C23.9675977,40.4296875 23.5204102,40.6149609 23.1908203,40.9445508 L19.0432617,45.0922852 L19.0432617,42.1875 C19.0432617,41.2168359 18.2562891,40.4296875 17.2854492,40.4296875 L13.7111133,40.4296875 C13.3233398,40.4296875 13.0079883,40.1143359 13.0079883,39.7265625 L13.0079883,11.953125 C13.0079883,11.5653516 13.3233398,11.25 13.7111133,11.25 L43.2423633,11.25 L43.2423633,27.421875 C43.2423633,31.2989063 46.396582,34.453125 50.2736133,34.453125 L60.7818164,34.453125 L60.7818164,39.7265625 Z M86.4845508,27.421875 C86.4845508,29.3603906 84.9074414,30.9375 82.9689258,30.9375 L50.2736133,30.9375 C48.3350977,30.9375 46.7579883,29.3603906 46.7579883,27.421875 L46.7579883,7.03125 C46.7579883,5.09273438 48.3350977,3.515625 50.2736133,3.515625 L82.9689258,3.515625 C84.9074414,3.515625 86.4845508,5.09273438 86.4845508,7.03125 L86.4845508,27.421875 Z" id="Shape" stroke="url(#linearGradient-7)" stroke-width="0.25" fill="url(#linearGradient-7)" fill-rule="nonzero"></path>
                        <path d="M73.6832813,15.7042969 L61.6528125,8.75847656 C61.1089453,8.44435547 60.4388672,8.44435547 59.895,8.75847656 C59.3511328,9.07242188 59.0160938,9.65285156 59.0160938,10.2807422 L59.0160938,24.172207 C59.0160938,24.8000977 59.3511328,25.3805273 59.895,25.6944727 C60.1669336,25.8516211 60.470332,25.9300195 60.7739063,25.9300195 C61.0774805,25.9300195 61.3808789,25.8516211 61.6528125,25.6944727 L73.6832813,18.7486523 C74.2271484,18.434707 74.5621875,17.8542773 74.5621875,17.2263867 C74.5621875,16.5984961 74.2273242,16.0182422 73.6832813,15.7042969 Z M62.5317188,21.1276758 L62.5317188,13.3254492 L69.28875,17.2265625 L62.5317188,21.1276758 Z" id="Shape" stroke="url(#linearGradient-8)" stroke-width="0.25" fill="url(#linearGradient-8)" fill-rule="nonzero"></path>
                        <path d="M37.7071875,18.4570312 L20.1290625,18.4570312 C19.1582227,18.4570312 18.37125,19.2441797 18.37125,20.2148438 C18.37125,21.1855078 19.1582227,21.9726562 20.1290625,21.9726562 L37.7071875,21.9726562 C38.6780273,21.9726562 39.465,21.1855078 39.465,20.2148438 C39.465,19.2441797 38.6780273,18.4570312 37.7071875,18.4570312 Z" id="Path" stroke="url(#linearGradient-9)" stroke-width="0.25" fill="url(#linearGradient-9)" fill-rule="nonzero"></path>
                        <path d="M38.9497852,28.8158203 C38.622832,28.4886914 38.1693164,28.3007812 37.7070117,28.3007812 C37.244707,28.3007812 36.7911914,28.4886914 36.4642383,28.8158203 C36.1372852,29.1427734 35.9491992,29.5962891 35.9491992,30.0585938 C35.9491992,30.5208984 36.1372852,30.9744141 36.4642383,31.3011914 C36.7911914,31.6281445 37.244707,31.8164062 37.7070117,31.8164062 C38.1710742,31.8164062 38.622832,31.6283203 38.9497852,31.3011914 C39.2767383,30.9744141 39.4648242,30.5208984 39.4648242,30.0585938 C39.4648242,29.5962891 39.2767383,29.1427734 38.9497852,28.8158203 Z" id="Path" stroke="url(#linearGradient-2)" stroke-width="0.25" fill="url(#linearGradient-2)" fill-rule="nonzero"></path>
                        <path d="M31.113457,28.3007812 L20.1290625,28.3007812 C19.1582227,28.3007812 18.37125,29.0879297 18.37125,30.0585938 C18.37125,31.0292578 19.1582227,31.8164062 20.1290625,31.8164062 L31.113457,31.8164062 C32.0842969,31.8164062 32.8712695,31.0292578 32.8712695,30.0585938 C32.8712695,29.0879297 32.0842969,28.3007812 31.113457,28.3007812 Z" id="Path" stroke="url(#linearGradient-10)" stroke-width="0.25" fill="url(#linearGradient-10)" fill-rule="nonzero"></path>
                    </g>
                </g>
            </g>
        </g>
    </g>
</svg>