<?xml version="1.0" encoding="UTF-8"?>
<svg width="92px" height="92px" viewBox="0 0 92 92" version="1.1" xmlns="http://www.w3.org/2000/svg" xmlns:xlink="http://www.w3.org/1999/xlink">
    <title>stok-produk</title>
    <defs>
        <filter id="filter-1">
            <feColorMatrix in="SourceGraphic" type="matrix" values="0 0 0 0 1.000000 0 0 0 0 0.745098 0 0 0 0 0.058824 0 0 0 1.000000 0"></feColorMatrix>
        </filter>
        <linearGradient x1="0%" y1="0%" x2="100%" y2="100%" id="linearGradient-2">
            <stop stop-color="#2E1390" offset="0%"></stop>
            <stop stop-color="#F500A7" offset="100%"></stop>
        </linearGradient>
        <linearGradient x1="0%" y1="31.4491078%" x2="100%" y2="68.5508922%" id="linearGradient-3">
            <stop stop-color="#2E1390" offset="0%"></stop>
            <stop stop-color="#F500A7" offset="100%"></stop>
        </linearGradient>
        <linearGradient x1="41.296804%" y1="0%" x2="58.703196%" y2="100%" id="linearGradient-4">
            <stop stop-color="#2E1390" offset="0%"></stop>
            <stop stop-color="#F500A7" offset="100%"></stop>
        </linearGradient>
        <linearGradient x1="41.2972881%" y1="0%" x2="58.7027119%" y2="100%" id="linearGradient-5">
            <stop stop-color="#2E1390" offset="0%"></stop>
            <stop stop-color="#F500A7" offset="100%"></stop>
        </linearGradient>
    </defs>
    <g id="Page-1" stroke="none" stroke-width="1" fill="none" fill-rule="evenodd">
        <g id="3a.-produk" transform="translate(-1087.000000, -2522.000000)">
            <g id="stok-produk" transform="translate(1043.000000, 2493.000000)">
                <g id="stok-produk" transform="translate(15.000000, 0.000000)" filter="url(#filter-1)">
                    <g transform="translate(30.000000, 30.000000)">
                        <path d="M89.9989453,24.6018164 C89.9915625,24.1630664 89.7583008,23.744707 89.3870508,23.5096875 L61.5081445,5.85632812 C61.3715625,5.76984375 61.2202148,5.70919922 61.0616602,5.67738281 L32.8412109,0.0277734375 C31.4428711,-0.252773438 30.6729492,1.67167969 31.8772266,2.43421875 L44.506582,10.4312109 L34.3392187,13.4486719 L25.7262891,7.99488281 C25.2896484,7.71837891 24.731543,7.72259766 24.2989453,8.00560547 L13.8564844,14.8410352 C12.4760742,15.7445508 13.8573633,17.9919141 15.3005273,17.0472656 L25.0330078,10.6767773 L50.4648633,26.7804492 L29.1856641,40.7088281 L3.75380859,24.6051562 L9.4809375,20.8564453 C10.8613477,19.9529297 9.48005859,17.7055664 8.03689453,18.6502148 L0.596601562,23.5204102 C0.230625,23.7596484 0.00017578125,24.1866211 0.00017578125,24.6234375 L0.00017578125,71.0303906 C0.00017578125,71.4821484 0.231503906,71.9024414 0.613300781,72.1441406 L28.4923828,89.7975 C28.8080859,89.9971875 29.2151953,90.0541406 29.5727344,89.9476172 L77.899043,75.6058008 C79.4807227,75.1364648 78.8023828,72.5869336 77.1488086,73.0780664 L30.5158008,86.9173242 L30.5158008,43.2606445 L87.3632812,26.3898633 L87.3632812,70.0463672 L83.763457,71.1147656 C82.1819531,71.5841016 82.8597656,74.1329297 84.5136914,73.6425 L89.0569336,72.2942578 C89.6164453,72.1283203 90.0001758,71.6139844 90.0001758,71.0303906 L90.0001758,24.6234375 C90.0001758,24.6162305 89.9991211,24.6090234 89.9989453,24.6018164 Z M60.3042188,8.21496094 L81.9729492,21.935918 L60.9600586,17.7289453 L39.2913281,4.00798828 L60.3042188,8.21496094 Z M53.6053711,25.6482422 L37.2965625,15.3214453 L47.4639258,12.3039844 L59.7561328,20.0875781 C59.8927148,20.1740625 60.0440625,20.234707 60.2026172,20.2665234 L83.2092188,24.8725195 L37.4450977,38.4539063 L53.6220703,27.8651953 C53.9971875,27.6196289 54.2218359,27.2003906 54.2184961,26.7521484 C54.2151563,26.3039063 53.9841797,25.8880078 53.6053711,25.6482422 L53.6053711,25.6482422 Z M2.63689453,27.0186328 L27.8792578,43.0022461 L27.8792578,86.2883789 L2.63689453,70.3049414 L2.63689453,27.0186328 Z" id="Shape" stroke="url(#linearGradient-2)" stroke-width="0.5" fill="url(#linearGradient-2)" fill-rule="nonzero"></path>
                        <path d="M82.0290234,51.5988281 C81.6953906,51.3499219 81.2636719,51.2732813 80.8648242,51.3921094 L36.2626172,64.6646484 C35.7036328,64.8309375 35.3202539,65.3449219 35.3202539,65.9281641 L35.3202539,78.7927148 C35.3202539,79.2089648 35.5167773,79.6007812 35.8504102,79.8495117 C36.0808594,80.0214258 36.3578906,80.1110742 36.6386133,80.1110742 C36.7644727,80.1110742 36.8910352,80.0929687 37.0146094,80.0562305 L81.6168164,66.7836914 C82.1758008,66.6174023 82.5591797,66.103418 82.5591797,65.5201758 L82.5591797,52.655625 C82.5591797,52.239375 82.3626563,51.8475586 82.0290234,51.5988281 L82.0290234,51.5988281 Z M79.9224609,64.5370313 L37.9569727,77.0248828 L37.9569727,66.9113086 L79.9224609,54.423457 L79.9224609,64.5370313 Z" id="Shape" stroke="url(#linearGradient-3)" stroke-width="0.5" fill="url(#linearGradient-3)" fill-rule="nonzero"></path>
                        <path d="M51.2716992,71.250293 C51.9997852,71.250293 52.5900586,70.6600195 52.5900586,69.9319336 L52.5900586,66.1960547 C52.5900586,64.5463477 49.9533398,64.4711133 49.9533398,66.1960547 L49.9533398,69.9319336 C49.9533398,70.6601953 50.5436133,71.250293 51.2716992,71.250293 Z" id="Path" stroke="url(#linearGradient-4)" stroke-width="0.5" fill="url(#linearGradient-4)" fill-rule="nonzero"></path>
                        <path d="M68.7673828,65.8879102 C69.4954688,65.8879102 70.0857422,65.2976367 70.0857422,64.5695508 L70.0857422,60.8334961 C70.0857422,59.1837891 67.4490234,59.1085547 67.4490234,60.8334961 L67.4490234,64.5695508 C67.4490234,65.2976367 68.0392969,65.8879102 68.7673828,65.8879102 Z" id="Path" stroke="url(#linearGradient-5)" stroke-width="0.5" fill="url(#linearGradient-5)" fill-rule="nonzero"></path>
                        <path d="M72.6584766,64.8332227 C73.3865625,64.8332227 73.9768359,64.2429492 73.9768359,63.5148633 L73.9768359,59.7788086 C73.9768359,58.1291016 71.3401172,58.0538672 71.3401172,59.7788086 L71.3401172,63.5148633 C71.3401172,64.2429492 71.9303906,64.8332227 72.6584766,64.8332227 Z" id="Path" stroke="url(#linearGradient-5)" stroke-width="0.5" fill="url(#linearGradient-5)" fill-rule="nonzero"></path>
                        <path d="M76.5495703,63.7785352 C77.2776563,63.7785352 77.8679297,63.1882617 77.8679297,62.4601758 L77.8679297,58.7241211 C77.8679297,57.0744141 75.2312109,56.9991797 75.2312109,58.7241211 L75.2312109,62.4601758 C75.2312109,63.1882617 75.8214844,63.7785352 76.5495703,63.7785352 Z" id="Path" stroke="url(#linearGradient-5)" stroke-width="0.5" fill="url(#linearGradient-5)" fill-rule="nonzero"></path>
                        <path d="M41.3674805,74.1970898 C42.0955664,74.1970898 42.6858398,73.6068164 42.6858398,72.8787305 L42.6858398,69.1428516 C42.6858398,67.4931445 40.0491211,67.4179102 40.0491211,69.1428516 L40.0491211,72.8787305 C40.0491211,73.6068164 40.6393945,74.1970898 41.3674805,74.1970898 Z" id="Path" stroke="url(#linearGradient-4)" stroke-width="0.5" fill="url(#linearGradient-4)" fill-rule="nonzero"></path>
                        <path d="M45.1780664,73.2594727 C45.9061523,73.2594727 46.4964258,72.6691992 46.4964258,71.9411133 L46.4964258,68.2052344 C46.4964258,66.5555273 43.859707,66.480293 43.859707,68.2052344 L43.859707,71.9411133 C43.859707,72.6691992 44.4499805,73.2594727 45.1780664,73.2594727 Z" id="Path" stroke="url(#linearGradient-4)" stroke-width="0.5" fill="url(#linearGradient-4)" fill-rule="nonzero"></path>
                        <path d="M58.1559961,69.1219336 C58.884082,69.1219336 59.4743555,68.5316602 59.4743555,67.8035742 L59.4743555,64.0676953 C59.4743555,62.4179883 56.8376367,62.3427539 56.8376367,64.0676953 L56.8376367,67.8035742 C56.8376367,68.5316602 57.4279102,69.1219336 58.1559961,69.1219336 Z" id="Path" stroke="url(#linearGradient-4)" stroke-width="0.5" fill="url(#linearGradient-4)" fill-rule="nonzero"></path>
                        <path d="M61.8830859,68.1674414 C62.6111719,68.1674414 63.2014453,67.577168 63.2014453,66.849082 L63.2014453,63.1132031 C63.2014453,61.4634961 60.5647266,61.3882617 60.5647266,63.1132031 L60.5647266,66.849082 C60.5647266,67.577168 61.155,68.1674414 61.8830859,68.1674414 Z" id="Path" stroke="url(#linearGradient-4)" stroke-width="0.5" fill="url(#linearGradient-4)" fill-rule="nonzero"></path>
                    </g>
                </g>
            </g>
        </g>
    </g>
</svg>