<?xml version="1.0" encoding="UTF-8"?>
<svg width="79px" height="79px" viewBox="0 0 79 79" version="1.1" xmlns="http://www.w3.org/2000/svg" xmlns:xlink="http://www.w3.org/1999/xlink">
    <title>strategi-marketing-penjualan-icon</title>
    <defs>
        <filter id="filter-1">
            <feColorMatrix in="SourceGraphic" type="matrix" values="0 0 0 0 0.188235 0 0 0 0 0.188235 0 0 0 0 0.188235 0 0 0 1.000000 0"></feColorMatrix>
        </filter>
    </defs>
    <g id="Page-1" stroke="none" stroke-width="1" fill="none" fill-rule="evenodd">
        <g id="strategi-marketing-penjualan-icon" transform="translate(-178.000000, -1020.000000)" filter="url(#filter-1)">
            <g transform="translate(178.000000, 1020.000000)">
                <path d="M16.5,34 C21.18775,34 25,30.18775 25,25.5 C25,20.81225 21.18775,17 16.5,17 C11.81225,17 8,20.81225 8,25.5 C8,30.18775 11.81225,34 16.5,34 Z M16.5,19.8333333 C19.6251667,19.8333333 22.1666667,22.3748333 22.1666667,25.5 C22.1666667,28.6251667 19.6251667,31.1666667 16.5,31.1666667 C13.3748333,31.1666667 10.8333333,28.6251667 10.8333333,25.5 C10.8333333,22.3748333 13.3748333,19.8333333 16.5,19.8333333 Z" id="Shape" fill="#A5A5A5" fill-rule="nonzero"></path>
                <path d="M62.5,34 C67.18775,34 71,30.18775 71,25.5 C71,20.81225 67.18775,17 62.5,17 C57.81225,17 54,20.81225 54,25.5 C54,30.18775 57.81225,34 62.5,34 Z M62.5,19.8333333 C65.6251667,19.8333333 68.1666667,22.3748333 68.1666667,25.5 C68.1666667,28.6251667 65.6251667,31.1666667 62.5,31.1666667 C59.3748333,31.1666667 56.8333333,28.6251667 56.8333333,25.5 C56.8333333,22.3748333 59.3748333,19.8333333 62.5,19.8333333 Z" id="Shape" fill="#A5A5A5" fill-rule="nonzero"></path>
                <path d="M76.1785714,37 L76.1785714,55.2 C76.1785714,57.5156 74.27975,59.4 71.9464286,59.4 L71.9464286,44 C71.9464286,40.1402 68.7821964,37 64.8928571,37 L57.8392857,37 C57.0605714,37 56.4285714,37.6272 56.4285714,38.4 L56.4285714,44 L56.4285714,45.4 L56.4285714,46.8 L45.1428571,46.8 C44.3641429,46.8 43.7321429,47.4272 43.7321429,48.2 L43.7321429,52.4 L35.2678571,52.4 L35.2678571,48.2 C35.2678571,47.4272 34.6358571,46.8 33.8571429,46.8 L22.5714286,46.8 L22.5714286,45.4 L22.5714286,44 L22.5714286,38.4 C22.5714286,37.6272 21.9394286,37 21.1607143,37 L14.1071429,37 C10.2178036,37 7.05357143,40.1402 7.05357143,44 L7.05357143,59.4 C4.72025,59.4 2.82142857,57.5156 2.82142857,55.2 L2.82142857,37 L0,37 L0,55.2 C0,58.063 1.74505357,60.5228 4.23214286,61.6064 L4.23214286,79 L7.05357143,79 L7.05357143,62.2 L8.46428571,62.2 L9.875,62.2 L21.1607143,62.2 L21.1607143,77.6 C21.1607143,78.3728 21.7927143,79 22.5714286,79 L26.8035714,79 L28.2142857,79 L29.625,79 L29.625,77.6 L29.625,56.6 L29.625,55.2 L33.8571429,55.2 L45.1428571,55.2 L49.375,55.2 L49.375,56.6 L49.375,77.6 L49.375,79 L50.7857143,79 L52.1964286,79 L56.4285714,79 C57.2072857,79 57.8392857,78.3728 57.8392857,77.6 L57.8392857,62.2 L69.125,62.2 L70.5357143,62.2 L71.9464286,62.2 L71.9464286,79 L74.7678571,79 L74.7678571,61.6064 C77.2549464,60.5228 79,58.063 79,55.2 L79,37 L76.1785714,37 Z M28.2142857,52.4 L25.3928571,52.4 L16.9285714,52.4 L16.9285714,44 L14.1071429,44 L14.1071429,53.8 C14.1071429,54.5728 14.7391429,55.2 15.5178571,55.2 L25.3928571,55.2 C26.1701607,55.2 26.8035714,55.8286 26.8035714,56.6 L26.8035714,76.2 L23.9821429,76.2 L23.9821429,60.8 C23.9821429,60.0272 23.3501429,59.4 22.5714286,59.4 L9.875,59.4 L9.875,44 C9.875,41.6844 11.7738214,39.8 14.1071429,39.8 L19.75,39.8 L19.75,44 L19.75,45.4 L19.75,48.2 C19.75,48.9728 20.382,49.6 21.1607143,49.6 L32.4464286,49.6 L32.4464286,52.4 L28.2142857,52.4 Z M56.4285714,59.4 C55.6498571,59.4 55.0178571,60.0272 55.0178571,60.8 L55.0178571,76.2 L52.1964286,76.2 L52.1964286,56.6 C52.1964286,55.8286 52.8298393,55.2 53.6071429,55.2 L63.4821429,55.2 C64.2608571,55.2 64.8928571,54.5728 64.8928571,53.8 L64.8928571,44 L62.0714286,44 L62.0714286,52.4 L53.6071429,52.4 L50.7857143,52.4 L46.5535714,52.4 L46.5535714,49.6 L57.8392857,49.6 C58.618,49.6 59.25,48.9728 59.25,48.2 L59.25,45.4 L59.25,44 L59.25,39.8 L64.8928571,39.8 C67.2261786,39.8 69.125,41.6844 69.125,44 L69.125,59.4 L56.4285714,59.4 Z" id="Shape" fill="#A5A5A5" fill-rule="nonzero"></path>
                <path d="M27.1666667,14.2857143 L27.1666667,18.5714286 C27.1666667,19.1871429 27.5486111,19.7314286 28.1166667,19.9271429 C28.2611111,19.9757143 28.4097222,20 28.5555556,20 C28.9847222,20 29.3986111,19.7942857 29.6666667,19.4285714 L33.4166667,14.2857143 L43.8333333,14.2857143 C46.1305556,14.2857143 48,12.3628571 48,10 L48,4.28571429 C48,1.92285714 46.1305556,0 43.8333333,0 L27.1666667,0 C24.8694444,0 23,1.92285714 23,4.28571429 L23,10 C23,12.3628571 24.8694444,14.2857143 27.1666667,14.2857143 Z M25.7777778,4.28571429 C25.7777778,3.49857143 26.4013889,2.85714286 27.1666667,2.85714286 L43.8333333,2.85714286 C44.5986111,2.85714286 45.2222222,3.49857143 45.2222222,4.28571429 L45.2222222,10 C45.2222222,10.7871429 44.5986111,11.4285714 43.8333333,11.4285714 L32.7222222,11.4285714 C32.2847222,11.4285714 31.8736111,11.64 31.6111111,12 L29.9444444,14.2857143 L29.9444444,12.8571429 C29.9444444,12.0685714 29.3222222,11.4285714 28.5555556,11.4285714 L27.1666667,11.4285714 C26.4013889,11.4285714 25.7777778,10.7871429 25.7777778,10 L25.7777778,4.28571429 Z" id="Shape" fill="#A5A5A5" fill-rule="nonzero"></path>
                <rect id="Rectangle-path" fill="#A5A5A5" fill-rule="nonzero" x="28" y="6" width="14" height="3"></rect>
                <polygon id="Rectangle-path" fill="#A5A5A5" fill-rule="nonzero" points="38 35 46 35 46 38 38 38"></polygon>
                <path d="M36.3124186,30 C33.9348385,30 32,31.8844 32,34.2 L32,39.8 C32,42.1156 33.9348385,44 36.3124186,44 L47.8122015,44 C50.1897816,44 52.1246201,42.1156 52.1246201,39.8 L52.1246201,38.8242 L54.7580704,34.977 C55.0527523,34.5472 55.0800643,33.9956 54.829944,33.5406 C54.5798238,33.0842 54.0925205,32.8 53.562093,32.8 L51.8788123,32.8 C51.285136,31.1704 49.6866661,30 47.8122015,30 L36.3124186,30 Z M49.2496744,34.2 C49.2496744,34.9728 49.8936622,35.6 50.6871472,35.6 L50.8754562,35.6 L49.4911698,37.623 C49.3344853,37.8526 49.2496744,38.1242 49.2496744,38.4 L49.2496744,39.8 C49.2496744,40.5714 48.6042491,41.2 47.8122015,41.2 L36.3124186,41.2 C35.520371,41.2 34.8749457,40.5714 34.8749457,39.8 L34.8749457,34.2 C34.8749457,33.4286 35.520371,32.8 36.3124186,32.8 L47.8122015,32.8 C48.6042491,32.8 49.2496744,33.4286 49.2496744,34.2 Z" id="Shape" fill="#A5A5A5" fill-rule="nonzero"></path>
                <polygon id="Rectangle-path" fill="#A5A5A5" fill-rule="nonzero" points="32 23 35 23 35 26 32 26"></polygon>
                <polygon id="Rectangle-path" fill="#A5A5A5" fill-rule="nonzero" points="38 23 41 23 41 26 38 26"></polygon>
                <polygon id="Rectangle-path" fill="#A5A5A5" fill-rule="nonzero" points="44 23 47 23 47 26 44 26"></polygon>
            </g>
        </g>
    </g>
</svg>