<?xml version="1.0" encoding="UTF-8"?>
<svg width="79px" height="78px" viewBox="0 0 79 78" version="1.1" xmlns="http://www.w3.org/2000/svg" xmlns:xlink="http://www.w3.org/1999/xlink">
    <title>support</title>
    <defs>
        <filter id="filter-1">
            <feColorMatrix in="SourceGraphic" type="matrix" values="0 0 0 0 0.188235 0 0 0 0 0.188235 0 0 0 0 0.188235 0 0 0 1.000000 0"></feColorMatrix>
        </filter>
    </defs>
    <g id="Page-1" stroke="none" stroke-width="1" fill="none" fill-rule="evenodd">
        <g id="support" transform="translate(-550.000000, -1021.000000)" filter="url(#filter-1)">
            <g transform="translate(550.000000, 1021.000000)">
                <path d="M77.1333695,36.4617419 C75.9508285,35.3696937 74.3421631,34.6951578 72.719635,34.6106899 C70.8771134,34.515362 69.1509171,35.1730043 67.8653107,36.4605353 L59.0812378,45.1613243 C58.9076538,44.8602568 58.7093583,44.5760828 58.4869538,44.3124226 C57.4062728,43.0279084 55.8259354,42.3207921 54.0376587,42.3207921 L41.7409211,42.3207921 C39.4222489,42.3207921 37.1602326,42.0197246 35.018158,41.4266399 C29.4333343,39.8802754 24.0980378,41.0097309 19.5878678,44.6949413 C17.7537842,46.1936417 16.415741,47.8238706 15.569519,49.0124536 L13.3647614,46.8705909 C13.074852,46.5888304 12.6818771,46.4289449 12.2774505,46.4289449 C12.2738342,46.4289449 12.2708207,46.4289449 12.2672042,46.4289449 C11.8483123,46.4319617 11.443283,46.6063274 11.152771,46.9079982 L0.434562645,58.0462871 C0.147666893,58.3443379 -0.00843811035,58.7449568 0.000230812421,59.158849 C0.00964355469,59.5733447 0.182624855,59.9667234 0.482177734,60.252104 L18.6102523,77.5312036 C18.9110107,77.8177908 19.2967529,77.9607828 19.6818924,77.9607828 C20.086319,77.9607828 20.4907455,77.8033106 20.7951203,77.4907797 L31.4132767,66.5859838 C31.703186,66.2879332 31.8641129,65.8806776 31.8562775,65.4643719 C31.848442,65.0540997 31.6766663,64.6583076 31.3825378,64.3723236 L30.4579621,63.4745513 L32.5741195,63.2362314 C33.8543014,63.0872061 35.1561813,63.0117884 36.4448014,63.0117884 L55.1539001,63.0117884 C58.1940308,63.0117884 60.7760925,62.3463026 62.8289642,61.0334314 C62.8458405,61.0225711 62.8627166,61.0111076 62.879593,60.9996442 C63.6149139,60.4880106 64.2821273,59.8816522 64.8619461,59.1980662 L77.4696884,44.3504332 C79.6274337,41.8097617 79.492424,38.6392017 77.1333695,36.4617419 Z M19.64151,74.218255 L3.75736992,59.0780013 L12.3142167,50.1853497 L28.1055375,65.5253094 L19.64151,74.218255 Z M75.101593,42.3352723 L62.4938508,57.1835086 C62.0936433,57.6547185 61.6349716,58.0734375 61.1292878,58.4282023 C59.5881271,59.4050124 57.5780486,59.9009591 55.1539001,59.9009591 L36.4441985,59.9009591 C35.0368424,59.9009591 33.6138152,59.983617 32.2209244,60.1459158 L27.5691146,60.6684096 L17.8291244,51.2068069 C18.5059814,50.2022432 19.7506027,48.578651 21.5533447,47.1052908 C25.3010711,44.042729 29.5526733,43.1407333 34.1894149,44.4252475 C36.6015091,45.0931467 39.1419831,45.4322246 41.7409211,45.4322246 L54.0376587,45.4322246 C56.2460327,45.4322246 56.8354949,47.3472309 56.8354949,48.4784964 C56.8354949,49.3050743 56.5702972,50.0918317 56.1080094,50.6372525 C55.6065445,51.2279239 54.8935242,51.5271814 53.9888382,51.5271814 L43.2844925,51.5271814 C42.4262162,51.5271814 41.7306747,52.2240409 41.7306747,53.0831993 C41.7306747,53.9423578 42.4262162,54.6386139 43.2844925,54.6386139 L53.9888382,54.6386139 C55.7957992,54.6386139 57.3893966,53.9327043 58.4767074,52.6512066 C59.3813934,51.5857054 59.8973235,50.1847462 59.9407195,48.6872525 L70.0574112,38.6663521 C71.5033416,37.2189356 73.7623444,37.5821472 75.0262528,38.7490099 C75.6796036,39.3523515 76.5583725,40.6199721 75.101593,42.3352723 L75.101593,42.3352723 Z" id="Shape" fill="#000000" fill-rule="nonzero"></path>
                <path d="M38.4380036,52.6687036 C38.2421188,51.8318688 37.4061433,51.3135984 36.5701676,51.509081 C35.7347946,51.705167 35.2158508,52.5420018 35.4123382,53.3788366 L35.4268035,53.4421875 C35.594963,54.1589573 36.2332458,54.6428373 36.9384309,54.6428373 C37.0559616,54.6428373 37.1753006,54.6295637 37.2946395,54.6018101 C38.1306152,54.4057241 38.6489563,53.5682858 38.4530716,52.7320545 L38.4380036,52.6687036 Z" id="Path" fill="#000000" fill-rule="nonzero"></path>
                <path d="M10.5042419,32.8990099 L25.6470337,32.8990099 C26.4715576,32.8990099 27.2346038,32.6311262 27.8554077,32.1786201 C28.4762116,32.6311262 29.2392578,32.8990099 30.0637817,32.8990099 L45.2071762,32.8990099 C46.0317001,32.8990099 46.7947464,32.6311262 47.4155502,32.1786201 C48.0363541,32.6311262 48.7994003,32.8990099 49.6239242,32.8990099 L64.766716,32.8990099 C66.8412857,32.8990099 68.5289078,31.2090502 68.5289078,29.1323484 L68.5289078,22.0635984 C68.5289078,18.888815 66.7538909,16.1309406 64.0970916,14.7704053 C65.3845061,13.2161974 66.1596069,11.2227568 66.1596069,9.05072707 C66.1596069,4.10272277 62.1382446,0.0772277228 57.1953202,0.0772277228 C52.2523957,0.0772277228 48.2310334,4.10272277 48.2310334,9.05072707 C48.2310334,11.2227568 49.006134,13.2168007 50.2935486,14.7704053 C49.1453629,15.3592667 48.162323,16.2093749 47.4155502,17.2404858 C46.6687775,16.2087716 45.6857376,15.3586634 44.5369491,14.7704053 C45.8243637,13.2168007 46.5994645,11.2227568 46.5994645,9.05072707 C46.5994645,4.10272277 42.5781022,0.0772277228 37.6351775,0.0772277228 C32.6922531,0.0772277228 28.6708908,4.10272277 28.6708908,9.05072707 C28.6708908,11.2227568 29.4465942,13.2168007 30.7340088,14.7710086 C29.5852204,15.3592667 28.6021805,16.2093749 27.8554077,17.2410891 C27.1086349,16.2093749 26.125595,15.3592667 24.9768066,14.7704053 C26.2642212,13.2168007 27.039322,11.2227568 27.039322,9.05133037 C27.039322,4.10272277 23.0179597,0.0772277228 18.0750351,0.0772277228 C13.1327133,0.0772277228 9.11135097,4.10272277 9.11135097,9.05133037 C9.11135097,11.2227568 9.88645176,13.2168007 11.1738663,14.7710086 C8.51706699,16.1315439 6.74144741,18.8900216 6.74144741,22.0642017 L6.74144741,29.1323484 C6.74144741,31.2090502 8.42967216,32.8990099 10.5042419,32.8990099 Z M57.1959229,3.18866023 C60.4247055,3.18866023 63.0519714,5.81802293 63.0519714,9.05072707 C63.0519714,12.282828 60.4247055,14.9127939 57.1959229,14.9127939 C53.9665374,14.9127939 51.3398742,12.2834314 51.3398742,9.05072707 C51.3392716,5.81802293 53.9665374,3.18866023 57.1959229,3.18866023 Z M53.158287,17.0588799 C54.3727722,17.6748917 55.7439652,18.0242264 57.1953202,18.0242264 C58.6472778,18.0242264 60.0184708,17.6748917 61.2323532,17.0588799 C63.6474609,17.4800124 65.4212723,19.5633508 65.4212723,22.0635984 L65.4212723,29.1323484 C65.4212723,29.49375 65.1277466,29.7875774 64.766716,29.7875774 L49.6239242,29.7875774 C49.2634964,29.7875774 48.9699705,29.49375 48.9699705,29.1323484 L48.9699705,22.0635984 C48.969368,19.5639541 50.7437821,17.4800124 53.158287,17.0588799 Z M37.6357804,3.18866023 C40.864563,3.18866023 43.491829,5.81802293 43.491829,9.05072707 C43.491829,12.282828 40.864563,14.9127939 37.6357804,14.9127939 C34.4063949,14.9127939 31.7797318,12.2834314 31.7797318,9.05072707 C31.7797318,5.81802293 34.4063949,3.18866023 37.6357804,3.18866023 Z M33.5987472,17.0588799 C34.8126297,17.6748917 36.1838226,18.0242264 37.6357804,18.0242264 C39.087738,18.0242264 40.4583283,17.6748917 41.6728134,17.0588799 C44.0873185,17.4800124 45.8617325,19.5633508 45.8617325,22.0635984 L45.8617325,29.1323484 C45.8617325,29.49375 45.5682068,29.7875774 45.2071762,29.7875774 L30.0643844,29.7875774 C29.7033538,29.7875774 29.4098282,29.49375 29.4098282,29.1323484 L29.4098282,22.0635984 C29.4098282,19.5639541 31.1842423,17.4800124 33.5987472,17.0588799 Z M18.0756379,3.18866023 C21.3044205,3.18866023 23.9316863,5.81802293 23.9316863,9.05072707 C23.9316863,12.282828 21.3044205,14.9127939 18.0756379,14.9127939 C14.8468551,14.9127939 12.2195892,12.282828 12.2195892,9.05072707 C12.2195892,5.81802293 14.8468551,3.18866023 18.0756379,3.18866023 Z M9.84968575,22.0635984 C9.84968575,19.5639541 11.6240998,17.4800124 14.0386047,17.0588799 C15.2530899,17.6748917 16.6236801,18.0242264 18.0756379,18.0242264 C19.5275956,18.0242264 20.8981857,17.6748917 22.1126709,17.0588799 C24.5277787,17.4800124 26.30159,19.5633508 26.30159,22.0635984 L26.30159,29.1323484 C26.30159,29.49375 26.0080643,29.7875774 25.6470337,29.7875774 L10.5042419,29.7875774 C10.1432113,29.7875774 9.84968575,29.49375 9.84968575,29.1323484 L9.84968575,22.0635984 Z" id="Shape" fill="#000000" fill-rule="nonzero"></path>
            </g>
        </g>
    </g>
</svg>