<?xml version="1.0" encoding="UTF-8"?>
<svg width="90px" height="90px" viewBox="0 0 90 90" version="1.1" xmlns="http://www.w3.org/2000/svg" xmlns:xlink="http://www.w3.org/1999/xlink">
    <title>target-poin</title>
    <defs>
        <filter id="filter-1">
            <feColorMatrix in="SourceGraphic" type="matrix" values="0 0 0 0 1.000000 0 0 0 0 0.745098 0 0 0 0 0.058824 0 0 0 1.000000 0"></feColorMatrix>
        </filter>
        <linearGradient x1="0%" y1="0%" x2="100%" y2="100%" id="linearGradient-2">
            <stop stop-color="#2E1390" offset="0%"></stop>
            <stop stop-color="#F500A7" offset="100%"></stop>
        </linearGradient>
        <linearGradient x1="45.5%" y1="0%" x2="54.5%" y2="100%" id="linearGradient-3">
            <stop stop-color="#2E1390" offset="0%"></stop>
            <stop stop-color="#F500A7" offset="100%"></stop>
        </linearGradient>
        <linearGradient x1="0%" y1="45.5%" x2="100%" y2="54.5%" id="linearGradient-4">
            <stop stop-color="#2E1390" offset="0%"></stop>
            <stop stop-color="#F500A7" offset="100%"></stop>
        </linearGradient>
    </defs>
    <g id="Page-1" stroke="none" stroke-width="1" fill="none" fill-rule="evenodd">
        <g id="3a.-produk" transform="translate(-188.000000, -2523.000000)">
            <g id="target-poin" transform="translate(143.000000, 2493.000000)">
                <g id="target-poin" transform="translate(15.000000, 0.000000)" filter="url(#filter-1)">
                    <g transform="translate(30.000000, 30.000000)">
                        <path d="M45,82.5 C24.3225,82.5 7.5,65.6775 7.5,45 C7.5,24.3225 24.3225,7.5 45,7.5 C65.6775,7.5 82.5,24.3225 82.5,45 C82.5,65.6775 65.6775,82.5 45,82.5 Z M45,13.125 C27.42375,13.125 13.125,27.42375 13.125,45 C13.125,62.57625 27.42375,76.875 45,76.875 C62.57625,76.875 76.875,62.57625 76.875,45 C76.875,27.42375 62.57625,13.125 45,13.125 Z" id="Shape" fill="url(#linearGradient-2)" fill-rule="nonzero"></path>
                        <path d="M45,18.75 C43.4475,18.75 42.1875,17.49 42.1875,15.9375 L42.1875,2.8125 C42.1875,1.26 43.4475,0 45,0 C46.5525,0 47.8125,1.26 47.8125,2.8125 L47.8125,15.9375 C47.8125,17.49 46.5525,18.75 45,18.75 Z" id="Path" fill="url(#linearGradient-3)" fill-rule="nonzero"></path>
                        <path d="M87.1875,47.8125 L74.0625,47.8125 C72.51,47.8125 71.25,46.5525 71.25,45 C71.25,43.4475 72.51,42.1875 74.0625,42.1875 L87.1875,42.1875 C88.74,42.1875 90,43.4475 90,45 C90,46.5525 88.74,47.8125 87.1875,47.8125 Z" id="Path" fill="url(#linearGradient-4)" fill-rule="nonzero"></path>
                        <path d="M45,90 C43.4475,90 42.1875,88.74 42.1875,87.1875 L42.1875,74.0625 C42.1875,72.51 43.4475,71.25 45,71.25 C46.5525,71.25 47.8125,72.51 47.8125,74.0625 L47.8125,87.1875 C47.8125,88.74 46.5525,90 45,90 Z" id="Path" fill="url(#linearGradient-3)" fill-rule="nonzero"></path>
                        <path d="M15.9375,47.8125 L2.8125,47.8125 C1.26,47.8125 0,46.5525 0,45 C0,43.4475 1.26,42.1875 2.8125,42.1875 L15.9375,42.1875 C17.49,42.1875 18.75,43.4475 18.75,45 C18.75,46.5525 17.49,47.8125 15.9375,47.8125 Z" id="Path" fill="url(#linearGradient-4)" fill-rule="nonzero"></path>
                        <path d="M45,56.25 C38.7975,56.25 33.75,51.2025 33.75,45 C33.75,38.7975 38.7975,33.75 45,33.75 C51.2025,33.75 56.25,38.7975 56.25,45 C56.25,51.2025 51.2025,56.25 45,56.25 Z M45,39.375 C41.89875,39.375 39.375,41.89875 39.375,45 C39.375,48.10125 41.89875,50.625 45,50.625 C48.10125,50.625 50.625,48.10125 50.625,45 C50.625,41.89875 48.10125,39.375 45,39.375 Z" id="Shape" fill="url(#linearGradient-2)" fill-rule="nonzero"></path>
                    </g>
                </g>
            </g>
        </g>
    </g>
</svg>