<?xml version="1.0" encoding="UTF-8"?>
<svg width="102px" height="75px" viewBox="0 0 102 75" version="1.1" xmlns="http://www.w3.org/2000/svg" xmlns:xlink="http://www.w3.org/1999/xlink">
    <title>tim-yang-solid</title>
    <defs>
        <filter id="filter-1">
            <feColorMatrix in="SourceGraphic" type="matrix" values="0 0 0 0 1.000000 0 0 0 0 0.745098 0 0 0 0 0.058824 0 0 0 1.000000 0"></feColorMatrix>
        </filter>
        <linearGradient x1="0%" y1="1.32089379%" x2="100%" y2="98.6791062%" id="linearGradient-2">
            <stop stop-color="#2E1390" offset="0%"></stop>
            <stop stop-color="#F500A7" offset="100%"></stop>
        </linearGradient>
        <linearGradient x1="0%" y1="22.4578857%" x2="100%" y2="77.5421143%" id="linearGradient-3">
            <stop stop-color="#2E1390" offset="0%"></stop>
            <stop stop-color="#F500A7" offset="100%"></stop>
        </linearGradient>
        <linearGradient x1="0.0603266143%" y1="0%" x2="99.9396734%" y2="100%" id="linearGradient-4">
            <stop stop-color="#2E1390" offset="0%"></stop>
            <stop stop-color="#F500A7" offset="100%"></stop>
        </linearGradient>
    </defs>
    <g id="Page-1" stroke="none" stroke-width="1" fill="none" fill-rule="evenodd">
        <g id="3a.-produk" transform="translate(-782.000000, -2531.000000)">
            <g id="tim-yang-solid" transform="translate(743.000000, 2493.000000)">
                <g id="tim-yang-solid" transform="translate(15.000000, 0.000000)" filter="url(#filter-1)">
                    <g transform="translate(24.000000, 38.000000)">
                        <path d="M87.2831003,71.0526316 L87.2299034,71.0526316 C86.1397512,71.0526316 85.2562192,71.9361636 85.2562192,73.0263158 C85.2562192,74.116468 86.1397512,75 87.2299034,75 L87.2831003,75 C88.3732524,75 89.2567845,74.116468 89.2567845,73.0263158 C89.2567845,71.9361636 88.3732524,71.0526316 87.2831003,71.0526316 Z" id="Path" fill="url(#linearGradient-2)" fill-rule="nonzero"></path>
                        <path d="M93.7469161,52.8477077 C95.0876337,51.2718442 95.9002364,49.2280016 95.9002364,46.9952714 C95.9002364,42.0248252 91.8811678,37.9810855 86.9407895,37.9810855 C86.9122636,37.9810855 86.8837378,37.9833985 86.8552117,37.9833985 C85.5414782,36.0906661 83.7119655,34.6589741 81.6203228,33.8432874 C82.9541015,32.2689659 83.7620785,30.2305202 83.7620785,28.0047286 C83.7620785,23.0342824 79.7430099,18.9905428 74.8018607,18.9905428 C74.7741057,18.9905428 74.7463508,18.9928557 74.7178247,18.9928557 C73.4033203,17.1001234 71.5738076,15.6684314 69.4821649,14.8527446 C70.8159436,13.2784232 71.6239206,11.2399774 71.6239206,9.01418586 C71.6239206,4.04373967 67.604852,5.60954791e-15 62.6644737,5.60954791e-15 C57.7240954,5.60954791e-15 53.7050268,4.04373967 53.7050268,9.01418586 C53.7050268,11.2399774 54.5122326,13.2784232 55.8460115,14.8527446 C53.7543689,15.6684314 51.9256271,17.1001234 50.6111226,18.9928557 C50.5825966,18.9928557 50.5548416,18.9913137 50.5263158,18.9913137 C50.4977899,18.9913137 50.470035,18.9928557 50.4415089,18.9928557 C49.1270045,17.1001234 47.2974918,15.6684314 45.2058491,14.8527446 C46.5396278,13.2784232 47.3476048,11.2399774 47.3476048,9.01418586 C47.3476048,4.04373967 43.3285362,5.60954791e-15 38.3881579,5.60954791e-15 C33.4477796,5.60954791e-15 29.428711,4.04373967 29.428711,9.01418586 C29.428711,11.2399774 30.2359168,13.2784232 31.5696957,14.8527446 C29.4780531,15.6684314 27.6485404,17.1001234 26.3348068,18.9928557 C26.3062808,18.9928557 26.2785259,18.9913137 26.25,18.9913137 C25.7704563,18.9913137 25.2862871,19.0306332 24.8129112,19.1077303 C23.7366365,19.2842824 23.0072984,20.2988795 23.1838508,21.3743832 C23.359632,22.449887 24.372687,23.1792249 25.4497326,23.0034436 C25.7141755,22.9602693 25.9832443,22.9386821 26.25,22.9386821 C29.0139288,22.9386821 31.2620785,25.2115028 31.2620785,28.0054995 C31.2620785,30.7987253 29.0139288,33.072317 26.25,33.072317 C24.2215768,33.072317 22.4051706,31.8487871 21.6241776,29.9568257 C21.2086245,28.9491673 20.053711,28.4696238 19.0468236,28.8851767 C18.0391654,29.3015009 17.5596217,30.4556436 17.9751748,31.4625308 C18.3398438,32.3452918 18.8317228,33.1455592 19.4230571,33.8471424 C17.3352693,34.6635999 15.5088405,36.09375 14.1966489,37.9833985 C14.1681229,37.9833985 14.140368,37.9818564 14.1110712,37.9818564 C9.17146382,37.9818564 5.15162408,42.0255963 5.15162408,46.9960423 C5.15162408,49.2280016 5.96422697,51.2718442 7.30494454,52.8484786 C3.03453947,54.5184004 0,58.6754728 0,63.5310444 L0,69.0789474 C0,72.344007 2.65599296,75 5.92105263,75 L79.3421053,75 C80.4322575,75 81.3157895,74.116468 81.3157895,73.0263158 C81.3157895,71.9361636 80.4322575,71.0526316 79.3421053,71.0526316 L76.7763158,71.0526316 L76.7763158,63.5310444 C76.7763158,59.3839946 80.1508532,56.0094572 84.297903,56.0094572 L89.583676,56.0094572 C93.7307258,56.0094572 97.1052632,59.3839946 97.1052632,63.5310444 L97.1052632,69.0789474 C97.1052632,70.1675576 96.2194182,71.0526316 95.1315789,71.0526316 L92.9535876,71.0526316 C91.8634354,71.0526316 90.9799034,71.9361636 90.9799034,73.0263158 C90.9799034,74.116468 91.8634354,75 92.9535876,75 L95.1315789,75 C98.3966386,75 101.052632,72.344007 101.052632,69.0789474 L101.052632,63.5310444 C101.052632,58.6754728 98.0180921,54.5184004 93.7469161,52.8477077 Z M91.952868,46.9952714 C91.952868,49.7892681 89.7047183,52.0620888 86.9407895,52.0620888 C84.1768607,52.0620888 81.928711,49.7892681 81.928711,46.9952714 C81.928711,44.2012747 84.1768607,41.9284539 86.9407895,41.9284539 C89.7047183,41.9284539 91.952868,44.2012747 91.952868,46.9952714 L91.952868,46.9952714 Z M79.8147101,28.0054995 C79.8147101,30.7987253 77.5665604,33.0715461 74.8026316,33.0715461 C72.0387028,33.0715461 69.7905531,30.7987253 69.7905531,28.0054995 C69.7905531,25.2115028 72.0387028,22.9386821 74.8026316,22.9386821 C77.5665604,22.9386821 79.8147101,25.2115028 79.8147101,28.0054995 Z M62.6644737,3.94736842 C65.4284025,3.94736842 67.6765522,6.22018914 67.6765522,9.01418586 C67.6765522,11.8074116 65.4284025,14.0810033 62.6644737,14.0810033 C59.9005449,14.0810033 57.6523952,11.8074116 57.6523952,9.01418586 C57.6523952,6.22018914 59.9005449,3.94736842 62.6644737,3.94736842 Z M59.9483449,18.0283717 L65.3806024,18.0283717 C67.3118832,18.0283717 69.1321443,18.7916325 70.4975329,20.102282 C67.7258943,21.6365132 65.8431847,24.6032072 65.8431847,28.0054995 C65.8431847,30.2312911 66.6503905,32.2697368 67.9841694,33.8440583 C65.8925268,34.6597451 64.063785,36.0906661 62.7492805,37.9833985 C62.7207545,37.9833985 62.6929995,37.9810855 62.6644737,37.9810855 C62.6359478,37.9810855 62.607422,37.9833985 62.5788959,37.9833985 C61.2651624,36.0906661 59.4356497,34.6597451 57.344007,33.8440583 C58.6777857,32.2697368 59.4857627,30.2312911 59.4857627,28.0054995 C59.4857627,24.6032072 57.602282,21.6365132 54.8306436,20.102282 C56.1968031,18.7916325 58.0162932,18.0283717 59.9483449,18.0283717 L59.9483449,18.0283717 Z M62.6644737,52.0620888 C59.9005449,52.0620888 57.6523952,49.7892681 57.6523952,46.9952714 C57.6523952,44.2012747 59.9005449,41.9284539 62.6644737,41.9284539 C65.4284025,41.9284539 67.6765522,44.2012747 67.6765522,46.9952714 C67.6765522,49.7892681 65.4284025,52.0620888 62.6644737,52.0620888 Z M50.5263158,57.1057772 C49.2303146,55.1968543 47.373047,53.6996299 45.1942845,52.8477077 C46.5350021,51.2718442 47.3476048,49.2280016 47.3476048,46.9952714 C47.3476048,43.5945209 45.4648952,40.6270559 42.6932566,39.0928247 C44.0586452,37.7821753 45.8789063,37.0196854 47.810187,37.0196854 L53.2424445,37.0196854 C55.1737253,37.0196854 56.9939864,37.7821753 58.359375,39.0928247 C55.5877364,40.6270559 53.7050268,43.59375 53.7050268,46.9952714 C53.7050268,49.2280016 54.5176295,51.2718442 55.858347,52.8477077 C53.6795846,53.6996299 51.822317,55.1968543 50.5263158,57.1057772 Z M33.3760794,46.9952714 C33.3760794,44.2012747 35.6242291,41.9284539 38.3881579,41.9284539 C41.1520867,41.9284539 43.4002364,44.2012747 43.4002364,46.9952714 C43.4002364,49.7892681 41.1520867,52.0620888 38.3881579,52.0620888 C35.6242291,52.0620888 33.3760794,49.7892681 33.3760794,46.9952714 Z M50.5263158,22.9386821 C53.2902446,22.9386821 55.5383943,25.2115028 55.5383943,28.0054995 C55.5383943,30.7987253 53.2902446,33.0715461 50.5263158,33.0715461 C47.762387,33.0715461 45.5142373,30.7987253 45.5142373,28.0047286 C45.5142373,25.2115028 47.762387,22.9386821 50.5263158,22.9386821 Z M38.3881579,3.94736842 C41.1520867,3.94736842 43.4002364,6.22018914 43.4002364,9.01418586 C43.4002364,11.8074116 41.1520867,14.0810033 38.3881579,14.0810033 C35.6242291,14.0810033 33.3760794,11.8074116 33.3760794,9.01418586 C33.3760794,6.22018914 35.6242291,3.94736842 38.3881579,3.94736842 Z M30.5543278,20.102282 C31.9204873,18.7916325 33.7399774,18.0283717 35.6720291,18.0283717 L41.1042866,18.0283717 C43.0363384,18.0283717 44.8558285,18.7916325 46.221988,20.102282 C43.4495785,21.6365132 41.5668689,24.6032072 41.5668689,28.0054995 C41.5668689,30.2312911 42.3740747,32.2697368 43.7078536,33.8440583 C41.6169819,34.6597451 39.7874692,36.0906661 38.4729647,37.9833985 C38.4444387,37.9833985 38.4166838,37.9810855 38.3881579,37.9810855 C38.359632,37.9810855 38.3311062,37.9833985 38.3025801,37.9833985 C36.9888466,36.0906661 35.1593339,34.6597451 33.0676913,33.8440583 C34.4014699,32.2697368 35.2094469,30.2312911 35.2094469,28.0054995 C35.2094469,24.6032072 33.3267373,21.6365132 30.5543278,20.102282 Z M23.5338712,37.0189145 L28.9661287,37.0189145 C30.8974095,37.0189145 32.7176706,37.7821753 34.0830592,39.0928247 C31.3114206,40.6270559 29.4279399,43.59375 29.4279399,46.9952714 C29.4279399,49.2280016 30.2405428,51.2718442 31.5812603,52.8477077 C29.4032688,53.6996299 27.5460012,55.1968543 26.2492291,57.1057772 C24.9532279,55.1960834 23.0959601,53.6996299 20.9179687,52.8477077 C22.2586863,51.2718442 23.071289,49.2280016 23.071289,46.9952714 C23.071289,43.59375 21.1878083,40.6270559 18.4161699,39.0928247 C19.7823294,37.7821753 21.6025905,37.0189145 23.5338712,37.0189145 L23.5338712,37.0189145 Z M14.1118421,41.9284539 C16.8757709,41.9284539 19.1239206,44.2012747 19.1239206,46.9952714 C19.1239206,49.7892681 16.8757709,52.0620888 14.1118421,52.0620888 C11.3479133,52.0620888 9.09976362,49.7892681 9.09976362,46.9952714 C9.09976362,44.2012747 11.3479133,41.9284539 14.1118421,41.9284539 Z M3.94736842,69.0789474 L3.94736842,63.5310444 C3.94736842,59.3839946 7.32190579,56.0094572 11.4689556,56.0094572 L16.7547286,56.0094572 C20.9017784,56.0094572 24.2763158,59.3839946 24.2763158,63.5310444 L24.2763158,71.0526316 L5.92105263,71.0526316 C4.83244243,71.0526316 3.94736842,70.1675576 3.94736842,69.0789474 Z M28.2236842,63.5310444 C28.2236842,59.3839946 31.5982216,56.0094572 35.7452714,56.0094572 L41.0310444,56.0094572 C45.1780942,56.0094572 48.5526316,59.3839946 48.5526316,63.5310444 L48.5526316,71.0526316 L28.2236842,71.0526316 L28.2236842,63.5310444 Z M52.5,63.5310444 C52.5,59.3839946 55.8745374,56.0094572 60.0215872,56.0094572 L65.3073602,56.0094572 C69.45441,56.0094572 72.8289474,59.3839946 72.8289474,63.5310444 L72.8289474,71.0526316 L52.5,71.0526316 L52.5,63.5310444 Z M74.8026316,57.1057772 C73.5066304,55.1968543 71.6493628,53.6996299 69.4706003,52.8477077 C70.8113179,51.2718442 71.6239206,49.2280016 71.6239206,46.9952714 C71.6239206,43.5945209 69.741211,40.6270559 66.9695724,39.0928247 C68.334961,37.7821753 70.155222,37.0196854 72.0865028,37.0196854 L77.5187603,37.0196854 C79.4500411,37.0196854 81.2703022,37.7821753 82.6356908,39.0928247 C79.8640522,40.6270559 77.9813426,43.59375 77.9813426,46.9952714 C77.9813426,49.2280016 78.7939453,51.2718442 80.1346628,52.8477077 C77.9559004,53.6996299 76.0986328,55.1968543 74.8026316,57.1057772 Z" id="Shape" fill="url(#linearGradient-3)" fill-rule="nonzero"></path>
                        <path d="M19.0391139,27.2283614 C19.2742599,27.3216489 19.5178865,27.3648233 19.7568872,27.3648233 C20.5448191,27.3648233 21.2918893,26.8883635 21.6002775,26.1135383 L21.612613,26.0826995 C22.0081208,25.0696443 21.5062192,23.9370888 20.4947061,23.5377261 C19.4831929,23.1383635 18.3359889,23.6418071 17.9335423,24.6525493 L17.9212068,24.6833882 C17.525699,25.6964432 18.0276008,26.8289988 19.0391139,27.2283614 Z" id="Path" fill="url(#linearGradient-4)" fill-rule="nonzero"></path>
                    </g>
                </g>
            </g>
        </g>
    </g>
</svg>