<?xml version="1.0" encoding="UTF-8"?>
<svg width="15px" height="8px" viewBox="0 0 15 8" version="1.1" xmlns="http://www.w3.org/2000/svg" xmlns:xlink="http://www.w3.org/1999/xlink">
    <title>right-arrow-read-more</title>
    <defs>
        <filter id="filter-1">
            <feColorMatrix in="SourceGraphic" type="matrix" values="0 0 0 0 0.121569 0 0 0 0 0.207843 0 0 0 0 0.349020 0 0 0 1.000000 0"></feColorMatrix>
        </filter>
    </defs>
    <g id="Page-1" stroke="none" stroke-width="1" fill="none" fill-rule="evenodd">
        <g id="6a.-event" transform="translate(-271.000000, -1453.000000)">
            <g id="Group-7-Copy-7" transform="translate(161.000000, 1027.000000)">
                <g id="Group" transform="translate(21.000000, 323.200000)">
                    <g id="right-arrow-read-more" transform="translate(-0.000000, 98.000000)" filter="url(#filter-1)">
                        <g transform="translate(89.000000, 5.000000)">
                            <path d="M14.2860403,3.10040726 C14.285871,3.1002379 14.2857298,3.10004032 14.2855323,3.09987097 L11.3358226,0.164387097 C11.1148427,-0.0555201613 10.7574194,-0.0547016129 10.5374556,0.166306452 C10.3175202,0.38728629 10.3183669,0.744709677 10.5393468,0.964645161 L12.5197823,2.93548387 L0.564516129,2.93548387 C0.252733871,2.93548387 0,3.18821774 0,3.50000193 C0,3.81178226 0.252733871,4.06451613 0.564516129,4.06451613 L12.519754,4.06451613 L10.539375,6.03535484 C10.3183952,6.25529032 10.3175484,6.61271371 10.5374839,6.83369355 C10.7574476,7.05472984 11.1148992,7.05549194 11.3358508,6.8356129 L14.2855605,3.90012903 C14.2857298,3.89995968 14.285871,3.8997621 14.2860685,3.89959274 C14.5071613,3.67892339 14.5064556,3.32034274 14.2860403,3.10040726 Z" id="Path" fill="#000000" fill-rule="nonzero"></path>
                        </g>
                    </g>
                </g>
            </g>
        </g>
    </g>
</svg>