<?xml version="1.0" encoding="UTF-8"?>
<svg width="20px" height="20px" viewBox="0 0 20 20" version="1.1" xmlns="http://www.w3.org/2000/svg" xmlns:xlink="http://www.w3.org/1999/xlink">
    <title>search</title>
    <defs>
        <filter id="filter-1">
            <feColorMatrix in="SourceGraphic" type="matrix" values="0 0 0 0 1.000000 0 0 0 0 1.000000 0 0 0 0 1.000000 0 0 0 1.000000 0"></feColorMatrix>
        </filter>
    </defs>
    <g id="Page-1" stroke="none" stroke-width="1" fill="none" fill-rule="evenodd">
        <g id="6a.-event" transform="translate(-861.000000, -967.000000)">
            <g id="search" transform="translate(471.000000, 952.000000)" filter="url(#filter-1)">
                <g transform="translate(390.000000, 15.000000)">
                    <path d="M8.16,16.328 C9.84,16.328 11.392,15.816 12.688,14.952 L17.376,19.64 C17.74416,20.008 18.35216,20.008 18.736,19.64 L19.648,18.728 C20.016,18.36 20.016,17.752 19.648,17.368 L14.944,12.696 C15.80784,11.4 16.32,9.848 16.32,8.168 C16.32,3.672 12.656,0.008 8.16,0.008 C3.664,0.008 0,3.672 0,8.168 C0,12.66384 3.648,16.328 8.16,16.328 Z M8.16,3.208 C10.896,3.208 13.12,5.432 13.12,8.168 C13.12,10.904 10.896,13.128 8.16,13.128 C5.424,13.128 3.2,10.904 3.2,8.168 C3.2,5.432 5.424,3.208 8.16,3.208 Z" id="Shape" fill="#000000" fill-rule="nonzero"></path>
                </g>
            </g>
        </g>
    </g>
</svg>