<?xml version="1.0" encoding="UTF-8"?>
<svg width="25px" height="25px" viewBox="0 0 25 25" version="1.1" xmlns="http://www.w3.org/2000/svg" xmlns:xlink="http://www.w3.org/1999/xlink">
    <title>close</title>
    <defs>
        <filter id="filter-1">
            <feColorMatrix in="SourceGraphic" type="matrix" values="0 0 0 0 1.000000 0 0 0 0 1.000000 0 0 0 0 1.000000 0 0 0 1.000000 0"></feColorMatrix>
        </filter>
    </defs>
    <g id="Page-1" stroke="none" stroke-width="1" fill="none" fill-rule="evenodd">
        <g id="close" transform="translate(-1275.000000, -38.000000)" filter="url(#filter-1)">
            <g transform="translate(1275.000000, 38.000000)">
                <path d="M1.28486827,24.9261318 C0.956530449,24.9261318 0.628192628,24.8012445 0.378730929,24.5499048 C-0.122070353,24.0491035 -0.122070353,23.2371795 0.378730929,22.7363782 L22.7395082,0.375600962 C23.2403095,-0.125200321 24.0522336,-0.125200321 24.5530349,0.375600962 C25.0538361,0.876402244 25.0538361,1.68832628 24.5530349,2.18944063 L2.19257059,24.5499048 C1.94123093,24.7996795 1.61289311,24.9261318 1.28486827,24.9261318 L1.28486827,24.9261318 Z" id="Path" fill="#000000" fill-rule="nonzero"></path>
                <path d="M23.6472106,24.9261318 C23.3188727,24.9261318 22.9908478,24.8012445 22.7410732,24.5499048 L0.378730929,2.18944063 C-0.122070353,1.68832628 -0.122070353,0.876402244 0.378730929,0.375600962 C0.879532212,-0.125200321 1.69145633,-0.125200321 2.19257059,0.375600962 L24.5530349,22.7363782 C25.0538361,23.2371795 25.0538361,24.0491035 24.5530349,24.5499048 C24.3016952,24.7996795 23.9736704,24.9261318 23.6472106,24.9261318 Z" id="Path" fill="#000000" fill-rule="nonzero"></path>
            </g>
        </g>
    </g>
</svg>