<?xml version="1.0" encoding="UTF-8"?>
<svg width="20px" height="16px" viewBox="0 0 20 16" version="1.1" xmlns="http://www.w3.org/2000/svg" xmlns:xlink="http://www.w3.org/1999/xlink">
    <title>email</title>
    <defs>
        <filter id="filter-1">
            <feColorMatrix in="SourceGraphic" type="matrix" values="0 0 0 0 0.832324 0 0 0 0 0.832324 0 0 0 0 0.832324 0 0 0 1.000000 0"></feColorMatrix>
        </filter>
    </defs>
    <g id="Page-1" stroke="none" stroke-width="1" fill="none" fill-rule="evenodd">
        <g id="9a.-login" transform="translate(-157.000000, -383.000000)">
            <g id="Group-11" transform="translate(145.000000, 292.000000)">
                <g id="Group-10" transform="translate(0.000000, 51.000000)">
                    <g id="email" transform="translate(0.000000, 28.000000)" filter="url(#filter-1)">
                        <g transform="translate(12.000000, 12.000000)">
                            <path d="M2,0 L18,0 C19.1046,0 20,0.8954 20,2 L20,14.00003 C20,15.10453 19.1046,16.00003 18,16.00003 L2,16.00003 C0.89543,16.00003 0,15.10453 0,14.00003 L0,2 C0,0.8954 0.89543,0 2,0 Z M10,7.00003 L18,2 L2,2 L10,7.00003 Z M2,14.00003 L18,14.00003 L18,4.37 L10,9.35863 L2,4.37 L2,14.00003 Z" id="ic_mail" fill="#DFE2E6"></path>
                        </g>
                    </g>
                </g>
            </g>
        </g>
    </g>
</svg>