<?xml version="1.0" encoding="UTF-8"?>
<svg width="15px" height="18px" viewBox="0 0 15 18" version="1.1" xmlns="http://www.w3.org/2000/svg" xmlns:xlink="http://www.w3.org/1999/xlink">
    <title>name</title>
    <defs>
        <filter id="filter-1">
            <feColorMatrix in="SourceGraphic" type="matrix" values="0 0 0 0 0.832324 0 0 0 0 0.832324 0 0 0 0 0.832324 0 0 0 1.000000 0"></feColorMatrix>
        </filter>
    </defs>
    <g id="Page-1" stroke="none" stroke-width="1" fill="none" fill-rule="evenodd">
        <g id="9b.-sign-up" transform="translate(-159.000000, -314.000000)">
            <g id="Group-8" transform="translate(145.000000, 225.000000)">
                <g id="Group-7" transform="translate(0.000000, 51.000000)">
                    <g id="name" transform="translate(0.000000, 27.000000)" filter="url(#filter-1)">
                        <g transform="translate(15.000000, 12.000000)">
                            <path d="M9.9853125,7.564 C10.4153125,6.926 10.6666562,6.15865625 10.6666562,5.33334375 L10.6666562,4 C10.6666562,1.794 8.87265625,0 6.66665625,0 C4.46065625,0 2.66665625,1.794 2.66665625,4 L2.66665625,5.33334375 C2.66665625,6.1586875 2.918,6.926 3.348,7.564 C1.35065625,8.716 -8.8817842e-16,10.8666563 -8.8817842e-16,13.3333437 L-8.8817842e-16,14 C-8.8817842e-16,15.1026562 0.89734375,16 2,16 L11.3333437,16 C12.436,16 13.3333437,15.1026563 13.3333437,14 L13.3333437,13.3333438 C13.3333437,10.8666563 11.9826563,8.716 9.9853125,7.564 Z M4,4 C4,2.52934375 5.196,1.33334375 6.66665625,1.33334375 C8.1373125,1.33334375 9.3333125,2.52934375 9.3333125,4 L9.3333125,5.33334375 C9.3333125,6.804 8.1373125,8 6.66665625,8 C5.196,8 4,6.804 4,5.33334375 L4,4 Z M12,14 C12,14.3673437 11.7006562,14.6666562 11.3333438,14.6666562 L2,14.6666562 C1.63265625,14.6666562 1.33334375,14.3673125 1.33334375,14 L1.33334375,13.3333438 C1.33334375,11.2406875 2.54534375,9.4266875 4.304,8.554 C4.96734375,9.04134375 5.78265625,9.33334375 6.66665625,9.33334375 C7.55065625,9.33334375 8.366,9.04134375 9.0293125,8.554 C10.7879688,9.42665625 12,11.2406563 12,13.3333438 L12,14 L12,14 Z" id="Shape" stroke="#000000" stroke-width="0.75" fill="#000000" fill-rule="nonzero"></path>
                        </g>
                    </g>
                </g>
            </g>
        </g>
    </g>
</svg>