<?xml version="1.0" encoding="UTF-8"?>
<svg width="12px" height="18px" viewBox="0 0 12 18" version="1.1" xmlns="http://www.w3.org/2000/svg" xmlns:xlink="http://www.w3.org/1999/xlink">
    <title>phone-number</title>
    <defs>
        <filter id="filter-1">
            <feColorMatrix in="SourceGraphic" type="matrix" values="0 0 0 0 0.832324 0 0 0 0 0.832324 0 0 0 0 0.832324 0 0 0 1.000000 0"></feColorMatrix>
        </filter>
    </defs>
    <g id="Page-1" stroke="none" stroke-width="1" fill="none" fill-rule="evenodd">
        <g id="9b.-sign-up" transform="translate(-161.000000, -401.000000)">
            <g id="Group-8" transform="translate(145.000000, 225.000000)">
                <g id="Group-7" transform="translate(0.000000, 51.000000)">
                    <g id="Group-5-Copy" transform="translate(0.000000, 87.000000)">
                        <g id="phone-number" transform="translate(0.000000, 27.000000)" filter="url(#filter-1)">
                            <g transform="translate(17.000000, 12.000000)">
                                <path d="M8.83333333,0 L8,0 L2.66666667,0 L1.83333333,0 C0.822,0 0,0.822 0,1.83333333 L0,14.1666667 C0,15.178 0.822,16 1.83333333,16 L8.83333333,16 C9.84466667,16 10.6666667,15.178 10.6666667,14.1666667 L10.6666667,1.83333333 C10.6666667,0.822 9.84466667,0 8.83333333,0 Z M9.33333333,14 C9.33333333,14.368 9.03466667,14.6666667 8.66666667,14.6666667 L2,14.6666667 C1.632,14.6666667 1.33333333,14.368 1.33333333,14 L1.33333333,2 C1.33333333,1.632 1.632,1.33333333 2,1.33333333 L2.33333333,1.33333333 C2.70133333,1.33333333 3,1.632 3,2 C3,2.368 3.29866667,2.66666667 3.66666667,2.66666667 L7,2.66666667 C7.368,2.66666667 7.66666667,2.368 7.66666667,2 C7.66666667,1.632 7.96533333,1.33333333 8.33333333,1.33333333 L8.66666667,1.33333333 C9.03466667,1.33333333 9.33333333,1.632 9.33333333,2 L9.33333333,14 Z" id="Shape" stroke="#000000" stroke-width="0.5" fill="#000000" fill-rule="nonzero"></path>
                            </g>
                        </g>
                    </g>
                </g>
            </g>
        </g>
    </g>
</svg>