<?xml version="1.0" encoding="UTF-8"?>
<svg width="68px" height="75px" viewBox="0 0 68 75" version="1.1" xmlns="http://www.w3.org/2000/svg" xmlns:xlink="http://www.w3.org/1999/xlink">
    <title>existing-laws</title>
    <g id="Page-1" stroke="none" stroke-width="1" fill="none" fill-rule="evenodd">
        <g id="4a.-business-plan" transform="translate(-799.000000, -1254.000000)" fill-rule="nonzero">
            <g id="Group-6" transform="translate(708.000000, 1175.000000)">
                <g id="Group-7" transform="translate(65.000000, 79.000000)">
                    <g id="existing-laws" transform="translate(26.000000, 0.000000)">
                        <path d="M2.5862069,0 C1.15788427,0 0,1.15788427 0,2.5862069 L0,72.4137931 C0,73.8421157 1.15788427,75 2.5862069,75 L67.2413793,75 L67.2413793,0 L2.5862069,0 Z" id="Path" fill="#AD6643"></path>
                        <path d="M62.0689655,10.3448276 L62.0689655,64.6551724 C59.2123203,64.6551724 56.8965517,66.9709409 56.8965517,69.8275862 L18.1034483,69.8275862 C18.1034483,66.9709409 15.7876797,64.6551724 12.9310345,64.6551724 L12.9310345,10.3448276 C15.7876797,10.3448276 18.1034483,8.02905905 18.1034483,5.17241379 L56.8965517,5.17241379 C56.8965517,8.02905905 59.2123203,10.3448276 62.0689655,10.3448276 Z" id="Path" fill="#FBE9D8"></path>
                        <path d="M2.5862069,0 L7.75862069,0 L7.75862069,75 L2.5862069,75 C1.15788427,75 0,73.8421157 0,72.4137931 L0,2.5862069 C0,1.15788427 1.15788427,0 2.5862069,0 Z" id="Path" fill="#95573A"></path>
                        <path d="M37.5,58.1896552 C36.7858387,58.1896552 36.2068966,57.610713 36.2068966,56.8965517 L36.2068966,18.1034483 C36.2068966,17.389287 36.7858387,16.8103448 37.5,16.8103448 C38.2141613,16.8103448 38.7931034,17.389287 38.7931034,18.1034483 L38.7931034,56.8965517 C38.7931034,57.610713 38.2141613,58.1896552 37.5,58.1896552 Z" id="Path" fill="#BFB1A3"></path>
                        <path d="M51.7241379,62.0689655 L50.5676185,59.7557651 C49.6914369,58.0034271 47.9003968,56.8965517 45.9412177,56.8965517 L29.0587823,56.8965517 C27.0996032,56.8965517 25.3085631,58.0034271 24.4323815,59.7557651 L23.2758621,62.0689655 L51.7241379,62.0689655 Z" id="Path" fill="#D49073"></path>
                        <g id="Group" transform="translate(18.094422, 21.982759)" fill="#BFB1A3">
                            <path d="M11.6459872,25.862069 C11.0528864,25.8615714 10.5361636,25.4576547 10.3924851,24.8822198 L6.47454325,9.21077586 L2.55660144,24.8825431 C2.44725957,25.3336679 2.10450497,25.6915752 1.65852909,25.8203181 C1.21255321,25.949061 0.731787037,25.8288849 0.398844174,25.5054375 C0.0659013113,25.18199 -0.0681311622,24.7049012 0.0476574756,24.2553879 L5.22007127,3.56573276 C5.36401611,2.9901299 5.8812147,2.58634347 6.47454325,2.58634347 C7.0678718,2.58634347 7.5850704,2.9901299 7.72901523,3.56573276 L12.901429,24.2553879 C12.9974899,24.6417916 12.9103705,25.050905 12.6652155,25.3646477 C12.4200606,25.6783905 12.0441523,25.8618477 11.6459872,25.862069 L11.6459872,25.862069 Z" id="Path"></path>
                            <path d="M37.5080562,25.862069 C36.9149554,25.8615714 36.3982325,25.4576547 36.254554,24.8822198 L32.3366122,9.21077586 L28.4186704,24.8825431 C28.3093285,25.3336679 27.9665739,25.6915752 27.5205981,25.8203181 C27.0746222,25.949061 26.593856,25.8288849 26.2609131,25.5054375 C25.9279703,25.18199 25.7939378,24.7049012 25.9097264,24.2553879 L31.0821402,3.56573276 C31.2260851,2.9901299 31.7432837,2.58634347 32.3366122,2.58634347 C32.9299408,2.58634347 33.4471394,2.9901299 33.5910842,3.56573276 L38.763498,24.2553879 C38.8595589,24.6417916 38.7724394,25.050905 38.5272845,25.3646477 C38.2821295,25.6783905 37.9062213,25.8618477 37.5080562,25.862069 L37.5080562,25.862069 Z" id="Path"></path>
                            <path d="M31.0435088,5.17241379 C28.2082178,5.17241379 26.4471726,4.46815733 24.744317,3.78685345 C23.2006747,3.16939655 21.7427006,2.5862069 19.4055777,2.5862069 C17.0684549,2.5862069 15.6104808,3.16939655 14.0668385,3.78685345 C12.3639829,4.46815733 10.6029376,5.17241379 7.7676467,5.17241379 C3.63052385,5.17241379 0.840653165,3.80123922 0.723788941,3.74272629 C0.306836287,3.53826924 0.0315348757,3.12593353 0.00253239814,2.66245639 C-0.0264700794,2.19897925 0.195280489,1.75554009 0.583492182,1.5006992 C0.971703875,1.2458583 1.46675632,1.21875335 1.88046998,1.4296875 C1.9001898,1.43857759 4.27497429,2.5862069 7.7676467,2.5862069 C10.1047695,2.5862069 11.5627437,2.00301724 13.1063859,1.38556034 C14.8092415,0.704256466 16.5702868,0 19.4055777,0 C22.2408687,0 24.0019139,0.704256466 25.7047695,1.38556034 C27.2484118,2.00301724 28.7063859,2.5862069 31.0435088,2.5862069 C34.5361812,2.5862069 36.9109657,1.43857759 36.9347264,1.42758621 C37.5738456,1.11051251 38.3490084,1.37097813 38.6669838,2.00964908 C38.9849593,2.64832003 38.725588,3.4238497 38.0873665,3.74272629 C37.9705023,3.80123922 35.1814398,5.17241379 31.0435088,5.17241379 Z" id="Path"></path>
                        </g>
                        <path d="M18.1034483,46.5517241 L31.0344828,46.5517241 C31.0344828,49.4083694 28.7187142,51.7241379 25.862069,51.7241379 L23.2758621,51.7241379 C20.4192168,51.7241379 18.1034483,49.4083694 18.1034483,46.5517241 Z" id="Path" fill="#AD6643"></path>
                        <path d="M43.9655172,46.5517241 L56.8965517,46.5517241 C56.8965517,49.4083694 54.5807832,51.7241379 51.7241379,51.7241379 L49.137931,51.7241379 C46.2812858,51.7241379 43.9655172,49.4083694 43.9655172,46.5517241 Z" id="Path" fill="#AD6643"></path>
                        <circle id="Oval" fill="#D49073" cx="37.5" cy="14.2241379" r="3.87931034"></circle>
                    </g>
                </g>
            </g>
        </g>
    </g>
</svg>