<?xml version="1.0" encoding="UTF-8"?>
<svg width="499px" height="304px" viewBox="0 0 499 304" version="1.1" xmlns="http://www.w3.org/2000/svg" xmlns:xlink="http://www.w3.org/1999/xlink">
    <title>ilus-section-1-business-plan</title>
    <g id="Page-1" stroke="none" stroke-width="1" fill="none" fill-rule="evenodd">
        <g id="4a.-business-plan" transform="translate(-434.000000, -374.000000)">
            <g id="Group-4" transform="translate(434.000000, 225.000000)">
                <g id="ilus-section-1-business-plan" transform="translate(0.000000, 149.000000)">
                    <path d="M476.219653,204.816956 C500.356455,248.009634 465.429672,332.755299 243.919075,273.859345 C132.857418,244.32948 49.8921002,310.853565 32.8015414,264.418112 C-7.01734104,156.262042 155.603083,31.1579961 246.032755,118.49711 C328.689788,198.344894 432.289017,126.204239 476.219653,204.816956 Z" id="Path" stroke="#E4E4E4" stroke-width="4" stroke-dasharray="32.09"></path>
                    <path d="M474.95183,299.899807 L23.2947977,299.899807 C37.4296724,195.468208 133.136802,114.689788 249.11368,114.689788 C365.090559,114.689788 460.813102,195.468208 474.95183,299.899807 Z" id="Path" fill="#F6F5F5" fill-rule="nonzero"></path>
                    <rect id="Rectangle" fill="#FBE4A5" fill-rule="nonzero" x="231.872832" y="26.6589595" width="198.522158" height="272.323699" rx="15"></rect>
                    <rect id="Rectangle" fill="#F6F5F5" fill-rule="nonzero" x="249.815029" y="37.6339114" width="163.398844" height="237.356455"></rect>
                    <path d="M413.211946,37.6358382 C413.263969,130.190751 416.252408,241.818882 405.855491,266.537572 C360.061657,271 306.433526,272.431599 249.811175,272.703276 L271.337187,38.3429672 L413.211946,37.6358382 Z" id="Path" fill="#E4E4E4" fill-rule="nonzero"></path>
                    <path d="M398.535645,259.05395 C327.159923,270.477842 279.460501,271.080925 240.766859,268.208092 C245.776493,214.836224 247.789981,126.169557 249.811175,37.6454721 L335.820809,37.8381503 L413.662813,42.9768786 C414.797688,134.853565 414.921002,219.722543 398.535645,259.05395 Z" id="Path" fill="#FFFFFF" fill-rule="nonzero"></path>
                    <polygon id="Rectangle" fill="#FFBE0F" fill-rule="nonzero" transform="translate(330.181482, 67.092785) rotate(1.350000) translate(-330.181482, -67.092785) " points="287.191116 60.5446154 373.171848 60.5446154 373.171848 73.6409545 287.191116 73.6409545"></polygon>
                    <rect id="Rectangle" fill="#FFBE0F" fill-rule="nonzero" transform="translate(351.048369, 95.682468) rotate(1.350000) translate(-351.048369, -95.682468) " x="312.270912" y="92.685358" width="77.5549133" height="5.99421965"></rect>
                    <polygon id="Rectangle" fill="#D3DFFF" fill-rule="nonzero" transform="translate(338.323189, 108.456208) rotate(1.350000) translate(-338.323189, -108.456208) " points="311.965771 105.459098 364.680607 105.459098 364.680607 111.453318 311.965771 111.453318"></polygon>
                    <polygon id="Rectangle" stroke="#FBE4A5" stroke-width="6" fill="#FFFFFF" fill-rule="nonzero" transform="translate(278.526948, 100.510140) rotate(1.350000) translate(-278.526948, -100.510140) " points="269.346794 91.3299856 287.707102 91.3299856 287.707102 109.690294 269.346794 109.690294"></polygon>
                    <path d="M272.560694,95.9364162 C273.127168,98.105973 274.17341,107.194605 278.726397,104.653179 C279.774566,104.075145 280.66474,102.518304 281.44894,101.626204 L285.687861,96.8208092 L294.165703,87.2061657 C294.888247,86.3853565 291.695568,84.3159923 290.786127,85.3564547 L283.236994,93.9017341 L279.473988,98.1753372 C278.603083,99.1637765 276.583815,102.350674 275.298651,102.633911 L277.406551,103.314066 C277.901734,103.720617 276.980732,100.834297 276.959538,100.755299 C276.608863,99.4168272 276.258831,98.076429 275.909441,96.734104 C275.620424,95.628131 272.125241,94.2967245 272.554913,95.9364162 L272.560694,95.9364162 Z" id="Path" fill="#EE6F57" fill-rule="nonzero"></path>
                    <polygon id="Rectangle" fill="#FFBE0F" fill-rule="nonzero" transform="translate(343.417437, 128.890428) rotate(1.350000) translate(-343.417437, -128.890428) " points="311.484874 125.893318 375.35 125.893318 375.35 131.887538 311.484874 131.887538"></polygon>
                    <polygon id="Rectangle" fill="#D3DFFF" fill-rule="nonzero" transform="translate(350.555742, 140.911464) rotate(1.145763) translate(-350.555742, -140.911464) " points="311.77053 137.913755 389.340953 137.913755 389.340953 143.909174 311.77053 143.909174"></polygon>
                    <polygon id="Rectangle" stroke="#FBE4A5" stroke-width="6" fill="#FFFFFF" fill-rule="nonzero" transform="translate(277.740978, 133.881200) rotate(1.350000) translate(-277.740978, -133.881200) " points="268.560824 124.701046 286.921133 124.701046 286.921133 143.061354 268.560824 143.061354"></polygon>
                    <path d="M271.763006,129.824663 C272.32948,131.99422 273.375723,141.082852 277.928709,138.541426 C278.978805,137.963391 279.867052,136.406551 280.651252,135.514451 C282.064226,133.912653 283.4772,132.307001 284.890173,130.697495 L293.368015,121.084778 C294.090559,120.263969 290.897881,118.194605 289.988439,119.235067 L282.462428,127.780347 L278.699422,132.052023 C277.828516,133.040462 275.809249,136.229287 274.524085,136.512524 L276.631985,137.192678 C277.127168,137.599229 276.206166,134.712909 276.184971,134.633911 C275.834297,133.29544 275.484265,131.955042 275.134875,130.612717 C274.845857,129.506744 271.350674,128.175337 271.780347,129.815029 L271.763006,129.824663 Z" id="Path" fill="#EE6F57" fill-rule="nonzero"></path>
                    <polygon id="Rectangle" fill="#FFBE0F" fill-rule="nonzero" transform="translate(349.472575, 162.422662) rotate(1.350000) translate(-349.472575, -162.422662) " points="310.695119 159.425552 388.250032 159.425552 388.250032 165.419772 310.695119 165.419772"></polygon>
                    <polygon id="Rectangle" fill="#D3DFFF" fill-rule="nonzero" transform="translate(327.737550, 174.984151) rotate(1.350000) translate(-327.737550, -174.984151) " points="310.395546 171.987041 345.079553 171.987041 345.079553 177.98126 310.395546 177.98126"></polygon>
                    <polygon id="Rectangle" stroke="#FBE4A5" stroke-width="6" fill="#FFFFFF" fill-rule="nonzero" transform="translate(276.953082, 167.250334) rotate(1.350000) translate(-276.953082, -167.250334) " points="267.772928 158.07018 286.133236 158.07018 286.133236 176.430488 267.772928 176.430488"></polygon>
                    <path d="M271.225434,163.431599 C271.791908,165.601156 272.840077,174.689788 277.391137,172.148362 C278.439306,171.570328 279.317919,170.013487 280.11368,169.121387 L284.352601,164.315992 L292.830443,154.701349 C293.552987,153.880539 290.358382,151.820809 289.450867,152.851638 L281.924855,161.396917 L278.16185,165.67052 C277.290944,166.65896 275.271676,169.845857 273.986513,170.129094 L276.092486,170.809249 C276.589595,171.2158 275.666667,168.32948 275.647399,168.250482 C275.296724,166.910726 274.946692,165.570328 274.597303,164.229287 C274.308285,163.123314 270.813102,161.791908 271.240848,163.431599 L271.225434,163.431599 Z" id="Path" fill="#EE6F57" fill-rule="nonzero"></path>
                    <polygon id="Rectangle" fill="#FFBE0F" fill-rule="nonzero" transform="translate(349.482254, 194.604913) rotate(1.145763) translate(-349.482254, -194.604913) " points="310.697043 191.607204 388.267466 191.607204 388.267466 197.602622 310.697043 197.602622"></polygon>
                    <polygon id="Rectangle" fill="#D3DFFF" fill-rule="nonzero" transform="translate(340.237262, 208.666238) rotate(1.350000) translate(-340.237262, -208.666238) " points="309.604314 205.669128 370.87021 205.669128 370.87021 211.663348 309.604314 211.663348"></polygon>
                    <polygon id="Rectangle" stroke="#FBE4A5" stroke-width="6" fill="#FFFFFF" fill-rule="nonzero" transform="translate(276.167111, 200.619513) rotate(1.350000) translate(-276.167111, -200.619513) " points="266.986957 191.439359 285.347266 191.439359 285.347266 209.799667 266.986957 209.799667"></polygon>
                    <path d="M270.445087,196.583815 C271.011561,198.753372 272.05973,207.840077 276.61079,205.298651 C277.65896,204.720617 278.549133,203.163776 279.333333,202.273603 L283.572254,197.456647 L292.050096,187.843931 C292.77264,187.023121 289.578035,184.953757 288.67052,185.99422 L281.144509,194.539499 L277.381503,198.811175 C276.510597,199.799615 274.491329,202.988439 273.206166,203.26975 L275.312139,203.949904 C275.809249,204.358382 274.88632,201.472062 274.867052,201.393064 C274.516378,200.052023 274.166346,198.711625 273.816956,197.371869 C273.527938,196.263969 270.032755,194.932563 270.460501,196.574181 L270.445087,196.583815 Z" id="Path" fill="#EE6F57" fill-rule="nonzero"></path>
                    <polygon id="Rectangle" fill="#FFBE0F" fill-rule="nonzero" transform="translate(324.507946, 228.357654) rotate(1.350000) translate(-324.507946, -228.357654) " points="309.137041 225.360544 339.878852 225.360544 339.878852 231.354764 309.137041 231.354764"></polygon>
                    <path d="M386.445087,239.884393 L308.911368,238.05973 L308.770713,244.052023 C338.766859,244.755299 376.961464,246.159923 384.753372,244.965318 C385.934489,243.618497 386.574181,241.967245 386.445087,239.884393 Z" id="Path" fill="#D3DFFF" fill-rule="nonzero"></path>
                    <polygon id="Rectangle" stroke="#FBE4A5" stroke-width="6" fill="#FFFFFF" fill-rule="nonzero" transform="translate(275.643142, 233.744407) rotate(1.350000) translate(-275.643142, -233.744407) " points="266.462987 224.564253 284.823296 224.564253 284.823296 242.924561 266.462987 242.924561"></polygon>
                    <path d="M269.672447,229.445087 C270.238921,231.614644 271.285164,240.701349 275.83815,238.159923 C276.888247,237.581888 277.776493,236.025048 278.56262,235.134875 L282.801541,230.327553 L291.267823,220.714836 C291.992293,219.8921 288.797688,217.824663 287.890173,218.863198 L280.364162,227.408478 C279.109184,228.834297 277.854207,230.258831 276.599229,231.682081 C275.73025,232.67052 273.709056,235.857418 272.423892,236.140655 L274.531792,236.820809 C275.028902,237.229287 274.105973,234.34104 274.084778,234.263969 C273.736673,232.922929 273.386641,231.582531 273.034682,230.242775 C272.745665,229.134875 269.252408,227.803468 269.680154,229.445087 L269.672447,229.445087 Z" id="Path" fill="#EE6F57" fill-rule="nonzero"></path>
                    <path d="M367.934489,28.3082852 L367.934489,46.628131 L294.331405,46.628131 L294.331405,28.3082852 C294.329977,25.5014028 295.444598,22.8091204 297.429672,20.8246628 C297.66585,20.5870522 297.915457,20.3631781 298.177264,20.1541426 C300.071053,18.5793304 302.45799,17.7200331 304.921002,17.7263969 C306.794227,17.7271924 308.643534,17.3056978 310.331405,16.4932563 C311.04571,16.1479135 311.726797,15.7377137 312.366089,15.2678227 C314.518624,13.67336 316.099727,11.4273831 316.874759,8.86319846 C318.477879,3.5990603 323.333393,0.00122456719 328.836224,-2.7381223e-15 L333.429672,-2.7381223e-15 C338.932503,0.00122456719 343.788017,3.5990603 345.391137,8.86319846 C346.167192,11.4279092 347.749693,13.6739524 349.903661,15.2678227 C350.542953,15.7377137 351.224039,16.1479135 351.938343,16.4932563 C353.626215,17.3056978 355.475522,17.7271924 357.348748,17.7263969 C363.189443,17.7348863 367.922146,22.4675897 367.930636,28.3082852 L367.934489,28.3082852 Z" id="Path" fill="#EE6F57" fill-rule="nonzero"></path>
                    <polygon id="Path" fill="#E4E4E4" fill-rule="nonzero" points="373.907514 37.6339114 373.907514 51.2524085 288.358382 51.2524085 288.358382 37.6339114 294.331407 37.6339114 294.331407 46.628131 367.934489 46.628131 367.934489 37.6339114"></polygon>
                    <ellipse id="Oval" fill="#FFFFFF" fill-rule="nonzero" cx="331.132948" cy="10.9807322" rx="6.52793834" ry="6.20423892"></ellipse>
                    <path d="M190.077071,96.7495183 C187.466281,96.256262 185.025048,91.894027 184.177264,90.22158 C183.968254,89.8124639 183.900506,89.3456813 183.984586,88.894027 L185.023121,83.3872832 C185.023121,83.3872832 187.420039,83.7938343 187.235067,86.9865125 C187.221193,87.3190793 187.278338,87.6507853 187.402697,87.9595376 L188.325626,90.3660886 L191.038536,88.265896 L189.55106,84.0635838 C189.55106,84.0635838 187.560694,84.61079 186.531792,84.283237 C184.412331,83.6088632 187.188825,81.9710983 188.063584,81.7880539 C188.938343,81.6050096 190.865125,80.9132948 191.739884,82.4007707 C192.614644,83.8882466 193.140655,84.7649326 193.140655,84.7649326 C193.140655,84.7649326 194.104046,81.4373796 193.447013,73.9980732 C193.416185,73.6628131 194.256262,73.6705202 194.491329,73.911368 C195.196532,74.628131 196.317919,76.8111753 196.377649,83.4508671 C196.377649,83.4508671 196.495183,75.7129094 197.822736,74.9171484 C198.917148,74.2601156 199.468208,78.0481696 198.697495,84.4701349 C198.697495,84.4701349 200.127168,78.9094412 201.148362,78.8998073 C202.882466,78.8824663 201.171484,93.7514451 196.836224,98.1830443 L190.077071,96.7495183 Z" id="Path" fill="#F9B384" fill-rule="nonzero"></path>
                    <path d="M198.265896,94.4739884 C198.188825,95.2138728 198.104046,95.9306358 198.011561,96.6242775 L198.011561,96.6242775 C197.747897,98.8266633 197.36714,101.013446 196.870906,103.175337 C196.847784,103.267823 196.83237,103.352601 196.809249,103.43738 C195.491329,108.83237 195.252408,111.483622 190.751445,110.774566 L186.127168,105.50289 L186.080925,105.44894 L185.741811,105.063584 L186.682081,102.289017 L186.805395,101.926782 L187.499037,99.9075145 L187.583815,99.6454721 L188.770713,96.177264 L189.248555,94.7668593 L198.265896,94.4739884 Z" id="Path" fill="#F9B384" fill-rule="nonzero"></path>
                    <path d="M112.208092,286.431599 L111.028902,290.117534 C102.936416,292.77264 98.2292871,295.815029 97.9267823,299.366089 L121.306358,299.366089 L123.179191,287.034682 C118.445087,288.183044 114.643545,287.379576 112.208092,286.431599 Z" id="Path" fill="#1F3C88" fill-rule="nonzero"></path>
                    <path d="M115.140655,277.263969 L112.208092,286.423892 C114.651252,287.371869 118.445087,288.175337 123.179191,287.019268 L124.38921,279.061657 L115.140655,277.263969 Z" id="Path" fill="#F9B384" fill-rule="nonzero"></path>
                    <path d="M155.105973,286.023121 L155.791908,276.693642 L144.809249,277.271676 L144.208092,285.872832 C148.863198,287.354528 152.705202,286.774566 155.105973,286.023121 Z" id="Path" fill="#F9B384" fill-rule="nonzero"></path>
                    <path d="M168.319846,299.366089 C168.017341,295.815029 163.888247,290.95183 154.83237,289.795761 L155.109827,286.023121 C152.705202,286.774566 148.863198,287.354528 144.211946,285.872832 L143.271676,299.360308 L168.319846,299.366089 Z" id="Path" fill="#1F3C88" fill-rule="nonzero"></path>
                    <polygon id="Path" fill="#F9B384" fill-rule="nonzero" points="146.208092 99.1445087 132.959538 99.2369942 132.959538 79.1984586 145.807322 79.1984586 145.815029 80.4238921 145.876686 86.7745665 145.969171 96.9710983"></polygon>
                    <path d="M145.876686,87.7379576 C143.495183,90.2427746 137.283237,87.4142582 134.662813,84.655106 L145.815029,81.3795761 L145.876686,87.7379576 Z" id="Path" fill="#E28B6D" fill-rule="nonzero"></path>
                    <path d="M148.95183,74.566474 C148.955165,76.0761534 148.839197,77.5837359 148.60501,79.0751445 C147.957611,83.1213873 146.246628,86.6050096 142.300578,86.7129094 C132.974952,86.982659 130.315992,81.6493256 128.558767,77.2870906 C126.801541,72.9248555 129.653179,62.4277457 129.653179,62.4277457 L141.722543,61.2331407 L148.350674,66.6666667 C148.762026,69.2796188 148.963057,71.9213647 148.95183,74.566474 Z" id="Path" fill="#F9B384" fill-rule="nonzero"></path>
                    <path d="M128.934489,74.7957611 C128.934489,74.7957611 131.595376,74.6743738 132.050096,67.8073218 C136.807322,69.3988439 140.283237,67.9479769 143.032755,64.77842 C145.38343,67.8824663 151.961464,68.8554913 154.183044,62.4990366 C155.789981,57.9075145 151.358382,51.0674374 144.903661,55.2100193 C138.578035,52.0134875 128.982659,52.2331407 126.213873,60.0732177 C126.213873,60.0732177 116.614644,64.504817 126.77842,74.2427746 C126.996146,74.4373796 128.934489,74.7957611 128.934489,74.7957611 Z" id="Path" fill="#102048" fill-rule="nonzero"></path>
                    <polygon id="Path" fill="#102048" fill-rule="nonzero" points="165.622351 171.163776 158.300578 281.895954 141.088632 281.895954 145.391137 174.445087 148.025048 173.225434"></polygon>
                    <polygon id="Path" fill="#1F3C88" fill-rule="nonzero" points="120.791908 156.013487 108.71869 281.895954 127.472062 281.895954 145.327553 177.33526 165.622351 171.169557 166.522158 148.818882 121.306358 147.791908"></polygon>
                    <path d="M123.483622,156.287091 C133.728324,159.965318 157.761079,155.763006 162.751445,150.639692 L159.206166,143.545279 L119.676301,148.801541 L123.483622,156.287091 Z" id="Path" fill="#102048" fill-rule="nonzero" opacity="0.6"></path>
                    <path d="M161.830443,148.94027 C161.499037,149.078998 161.159923,149.225434 160.813102,149.356455 C156.667256,151.040543 152.368601,152.320719 147.976879,153.179191 C145.137091,153.742147 142.259678,154.095061 139.368015,154.235067 C134.833082,154.489145 130.284715,154.120919 125.849711,153.140655 L131.591522,99.6069364 L132.289017,93.0635838 C132.289017,93.0635838 139.803468,102.312139 148.088632,92.1001927 L161.830443,148.94027 Z" id="Path" fill="#FFFFFF" fill-rule="nonzero"></path>
                    <path d="M139.364162,154.22736 C134.829228,154.481438 130.280862,154.113212 125.845857,153.132948 L131.587669,99.5992293 L133.637765,96.6358382 C138.701349,108.95183 143.888247,136.223507 139.364162,154.22736 Z" id="Path" fill-opacity="0.5" fill="#FFBE0F" fill-rule="nonzero" opacity="0.3"></path>
                    <path d="M132.963391,90.9441233 C138.672447,115.183044 141.021195,140.125241 132.608863,167.822736 C126.371869,170.194605 119.581888,170.16763 112.314066,168.078998 L114.111753,117.726397 L71.7880539,146.820809 L69.2177264,130.957611 C85.4894027,115.414258 113.618497,91.9075145 132.963391,90.9441233 Z" id="Path" fill="#FFBE0F" fill-rule="nonzero"></path>
                    <path d="M160.813102,149.348748 C156.667527,151.035467 152.368866,152.318225 147.976879,153.179191 C145.421965,138.535645 144.859345,114.512524 146.932563,103.660886 L160.813102,149.348748 Z" id="Path" fill-opacity="0.5" fill="#FFBE0F" fill-rule="nonzero" opacity="0.3"></path>
                    <path d="M196.867052,103.190751 C196.843931,103.283237 196.828516,103.368015 196.805395,103.452794 C195.487476,108.847784 195.248555,111.499037 190.747592,110.789981 L186.123314,105.518304 L186.077071,105.464355 L186.678227,102.304432 L186.801541,101.942197 L187.495183,99.9229287 L187.579961,99.6608863 L196.867052,103.190751 Z" id="Path" fill="#E28B6D" fill-rule="nonzero" opacity="0.6"></path>
                    <path d="M196.065511,108.092486 C196.065511,108.092486 184.697495,132.177264 177.953757,132.755299 C171.416185,133.315992 168.319846,126.974952 168.319846,126.974952 L172.944123,162.17341 C167.510597,164.716763 161.576108,165.957611 154.701349,164.739884 C148.589595,144.894027 146.279383,119.233141 145.824663,90.655106 C150.77264,90.9633911 160.572254,91.3853565 164.080925,93.6416185 C170.373796,97.6878613 178.146435,112.138728 178.146435,112.138728 L187.202312,99.8073218 L196.065511,108.092486 Z" id="Path" fill="#FFBE0F" fill-rule="nonzero"></path>
                    <path d="M57.4797688,74.1637765 C57.4797688,74.1637765 58.1676301,62.6435453 59.3410405,63.1811175 C60.5144509,63.7186898 62.8651252,73.743738 62.8651252,73.743738 L60.3603083,77.8015414 L57.4797688,74.1637765 Z" id="Path" fill="#6F3428" fill-rule="nonzero"></path>
                    <path d="M92.0770713,282.217726 L92.416185,286.009634 C92.7077924,289.225732 91.7091746,292.425864 89.6402336,294.905341 C87.5712926,297.384818 84.6016919,298.940309 81.3853565,299.229287 L80.4104046,299.315992 C73.7165249,299.917613 67.8022876,294.979018 67.2003854,288.285164 L66.8593449,284.483622 L92.0770713,282.217726 Z" id="Path" fill="#EE6F57" fill-rule="nonzero"></path>
                    <polygon id="Rectangle" fill="#FBC343" fill-rule="nonzero" transform="translate(71.207814, 191.548596) rotate(-5.130000) translate(-71.207814, -191.548596) " points="58.5488546 99.3713316 83.8667737 99.3713316 83.8667737 283.72586 58.5488546 283.72586"></polygon>
                    <polygon id="Rectangle" stroke="#6F3428" stroke-width="8" opacity="0.3" transform="translate(69.855904, 176.530189) rotate(-5.130000) translate(-69.855904, -176.530189) " points="65.3597571 95.7334645 74.35205 95.7334645 74.35205 257.326913 65.3597571 257.326913"></polygon>
                    <polygon id="Path" fill="#102048" fill-rule="nonzero" points="92.0732177 282.219653 66.8631985 284.485549 66.2003854 277.086705 65.7379576 271.94605 64.3121387 256.146435 89.5298651 253.880539 90.9479769 269.680154 91.4104046 274.820809"></polygon>
                    <polygon id="Rectangle" fill="#FBC343" fill-rule="nonzero" transform="translate(78.591670, 273.376724) rotate(-5.140000) translate(-78.591670, -273.376724) " points="65.9356008 270.795799 91.2477396 270.795799 91.2477396 275.957649 65.9356008 275.957649"></polygon>
                    <path d="M50.3603083,100.868979 L57.3641618,72.7957611 C57.3641618,72.7957611 59.7822736,73.8689788 62.7148362,72.0578035 L75.5780347,98.6030829 L50.3603083,100.868979 Z" id="Path" fill="#EE6F57" fill-rule="nonzero"></path>
                    <path d="M130.32948,73.6339114 C130.2158,73.2196532 128.33526,72.6512524 127.921002,72.5375723 C127.279383,72.3603083 126.572254,72.2716763 125.953757,72.5549133 C123.678227,73.583815 123.982659,76.8420039 125.16185,78.5549133 C125.824504,79.5351614 126.805244,80.2565939 127.938343,80.5973025 C128.350674,80.7148362 132.265896,80.7630058 132.094412,80.132948 C132.100193,80.1310212 130.333333,73.6493256 130.32948,73.6339114 Z" id="Path" fill="#F9B384" fill-rule="nonzero"></path>
                    <path d="M58.6859345,139.11368 C58.4187364,138.223622 57.8016026,137.480197 56.9759316,137.053739 C56.1502605,136.627282 55.1868214,136.554344 54.3063584,136.851638 C51.4450867,137.849711 48.9402697,139.529865 48.5549133,142.38921 C48.2023121,144.992293 49.5028902,153.306358 55.3198459,154.375723 L54.8420039,150.096339 C54.8420039,150.096339 58.4026975,149.265896 59.1156069,147.722543 C59.6127168,146.649326 59.6473988,142.138728 58.6859345,139.11368 Z" id="Path" fill="#F9B384" fill-rule="nonzero"></path>
                    <path d="M166.541426,110.524085 C166.847784,112.342967 167.1079,114.16763 167.358382,115.99422 C167.608863,117.820809 167.822736,119.655106 168.055877,121.479769 L168.653179,126.974952 C168.828516,128.811175 168.998073,130.635838 169.111753,132.489403 L168.811175,132.524085 C168.49711,130.705202 168.233141,128.880539 167.984586,127.05395 L167.298651,121.568401 C167.105973,119.734104 166.880539,117.907514 166.720617,116.069364 C166.560694,114.231214 166.375723,112.408478 166.252408,110.558767 L166.541426,110.524085 Z" id="Path" fill="#1F3C88" fill-rule="nonzero"></path>
                    <path d="M114.712909,110.22736 C114.712909,112.26975 114.65896,114.312139 114.597303,116.352601 C114.535645,118.393064 114.441233,120.433526 114.366089,122.472062 L114.030829,128.587669 C113.894027,130.626204 113.755299,132.662813 113.55684,134.697495 L113.256262,134.682081 C113.256262,132.637765 113.302505,130.597303 113.358382,128.55684 L113.603083,122.43738 C113.720617,120.398844 113.807322,118.358382 113.947977,116.321773 C114.088632,114.285164 114.223507,112.246628 114.412331,110.211946 L114.712909,110.22736 Z" id="Path" fill="#1F3C88" fill-rule="nonzero"></path>
                    <path d="M139.691715,73.4431599 C139.855491,74.1695568 139.55684,74.8554913 139.023121,74.9749518 C138.489403,75.0944123 137.928709,74.6011561 137.764933,73.8747592 C137.601156,73.1483622 137.901734,72.4624277 138.433526,72.3333333 C138.965318,72.2042389 139.520231,72.716763 139.691715,73.4431599 Z" id="Path" fill="#102048" fill-rule="nonzero"></path>
                    <path d="M147.364162,72.5452794 C147.333333,73.2890173 146.865125,73.8728324 146.321773,73.849711 C145.77842,73.8265896 145.358382,73.2061657 145.391137,72.460501 C145.423892,71.7148362 145.890173,71.132948 146.435453,71.1560694 C146.980732,71.1791908 147.398844,71.7996146 147.364162,72.5452794 Z" id="Path" fill="#102048" fill-rule="nonzero"></path>
                    <path d="M143.080925,73.1541426 C143.344894,73.7919075 143.304432,74.477842 143.466281,75 C143.533113,75.2426768 143.661931,75.4637916 143.840077,75.6416185 C144.059164,75.7997704 144.303471,75.919644 144.56262,75.9961464 C144.927124,76.1323651 145.244347,76.3712863 145.475915,76.6840077 C145.745047,77.0524225 145.781649,77.541693 145.570328,77.9460501 C145.380132,78.2535631 145.122517,78.5138139 144.816956,78.7071291 C144.552987,78.8863198 144.298651,79.0751445 144.023121,79.2427746 L143.830443,79.0154143 C144.023121,78.7668593 144.256262,78.539499 144.468208,78.3025048 C144.67224,78.1182973 144.840734,77.8982101 144.965318,77.6531792 C145.129094,77.2967245 144.77264,76.9055877 144.273603,76.7052023 C144.013487,76.5857418 143.637765,76.4816956 143.333333,76.1714836 C143.068411,75.8902594 142.896233,75.5344687 142.840077,75.1522158 C142.712909,74.4393064 142.857418,73.8285164 142.788054,73.2254335 L143.080925,73.1541426 Z" id="Path" fill="#E28B6D" fill-rule="nonzero"></path>
                    <path d="M136.00578,71.4836224 C136.129957,71.0084942 136.406013,70.5869677 136.791908,70.283237 C137.190001,69.9644967 137.679315,69.7809195 138.188825,69.7591522 C139.196517,69.7008812 140.146001,70.2343072 140.620424,71.1252408 L140.38343,71.3179191 C139.781214,70.8076087 139.016709,70.5288615 138.22736,70.5317919 C137.444531,70.5702846 136.724337,70.9713417 136.279383,71.6165703 L136.00578,71.4836224 Z" id="Path" fill="#102048" fill-rule="nonzero"></path>
                    <path d="M143.959538,70.5472062 C144.077127,70.1775869 144.285077,69.8431457 144.564547,69.5741811 C144.864884,69.2853005 145.247101,69.096211 145.65896,69.0327553 C146.487476,68.8959538 147.377649,69.3179191 147.703276,70.0520231 L147.462428,70.2331407 C146.972924,69.8825565 146.371054,69.7253978 145.77264,69.7919075 C145.487295,69.8347065 145.213431,69.9342935 144.967245,70.0847784 C144.700057,70.2674601 144.44985,70.4738157 144.219653,70.7013487 L143.959538,70.5472062 Z" id="Path" fill="#102048" fill-rule="nonzero"></path>
                    <path d="M139.691715,80.6184971 C141.040462,82.7244701 142.830443,82.9537572 144.213873,80.7379576 L139.691715,80.6184971 Z" id="Path" fill="#FFFFFF" fill-rule="nonzero"></path>
                    <path d="M148.986513,74.0597303 C148.977008,75.7411101 148.848232,77.4196974 148.601156,79.0828516 C147.642981,78.7759874 146.993233,77.884726 146.994219,76.8786127 C146.994219,75.7071291 147.884393,74.2369942 148.986513,74.0597303 Z" id="Path" fill="#FC8879" fill-rule="nonzero" opacity="0.4"></path>
                    <circle id="Oval" fill="#FC8879" fill-rule="nonzero" opacity="0.4" cx="136.412331" cy="78.2485549" r="2.48554913"></circle>
                    <path d="M128.709056,76.1078998 C128.26603,75.7724871 127.801303,75.4667459 127.317919,75.1926782 C127.131068,75.0871973 126.919762,75.0327097 126.705202,75.0346821 C126.46954,75.0749773 126.24842,75.1759087 126.063584,75.327553 L125.811175,75.1657033 C125.91729,74.8022464 126.188666,74.5101597 126.543353,74.3776493 C126.917243,74.2664792 127.320338,74.3131241 127.65896,74.5067437 C128.237735,74.8195788 128.692455,75.3205191 128.947977,75.9267823 L128.709056,76.1078998 Z" id="Path" fill="#E28B6D" fill-rule="nonzero"></path>
                    <path d="M59.1156069,147.728324 L55.5375723,158.597303 L54.7996146,150.096339 C57.0327553,149.620424 58.2369942,148.73025 59.1156069,147.728324 Z" id="Path" fill="#6F3428" fill-rule="nonzero" opacity="0.6"></path>
                    <line x1="0" y1="299.435453" x2="498.240848" y2="299.435453" id="Path" stroke="#102048" stroke-width="8"></line>
                </g>
            </g>
        </g>
    </g>
</svg>