<?xml version="1.0" encoding="UTF-8"?>
<svg width="69px" height="41px" viewBox="0 0 69 41" version="1.1" xmlns="http://www.w3.org/2000/svg" xmlns:xlink="http://www.w3.org/1999/xlink">
    <title>matrix-mlm</title>
    <g id="Page-1" stroke="none" stroke-width="1" fill="none" fill-rule="evenodd">
        <g id="4a.-business-plan" transform="translate(-799.000000, -2379.000000)">
            <g id="Group-25" transform="translate(108.000000, 2350.000000)">
                <g id="Group-19-Copy-2" transform="translate(600.000000, 0.000000)">
                    <g id="Group-18" transform="translate(13.000000, 29.000000)">
                        <g id="matrix-mlm" transform="translate(78.000000, 0.000000)">
                            <line x1="50.2677308" y1="6.4222038" x2="48.1020302" y2="39.0103204" id="Line" stroke="#FBE4A5" stroke-linecap="square" transform="translate(49.184881, 22.716262) rotate(-45.000000) translate(-49.184881, -22.716262) "></line>
                            <line x1="34.5" y1="7.5" x2="34.5" y2="34.5" id="Line" stroke="#FBE4A5" stroke-linecap="square"></line>
                            <line x1="18.7573593" y1="5.94974747" x2="20.1715729" y2="38.5771645" id="Line-Copy" stroke="#FBE4A5" stroke-linecap="square" transform="translate(19.257359, 22.449747) rotate(45.000000) translate(-19.257359, -22.449747) "></line>
                            <circle id="Oval-Copy-3" fill="#FFBE0F" cx="2.5" cy="38.5" r="2.5"></circle>
                            <circle id="Oval-Copy-7" fill="#FFBE0F" cx="28.5" cy="38.5" r="2.5"></circle>
                            <circle id="Oval-Copy-10" fill="#FFBE0F" cx="54.5" cy="38.5" r="2.5"></circle>
                            <circle id="Oval-Copy-5" fill="#FFBE0F" cx="8.5" cy="38.5" r="2.5"></circle>
                            <circle id="Oval-Copy-8" fill="#FFBE0F" cx="34.5" cy="38.5" r="2.5"></circle>
                            <circle id="Oval-Copy-11" fill="#FFBE0F" cx="60.5" cy="38.5" r="2.5"></circle>
                            <circle id="Oval-Copy-6" fill="#FFBE0F" cx="14.5" cy="38.5" r="2.5"></circle>
                            <circle id="Oval-Copy-9" fill="#FFBE0F" cx="40.5" cy="38.5" r="2.5"></circle>
                            <circle id="Oval-Copy-12" fill="#FFBE0F" cx="66.5" cy="38.5" r="2.5"></circle>
                            <circle id="Oval" fill="#FFBE0F" cx="34.5" cy="7.5" r="7.5"></circle>
                            <circle id="Oval-Copy" fill="#FFBE0F" cx="52.5" cy="25.5" r="7.5"></circle>
                            <circle id="Oval-Copy-4" fill="#FFBE0F" cx="34.5" cy="25.5" r="7.5"></circle>
                            <circle id="Oval-Copy-2" fill="#FFBE0F" cx="16.5" cy="25.5" r="7.5"></circle>
                        </g>
                    </g>
                </g>
            </g>
        </g>
    </g>
</svg>