<?xml version="1.0" encoding="UTF-8"?>
<svg width="65px" height="54px" viewBox="0 0 65 54" version="1.1" xmlns="http://www.w3.org/2000/svg" xmlns:xlink="http://www.w3.org/1999/xlink">
    <title>party-mlm</title>
    <g id="Page-1" stroke="none" stroke-width="1" fill="none" fill-rule="evenodd">
        <g id="4a.-business-plan" transform="translate(-1100.000000, -2367.000000)">
            <g id="Group-25" transform="translate(108.000000, 2350.000000)">
                <g id="Group-19-Copy-3" transform="translate(900.000000, 0.000000)">
                    <g id="Group-18" transform="translate(13.000000, 17.991458)">
                        <g id="party-mlm" transform="translate(111.502136, 26.502136) rotate(-270.000000) translate(-111.502136, -26.502136) translate(85.000000, -5.497864)">
                            <line x1="38.5032034" y1="30.5" x2="38.5032034" y2="50.5" id="Line" stroke="#FBE4A5" stroke-linecap="square" transform="translate(38.503203, 40.500000) rotate(-45.000000) translate(-38.503203, -40.500000) "></line>
                            <line x1="14.5010678" y1="30.5" x2="14.5010678" y2="50.5" id="Line-Copy" stroke="#FBE4A5" stroke-linecap="square" transform="translate(14.501068, 40.500000) rotate(45.000000) translate(-14.501068, -40.500000) "></line>
                            <line x1="26.5" y1="31" x2="26.5" y2="51" id="Line-Copy-2" stroke="#FBE4A5" stroke-linecap="square"></line>
                            <circle id="Oval-Copy" fill="#FFBE0F" cx="45.5042712" cy="48.5" r="7.5"></circle>
                            <circle id="Oval-Copy-2" fill="#FFBE0F" cx="7.5" cy="48.5" r="7.5"></circle>
                            <circle id="Oval-Copy-13" fill="#FFBE0F" cx="26.5" cy="56.5" r="7.5"></circle>
                            <line x1="38.5032034" y1="10.5" x2="38.5032034" y2="30.5" id="Line" stroke="#FBE4A5" stroke-linecap="square" transform="translate(38.503203, 20.500000) scale(1, -1) rotate(-45.000000) translate(-38.503203, -20.500000) "></line>
                            <circle id="Oval-Copy-14" fill="#FFBE0F" cx="45.5042712" cy="13.5" r="7.5"></circle>
                            <line x1="14.5010678" y1="10.5" x2="14.5010678" y2="30.5" id="Line-Copy" stroke="#FBE4A5" stroke-linecap="square" transform="translate(14.501068, 20.500000) scale(1, -1) rotate(45.000000) translate(-14.501068, -20.500000) "></line>
                            <circle id="Oval-Copy-16" fill="#FFBE0F" cx="7.50427125" cy="13.5" r="7.5"></circle>
                            <line x1="26.5" y1="11" x2="26.5" y2="31" id="Line-Copy-2" stroke="#FBE4A5" stroke-linecap="square" transform="translate(26.500000, 21.000000) scale(1, -1) translate(-26.500000, -21.000000) "></line>
                            <circle id="Oval-Copy-15" fill="#FFBE0F" cx="26.5042712" cy="7.5" r="7.5"></circle>
                            <circle id="Oval" fill="#FFBE0F" cx="26.5" cy="30.5" r="7.5"></circle>
                            <circle id="Oval-Copy-13" fill="#FFBE0F" cx="26.5" cy="56.5" r="7.5"></circle>
                        </g>
                    </g>
                </g>
            </g>
        </g>
    </g>
</svg>