<?xml version="1.0" encoding="UTF-8"?>
<svg width="74px" height="75px" viewBox="0 0 74 75" version="1.1" xmlns="http://www.w3.org/2000/svg" xmlns:xlink="http://www.w3.org/1999/xlink">
    <title>produk-service</title>
    <g id="Page-1" stroke="none" stroke-width="1" fill="none" fill-rule="evenodd">
        <g id="4a.-business-plan" transform="translate(-796.000000, -929.000000)" fill-rule="nonzero">
            <g id="Group-6" transform="translate(708.000000, 850.000000)">
                <g id="Group-8" transform="translate(65.000000, 79.000000)">
                    <g id="produk-service" transform="translate(23.000000, 0.000000)">
                        <polygon id="Path" fill="#FFC431" points="73.7288136 75 62.2881356 16.5254237 11.440678 16.5254237 0 75"></polygon>
                        <polygon id="Path" fill="#FFA100" points="30.5084746 75 0 75 0.387711864 73.0217161 11.440678 16.5254237 19.0677966 16.5254237 30.1207627 73.0217161"></polygon>
                        <polygon id="Path" fill="#F78E00" points="30.5084746 75 28.5222458 75 15.2542373 63.9422669 1.98622881 75 0 75 0.387711864 73.0217161 13.9830508 61.6922669 13.9830508 48.3050847 16.5254237 48.3050847 16.5254237 61.6922669 30.1207627 73.0217161"></polygon>
                        <polygon id="Path" fill="#F78E00" points="13.9830508 16.5254237 16.5254237 16.5254237 16.5254237 39.4067797 13.9830508 39.4067797"></polygon>
                        <polygon id="Path" fill="#F78E00" points="13.9830508 41.9491525 16.5254237 41.9491525 16.5254237 44.4915254 13.9830508 44.4915254"></polygon>
                        <g id="Group" transform="translate(35.593220, 35.593220)" fill="#FFE28F">
                            <circle id="Oval" cx="12.7118644" cy="5.08474576" r="5.08474576"></circle>
                            <polygon id="Path" points="2.54237288 15.2542373 8.89830508 15.2542373 8.89830508 17.7966102 2.54237288 17.7966102"></polygon>
                            <polygon id="Path" points="11.440678 15.2542373 24.1525424 15.2542373 24.1525424 17.7966102 11.440678 17.7966102"></polygon>
                            <polygon id="Path" points="0 20.3389831 15.2542373 20.3389831 15.2542373 22.8813559 0 22.8813559"></polygon>
                            <polygon id="Path" points="17.7966102 20.3389831 27.9661017 20.3389831 27.9661017 22.8813559 17.7966102 22.8813559"></polygon>
                        </g>
                        <path d="M45.7627119,16.5254237 L43.220339,16.5254237 L43.220339,8.89830508 C43.220339,5.38802066 40.3746912,2.54237288 36.8644068,2.54237288 C33.3541224,2.54237288 30.5084746,5.38802066 30.5084746,8.89830508 L30.5084746,16.5254237 L27.9661017,16.5254237 L27.9661017,8.89830508 C27.9661017,3.98390689 31.9500086,-1.12904036e-15 36.8644068,-1.12904036e-15 C41.778805,-1.12904036e-15 45.7627119,3.98390689 45.7627119,8.89830508 L45.7627119,16.5254237 Z" id="Path" fill="#FFCC4D"></path>
                        <path d="M52.1186441,26.6949153 L49.5762712,26.6949153 L49.5762712,8.89830508 C49.5762712,5.38802066 46.7306234,2.54237288 43.220339,2.54237288 C39.7100546,2.54237288 36.8644068,5.38802066 36.8644068,8.89830508 L36.8644068,26.6949153 L34.3220339,26.6949153 L34.3220339,8.89830508 C34.3220339,3.98390689 38.3059408,0 43.220339,0 C48.1347372,0 52.1186441,3.98390689 52.1186441,8.89830508 L52.1186441,26.6949153 Z" id="Path" fill="#FFE28F"></path>
                        <polygon id="Path" fill="#FFA100" points="31.779661 25.4237288 39.4067797 25.4237288 39.4067797 27.9661017 31.779661 27.9661017"></polygon>
                        <polygon id="Path" fill="#FFA100" points="47.0338983 25.4237288 54.6610169 25.4237288 54.6610169 27.9661017 47.0338983 27.9661017"></polygon>
                    </g>
                </g>
            </g>
        </g>
    </g>
</svg>