<?xml version="1.0" encoding="UTF-8"?>
<svg width="75px" height="56px" viewBox="0 0 75 56" version="1.1" xmlns="http://www.w3.org/2000/svg" xmlns:xlink="http://www.w3.org/1999/xlink">
    <title>product-cost</title>
    <g id="Page-1" stroke="none" stroke-width="1" fill="none" fill-rule="evenodd">
        <g id="4a.-business-plan" transform="translate(-1071.000000, -949.000000)" fill-rule="nonzero">
            <g id="Group-6" transform="translate(983.000000, 850.000000)">
                <g id="product-cost" transform="translate(88.000000, 99.000000)">
                    <polygon id="Path" fill="#4ABBA4" points="13.1061573 0 75 0 75 36.8377119 13.1061573 36.8377119"></polygon>
                    <path d="M65.3846379,4.59981964 L22.72196,4.59981964 C22.72196,7.13451726 20.6672011,9.18927947 18.1325018,9.18927947 L18.1325018,27.6488452 C20.6672011,27.6488452 22.72196,29.7036041 22.72196,32.2383033 L65.3846379,32.2383033 C65.3846379,29.7036041 67.4394035,27.6488452 69.9740961,27.6488452 L69.9740961,9.18927947 C67.4394035,9.18927947 65.3846379,7.13451726 65.3846379,4.59981964 Z" id="Path" fill="#338270"></path>
                    <g id="Group" transform="translate(24.482419, 9.298918)" fill="#41A38E">
                        <ellipse id="Oval" cx="19.570909" cy="9.12001084" rx="7.10760594" ry="9.12001084"></ellipse>
                        <path d="M35.9091967,5.88764653 C34.124003,5.88764653 32.6768163,7.33487949 32.6768163,9.12011953 C32.6768163,10.9054059 34.124003,12.3526388 35.9091967,12.3526388 C37.6944831,12.3526388 39.1417623,10.9054059 39.1417623,9.12011953 C39.1417623,7.33487949 37.6944831,5.88764653 35.9091967,5.88764653 L35.9091967,5.88764653 Z" id="Path"></path>
                        <path d="M3.23238036,5.88764653 C1.44718334,5.88764653 -6.16336071e-15,7.33487949 -6.16336071e-15,9.12011953 C-6.16336071e-15,10.9054059 1.44718334,12.3526388 3.23238036,12.3526388 C5.01766672,12.3526388 6.46494599,10.9054059 6.46494599,9.12011953 C6.46494599,7.33487949 5.01766672,5.88764653 3.23238036,5.88764653 L3.23238036,5.88764653 Z" id="Path"></path>
                    </g>
                    <polygon id="Path" fill="#4ABBA4" points="1.54084018e-15 18.418856 61.8938427 18.418856 61.8938427 55.2565679 0 55.2565679"></polygon>
                    <path d="M52.2784793,23.0186739 L9.61580478,23.0186739 C9.61580478,25.5533732 7.56104257,27.6081321 5.02634495,27.6081321 L5.02634495,46.0677011 C7.56104257,46.0677011 9.61580478,48.12246 9.61580478,50.6571593 L52.2784793,50.6571593 C52.2784793,48.12246 54.3332448,46.0677011 56.8679441,46.0677011 L56.8679441,27.6081321 C54.3332449,27.6081321 52.2784793,25.5533732 52.2784793,23.0186739 L52.2784793,23.0186739 Z" id="Path" fill="#338270"></path>
                    <g id="Group" transform="translate(11.376263, 27.717627)" fill="#4ABBA4">
                        <ellipse id="Oval" cx="19.571279" cy="9.12001084" rx="7.10760594" ry="9.12001084"></ellipse>
                        <path d="M35.909195,5.88779313 C34.1240012,5.88779313 32.676818,7.33502608 32.676818,9.12026612 C32.676818,10.9055525 34.1240013,12.3527854 35.909195,12.3527854 C37.6944813,12.3527854 39.1417606,10.9055525 39.1417606,9.12026612 C39.1417606,7.33502608 37.6944814,5.88779313 35.909195,5.88779313 Z" id="Path"></path>
                        <path d="M3.23237871,5.88779313 C1.44718499,5.88779313 -3.08168036e-15,7.33502608 -3.08168036e-15,9.12026612 C-3.08168036e-15,10.9055525 1.44718499,12.3527854 3.23237871,12.3527854 C5.01766672,12.3527854 6.46494435,10.9055525 6.46494435,9.12026612 C6.46494435,7.33502608 5.01766672,5.88779313 3.23237871,5.88779313 Z" id="Path"></path>
                    </g>
                </g>
            </g>
        </g>
    </g>
</svg>