<?xml version="1.0" encoding="UTF-8"?>
<svg width="75px" height="75px" viewBox="0 0 75 75" version="1.1" xmlns="http://www.w3.org/2000/svg" xmlns:xlink="http://www.w3.org/1999/xlink">
    <title>training-marketing</title>
    <g id="Page-1" stroke="none" stroke-width="1" fill="none" fill-rule="evenodd">
        <g id="4a.-business-plan" transform="translate(-1071.000000, -1254.000000)" fill-rule="nonzero">
            <g id="Group-6" transform="translate(983.000000, 1175.000000)">
                <g id="Group-7" transform="translate(50.000000, 79.000000)">
                    <g id="training-marketing" transform="translate(38.000000, 0.000000)">
                        <path d="M73.6363061,34.8006175 L54.1342927,34.8006175 C53.5083662,34.8006175 52.966668,34.3698078 52.8215022,33.7608734 C51.4533408,28.0261676 46.9203905,23.5074263 41.1779211,22.1596262 C40.5666429,22.0160717 40.1331965,21.4734947 40.1331965,20.8456638 L40.1331965,1.35097466 C40.1331965,0.54589808 40.832658,-0.0769522885 41.6331965,0.00771551791 C50.1516831,0.91049699 58.0452715,4.66356596 64.1889609,10.805644 C70.3152187,16.9335131 74.0657974,24.804543 74.9794187,33.2987161 C75.0654049,34.0999841 74.4421151,34.8006175 73.6363061,34.8006175 Z" id="Path" fill="#FF7258"></path>
                        <path d="M40.1331965,20.8458103 L40.1331965,16.8324391 C49.521948,17.9924467 56.9684669,25.4206551 58.1573319,34.8009105 L54.1344392,34.8009105 C53.5085126,34.8009105 52.9668145,34.3701008 52.8216487,33.7611664 C51.4534873,28.0264606 46.920537,23.5077193 41.1780675,22.1599191 C40.5666429,22.0163647 40.1331965,21.4736411 40.1331965,20.8458103 Z" id="Path" fill="#F95D48"></path>
                        <path d="M74.9924558,41.3650093 C74.2412854,48.5611869 71.4558903,55.3133712 66.9160553,60.9423155 C66.4100992,61.5694139 65.4740659,61.6244919 64.9043892,61.0546688 L53.9861973,50.1364768 L51.1133512,47.2636308 C50.668772,46.8190515 50.5934792,46.1288185 50.9238008,45.5938586 C51.8032913,44.1700332 52.4605654,42.5953292 52.8477229,40.9179398 C52.9895195,40.3035855 53.5329755,39.8666234 54.163443,39.8666234 L73.6493432,39.8666234 C74.4536873,39.8666234 75.0760982,40.5649131 74.9924558,41.3650093 Z" id="Path" fill="#FFDC65"></path>
                        <path d="M58.1823806,39.866477 C57.7348717,43.7080223 56.2386832,47.2287675 53.9861973,50.1364768 L51.1133512,47.2636308 C50.668772,46.8190515 50.5934792,46.1288185 50.9238008,45.5938586 C51.8032913,44.1700332 52.4605654,42.5953292 52.8477229,40.9179398 C52.9895195,40.3035855 53.5329755,39.8666235 54.163443,39.8666235 L58.1823806,39.8666235 L58.1823806,39.866477 Z" id="Path" fill="#FFC846"></path>
                        <path d="M61.3287125,64.6435291 C61.8976567,65.2124733 61.843897,66.1466024 61.2188494,66.6529979 C54.5510399,72.0556242 46.3023741,74.9942416 37.6001935,74.9942416 C27.558123,74.9942416 18.1156118,71.081798 11.013184,63.9812745 C3.95089284,56.9191298 0.0443085319,47.5429759 0,37.5644794 C-0.0437284086,27.5433561 3.92716241,17.8916656 11.0133305,10.805644 C17.1559945,4.66298003 25.0506082,0.909911053 33.5702696,0.00771551791 C34.3696333,-0.0768058044 35.0671906,0.547655889 35.0671906,1.35141411 L35.0671906,20.8458103 C35.0671906,21.474813 34.6319863,22.0168042 34.0195363,22.1606515 C27.1107605,23.7836953 21.9517372,29.9963787 21.9517372,37.3944114 C21.9517372,46.0214456 28.971255,53.0425747 37.5999006,53.0425747 C40.6337326,53.0425747 43.4677604,52.1737776 45.8684882,50.6734875 C46.4038876,50.3389178 47.0977827,50.4130388 47.5441198,50.8593758 L61.3287125,64.6435291 Z" id="Path" fill="#00ABE0"></path>
                        <path d="M47.5445592,50.8593758 L50.4234111,53.7382277 C46.8886035,56.5302145 42.4206921,58.1983754 37.5643049,58.1994013 C26.0628133,58.201891 16.8274306,48.9943403 16.7968864,37.4929952 C16.768544,26.8446269 24.7572006,18.0552883 35.06763,16.8221852 L35.06763,20.8456638 C35.06763,21.4746665 34.6324258,22.0166577 34.0201223,22.1605051 C27.1113465,23.7835488 21.9523232,29.9962322 21.9523232,37.3942649 C21.9523232,46.0212991 28.9718409,53.0424283 37.6004865,53.0424283 C40.6343186,53.0424283 43.4683463,52.1736311 45.8690742,50.673341 C46.404327,50.3389178 47.0980757,50.4130388 47.5445592,50.8593758 Z" id="Path" fill="#099DD1"></path>
                    </g>
                </g>
            </g>
        </g>
    </g>
</svg>